<svg width="475" height="183" viewBox="0 0 475 183" fill="none" xmlns="http://www.w3.org/2000/svg">
<path d="M283 57.5H374C376.485 57.5 378.5 59.5147 378.5 62V162C378.5 164.485 376.485 166.5 374 166.5H283C280.515 166.5 278.5 164.485 278.5 162V62C278.5 59.5147 280.515 57.5 283 57.5Z" fill="#CEECDC" stroke="black"/>
<path d="M327.654 101.129H326.103C326.044 100.798 325.933 100.506 325.77 100.254C325.608 100.002 325.409 99.7886 325.174 99.6129C324.938 99.4373 324.675 99.3047 324.383 99.2152C324.095 99.1257 323.788 99.081 323.463 99.081C322.877 99.081 322.351 99.2285 321.887 99.5234C321.427 99.8184 321.062 100.251 320.794 100.821C320.528 101.391 320.396 102.087 320.396 102.909C320.396 103.738 320.528 104.437 320.794 105.007C321.062 105.577 321.428 106.008 321.892 106.3C322.356 106.591 322.878 106.737 323.458 106.737C323.78 106.737 324.085 106.694 324.373 106.608C324.665 106.518 324.928 106.388 325.164 106.215C325.399 106.043 325.598 105.832 325.76 105.584C325.926 105.332 326.04 105.044 326.103 104.719L327.654 104.724C327.572 105.224 327.411 105.685 327.172 106.106C326.937 106.523 326.634 106.885 326.262 107.19C325.894 107.491 325.474 107.725 325 107.891C324.526 108.056 324.009 108.139 323.448 108.139C322.567 108.139 321.781 107.93 321.092 107.513C320.402 107.092 319.859 106.49 319.461 105.708C319.067 104.926 318.87 103.993 318.87 102.909C318.87 101.822 319.068 100.889 319.466 100.11C319.864 99.3279 320.407 98.728 321.097 98.3104C321.786 97.8894 322.57 97.679 323.448 97.679C323.989 97.679 324.492 97.7569 324.96 97.9126C325.43 98.0651 325.853 98.2905 326.228 98.5888C326.602 98.8838 326.912 99.245 327.157 99.6726C327.402 100.097 327.568 100.582 327.654 101.129ZM329.373 108V100.364H330.81V101.577H330.89C331.029 101.166 331.274 100.843 331.625 100.607C331.98 100.369 332.381 100.249 332.829 100.249C332.921 100.249 333.031 100.253 333.157 100.259C333.286 100.266 333.387 100.274 333.46 100.284V101.706C333.4 101.689 333.294 101.671 333.142 101.651C332.989 101.628 332.837 101.616 332.684 101.616C332.333 101.616 332.02 101.691 331.745 101.84C331.473 101.986 331.258 102.19 331.098 102.452C330.939 102.71 330.86 103.005 330.86 103.337V108H329.373ZM337.69 108.154C336.974 108.154 336.349 107.99 335.815 107.662C335.282 107.334 334.867 106.875 334.572 106.285C334.277 105.695 334.13 105.005 334.13 104.217C334.13 103.424 334.277 102.732 334.572 102.138C334.867 101.545 335.282 101.085 335.815 100.756C336.349 100.428 336.974 100.264 337.69 100.264C338.405 100.264 339.03 100.428 339.564 100.756C340.097 101.085 340.512 101.545 340.807 102.138C341.102 102.732 341.249 103.424 341.249 104.217C341.249 105.005 341.102 105.695 340.807 106.285C340.512 106.875 340.097 107.334 339.564 107.662C339.03 107.99 338.405 108.154 337.69 108.154ZM337.695 106.906C338.159 106.906 338.543 106.784 338.848 106.538C339.153 106.293 339.378 105.967 339.524 105.559C339.673 105.151 339.748 104.702 339.748 104.212C339.748 103.724 339.673 103.277 339.524 102.869C339.378 102.458 339.153 102.129 338.848 101.88C338.543 101.631 338.159 101.507 337.695 101.507C337.227 101.507 336.839 101.631 336.531 101.88C336.226 102.129 335.999 102.458 335.85 102.869C335.704 103.277 335.631 103.724 335.631 104.212C335.631 104.702 335.704 105.151 335.85 105.559C335.999 105.967 336.226 106.293 336.531 106.538C336.839 106.784 337.227 106.906 337.695 106.906ZM348.631 102.228L347.283 102.467C347.227 102.294 347.138 102.13 347.015 101.974C346.896 101.819 346.733 101.691 346.528 101.592C346.322 101.492 346.065 101.442 345.757 101.442C345.336 101.442 344.985 101.537 344.703 101.726C344.421 101.911 344.281 102.152 344.281 102.447C344.281 102.702 344.375 102.907 344.564 103.063C344.753 103.219 345.058 103.347 345.479 103.446L346.692 103.724C347.395 103.887 347.918 104.137 348.263 104.475C348.608 104.813 348.78 105.252 348.78 105.793C348.78 106.25 348.647 106.658 348.382 107.016C348.12 107.37 347.754 107.649 347.283 107.851C346.816 108.053 346.274 108.154 345.658 108.154C344.803 108.154 344.105 107.972 343.565 107.607C343.024 107.239 342.693 106.717 342.57 106.041L344.007 105.822C344.097 106.197 344.281 106.48 344.559 106.673C344.837 106.862 345.2 106.956 345.648 106.956C346.135 106.956 346.524 106.855 346.816 106.653C347.108 106.447 347.254 106.197 347.254 105.902C347.254 105.663 347.164 105.463 346.985 105.3C346.81 105.138 346.539 105.015 346.175 104.933L344.882 104.649C344.17 104.487 343.643 104.228 343.301 103.874C342.963 103.519 342.794 103.07 342.794 102.526C342.794 102.076 342.92 101.681 343.172 101.343C343.424 101.005 343.772 100.741 344.216 100.553C344.66 100.36 345.169 100.264 345.742 100.264C346.568 100.264 347.217 100.443 347.691 100.801C348.165 101.156 348.478 101.631 348.631 102.228ZM356.137 102.228L354.789 102.467C354.733 102.294 354.643 102.13 354.521 101.974C354.402 101.819 354.239 101.691 354.034 101.592C353.828 101.492 353.571 101.442 353.263 101.442C352.842 101.442 352.491 101.537 352.209 101.726C351.927 101.911 351.786 102.152 351.786 102.447C351.786 102.702 351.881 102.907 352.07 103.063C352.259 103.219 352.564 103.347 352.985 103.446L354.198 103.724C354.9 103.887 355.424 104.137 355.769 104.475C356.113 104.813 356.286 105.252 356.286 105.793C356.286 106.25 356.153 106.658 355.888 107.016C355.626 107.37 355.26 107.649 354.789 107.851C354.322 108.053 353.78 108.154 353.164 108.154C352.309 108.154 351.611 107.972 351.071 107.607C350.53 107.239 350.199 106.717 350.076 106.041L351.513 105.822C351.603 106.197 351.786 106.48 352.065 106.673C352.343 106.862 352.706 106.956 353.154 106.956C353.641 106.956 354.03 106.855 354.322 106.653C354.614 106.447 354.759 106.197 354.759 105.902C354.759 105.663 354.67 105.463 354.491 105.3C354.315 105.138 354.045 105.015 353.681 104.933L352.388 104.649C351.675 104.487 351.148 104.228 350.807 103.874C350.469 103.519 350.3 103.07 350.3 102.526C350.3 102.076 350.426 101.681 350.678 101.343C350.93 101.005 351.278 100.741 351.722 100.553C352.166 100.36 352.675 100.264 353.248 100.264C354.073 100.264 354.723 100.443 355.197 100.801C355.671 101.156 355.984 101.631 356.137 102.228ZM308.608 125H306.977L310.641 114.818H312.416L316.08 125H314.449L311.571 116.668H311.491L308.608 125ZM308.881 121.013H314.171V122.305H308.881V121.013ZM320.517 117.364V118.557H316.346V117.364H320.517ZM317.464 115.534H318.951V122.758C318.951 123.046 318.994 123.263 319.08 123.409C319.166 123.552 319.277 123.649 319.413 123.702C319.553 123.752 319.703 123.777 319.866 123.777C319.985 123.777 320.089 123.769 320.179 123.752C320.268 123.736 320.338 123.722 320.388 123.712L320.656 124.94C320.57 124.973 320.447 125.007 320.288 125.04C320.129 125.076 319.93 125.096 319.692 125.099C319.301 125.106 318.936 125.036 318.598 124.891C318.26 124.745 317.987 124.519 317.778 124.214C317.569 123.91 317.464 123.527 317.464 123.066V115.534ZM325.726 117.364V118.557H321.555V117.364H325.726ZM322.673 115.534H324.16V122.758C324.16 123.046 324.203 123.263 324.289 123.409C324.375 123.552 324.486 123.649 324.622 123.702C324.762 123.752 324.912 123.777 325.075 123.777C325.194 123.777 325.298 123.769 325.388 123.752C325.477 123.736 325.547 123.722 325.597 123.712L325.865 124.94C325.779 124.973 325.656 125.007 325.497 125.04C325.338 125.076 325.139 125.096 324.901 125.099C324.51 125.106 324.145 125.036 323.807 124.891C323.469 124.745 323.195 124.519 322.987 124.214C322.778 123.91 322.673 123.527 322.673 123.066V115.534ZM330.58 125.154C329.827 125.154 329.179 124.993 328.636 124.672C328.095 124.347 327.678 123.891 327.383 123.305C327.091 122.715 326.945 122.024 326.945 121.232C326.945 120.449 327.091 119.76 327.383 119.163C327.678 118.567 328.089 118.101 328.616 117.766C329.146 117.432 329.766 117.264 330.475 117.264C330.906 117.264 331.324 117.335 331.728 117.478C332.132 117.621 332.495 117.844 332.817 118.149C333.138 118.454 333.392 118.85 333.577 119.337C333.763 119.821 333.856 120.41 333.856 121.102V121.629H327.786V120.516H332.399C332.399 120.125 332.32 119.778 332.161 119.477C332.001 119.172 331.778 118.931 331.489 118.756C331.204 118.58 330.87 118.492 330.485 118.492C330.067 118.492 329.703 118.595 329.391 118.8C329.083 119.003 328.844 119.268 328.675 119.596C328.51 119.921 328.427 120.274 328.427 120.655V121.525C328.427 122.035 328.516 122.469 328.695 122.827C328.878 123.185 329.131 123.459 329.456 123.648C329.781 123.833 330.16 123.926 330.594 123.926C330.876 123.926 331.133 123.886 331.365 123.807C331.597 123.724 331.798 123.601 331.967 123.439C332.136 123.277 332.265 123.076 332.354 122.837L333.761 123.091C333.649 123.505 333.446 123.868 333.155 124.18C332.866 124.488 332.504 124.728 332.066 124.901C331.632 125.07 331.136 125.154 330.58 125.154ZM336.992 120.466V125H335.505V117.364H336.932V118.607H337.026C337.202 118.202 337.477 117.877 337.852 117.632C338.23 117.387 338.705 117.264 339.279 117.264C339.799 117.264 340.255 117.374 340.646 117.592C341.037 117.808 341.34 118.129 341.556 118.557C341.771 118.984 341.879 119.513 341.879 120.143V125H340.392V120.322C340.392 119.768 340.248 119.336 339.96 119.024C339.671 118.709 339.275 118.552 338.771 118.552C338.427 118.552 338.12 118.626 337.852 118.776C337.587 118.925 337.376 119.143 337.22 119.432C337.068 119.717 336.992 120.062 336.992 120.466ZM347.437 117.364V118.557H343.266V117.364H347.437ZM344.384 115.534H345.871V122.758C345.871 123.046 345.914 123.263 346 123.409C346.086 123.552 346.197 123.649 346.333 123.702C346.472 123.752 346.623 123.777 346.786 123.777C346.905 123.777 347.009 123.769 347.099 123.752C347.188 123.736 347.258 123.722 347.308 123.712L347.576 124.94C347.49 124.973 347.367 125.007 347.208 125.04C347.049 125.076 346.85 125.096 346.612 125.099C346.221 125.106 345.856 125.036 345.518 124.891C345.18 124.745 344.906 124.519 344.698 124.214C344.489 123.91 344.384 123.527 344.384 123.066V115.534ZM349.081 125V117.364H350.568V125H349.081ZM349.832 116.185C349.574 116.185 349.351 116.099 349.166 115.927C348.984 115.751 348.892 115.542 348.892 115.3C348.892 115.055 348.984 114.846 349.166 114.674C349.351 114.498 349.574 114.411 349.832 114.411C350.091 114.411 350.311 114.498 350.493 114.674C350.679 114.846 350.772 115.055 350.772 115.3C350.772 115.542 350.679 115.751 350.493 115.927C350.311 116.099 350.091 116.185 349.832 116.185ZM355.784 125.154C355.068 125.154 354.444 124.99 353.91 124.662C353.376 124.334 352.962 123.875 352.667 123.285C352.372 122.695 352.225 122.005 352.225 121.217C352.225 120.424 352.372 119.732 352.667 119.138C352.962 118.545 353.376 118.085 353.91 117.756C354.444 117.428 355.068 117.264 355.784 117.264C356.5 117.264 357.125 117.428 357.659 117.756C358.192 118.085 358.606 118.545 358.901 119.138C359.196 119.732 359.344 120.424 359.344 121.217C359.344 122.005 359.196 122.695 358.901 123.285C358.606 123.875 358.192 124.334 357.659 124.662C357.125 124.99 356.5 125.154 355.784 125.154ZM355.789 123.906C356.253 123.906 356.638 123.784 356.943 123.538C357.248 123.293 357.473 122.967 357.619 122.559C357.768 122.151 357.843 121.702 357.843 121.212C357.843 120.724 357.768 120.277 357.619 119.869C357.473 119.458 357.248 119.129 356.943 118.88C356.638 118.631 356.253 118.507 355.789 118.507C355.322 118.507 354.934 118.631 354.626 118.88C354.321 119.129 354.094 119.458 353.945 119.869C353.799 120.277 353.726 120.724 353.726 121.212C353.726 121.702 353.799 122.151 353.945 122.559C354.094 122.967 354.321 123.293 354.626 123.538C354.934 123.784 355.322 123.906 355.789 123.906ZM362.49 120.466V125H361.003V117.364H362.43V118.607H362.525C362.7 118.202 362.975 117.877 363.35 117.632C363.728 117.387 364.203 117.264 364.777 117.264C365.297 117.264 365.753 117.374 366.144 117.592C366.535 117.808 366.838 118.129 367.054 118.557C367.269 118.984 367.377 119.513 367.377 120.143V125H365.89V120.322C365.89 119.768 365.746 119.336 365.458 119.024C365.169 118.709 364.773 118.552 364.27 118.552C363.925 118.552 363.618 118.626 363.35 118.776C363.085 118.925 362.874 119.143 362.718 119.432C362.566 119.717 362.49 120.062 362.49 120.466Z" fill="black"/>
<rect x="148" y="62" width="12" height="99" rx="3" fill="#D9D9D9"/>
<rect x="149.5" y="64.5" width="9" height="9" rx="2.5" fill="#C8BCF8" stroke="black"/>
<rect x="149.5" y="76.5" width="9" height="9" rx="2.5" fill="#BCC9F8" stroke="black"/>
<rect x="149.5" y="88.5" width="9" height="9" rx="2.5" fill="#BCE2F8" stroke="black"/>
<rect x="149.5" y="100.5" width="9" height="9" rx="2.5" fill="#BCF8E2" stroke="black"/>
<rect x="149.5" y="113.5" width="9" height="9" rx="2.5" fill="#F3F8BC" stroke="black"/>
<rect x="149.5" y="125.5" width="9" height="9" rx="2.5" fill="#F8E7BC" stroke="black"/>
<rect x="149.5" y="137.5" width="9" height="9" rx="2.5" fill="#F8CABC" stroke="black"/>
<rect x="149.5" y="149.5" width="9" height="9" rx="2.5" fill="#F8BCBC" stroke="black"/>
<rect x="161" y="62" width="12" height="99" rx="3" fill="#D9D9D9"/>
<rect x="162.5" y="64.5" width="9" height="9" rx="2.5" fill="#C8BCF8" stroke="black"/>
<rect x="162.5" y="76.5" width="9" height="9" rx="2.5" fill="#BCC9F8" stroke="black"/>
<rect x="162.5" y="88.5" width="9" height="9" rx="2.5" fill="#BCE2F8" stroke="black"/>
<rect x="162.5" y="100.5" width="9" height="9" rx="2.5" fill="#BCF8E2" stroke="black"/>
<rect x="162.5" y="113.5" width="9" height="9" rx="2.5" fill="#F3F8BC" stroke="black"/>
<rect x="162.5" y="125.5" width="9" height="9" rx="2.5" fill="#F8E7BC" stroke="black"/>
<rect x="162.5" y="137.5" width="9" height="9" rx="2.5" fill="#F8CABC" stroke="black"/>
<rect x="162.5" y="149.5" width="9" height="9" rx="2.5" fill="#F8BCBC" stroke="black"/>
<rect x="174" y="62" width="12" height="99" rx="3" fill="#D9D9D9"/>
<rect x="175.5" y="64.5" width="9" height="9" rx="2.5" fill="#C8BCF8" stroke="black"/>
<rect x="175.5" y="76.5" width="9" height="9" rx="2.5" fill="#BCC9F8" stroke="black"/>
<rect x="175.5" y="88.5" width="9" height="9" rx="2.5" fill="#BCE2F8" stroke="black"/>
<rect x="175.5" y="100.5" width="9" height="9" rx="2.5" fill="#BCF8E2" stroke="black"/>
<rect x="175.5" y="113.5" width="9" height="9" rx="2.5" fill="#F3F8BC" stroke="black"/>
<rect x="175.5" y="125.5" width="9" height="9" rx="2.5" fill="#F8E7BC" stroke="black"/>
<rect x="175.5" y="137.5" width="9" height="9" rx="2.5" fill="#F8CABC" stroke="black"/>
<rect x="175.5" y="149.5" width="9" height="9" rx="2.5" fill="#F8BCBC" stroke="black"/>
<rect x="187" y="62" width="12" height="99" rx="3" fill="#D9D9D9"/>
<rect x="188.5" y="64.5" width="9" height="9" rx="2.5" fill="#C8BCF8" stroke="black"/>
<rect x="188.5" y="76.5" width="9" height="9" rx="2.5" fill="#BCC9F8" stroke="black"/>
<rect x="188.5" y="88.5" width="9" height="9" rx="2.5" fill="#BCE2F8" stroke="black"/>
<rect x="188.5" y="100.5" width="9" height="9" rx="2.5" fill="#BCF8E2" stroke="black"/>
<rect x="188.5" y="113.5" width="9" height="9" rx="2.5" fill="#F3F8BC" stroke="black"/>
<rect x="188.5" y="125.5" width="9" height="9" rx="2.5" fill="#F8E7BC" stroke="black"/>
<rect x="188.5" y="137.5" width="9" height="9" rx="2.5" fill="#F8CABC" stroke="black"/>
<rect x="188.5" y="149.5" width="9" height="9" rx="2.5" fill="#F8BCBC" stroke="black"/>
<rect x="200" y="62" width="12" height="99" rx="3" fill="#D9D9D9"/>
<rect x="201.5" y="64.5" width="9" height="9" rx="2.5" fill="#C8BCF8" stroke="black"/>
<rect x="201.5" y="76.5" width="9" height="9" rx="2.5" fill="#BCC9F8" stroke="black"/>
<rect x="201.5" y="88.5" width="9" height="9" rx="2.5" fill="#BCE2F8" stroke="black"/>
<rect x="201.5" y="100.5" width="9" height="9" rx="2.5" fill="#BCF8E2" stroke="black"/>
<rect x="201.5" y="113.5" width="9" height="9" rx="2.5" fill="#F3F8BC" stroke="black"/>
<rect x="201.5" y="125.5" width="9" height="9" rx="2.5" fill="#F8E7BC" stroke="black"/>
<rect x="201.5" y="137.5" width="9" height="9" rx="2.5" fill="#F8CABC" stroke="black"/>
<rect x="201.5" y="149.5" width="9" height="9" rx="2.5" fill="#F8BCBC" stroke="black"/>
<rect x="213" y="62" width="12" height="99" rx="3" fill="#D9D9D9"/>
<rect x="214.5" y="64.5" width="9" height="9" rx="2.5" fill="#C8BCF8" stroke="black"/>
<rect x="214.5" y="76.5" width="9" height="9" rx="2.5" fill="#BCC9F8" stroke="black"/>
<rect x="214.5" y="88.5" width="9" height="9" rx="2.5" fill="#BCE2F8" stroke="black"/>
<rect x="214.5" y="100.5" width="9" height="9" rx="2.5" fill="#BCF8E2" stroke="black"/>
<rect x="214.5" y="113.5" width="9" height="9" rx="2.5" fill="#F3F8BC" stroke="black"/>
<rect x="214.5" y="125.5" width="9" height="9" rx="2.5" fill="#F8E7BC" stroke="black"/>
<rect x="214.5" y="137.5" width="9" height="9" rx="2.5" fill="#F8CABC" stroke="black"/>
<rect x="214.5" y="149.5" width="9" height="9" rx="2.5" fill="#F8BCBC" stroke="black"/>
<rect x="226" y="62" width="12" height="99" rx="3" fill="#D9D9D9"/>
<rect x="227.5" y="64.5" width="9" height="9" rx="2.5" fill="#C8BCF8" stroke="black"/>
<rect x="227.5" y="76.5" width="9" height="9" rx="2.5" fill="#BCC9F8" stroke="black"/>
<rect x="227.5" y="88.5" width="9" height="9" rx="2.5" fill="#BCE2F8" stroke="black"/>
<rect x="227.5" y="100.5" width="9" height="9" rx="2.5" fill="#BCF8E2" stroke="black"/>
<rect x="227.5" y="113.5" width="9" height="9" rx="2.5" fill="#F3F8BC" stroke="black"/>
<rect x="227.5" y="125.5" width="9" height="9" rx="2.5" fill="#F8E7BC" stroke="black"/>
<rect x="227.5" y="137.5" width="9" height="9" rx="2.5" fill="#F8CABC" stroke="black"/>
<rect x="227.5" y="149.5" width="9" height="9" rx="2.5" fill="#F8BCBC" stroke="black"/>
<rect x="239" y="62" width="12" height="99" rx="3" fill="#D9D9D9"/>
<rect x="240.5" y="64.5" width="9" height="9" rx="2.5" fill="#C8BCF8" stroke="black"/>
<rect x="240.5" y="76.5" width="9" height="9" rx="2.5" fill="#BCC9F8" stroke="black"/>
<rect x="240.5" y="88.5" width="9" height="9" rx="2.5" fill="#BCE2F8" stroke="black"/>
<rect x="240.5" y="100.5" width="9" height="9" rx="2.5" fill="#BCF8E2" stroke="black"/>
<rect x="240.5" y="113.5" width="9" height="9" rx="2.5" fill="#F3F8BC" stroke="black"/>
<rect x="240.5" y="125.5" width="9" height="9" rx="2.5" fill="#F8E7BC" stroke="black"/>
<rect x="240.5" y="137.5" width="9" height="9" rx="2.5" fill="#F8CABC" stroke="black"/>
<rect x="240.5" y="149.5" width="9" height="9" rx="2.5" fill="#F8BCBC" stroke="black"/>
<path d="M254 109.5C253.724 109.5 253.5 109.724 253.5 110C253.5 110.276 253.724 110.5 254 110.5V109.5ZM276 110L271 107.113V112.887L276 110ZM254 110.5H271.5V109.5H254V110.5Z" fill="black"/>
<path d="M382 109.5C381.724 109.5 381.5 109.724 381.5 110C381.5 110.276 381.724 110.5 382 110.5V109.5ZM404 110L399 107.113V112.887L404 110ZM382 110.5H399.5V109.5H382V110.5Z" fill="black"/>
<path d="M451 109.5C450.724 109.5 450.5 109.724 450.5 110C450.5 110.276 450.724 110.5 451 110.5V109.5ZM473 110L468 107.113V112.887L473 110ZM451 110.5H468.5V109.5H451V110.5Z" fill="black"/>
<path d="M328 54L330.887 49H325.113L328 54ZM327.5 38V49.5H328.5V38H327.5Z" fill="black"/>
<path d="M328 16L330.887 11H325.113L328 16ZM327.5 0V11.5H328.5V0L327.5 0Z" fill="black"/>
<path d="M317 27L312 24.1132V29.8868L317 27ZM302 27.5L312.5 27.5V26.5L302 26.5V27.5Z" fill="black"/>
<path d="M199.242 25.1016C199.201 24.7318 199.029 24.4453 198.727 24.2422C198.424 24.0365 198.044 23.9336 197.586 23.9336C197.258 23.9336 196.974 23.9857 196.734 24.0898C196.495 24.1914 196.309 24.332 196.176 24.5117C196.046 24.6888 195.98 24.8906 195.98 25.1172C195.98 25.3073 196.025 25.4714 196.113 25.6094C196.204 25.7474 196.323 25.8633 196.469 25.957C196.617 26.0482 196.776 26.125 196.945 26.1875C197.115 26.2474 197.277 26.2969 197.434 26.3359L198.215 26.5391C198.47 26.6016 198.732 26.6862 199 26.793C199.268 26.8997 199.517 27.0404 199.746 27.2148C199.975 27.3893 200.16 27.6055 200.301 27.8633C200.444 28.1211 200.516 28.4297 200.516 28.7891C200.516 29.2422 200.398 29.6445 200.164 29.9961C199.932 30.3477 199.595 30.625 199.152 30.8281C198.712 31.0313 198.18 31.1328 197.555 31.1328C196.956 31.1328 196.438 31.0378 196 30.8477C195.563 30.6576 195.22 30.388 194.973 30.0391C194.725 29.6875 194.589 29.2708 194.563 28.7891H195.773C195.797 29.0781 195.891 29.319 196.055 29.5117C196.221 29.7018 196.434 29.8437 196.691 29.9375C196.952 30.0286 197.237 30.0742 197.547 30.0742C197.888 30.0742 198.191 30.0208 198.457 29.9141C198.725 29.8047 198.936 29.6536 199.09 29.4609C199.243 29.2656 199.32 29.0378 199.32 28.7773C199.32 28.5404 199.253 28.3464 199.117 28.1953C198.984 28.0443 198.803 27.9193 198.574 27.8203C198.348 27.7214 198.091 27.6341 197.805 27.5586L196.859 27.3008C196.219 27.1263 195.711 26.8698 195.336 26.5312C194.964 26.1927 194.777 25.7448 194.777 25.1875C194.777 24.7266 194.902 24.3242 195.152 23.9805C195.402 23.6367 195.741 23.3698 196.168 23.1797C196.595 22.987 197.077 22.8906 197.613 22.8906C198.155 22.8906 198.633 22.9857 199.047 23.1758C199.464 23.3659 199.792 23.6276 200.031 23.9609C200.271 24.2917 200.396 24.6719 200.406 25.1016H199.242ZM204.45 31.1211C203.859 31.1211 203.35 30.9948 202.923 30.7422C202.498 30.487 202.17 30.1289 201.938 29.668C201.709 29.2044 201.595 28.6615 201.595 28.0391C201.595 27.4245 201.709 26.8828 201.938 26.4141C202.17 25.9453 202.493 25.5794 202.907 25.3164C203.324 25.0534 203.811 24.9219 204.368 24.9219C204.707 24.9219 205.035 24.9779 205.353 25.0898C205.67 25.2018 205.955 25.3776 206.208 25.6172C206.461 25.8568 206.66 26.168 206.806 26.5508C206.951 26.931 207.024 27.3932 207.024 27.9375V28.3516H202.255V27.4766H205.88C205.88 27.1693 205.817 26.8971 205.692 26.6602C205.567 26.4206 205.392 26.2318 205.165 26.0937C204.941 25.9557 204.678 25.8867 204.376 25.8867C204.048 25.8867 203.761 25.9674 203.517 26.1289C203.274 26.2878 203.087 26.4961 202.954 26.7539C202.824 27.0091 202.759 27.2865 202.759 27.5859V28.2695C202.759 28.6706 202.829 29.0117 202.97 29.293C203.113 29.5742 203.312 29.7891 203.567 29.9375C203.823 30.0833 204.121 30.1562 204.462 30.1562C204.683 30.1562 204.885 30.125 205.067 30.0625C205.25 29.9974 205.407 29.901 205.54 29.7734C205.673 29.6458 205.774 29.4883 205.845 29.3008L206.95 29.5C206.862 29.8255 206.703 30.1107 206.474 30.3555C206.247 30.5977 205.962 30.7865 205.618 30.9219C205.277 31.0547 204.888 31.1211 204.45 31.1211ZM212.816 26.4648L211.758 26.6523C211.714 26.5169 211.643 26.388 211.547 26.2656C211.453 26.1432 211.326 26.043 211.164 25.9648C211.003 25.8867 210.801 25.8477 210.559 25.8477C210.228 25.8477 209.952 25.9219 209.73 26.0703C209.509 26.2161 209.398 26.4049 209.398 26.6367C209.398 26.8372 209.473 26.9987 209.621 27.1211C209.77 27.2435 210.009 27.3437 210.34 27.4219L211.293 27.6406C211.845 27.7682 212.257 27.9648 212.527 28.2305C212.798 28.4961 212.934 28.8411 212.934 29.2656C212.934 29.625 212.829 29.9453 212.621 30.2266C212.415 30.5052 212.128 30.724 211.758 30.8828C211.391 31.0417 210.965 31.1211 210.48 31.1211C209.809 31.1211 209.26 30.9779 208.836 30.6914C208.411 30.4023 208.151 29.9922 208.055 29.4609L209.184 29.2891C209.254 29.5833 209.398 29.806 209.617 29.957C209.836 30.1055 210.121 30.1797 210.473 30.1797C210.855 30.1797 211.161 30.1003 211.391 29.9414C211.62 29.7799 211.734 29.5833 211.734 29.3516C211.734 29.1641 211.664 29.0065 211.523 28.8789C211.385 28.7513 211.173 28.6549 210.887 28.5898L209.871 28.3672C209.311 28.2396 208.897 28.0365 208.629 27.7578C208.363 27.4792 208.23 27.1263 208.23 26.6992C208.23 26.3451 208.329 26.0352 208.527 25.7695C208.725 25.5039 208.999 25.2969 209.348 25.1484C209.697 24.9974 210.096 24.9219 210.547 24.9219C211.195 24.9219 211.706 25.0625 212.078 25.3437C212.451 25.6224 212.697 25.9961 212.816 26.4648ZM218.714 26.4648L217.655 26.6523C217.611 26.5169 217.541 26.388 217.444 26.2656C217.351 26.1432 217.223 26.043 217.062 25.9648C216.9 25.8867 216.698 25.8477 216.456 25.8477C216.125 25.8477 215.849 25.9219 215.628 26.0703C215.407 26.2161 215.296 26.4049 215.296 26.6367C215.296 26.8372 215.37 26.9987 215.519 27.1211C215.667 27.2435 215.907 27.3437 216.237 27.4219L217.19 27.6406C217.743 27.7682 218.154 27.9648 218.425 28.2305C218.696 28.4961 218.831 28.8411 218.831 29.2656C218.831 29.625 218.727 29.9453 218.519 30.2266C218.313 30.5052 218.025 30.724 217.655 30.8828C217.288 31.0417 216.862 31.1211 216.378 31.1211C215.706 31.1211 215.158 30.9779 214.733 30.6914C214.309 30.4023 214.049 29.9922 213.952 29.4609L215.081 29.2891C215.151 29.5833 215.296 29.806 215.515 29.957C215.733 30.1055 216.019 30.1797 216.37 30.1797C216.753 30.1797 217.059 30.1003 217.288 29.9414C217.517 29.7799 217.632 29.5833 217.632 29.3516C217.632 29.1641 217.562 29.0065 217.421 28.8789C217.283 28.7513 217.071 28.6549 216.784 28.5898L215.769 28.3672C215.209 28.2396 214.795 28.0365 214.526 27.7578C214.261 27.4792 214.128 27.1263 214.128 26.6992C214.128 26.3451 214.227 26.0352 214.425 25.7695C214.623 25.5039 214.896 25.2969 215.245 25.1484C215.594 24.9974 215.994 24.9219 216.444 24.9219C217.093 24.9219 217.603 25.0625 217.976 25.3437C218.348 25.6224 218.594 25.9961 218.714 26.4648ZM220.115 31V25H221.283V31H220.115ZM220.705 24.0742C220.502 24.0742 220.327 24.0065 220.182 23.8711C220.038 23.7331 219.967 23.569 219.967 23.3789C219.967 23.1862 220.038 23.0221 220.182 22.8867C220.327 22.7487 220.502 22.6797 220.705 22.6797C220.908 22.6797 221.081 22.7487 221.225 22.8867C221.37 23.0221 221.443 23.1862 221.443 23.3789C221.443 23.569 221.37 23.7331 221.225 23.8711C221.081 24.0065 220.908 24.0742 220.705 24.0742ZM225.382 31.1211C224.819 31.1211 224.328 30.9922 223.909 30.7344C223.49 30.4766 223.164 30.1159 222.933 29.6523C222.701 29.1888 222.585 28.6471 222.585 28.0273C222.585 27.4049 222.701 26.8607 222.933 26.3945C223.164 25.9284 223.49 25.5664 223.909 25.3086C224.328 25.0508 224.819 24.9219 225.382 24.9219C225.944 24.9219 226.435 25.0508 226.854 25.3086C227.274 25.5664 227.599 25.9284 227.831 26.3945C228.063 26.8607 228.179 27.4049 228.179 28.0273C228.179 28.6471 228.063 29.1888 227.831 29.6523C227.599 30.1159 227.274 30.4766 226.854 30.7344C226.435 30.9922 225.944 31.1211 225.382 31.1211ZM225.386 30.1406C225.75 30.1406 226.052 30.0443 226.292 29.8516C226.532 29.6589 226.709 29.4023 226.823 29.082C226.94 28.7617 226.999 28.4089 226.999 28.0234C226.999 27.6406 226.94 27.2891 226.823 26.9687C226.709 26.6458 226.532 26.3867 226.292 26.1914C226.052 25.9961 225.75 25.8984 225.386 25.8984C225.019 25.8984 224.714 25.9961 224.472 26.1914C224.232 26.3867 224.054 26.6458 223.937 26.9687C223.822 27.2891 223.765 27.6406 223.765 28.0234C223.765 28.4089 223.822 28.7617 223.937 29.082C224.054 29.4023 224.232 29.6589 224.472 29.8516C224.714 30.0443 225.019 30.1406 225.386 30.1406ZM230.65 27.4375V31H229.482V25H230.604V25.9766H230.678C230.816 25.6589 231.032 25.4036 231.326 25.2109C231.623 25.0182 231.997 24.9219 232.447 24.9219C232.856 24.9219 233.214 25.0078 233.521 25.1797C233.829 25.349 234.067 25.6016 234.236 25.9375C234.406 26.2734 234.49 26.6888 234.49 27.1836V31H233.322V27.3242C233.322 26.8893 233.209 26.5495 232.982 26.3047C232.756 26.0573 232.445 25.9336 232.049 25.9336C231.778 25.9336 231.537 25.9922 231.326 26.1094C231.118 26.2266 230.952 26.3984 230.83 26.625C230.71 26.849 230.65 27.1198 230.65 27.4375ZM239.062 31V23H244.077V24.0391H240.269V26.4766H243.815V27.5117H240.269V29.9609H244.124V31H239.062ZM245.596 31V25H246.717V25.9766H246.791C246.916 25.6458 247.12 25.388 247.404 25.2031C247.688 25.0156 248.028 24.9219 248.424 24.9219C248.825 24.9219 249.161 25.0156 249.432 25.2031C249.705 25.3906 249.907 25.6484 250.037 25.9766H250.1C250.243 25.6562 250.471 25.401 250.783 25.2109C251.096 25.0182 251.468 24.9219 251.9 24.9219C252.445 24.9219 252.889 25.0924 253.232 25.4336C253.579 25.7747 253.752 26.2891 253.752 26.9766V31H252.584V27.0859C252.584 26.6797 252.473 26.3854 252.252 26.2031C252.031 26.0208 251.766 25.9297 251.459 25.9297C251.079 25.9297 250.783 26.0469 250.572 26.2812C250.361 26.513 250.256 26.8112 250.256 27.1758V31H249.092V27.0117C249.092 26.6862 248.99 26.4245 248.787 26.2266C248.584 26.0286 248.32 25.9297 247.994 25.9297C247.773 25.9297 247.568 25.9883 247.381 26.1055C247.196 26.2201 247.046 26.3802 246.932 26.5859C246.82 26.7917 246.764 27.0299 246.764 27.3008V31H245.596ZM255.411 31V23H256.579V25.9727H256.649C256.717 25.8477 256.815 25.7031 256.942 25.5391C257.07 25.375 257.247 25.2318 257.474 25.1094C257.7 24.9844 258 24.9219 258.372 24.9219C258.856 24.9219 259.289 25.0443 259.669 25.2891C260.049 25.5339 260.347 25.8867 260.563 26.3477C260.782 26.8086 260.892 27.3633 260.892 28.0117C260.892 28.6602 260.784 29.2161 260.567 29.6797C260.351 30.1406 260.054 30.4961 259.677 30.7461C259.299 30.9935 258.868 31.1172 258.384 31.1172C258.019 31.1172 257.721 31.056 257.489 30.9336C257.26 30.8112 257.08 30.668 256.95 30.5039C256.82 30.3398 256.72 30.194 256.649 30.0664H256.552V31H255.411ZM256.556 28C256.556 28.4219 256.617 28.7917 256.739 29.1094C256.862 29.4271 257.039 29.6758 257.271 29.8555C257.502 30.0326 257.786 30.1211 258.122 30.1211C258.471 30.1211 258.763 30.0286 258.997 29.8437C259.231 29.6562 259.409 29.4023 259.528 29.082C259.651 28.7617 259.712 28.401 259.712 28C259.712 27.6042 259.652 27.2487 259.532 26.9336C259.415 26.6185 259.238 26.3698 259.001 26.1875C258.767 26.0052 258.474 25.9141 258.122 25.9141C257.784 25.9141 257.497 26.0013 257.263 26.1758C257.031 26.3503 256.855 26.5937 256.735 26.9062C256.616 27.2187 256.556 27.5833 256.556 28ZM264.789 31.1211C264.198 31.1211 263.689 30.9948 263.262 30.7422C262.837 30.487 262.509 30.1289 262.277 29.668C262.048 29.2044 261.934 28.6615 261.934 28.0391C261.934 27.4245 262.048 26.8828 262.277 26.4141C262.509 25.9453 262.832 25.5794 263.246 25.3164C263.663 25.0534 264.15 24.9219 264.707 24.9219C265.046 24.9219 265.374 24.9779 265.691 25.0898C266.009 25.2018 266.294 25.3776 266.547 25.6172C266.799 25.8568 266.999 26.168 267.145 26.5508C267.29 26.931 267.363 27.3932 267.363 27.9375V28.3516H262.594V27.4766H266.219C266.219 27.1693 266.156 26.8971 266.031 26.6602C265.906 26.4206 265.73 26.2318 265.504 26.0937C265.28 25.9557 265.017 25.8867 264.715 25.8867C264.387 25.8867 264.1 25.9674 263.855 26.1289C263.613 26.2878 263.426 26.4961 263.293 26.7539C263.163 27.0091 263.098 27.2865 263.098 27.5859V28.2695C263.098 28.6706 263.168 29.0117 263.309 29.293C263.452 29.5742 263.651 29.7891 263.906 29.9375C264.161 30.0833 264.46 30.1562 264.801 30.1562C265.022 30.1562 265.224 30.125 265.406 30.0625C265.589 29.9974 265.746 29.901 265.879 29.7734C266.012 29.6458 266.113 29.4883 266.184 29.3008L267.289 29.5C267.201 29.8255 267.042 30.1107 266.813 30.3555C266.586 30.5977 266.301 30.7865 265.957 30.9219C265.616 31.0547 265.227 31.1211 264.789 31.1211ZM270.905 31.1172C270.421 31.1172 269.989 30.9935 269.608 30.7461C269.231 30.4961 268.934 30.1406 268.718 29.6797C268.504 29.2161 268.397 28.6602 268.397 28.0117C268.397 27.3633 268.506 26.8086 268.722 26.3477C268.94 25.8867 269.24 25.5339 269.62 25.2891C270 25.0443 270.431 24.9219 270.913 24.9219C271.285 24.9219 271.585 24.9844 271.812 25.1094C272.041 25.2318 272.218 25.375 272.343 25.5391C272.47 25.7031 272.569 25.8477 272.64 25.9727H272.71V23H273.878V31H272.737V30.0664H272.64C272.569 30.194 272.468 30.3398 272.335 30.5039C272.205 30.668 272.025 30.8112 271.796 30.9336C271.567 31.056 271.27 31.1172 270.905 31.1172ZM271.163 30.1211C271.499 30.1211 271.783 30.0326 272.015 29.8555C272.249 29.6758 272.426 29.4271 272.546 29.1094C272.668 28.7917 272.729 28.4219 272.729 28C272.729 27.5833 272.67 27.2187 272.55 26.9062C272.43 26.5937 272.254 26.3503 272.022 26.1758C271.791 26.0013 271.504 25.9141 271.163 25.9141C270.812 25.9141 270.519 26.0052 270.284 26.1875C270.05 26.3698 269.873 26.6185 269.753 26.9336C269.636 27.2487 269.577 27.6042 269.577 28C269.577 28.401 269.637 28.7617 269.757 29.082C269.877 29.4023 270.054 29.6562 270.288 29.8437C270.525 30.0286 270.817 30.1211 271.163 30.1211ZM277.791 31.1172C277.307 31.1172 276.874 30.9935 276.494 30.7461C276.117 30.4961 275.82 30.1406 275.604 29.6797C275.39 29.2161 275.283 28.6602 275.283 28.0117C275.283 27.3633 275.391 26.8086 275.607 26.3477C275.826 25.8867 276.126 25.5339 276.506 25.2891C276.886 25.0443 277.317 24.9219 277.799 24.9219C278.171 24.9219 278.471 24.9844 278.697 25.1094C278.926 25.2318 279.104 25.375 279.229 25.5391C279.356 25.7031 279.455 25.8477 279.525 25.9727H279.596V23H280.764V31H279.623V30.0664H279.525C279.455 30.194 279.354 30.3398 279.221 30.5039C279.09 30.668 278.911 30.8112 278.682 30.9336C278.452 31.056 278.156 31.1172 277.791 31.1172ZM278.049 30.1211C278.385 30.1211 278.669 30.0326 278.9 29.8555C279.135 29.6758 279.312 29.4271 279.432 29.1094C279.554 28.7917 279.615 28.4219 279.615 28C279.615 27.5833 279.555 27.2187 279.436 26.9062C279.316 26.5937 279.14 26.3503 278.908 26.1758C278.676 26.0013 278.39 25.9141 278.049 25.9141C277.697 25.9141 277.404 26.0052 277.17 26.1875C276.936 26.3698 276.758 26.6185 276.639 26.9336C276.521 27.2487 276.463 27.6042 276.463 28C276.463 28.401 276.523 28.7617 276.643 29.082C276.762 29.4023 276.939 29.6562 277.174 29.8437C277.411 30.0286 277.702 30.1211 278.049 30.1211ZM282.431 31V25H283.599V31H282.431ZM283.021 24.0742C282.817 24.0742 282.643 24.0065 282.497 23.8711C282.354 23.7331 282.282 23.569 282.282 23.3789C282.282 23.1862 282.354 23.0221 282.497 22.8867C282.643 22.7487 282.817 22.6797 283.021 22.6797C283.224 22.6797 283.397 22.7487 283.54 22.8867C283.686 23.0221 283.759 23.1862 283.759 23.3789C283.759 23.569 283.686 23.7331 283.54 23.8711C283.397 24.0065 283.224 24.0742 283.021 24.0742ZM286.338 27.4375V31H285.17V25H286.291V25.9766H286.365C286.503 25.6589 286.719 25.4036 287.014 25.2109C287.311 25.0182 287.684 24.9219 288.135 24.9219C288.544 24.9219 288.902 25.0078 289.209 25.1797C289.516 25.349 289.755 25.6016 289.924 25.9375C290.093 26.2734 290.178 26.6888 290.178 27.1836V31H289.01V27.3242C289.01 26.8893 288.896 26.5495 288.67 26.3047C288.443 26.0573 288.132 25.9336 287.736 25.9336C287.465 25.9336 287.225 25.9922 287.014 26.1094C286.805 26.2266 286.64 26.3984 286.518 26.625C286.398 26.849 286.338 27.1198 286.338 27.4375ZM294.26 33.375C293.783 33.375 293.373 33.3125 293.029 33.1875C292.688 33.0625 292.41 32.8971 292.193 32.6914C291.977 32.4857 291.816 32.2604 291.709 32.0156L292.713 31.6016C292.783 31.7161 292.877 31.8372 292.994 31.9648C293.114 32.0951 293.275 32.2057 293.479 32.2969C293.684 32.388 293.949 32.4336 294.271 32.4336C294.714 32.4336 295.08 32.3255 295.369 32.1094C295.658 31.8958 295.803 31.5547 295.803 31.0859V29.9062H295.729C295.658 30.0339 295.557 30.1758 295.424 30.332C295.294 30.4883 295.114 30.6237 294.885 30.7383C294.656 30.8529 294.357 30.9102 293.99 30.9102C293.516 30.9102 293.089 30.7995 292.709 30.5781C292.331 30.3542 292.032 30.0247 291.811 29.5898C291.592 29.1523 291.482 28.6146 291.482 27.9766C291.482 27.3385 291.59 26.7917 291.807 26.3359C292.025 25.8802 292.325 25.5312 292.705 25.2891C293.085 25.0443 293.516 24.9219 293.998 24.9219C294.37 24.9219 294.671 24.9844 294.9 25.1094C295.13 25.2318 295.308 25.375 295.436 25.5391C295.566 25.7031 295.666 25.8477 295.736 25.9727H295.822V25H296.967V31.1328C296.967 31.6484 296.847 32.0716 296.607 32.4023C296.368 32.7331 296.044 32.9779 295.635 33.1367C295.229 33.2956 294.77 33.375 294.26 33.375ZM294.248 29.9414C294.584 29.9414 294.868 29.8633 295.1 29.707C295.334 29.5482 295.511 29.3216 295.631 29.0273C295.753 28.7305 295.814 28.375 295.814 27.9609C295.814 27.5573 295.755 27.2018 295.635 26.8945C295.515 26.5872 295.339 26.3477 295.107 26.1758C294.876 26.0013 294.589 25.9141 294.248 25.9141C293.896 25.9141 293.604 26.0052 293.369 26.1875C293.135 26.3672 292.958 26.612 292.838 26.9219C292.721 27.2318 292.662 27.5781 292.662 27.9609C292.662 28.3542 292.722 28.6992 292.842 28.9961C292.962 29.293 293.139 29.5247 293.373 29.6914C293.61 29.8581 293.902 29.9414 294.248 29.9414Z" fill="black"/>
<path d="M163.879 175V167H165.086V173.961H168.711V175H163.879ZM171.74 175.133C171.36 175.133 171.016 175.063 170.709 174.922C170.402 174.779 170.158 174.572 169.979 174.301C169.801 174.03 169.713 173.698 169.713 173.305C169.713 172.966 169.778 172.687 169.908 172.469C170.038 172.25 170.214 172.077 170.436 171.949C170.657 171.822 170.904 171.725 171.178 171.66C171.451 171.595 171.73 171.546 172.014 171.512C172.373 171.47 172.665 171.436 172.889 171.41C173.113 171.382 173.275 171.336 173.377 171.273C173.479 171.211 173.529 171.109 173.529 170.969V170.941C173.529 170.6 173.433 170.336 173.24 170.148C173.05 169.961 172.766 169.867 172.389 169.867C171.995 169.867 171.686 169.954 171.459 170.129C171.235 170.301 171.08 170.492 170.994 170.703L169.896 170.453C170.027 170.089 170.217 169.794 170.467 169.57C170.719 169.344 171.01 169.18 171.338 169.078C171.666 168.974 172.011 168.922 172.373 168.922C172.613 168.922 172.867 168.951 173.135 169.008C173.406 169.062 173.658 169.164 173.893 169.312C174.13 169.461 174.324 169.673 174.475 169.949C174.626 170.223 174.701 170.578 174.701 171.016V175H173.561V174.18H173.514C173.438 174.331 173.325 174.479 173.174 174.625C173.023 174.771 172.829 174.892 172.592 174.988C172.355 175.085 172.071 175.133 171.74 175.133ZM171.994 174.195C172.317 174.195 172.593 174.132 172.822 174.004C173.054 173.876 173.23 173.71 173.35 173.504C173.472 173.296 173.533 173.073 173.533 172.836V172.062C173.492 172.104 173.411 172.143 173.291 172.18C173.174 172.214 173.04 172.243 172.889 172.27C172.738 172.293 172.59 172.315 172.447 172.336C172.304 172.354 172.184 172.37 172.088 172.383C171.861 172.411 171.654 172.46 171.467 172.527C171.282 172.595 171.133 172.693 171.021 172.82C170.912 172.945 170.857 173.112 170.857 173.32C170.857 173.609 170.964 173.828 171.178 173.977C171.391 174.122 171.663 174.195 171.994 174.195ZM179.058 169V169.937H175.78V169H179.058ZM176.659 167.562H177.827V173.238C177.827 173.465 177.861 173.635 177.929 173.75C177.996 173.862 178.084 173.939 178.19 173.98C178.3 174.02 178.418 174.039 178.546 174.039C178.64 174.039 178.722 174.033 178.792 174.02C178.862 174.007 178.917 173.996 178.956 173.988L179.167 174.953C179.099 174.979 179.003 175.005 178.878 175.031C178.753 175.06 178.597 175.076 178.409 175.078C178.102 175.083 177.815 175.029 177.55 174.914C177.284 174.799 177.069 174.622 176.905 174.383C176.741 174.143 176.659 173.842 176.659 173.48V167.562ZM182.871 175.121C182.28 175.121 181.771 174.995 181.344 174.742C180.919 174.487 180.591 174.129 180.359 173.668C180.13 173.204 180.016 172.661 180.016 172.039C180.016 171.424 180.13 170.883 180.359 170.414C180.591 169.945 180.914 169.579 181.328 169.316C181.745 169.053 182.232 168.922 182.789 168.922C183.128 168.922 183.456 168.978 183.773 169.09C184.091 169.202 184.376 169.378 184.629 169.617C184.882 169.857 185.081 170.168 185.227 170.551C185.372 170.931 185.445 171.393 185.445 171.937V172.352H180.676V171.477H184.301C184.301 171.169 184.238 170.897 184.113 170.66C183.988 170.421 183.813 170.232 183.586 170.094C183.362 169.956 183.099 169.887 182.797 169.887C182.469 169.887 182.182 169.967 181.938 170.129C181.695 170.288 181.508 170.496 181.375 170.754C181.245 171.009 181.18 171.286 181.18 171.586V172.27C181.18 172.671 181.25 173.012 181.391 173.293C181.534 173.574 181.733 173.789 181.988 173.937C182.243 174.083 182.542 174.156 182.883 174.156C183.104 174.156 183.306 174.125 183.488 174.062C183.671 173.997 183.828 173.901 183.961 173.773C184.094 173.646 184.195 173.488 184.266 173.301L185.371 173.5C185.283 173.826 185.124 174.111 184.895 174.355C184.668 174.598 184.383 174.786 184.039 174.922C183.698 175.055 183.309 175.121 182.871 175.121ZM187.909 171.437V175H186.741V169H187.862V169.977H187.937C188.075 169.659 188.291 169.404 188.585 169.211C188.882 169.018 189.256 168.922 189.706 168.922C190.115 168.922 190.473 169.008 190.78 169.18C191.088 169.349 191.326 169.602 191.495 169.937C191.664 170.273 191.749 170.689 191.749 171.184V175H190.581V171.324C190.581 170.889 190.468 170.549 190.241 170.305C190.015 170.057 189.703 169.934 189.308 169.934C189.037 169.934 188.796 169.992 188.585 170.109C188.377 170.227 188.211 170.398 188.089 170.625C187.969 170.849 187.909 171.12 187.909 171.437ZM196.116 169V169.937H192.839V169H196.116ZM193.718 167.562H194.886V173.238C194.886 173.465 194.92 173.635 194.987 173.75C195.055 173.862 195.142 173.939 195.249 173.98C195.358 174.02 195.477 174.039 195.604 174.039C195.698 174.039 195.78 174.033 195.851 174.02C195.921 174.007 195.976 173.996 196.015 173.988L196.226 174.953C196.158 174.979 196.062 175.005 195.937 175.031C195.812 175.06 195.655 175.076 195.468 175.078C195.16 175.083 194.874 175.029 194.608 174.914C194.343 174.799 194.128 174.622 193.964 174.383C193.8 174.143 193.718 173.842 193.718 173.48V167.562ZM200.019 168.039V167H206.21V168.039H203.714V175H202.511V168.039H200.019ZM209.142 175.121C208.579 175.121 208.088 174.992 207.669 174.734C207.25 174.477 206.924 174.116 206.692 173.652C206.461 173.189 206.345 172.647 206.345 172.027C206.345 171.405 206.461 170.861 206.692 170.395C206.924 169.928 207.25 169.566 207.669 169.309C208.088 169.051 208.579 168.922 209.142 168.922C209.704 168.922 210.195 169.051 210.614 169.309C211.034 169.566 211.359 169.928 211.591 170.395C211.823 170.861 211.938 171.405 211.938 172.027C211.938 172.647 211.823 173.189 211.591 173.652C211.359 174.116 211.034 174.477 210.614 174.734C210.195 174.992 209.704 175.121 209.142 175.121ZM209.146 174.141C209.51 174.141 209.812 174.044 210.052 173.852C210.291 173.659 210.468 173.402 210.583 173.082C210.7 172.762 210.759 172.409 210.759 172.023C210.759 171.641 210.7 171.289 210.583 170.969C210.468 170.646 210.291 170.387 210.052 170.191C209.812 169.996 209.51 169.898 209.146 169.898C208.778 169.898 208.474 169.996 208.231 170.191C207.992 170.387 207.813 170.646 207.696 170.969C207.582 171.289 207.524 171.641 207.524 172.023C207.524 172.409 207.582 172.762 207.696 173.082C207.813 173.402 207.992 173.659 208.231 173.852C208.474 174.044 208.778 174.141 209.146 174.141ZM214.316 172.965L214.309 171.539H214.512L216.902 169H218.301L215.574 171.891H215.391L214.316 172.965ZM213.242 175V167H214.41V175H213.242ZM217.031 175L214.883 172.148L215.688 171.332L218.465 175H217.031ZM221.704 175.121C221.113 175.121 220.604 174.995 220.177 174.742C219.752 174.487 219.424 174.129 219.192 173.668C218.963 173.204 218.849 172.661 218.849 172.039C218.849 171.424 218.963 170.883 219.192 170.414C219.424 169.945 219.747 169.579 220.161 169.316C220.578 169.053 221.065 168.922 221.622 168.922C221.961 168.922 222.289 168.978 222.606 169.09C222.924 169.202 223.209 169.378 223.462 169.617C223.715 169.857 223.914 170.168 224.06 170.551C224.205 170.931 224.278 171.393 224.278 171.937V172.352H219.509V171.477H223.134C223.134 171.169 223.071 170.897 222.946 170.66C222.821 170.421 222.646 170.232 222.419 170.094C222.195 169.956 221.932 169.887 221.63 169.887C221.302 169.887 221.015 169.967 220.771 170.129C220.528 170.288 220.341 170.496 220.208 170.754C220.078 171.009 220.013 171.286 220.013 171.586V172.27C220.013 172.671 220.083 173.012 220.224 173.293C220.367 173.574 220.566 173.789 220.821 173.937C221.076 174.083 221.375 174.156 221.716 174.156C221.937 174.156 222.139 174.125 222.321 174.062C222.504 173.997 222.661 173.901 222.794 173.773C222.927 173.646 223.028 173.488 223.099 173.301L224.204 173.5C224.116 173.826 223.957 174.111 223.728 174.355C223.501 174.598 223.216 174.786 222.872 174.922C222.531 175.055 222.142 175.121 221.704 175.121ZM226.742 171.437V175H225.574V169H226.695V169.977H226.77C226.908 169.659 227.124 169.404 227.418 169.211C227.715 169.018 228.089 168.922 228.539 168.922C228.948 168.922 229.306 169.008 229.613 169.18C229.921 169.349 230.159 169.602 230.328 169.937C230.497 170.273 230.582 170.689 230.582 171.184V175H229.414V171.324C229.414 170.889 229.301 170.549 229.074 170.305C228.848 170.057 228.536 169.934 228.141 169.934C227.87 169.934 227.629 169.992 227.418 170.109C227.21 170.227 227.044 170.398 226.922 170.625C226.802 170.849 226.742 171.12 226.742 171.437ZM236.645 170.465L235.586 170.652C235.542 170.517 235.471 170.388 235.375 170.266C235.281 170.143 235.154 170.043 234.992 169.965C234.831 169.887 234.629 169.848 234.387 169.848C234.056 169.848 233.78 169.922 233.559 170.07C233.337 170.216 233.227 170.405 233.227 170.637C233.227 170.837 233.301 170.999 233.449 171.121C233.598 171.243 233.837 171.344 234.168 171.422L235.121 171.641C235.673 171.768 236.085 171.965 236.355 172.23C236.626 172.496 236.762 172.841 236.762 173.266C236.762 173.625 236.658 173.945 236.449 174.227C236.243 174.505 235.956 174.724 235.586 174.883C235.219 175.042 234.793 175.121 234.309 175.121C233.637 175.121 233.089 174.978 232.664 174.691C232.24 174.402 231.979 173.992 231.883 173.461L233.012 173.289C233.082 173.583 233.227 173.806 233.445 173.957C233.664 174.105 233.949 174.18 234.301 174.18C234.684 174.18 234.99 174.1 235.219 173.941C235.448 173.78 235.562 173.583 235.562 173.352C235.562 173.164 235.492 173.007 235.352 172.879C235.214 172.751 235.001 172.655 234.715 172.59L233.699 172.367C233.139 172.24 232.725 172.036 232.457 171.758C232.191 171.479 232.059 171.126 232.059 170.699C232.059 170.345 232.158 170.035 232.355 169.77C232.553 169.504 232.827 169.297 233.176 169.148C233.525 168.997 233.924 168.922 234.375 168.922C235.023 168.922 235.534 169.062 235.906 169.344C236.279 169.622 236.525 169.996 236.645 170.465Z" fill="black"/>
<path d="M327.714 68.7273H328.68L329.49 69.7926L329.703 70.0767L330.91 71.6818H329.944L329.149 70.6165L328.95 70.3466L327.714 68.7273ZM331.208 67.3636C331.208 68.1307 331.07 68.7936 330.793 69.3523C330.516 69.911 330.136 70.3419 329.653 70.6449C329.17 70.9479 328.618 71.0994 327.998 71.0994C327.378 71.0994 326.826 70.9479 326.343 70.6449C325.86 70.3419 325.48 69.911 325.203 69.3523C324.926 68.7936 324.788 68.1307 324.788 67.3636C324.788 66.5966 324.926 65.9337 325.203 65.375C325.48 64.8163 325.86 64.3854 326.343 64.0824C326.826 63.7794 327.378 63.6278 327.998 63.6278C328.618 63.6278 329.17 63.7794 329.653 64.0824C330.136 64.3854 330.516 64.8163 330.793 65.375C331.07 65.9337 331.208 66.5966 331.208 67.3636ZM330.356 67.3636C330.356 66.7339 330.251 66.2024 330.04 65.7692C329.832 65.3359 329.549 65.008 329.191 64.7855C328.836 64.563 328.439 64.4517 327.998 64.4517C327.558 64.4517 327.159 64.563 326.801 64.7855C326.446 65.008 326.163 65.3359 325.953 65.7692C325.744 66.2024 325.64 66.7339 325.64 67.3636C325.64 67.9934 325.744 68.5249 325.953 68.9581C326.163 69.3913 326.446 69.7192 326.801 69.9418C327.159 70.1643 327.558 70.2756 327.998 70.2756C328.439 70.2756 328.836 70.1643 329.191 69.9418C329.549 69.7192 329.832 69.3913 330.04 68.9581C330.251 68.5249 330.356 67.9934 330.356 67.3636Z" fill="black"/>
<path d="M327.482 30.3537V24.2599H328.516V30.3537H327.482ZM324.953 27.8239V26.7898H331.046V27.8239H324.953Z" fill="black"/>
<path d="M282.74 115V107.727H283.621V111.335H283.706L286.973 107.727H288.124L285.07 111.009L288.124 115H287.058L284.53 111.619L283.621 112.642V115H282.74ZM289.562 107.727L291.721 113.849H291.806L293.965 107.727H294.888L292.218 115H291.309L288.638 107.727H289.562Z" fill="black"/>
<path d="M412 57.5H443C445.485 57.5 447.5 59.5147 447.5 62V162C447.5 164.485 445.485 166.5 443 166.5H412C409.515 166.5 407.5 164.485 407.5 162V62C407.5 59.5147 409.515 57.5 412 57.5Z" fill="#DBCEEC" stroke="black"/>
<path d="M414.043 114V106.727H415.14V113.055H418.436V114H414.043ZM419.602 114V108.545H420.664V114H419.602ZM420.139 107.704C419.954 107.704 419.795 107.642 419.663 107.519C419.533 107.394 419.468 107.245 419.468 107.072C419.468 106.897 419.533 106.747 419.663 106.624C419.795 106.499 419.954 106.436 420.139 106.436C420.323 106.436 420.481 106.499 420.611 106.624C420.744 106.747 420.81 106.897 420.81 107.072C420.81 107.245 420.744 107.394 420.611 107.519C420.481 107.642 420.323 107.704 420.139 107.704ZM423.154 110.761V114H422.093V108.545H423.112V109.433H423.179C423.305 109.144 423.501 108.912 423.769 108.737C424.039 108.562 424.378 108.474 424.788 108.474C425.16 108.474 425.485 108.553 425.765 108.709C426.044 108.863 426.261 109.092 426.414 109.398C426.568 109.703 426.645 110.081 426.645 110.531V114H425.583V110.658C425.583 110.263 425.48 109.954 425.275 109.732C425.069 109.507 424.786 109.394 424.426 109.394C424.18 109.394 423.961 109.447 423.769 109.554C423.579 109.661 423.429 109.817 423.318 110.023C423.209 110.226 423.154 110.473 423.154 110.761ZM430.42 114.11C429.883 114.11 429.42 113.995 429.032 113.766C428.646 113.534 428.347 113.208 428.137 112.789C427.928 112.368 427.824 111.874 427.824 111.308C427.824 110.75 427.928 110.257 428.137 109.831C428.347 109.405 428.641 109.072 429.017 108.833C429.396 108.594 429.839 108.474 430.346 108.474C430.653 108.474 430.952 108.525 431.24 108.627C431.529 108.729 431.788 108.889 432.018 109.107C432.248 109.324 432.429 109.607 432.561 109.955C432.694 110.301 432.76 110.721 432.76 111.216V111.592H428.424V110.797H431.72C431.72 110.518 431.663 110.27 431.549 110.055C431.436 109.837 431.276 109.665 431.07 109.54C430.866 109.414 430.627 109.352 430.353 109.352C430.054 109.352 429.794 109.425 429.571 109.572C429.351 109.716 429.181 109.906 429.06 110.14C428.942 110.372 428.882 110.624 428.882 110.896V111.518C428.882 111.882 428.946 112.192 429.074 112.448C429.204 112.704 429.386 112.899 429.618 113.034C429.85 113.167 430.121 113.233 430.431 113.233C430.632 113.233 430.815 113.205 430.981 113.148C431.147 113.089 431.29 113.001 431.411 112.885C431.532 112.769 431.624 112.626 431.688 112.455L432.693 112.636C432.612 112.932 432.468 113.192 432.26 113.414C432.054 113.634 431.794 113.806 431.482 113.929C431.172 114.05 430.818 114.11 430.42 114.11ZM435.526 114.121C435.18 114.121 434.868 114.057 434.588 113.929C434.309 113.799 434.088 113.611 433.924 113.364C433.763 113.118 433.683 112.816 433.683 112.459C433.683 112.151 433.742 111.898 433.86 111.699C433.979 111.5 434.138 111.343 434.34 111.227C434.541 111.111 434.766 111.023 435.014 110.964C435.263 110.905 435.516 110.86 435.774 110.829C436.101 110.791 436.366 110.76 436.57 110.737C436.773 110.71 436.921 110.669 437.014 110.612C437.106 110.555 437.152 110.463 437.152 110.335V110.31C437.152 110 437.065 109.76 436.889 109.589C436.717 109.419 436.459 109.334 436.115 109.334C435.758 109.334 435.476 109.413 435.27 109.572C435.066 109.728 434.926 109.902 434.847 110.094L433.85 109.866C433.968 109.535 434.141 109.268 434.368 109.064C434.598 108.858 434.862 108.709 435.16 108.616C435.458 108.522 435.772 108.474 436.101 108.474C436.319 108.474 436.55 108.5 436.794 108.553C437.04 108.602 437.269 108.695 437.482 108.83C437.698 108.964 437.874 109.157 438.012 109.408C438.149 109.657 438.218 109.98 438.218 110.378V114H437.181V113.254H437.138C437.069 113.392 436.966 113.527 436.829 113.659C436.692 113.792 436.515 113.902 436.3 113.989C436.084 114.077 435.826 114.121 435.526 114.121ZM435.757 113.268C436.05 113.268 436.301 113.21 436.509 113.094C436.72 112.978 436.88 112.827 436.989 112.64C437.1 112.451 437.156 112.248 437.156 112.033V111.33C437.118 111.367 437.044 111.403 436.936 111.436C436.829 111.467 436.707 111.494 436.57 111.518C436.432 111.539 436.299 111.559 436.169 111.578C436.038 111.595 435.929 111.609 435.842 111.621C435.636 111.647 435.448 111.691 435.277 111.752C435.109 111.814 434.974 111.902 434.872 112.018C434.773 112.132 434.723 112.284 434.723 112.473C434.723 112.736 434.82 112.935 435.014 113.07C435.209 113.202 435.456 113.268 435.757 113.268ZM439.632 114V108.545H440.658V109.412H440.715C440.814 109.118 440.989 108.888 441.24 108.719C441.494 108.549 441.78 108.464 442.1 108.464C442.166 108.464 442.244 108.466 442.334 108.471C442.426 108.476 442.499 108.482 442.551 108.489V109.504C442.508 109.492 442.432 109.479 442.324 109.465C442.215 109.449 442.106 109.44 441.997 109.44C441.746 109.44 441.522 109.494 441.326 109.6C441.132 109.704 440.978 109.85 440.864 110.037C440.75 110.222 440.694 110.432 440.694 110.669V114H439.632Z" fill="black"/>
<circle cx="328" cy="27" r="10.5" stroke="black"/>
<path d="M120 109.5C119.724 109.5 119.5 109.724 119.5 110C119.5 110.276 119.724 110.5 120 110.5V109.5ZM145 110L140 107.113V112.887L145 110ZM120 110.5H140.5V109.5H120V110.5Z" fill="black"/>
<mask id="mask0_28_295" style="mask-type:alpha" maskUnits="userSpaceOnUse" x="0" y="52" width="134" height="131">
<rect y="52" width="134" height="131" fill="url(#paint0_linear_28_295)"/>
</mask>
<g mask="url(#mask0_28_295)">
<rect x="14.5" y="86.5" width="100" height="46" rx="4.5" fill="#FBD6D5" stroke="black"/>
<rect x="14.5" y="86.5" width="100" height="46" rx="4.5" fill="#FBD6D5" stroke="black"/>
<path d="M58.2314 97.4929C58.1784 97.0223 57.9597 96.6577 57.5752 96.3991C57.1907 96.1373 56.7068 96.0064 56.1235 96.0064C55.7059 96.0064 55.3446 96.0727 55.0397 96.2053C54.7348 96.3345 54.4978 96.5135 54.3287 96.7422C54.163 96.9676 54.0802 97.2244 54.0802 97.5128C54.0802 97.7547 54.1365 97.9635 54.2492 98.1392C54.3652 98.3149 54.516 98.4624 54.7016 98.5817C54.8905 98.6977 55.0927 98.7955 55.3081 98.875C55.5236 98.9512 55.7307 99.0142 55.9296 99.0639L56.9239 99.3224C57.2487 99.402 57.5818 99.5097 57.9232 99.6456C58.2646 99.7815 58.5811 99.9605 58.8728 100.183C59.1644 100.405 59.3998 100.68 59.5787 101.008C59.761 101.336 59.8522 101.729 59.8522 102.186C59.8522 102.763 59.703 103.275 59.4047 103.722C59.1098 104.17 58.6805 104.523 58.1171 104.781C57.557 105.04 56.8792 105.169 56.0837 105.169C55.3214 105.169 54.6618 105.048 54.105 104.806C53.5482 104.564 53.1124 104.221 52.7975 103.777C52.4826 103.33 52.3086 102.799 52.2755 102.186H53.8167C53.8465 102.554 53.9658 102.861 54.1746 103.106C54.3867 103.348 54.6569 103.528 54.985 103.648C55.3164 103.764 55.6794 103.822 56.0738 103.822C56.508 103.822 56.8941 103.754 57.2322 103.618C57.5735 103.479 57.842 103.286 58.0376 103.041C58.2331 102.793 58.3309 102.503 58.3309 102.171C58.3309 101.87 58.2447 101.623 58.0724 101.43C57.9033 101.238 57.673 101.079 57.3813 100.953C57.093 100.827 56.7665 100.716 56.4019 100.62L55.1988 100.292C54.3834 100.07 53.7371 99.7434 53.2599 99.3125C52.7859 98.8816 52.5489 98.3116 52.5489 97.6023C52.5489 97.0156 52.708 96.5036 53.0262 96.0661C53.3444 95.6286 53.7752 95.2888 54.3188 95.0469C54.8624 94.8016 55.4755 94.679 56.1583 94.679C56.8477 94.679 57.4559 94.8 57.9829 95.0419C58.5132 95.2839 58.9308 95.617 59.2357 96.0412C59.5406 96.4621 59.6997 96.946 59.713 97.4929H58.2314ZM64.8598 105.154C64.1075 105.154 63.4595 104.993 62.9159 104.672C62.3757 104.347 61.9581 103.891 61.6631 103.305C61.3714 102.715 61.2256 102.024 61.2256 101.232C61.2256 100.449 61.3714 99.7599 61.6631 99.1634C61.9581 98.5668 62.3691 98.1011 62.896 97.7663C63.4263 97.4316 64.0461 97.2642 64.7554 97.2642C65.1863 97.2642 65.6039 97.3355 66.0083 97.478C66.4126 97.6205 66.7755 97.8442 67.097 98.1491C67.4185 98.4541 67.6721 98.8501 67.8577 99.3374C68.0433 99.8213 68.1361 100.41 68.1361 101.102V101.629H62.0658V100.516H66.6794C66.6794 100.125 66.5999 99.7782 66.4408 99.4766C66.2817 99.1716 66.058 98.9313 65.7696 98.7557C65.4846 98.58 65.1498 98.4922 64.7654 98.4922C64.3477 98.4922 63.9832 98.5949 63.6716 98.8004C63.3634 99.0026 63.1247 99.2678 62.9557 99.5959C62.79 99.9207 62.7071 100.274 62.7071 100.655V101.525C62.7071 102.035 62.7966 102.469 62.9756 102.827C63.1579 103.185 63.4114 103.459 63.7362 103.648C64.0611 103.833 64.4405 103.926 64.8747 103.926C65.1565 103.926 65.4133 103.886 65.6453 103.807C65.8773 103.724 66.0779 103.601 66.2469 103.439C66.4159 103.277 66.5452 103.076 66.6347 102.837L68.0416 103.091C67.9289 103.505 67.7268 103.868 67.4351 104.18C67.1468 104.488 66.7838 104.728 66.3463 104.901C65.9121 105.07 65.4166 105.154 64.8598 105.154ZM71.2719 94.8182V105H69.7854V94.8182H71.2719ZM76.906 97.3636V98.5568H72.5906V97.3636H76.906ZM73.7739 105V96.4787C73.7739 96.0014 73.8783 95.6053 74.0871 95.2905C74.2959 94.9723 74.5727 94.7353 74.9173 94.5795C75.262 94.4205 75.6366 94.3409 76.0409 94.3409C76.3392 94.3409 76.5944 94.3658 76.8066 94.4155C77.0187 94.4619 77.1761 94.505 77.2789 94.5447L76.9308 95.7479C76.8612 95.728 76.7718 95.7048 76.6624 95.6783C76.553 95.6484 76.4204 95.6335 76.2646 95.6335C75.9034 95.6335 75.6449 95.723 75.4891 95.902C75.3366 96.081 75.2604 96.3395 75.2604 96.6776V105H73.7739ZM35.6076 122H33.9769L37.641 111.818H39.4158L43.0799 122H41.4492L38.5707 113.668H38.4911L35.6076 122ZM35.881 118.013H41.1708V119.305H35.881V118.013ZM47.517 114.364V115.557H43.3459V114.364H47.517ZM44.4645 112.534H45.951V119.758C45.951 120.046 45.9941 120.263 46.0803 120.409C46.1664 120.552 46.2775 120.649 46.4134 120.702C46.5526 120.752 46.7034 120.777 46.8658 120.777C46.9851 120.777 47.0895 120.769 47.179 120.752C47.2685 120.736 47.3381 120.722 47.3878 120.712L47.6562 121.94C47.5701 121.973 47.4474 122.007 47.2884 122.04C47.1293 122.076 46.9304 122.096 46.6918 122.099C46.3007 122.106 45.9361 122.036 45.598 121.891C45.2599 121.745 44.9865 121.519 44.7777 121.214C44.5689 120.91 44.4645 120.527 44.4645 120.066V112.534ZM52.726 114.364V115.557H48.5549V114.364H52.726ZM49.6735 112.534H51.16V119.758C51.16 120.046 51.2031 120.263 51.2892 120.409C51.3754 120.552 51.4864 120.649 51.6223 120.702C51.7615 120.752 51.9123 120.777 52.0748 120.777C52.1941 120.777 52.2985 120.769 52.388 120.752C52.4775 120.736 52.5471 120.722 52.5968 120.712L52.8652 121.94C52.7791 121.973 52.6564 122.007 52.4973 122.04C52.3382 122.076 52.1394 122.096 51.9007 122.099C51.5096 122.106 51.1451 122.036 50.807 121.891C50.4689 121.745 50.1955 121.519 49.9867 121.214C49.7779 120.91 49.6735 120.527 49.6735 120.066V112.534ZM57.5795 122.154C56.8272 122.154 56.1792 121.993 55.6357 121.672C55.0954 121.347 54.6778 120.891 54.3828 120.305C54.0911 119.715 53.9453 119.024 53.9453 118.232C53.9453 117.449 54.0911 116.76 54.3828 116.163C54.6778 115.567 55.0888 115.101 55.6158 114.766C56.1461 114.432 56.7659 114.264 57.4751 114.264C57.906 114.264 58.3236 114.335 58.728 114.478C59.1323 114.621 59.4953 114.844 59.8168 115.149C60.1383 115.454 60.3918 115.85 60.5774 116.337C60.763 116.821 60.8558 117.41 60.8558 118.102V118.629H54.7855V117.516H59.3991C59.3991 117.125 59.3196 116.778 59.1605 116.477C59.0014 116.172 58.7777 115.931 58.4893 115.756C58.2043 115.58 57.8696 115.492 57.4851 115.492C57.0675 115.492 56.7029 115.595 56.3913 115.8C56.0831 116.003 55.8445 116.268 55.6754 116.596C55.5097 116.921 55.4268 117.274 55.4268 117.655V118.525C55.4268 119.035 55.5163 119.469 55.6953 119.827C55.8776 120.185 56.1312 120.459 56.456 120.648C56.7808 120.833 57.1603 120.926 57.5945 120.926C57.8762 120.926 58.133 120.886 58.3651 120.807C58.5971 120.724 58.7976 120.601 58.9666 120.439C59.1357 120.277 59.2649 120.076 59.3544 119.837L60.7614 120.091C60.6487 120.505 60.4465 120.868 60.1548 121.18C59.8665 121.488 59.5036 121.728 59.0661 121.901C58.6319 122.07 58.1364 122.154 57.5795 122.154ZM63.9917 117.466V122H62.5051V114.364H63.932V115.607H64.0265C64.2021 115.202 64.4772 114.877 64.8517 114.632C65.2296 114.387 65.7052 114.264 66.2786 114.264C66.7989 114.264 67.2547 114.374 67.6458 114.592C68.0369 114.808 68.3401 115.129 68.5556 115.557C68.771 115.984 68.8787 116.513 68.8787 117.143V122H67.3922V117.322C67.3922 116.768 67.248 116.336 66.9597 116.024C66.6713 115.709 66.2753 115.552 65.7715 115.552C65.4268 115.552 65.1202 115.626 64.8517 115.776C64.5866 115.925 64.3761 116.143 64.2203 116.432C64.0679 116.717 63.9917 117.062 63.9917 117.466ZM74.437 114.364V115.557H70.2658V114.364H74.437ZM71.3844 112.534H72.8709V119.758C72.8709 120.046 72.914 120.263 73.0002 120.409C73.0864 120.552 73.1974 120.649 73.3333 120.702C73.4725 120.752 73.6233 120.777 73.7857 120.777C73.905 120.777 74.0094 120.769 74.0989 120.752C74.1884 120.736 74.258 120.722 74.3077 120.712L74.5762 121.94C74.49 121.973 74.3674 122.007 74.2083 122.04C74.0492 122.076 73.8503 122.096 73.6117 122.099C73.2206 122.106 72.856 122.036 72.5179 121.891C72.1799 121.745 71.9064 121.519 71.6976 121.214C71.4888 120.91 71.3844 120.527 71.3844 120.066V112.534ZM76.0813 122V114.364H77.5678V122H76.0813ZM76.832 113.185C76.5735 113.185 76.3514 113.099 76.1658 112.927C75.9835 112.751 75.8924 112.542 75.8924 112.3C75.8924 112.055 75.9835 111.846 76.1658 111.674C76.3514 111.498 76.5735 111.411 76.832 111.411C77.0906 111.411 77.311 111.498 77.4933 111.674C77.6789 111.846 77.7717 112.055 77.7717 112.3C77.7717 112.542 77.6789 112.751 77.4933 112.927C77.311 113.099 77.0906 113.185 76.832 113.185ZM82.7843 122.154C82.0684 122.154 81.4436 121.99 80.91 121.662C80.3764 121.334 79.9621 120.875 79.6671 120.285C79.3721 119.695 79.2246 119.005 79.2246 118.217C79.2246 117.424 79.3721 116.732 79.6671 116.138C79.9621 115.545 80.3764 115.085 80.91 114.756C81.4436 114.428 82.0684 114.264 82.7843 114.264C83.5002 114.264 84.1249 114.428 84.6586 114.756C85.1922 115.085 85.6065 115.545 85.9015 116.138C86.1964 116.732 86.3439 117.424 86.3439 118.217C86.3439 119.005 86.1964 119.695 85.9015 120.285C85.6065 120.875 85.1922 121.334 84.6586 121.662C84.1249 121.99 83.5002 122.154 82.7843 122.154ZM82.7892 120.906C83.2533 120.906 83.6377 120.784 83.9426 120.538C84.2476 120.293 84.473 119.967 84.6188 119.559C84.7679 119.151 84.8425 118.702 84.8425 118.212C84.8425 117.724 84.7679 117.277 84.6188 116.869C84.473 116.458 84.2476 116.129 83.9426 115.88C83.6377 115.631 83.2533 115.507 82.7892 115.507C82.3219 115.507 81.9341 115.631 81.6259 115.88C81.321 116.129 81.0939 116.458 80.9448 116.869C80.7989 117.277 80.726 117.724 80.726 118.212C80.726 118.702 80.7989 119.151 80.9448 119.559C81.0939 119.967 81.321 120.293 81.6259 120.538C81.9341 120.784 82.3219 120.906 82.7892 120.906ZM89.4897 117.466V122H88.0032V114.364H89.43V115.607H89.5245C89.7002 115.202 89.9753 114.877 90.3498 114.632C90.7276 114.387 91.2032 114.264 91.7766 114.264C92.297 114.264 92.7527 114.374 93.1438 114.592C93.5349 114.808 93.8382 115.129 94.0536 115.557C94.2691 115.984 94.3768 116.513 94.3768 117.143V122H92.8903V117.322C92.8903 116.768 92.7461 116.336 92.4577 116.024C92.1694 115.709 91.7733 115.552 91.2695 115.552C90.9248 115.552 90.6183 115.626 90.3498 115.776C90.0846 115.925 89.8742 116.143 89.7184 116.432C89.5659 116.717 89.4897 117.062 89.4897 117.466Z" fill="black"/>
</g>
<defs>
<linearGradient id="paint0_linear_28_295" x1="121" y1="103.5" x2="51.5" y2="122.5" gradientUnits="userSpaceOnUse">
<stop stop-color="white"/>
<stop offset="0.343814" stop-color="#EDEDED" stop-opacity="0.520833"/>
<stop offset="0.664551" stop-color="#E3E3E3" stop-opacity="0.261763"/>
<stop offset="1" stop-color="#D9D9D9" stop-opacity="0"/>
</linearGradient>
</defs>
</svg>
