<svg width="450" height="290" viewBox="0 0 450 290" fill="none" xmlns="http://www.w3.org/2000/svg">
<path d="M46.8789 11V3H48.0859V9.96094H51.7109V11H46.8789ZM54.7402 11.1328C54.36 11.1328 54.0163 11.0625 53.709 10.9219C53.4017 10.7786 53.1582 10.5716 52.9785 10.3008C52.8014 10.0299 52.7129 9.69792 52.7129 9.30469C52.7129 8.96615 52.778 8.6875 52.9082 8.46875C53.0384 8.25 53.2142 8.07682 53.4355 7.94922C53.6569 7.82161 53.9043 7.72526 54.1777 7.66016C54.4512 7.59505 54.7298 7.54557 55.0137 7.51172C55.373 7.47005 55.6647 7.4362 55.8887 7.41016C56.1126 7.38151 56.2754 7.33594 56.377 7.27344C56.4785 7.21094 56.5293 7.10937 56.5293 6.96875V6.94141C56.5293 6.60026 56.4329 6.33594 56.2402 6.14844C56.0501 5.96094 55.7663 5.86719 55.3887 5.86719C54.9954 5.86719 54.6855 5.95443 54.459 6.12891C54.235 6.30078 54.0801 6.49219 53.9941 6.70312L52.8965 6.45312C53.0267 6.08854 53.2168 5.79427 53.4668 5.57031C53.7194 5.34375 54.0098 5.17969 54.3379 5.07812C54.666 4.97396 55.0111 4.92188 55.373 4.92188C55.6126 4.92188 55.8665 4.95052 56.1348 5.00781C56.4056 5.0625 56.6582 5.16406 56.8926 5.3125C57.1296 5.46094 57.3236 5.67318 57.4746 5.94922C57.6257 6.22266 57.7012 6.57813 57.7012 7.01563V11H56.5605V10.1797H56.5137C56.4382 10.3307 56.3249 10.4792 56.1738 10.625C56.0228 10.7708 55.8288 10.8919 55.5918 10.9883C55.3548 11.0846 55.071 11.1328 54.7402 11.1328ZM54.9941 10.1953C55.3171 10.1953 55.5931 10.1315 55.8223 10.0039C56.054 9.8763 56.2298 9.70964 56.3496 9.50391C56.472 9.29557 56.5332 9.07292 56.5332 8.83594V8.0625C56.4915 8.10417 56.4108 8.14323 56.291 8.17969C56.1738 8.21354 56.0397 8.24349 55.8887 8.26953C55.7376 8.29297 55.5905 8.3151 55.4473 8.33594C55.304 8.35417 55.1842 8.36979 55.0879 8.38281C54.8613 8.41146 54.6543 8.45964 54.4668 8.52734C54.2819 8.59505 54.1335 8.69271 54.0215 8.82031C53.9121 8.94531 53.8574 9.11198 53.8574 9.32031C53.8574 9.60937 53.9642 9.82812 54.1777 9.97656C54.3913 10.1224 54.6634 10.1953 54.9941 10.1953ZM62.0576 5V5.9375H58.7803V5H62.0576ZM59.6592 3.5625H60.8271V9.23828C60.8271 9.46484 60.861 9.63542 60.9287 9.75C60.9964 9.86198 61.0837 9.9388 61.1904 9.98047C61.2998 10.0195 61.4183 10.0391 61.5459 10.0391C61.6396 10.0391 61.7217 10.0326 61.792 10.0195C61.8623 10.0065 61.917 9.99609 61.9561 9.98828L62.167 10.9531C62.0993 10.9792 62.0029 11.0052 61.8779 11.0313C61.7529 11.0599 61.5967 11.0755 61.4092 11.0781C61.1019 11.0833 60.8154 11.0286 60.5498 10.9141C60.2842 10.7995 60.0693 10.6224 59.9053 10.3828C59.7412 10.1432 59.6592 9.84245 59.6592 9.48047V3.5625ZM65.8711 11.1211C65.2799 11.1211 64.7708 10.9948 64.3438 10.7422C63.9193 10.487 63.5911 10.1289 63.3594 9.66797C63.1302 9.20443 63.0156 8.66146 63.0156 8.03906C63.0156 7.42448 63.1302 6.88281 63.3594 6.41406C63.5911 5.94531 63.9141 5.57943 64.3281 5.31641C64.7448 5.05339 65.2318 4.92188 65.7891 4.92188C66.1276 4.92188 66.4557 4.97786 66.7734 5.08984C67.0911 5.20182 67.3763 5.3776 67.6289 5.61719C67.8815 5.85677 68.0807 6.16797 68.2266 6.55078C68.3724 6.93099 68.4453 7.39323 68.4453 7.9375V8.35156H63.6758V7.47656L67.3008 7.47656C67.3008 7.16927 67.2383 6.89714 67.1133 6.66016C66.9883 6.42057 66.8125 6.23177 66.5859 6.09375C66.362 5.95573 66.099 5.88672 65.7969 5.88672C65.4688 5.88672 65.1823 5.96745 64.9375 6.12891C64.6953 6.28776 64.5078 6.49609 64.375 6.75391C64.2448 7.00911 64.1797 7.28646 64.1797 7.58594V8.26953C64.1797 8.67057 64.25 9.01172 64.3906 9.29297C64.5339 9.57422 64.7331 9.78906 64.9883 9.9375C65.2435 10.0833 65.5417 10.1562 65.8828 10.1562C66.1042 10.1562 66.306 10.125 66.4883 10.0625C66.6706 9.9974 66.8281 9.90104 66.9609 9.77344C67.0938 9.64583 67.1953 9.48828 67.2656 9.30078L68.3711 9.5C68.2826 9.82552 68.1237 10.1107 67.8945 10.3555C67.668 10.5977 67.3828 10.7865 67.0391 10.9219C66.6979 11.0547 66.3086 11.1211 65.8711 11.1211ZM70.9092 7.4375V11H69.7412V5H70.8623V5.97656H70.9365C71.0745 5.65885 71.2907 5.40365 71.585 5.21094C71.8818 5.01823 72.2555 4.92188 72.7061 4.92188C73.1149 4.92188 73.473 5.00781 73.7803 5.17969C74.0876 5.34896 74.3258 5.60156 74.4951 5.9375C74.6644 6.27344 74.749 6.6888 74.749 7.18359V11H73.5811V7.32422C73.5811 6.88932 73.4678 6.54948 73.2412 6.30469C73.0146 6.05729 72.7035 5.93359 72.3076 5.93359C72.0368 5.93359 71.7959 5.99219 71.585 6.10937C71.3766 6.22656 71.2113 6.39844 71.0889 6.625C70.9691 6.84896 70.9092 7.11979 70.9092 7.4375ZM79.1162 5V5.9375H75.8389V5H79.1162ZM76.7178 3.5625H77.8857V9.23828C77.8857 9.46484 77.9196 9.63542 77.9873 9.75C78.055 9.86198 78.1423 9.9388 78.249 9.98047C78.3584 10.0195 78.4769 10.0391 78.6045 10.0391C78.6982 10.0391 78.7803 10.0326 78.8506 10.0195C78.9209 10.0065 78.9756 9.99609 79.0146 9.98828L79.2256 10.9531C79.1579 10.9792 79.0615 11.0052 78.9365 11.0313C78.8115 11.0599 78.6553 11.0755 78.4678 11.0781C78.1605 11.0833 77.874 11.0286 77.6084 10.9141C77.3428 10.7995 77.1279 10.6224 76.9639 10.3828C76.7998 10.1432 76.7178 9.84245 76.7178 9.48047V3.5625ZM83.0186 4.03906V3H89.21V4.03906H86.7139V11H85.5107V4.03906H83.0186ZM92.1416 11.1211C91.5791 11.1211 91.0882 10.9922 90.6689 10.7344C90.2497 10.4766 89.9242 10.1159 89.6924 9.65234C89.4606 9.1888 89.3447 8.64714 89.3447 8.02734C89.3447 7.40495 89.4606 6.86068 89.6924 6.39453C89.9242 5.92839 90.2497 5.56641 90.6689 5.30859C91.0882 5.05078 91.5791 4.92188 92.1416 4.92188C92.7041 4.92188 93.195 5.05078 93.6143 5.30859C94.0335 5.56641 94.359 5.92839 94.5908 6.39453C94.8226 6.86068 94.9385 7.40495 94.9385 8.02734C94.9385 8.64714 94.8226 9.1888 94.5908 9.65234C94.359 10.1159 94.0335 10.4766 93.6143 10.7344C93.195 10.9922 92.7041 11.1211 92.1416 11.1211ZM92.1455 10.1406C92.5101 10.1406 92.8122 10.0443 93.0518 9.85156C93.2913 9.65885 93.4684 9.40234 93.583 9.08203C93.7002 8.76172 93.7588 8.40885 93.7588 8.02344C93.7588 7.64062 93.7002 7.28906 93.583 6.96875C93.4684 6.64583 93.2913 6.38672 93.0518 6.19141C92.8122 5.99609 92.5101 5.89844 92.1455 5.89844C91.7783 5.89844 91.4736 5.99609 91.2314 6.19141C90.9919 6.38672 90.8135 6.64583 90.6963 6.96875C90.5817 7.28906 90.5244 7.64062 90.5244 8.02344C90.5244 8.40885 90.5817 8.76172 90.6963 9.08203C90.8135 9.40234 90.9919 9.65885 91.2314 9.85156C91.4736 10.0443 91.7783 10.1406 92.1455 10.1406ZM97.3164 8.96484L97.3086 7.53906H97.5117L99.9023 5H101.301L98.5742 7.89062H98.3906L97.3164 8.96484ZM96.2422 11V3H97.4102V11H96.2422ZM100.031 11L97.8828 8.14844L98.6875 7.33203L101.465 11H100.031ZM104.704 11.1211C104.113 11.1211 103.604 10.9948 103.177 10.7422C102.752 10.487 102.424 10.1289 102.192 9.66797C101.963 9.20443 101.849 8.66146 101.849 8.03906C101.849 7.42448 101.963 6.88281 102.192 6.41406C102.424 5.94531 102.747 5.57943 103.161 5.31641C103.578 5.05339 104.065 4.92188 104.622 4.92188C104.961 4.92188 105.289 4.97786 105.606 5.08984C105.924 5.20182 106.209 5.3776 106.462 5.61719C106.715 5.85677 106.914 6.16797 107.06 6.55078C107.205 6.93099 107.278 7.39323 107.278 7.9375V8.35156H102.509V7.47656L106.134 7.47656C106.134 7.16927 106.071 6.89714 105.946 6.66016C105.821 6.42057 105.646 6.23177 105.419 6.09375C105.195 5.95573 104.932 5.88672 104.63 5.88672C104.302 5.88672 104.015 5.96745 103.771 6.12891C103.528 6.28776 103.341 6.49609 103.208 6.75391C103.078 7.00911 103.013 7.28646 103.013 7.58594V8.26953C103.013 8.67057 103.083 9.01172 103.224 9.29297C103.367 9.57422 103.566 9.78906 103.821 9.9375C104.076 10.0833 104.375 10.1562 104.716 10.1562C104.937 10.1562 105.139 10.125 105.321 10.0625C105.504 9.9974 105.661 9.90104 105.794 9.77344C105.927 9.64583 106.028 9.48828 106.099 9.30078L107.204 9.5C107.116 9.82552 106.957 10.1107 106.728 10.3555C106.501 10.5977 106.216 10.7865 105.872 10.9219C105.531 11.0547 105.142 11.1211 104.704 11.1211ZM109.742 7.4375V11H108.574V5H109.695V5.97656H109.77C109.908 5.65885 110.124 5.40365 110.418 5.21094C110.715 5.01823 111.089 4.92188 111.539 4.92188C111.948 4.92188 112.306 5.00781 112.613 5.17969C112.921 5.34896 113.159 5.60156 113.328 5.9375C113.497 6.27344 113.582 6.6888 113.582 7.18359V11H112.414V7.32422C112.414 6.88932 112.301 6.54948 112.074 6.30469C111.848 6.05729 111.536 5.93359 111.141 5.93359C110.87 5.93359 110.629 5.99219 110.418 6.10937C110.21 6.22656 110.044 6.39844 109.922 6.625C109.802 6.84896 109.742 7.11979 109.742 7.4375ZM119.645 6.46484L118.586 6.65234C118.542 6.51693 118.471 6.38802 118.375 6.26562C118.281 6.14323 118.154 6.04297 117.992 5.96484C117.831 5.88672 117.629 5.84766 117.387 5.84766C117.056 5.84766 116.78 5.92187 116.559 6.07031C116.337 6.21615 116.227 6.40495 116.227 6.63672C116.227 6.83724 116.301 6.9987 116.449 7.12109C116.598 7.24349 116.837 7.34375 117.168 7.42187L118.121 7.64062C118.673 7.76823 119.085 7.96484 119.355 8.23047C119.626 8.49609 119.762 8.84115 119.762 9.26563C119.762 9.625 119.658 9.94531 119.449 10.2266C119.243 10.5052 118.956 10.724 118.586 10.8828C118.219 11.0417 117.793 11.1211 117.309 11.1211C116.637 11.1211 116.089 10.9779 115.664 10.6914C115.24 10.4023 114.979 9.99219 114.883 9.46094L116.012 9.28906C116.082 9.58333 116.227 9.80599 116.445 9.95703C116.664 10.1055 116.949 10.1797 117.301 10.1797C117.684 10.1797 117.99 10.1003 118.219 9.94141C118.448 9.77995 118.562 9.58333 118.562 9.35156C118.562 9.16406 118.492 9.00651 118.352 8.87891C118.214 8.7513 118.001 8.65495 117.715 8.58984L116.699 8.36719C116.139 8.23958 115.725 8.03646 115.457 7.75781C115.191 7.47917 115.059 7.1263 115.059 6.69922C115.059 6.34505 115.158 6.03516 115.355 5.76953C115.553 5.50391 115.827 5.29687 116.176 5.14844C116.525 4.9974 116.924 4.92188 117.375 4.92188C118.023 4.92188 118.534 5.0625 118.906 5.34375C119.279 5.6224 119.525 5.99609 119.645 6.46484Z" fill="black"/>
<mask id="mask0_30_959" style="mask-type:alpha" maskUnits="userSpaceOnUse" x="316" y="159" width="134" height="131">
<rect x="316" y="159" width="134" height="131" fill="url(#paint0_linear_30_959)"/>
</mask>
<g mask="url(#mask0_30_959)">
<rect x="330.5" y="193.5" width="100" height="46" rx="4.5" fill="#FBD6D5" stroke="black"/>
<rect x="330.5" y="193.5" width="100" height="46" rx="4.5" fill="#FBD6D5" stroke="black"/>
<path d="M374.231 204.493C374.178 204.022 373.96 203.658 373.575 203.399C373.191 203.137 372.707 203.006 372.123 203.006C371.706 203.006 371.345 203.073 371.04 203.205C370.735 203.335 370.498 203.513 370.329 203.742C370.163 203.968 370.08 204.224 370.08 204.513C370.08 204.755 370.137 204.964 370.249 205.139C370.365 205.315 370.516 205.462 370.702 205.582C370.891 205.698 371.093 205.795 371.308 205.875C371.524 205.951 371.731 206.014 371.93 206.064L372.924 206.322C373.249 206.402 373.582 206.51 373.923 206.646C374.265 206.781 374.581 206.96 374.873 207.183C375.164 207.405 375.4 207.68 375.579 208.008C375.761 208.336 375.852 208.729 375.852 209.186C375.852 209.763 375.703 210.275 375.405 210.722C375.11 211.17 374.681 211.523 374.117 211.781C373.557 212.04 372.879 212.169 372.084 212.169C371.321 212.169 370.662 212.048 370.105 211.806C369.548 211.564 369.112 211.221 368.797 210.777C368.483 210.33 368.309 209.799 368.275 209.186H369.817C369.847 209.554 369.966 209.861 370.175 210.106C370.387 210.348 370.657 210.528 370.985 210.648C371.316 210.764 371.679 210.822 372.074 210.822C372.508 210.822 372.894 210.754 373.232 210.618C373.574 210.479 373.842 210.286 374.038 210.041C374.233 209.793 374.331 209.503 374.331 209.171C374.331 208.87 374.245 208.623 374.072 208.43C373.903 208.238 373.673 208.079 373.381 207.953C373.093 207.827 372.766 207.716 372.402 207.62L371.199 207.292C370.383 207.07 369.737 206.743 369.26 206.312C368.786 205.882 368.549 205.312 368.549 204.602C368.549 204.016 368.708 203.504 369.026 203.066C369.344 202.629 369.775 202.289 370.319 202.047C370.862 201.802 371.476 201.679 372.158 201.679C372.848 201.679 373.456 201.8 373.983 202.042C374.513 202.284 374.931 202.617 375.236 203.041C375.541 203.462 375.7 203.946 375.713 204.493H374.231ZM380.86 212.154C380.107 212.154 379.459 211.993 378.916 211.672C378.376 211.347 377.958 210.891 377.663 210.305C377.371 209.715 377.226 209.024 377.226 208.232C377.226 207.449 377.371 206.76 377.663 206.163C377.958 205.567 378.369 205.101 378.896 204.766C379.426 204.432 380.046 204.264 380.755 204.264C381.186 204.264 381.604 204.335 382.008 204.478C382.413 204.621 382.776 204.844 383.097 205.149C383.419 205.454 383.672 205.85 383.858 206.337C384.043 206.821 384.136 207.41 384.136 208.102V208.629H378.066V207.516H382.679C382.679 207.125 382.6 206.778 382.441 206.477C382.282 206.172 382.058 205.931 381.77 205.756C381.485 205.58 381.15 205.492 380.765 205.492C380.348 205.492 379.983 205.595 379.672 205.8C379.363 206.003 379.125 206.268 378.956 206.596C378.79 206.921 378.707 207.274 378.707 207.655V208.525C378.707 209.035 378.797 209.469 378.976 209.827C379.158 210.185 379.411 210.459 379.736 210.648C380.061 210.833 380.441 210.926 380.875 210.926C381.156 210.926 381.413 210.886 381.645 210.807C381.877 210.724 382.078 210.601 382.247 210.439C382.416 210.277 382.545 210.076 382.635 209.837L384.042 210.091C383.929 210.505 383.727 210.868 383.435 211.18C383.147 211.488 382.784 211.728 382.346 211.901C381.912 212.07 381.417 212.154 380.86 212.154ZM387.272 201.818V212H385.785V201.818H387.272ZM392.906 204.364V205.557H388.591V204.364H392.906ZM389.774 212V203.479C389.774 203.001 389.878 202.605 390.087 202.29C390.296 201.972 390.573 201.735 390.917 201.58C391.262 201.42 391.637 201.341 392.041 201.341C392.339 201.341 392.594 201.366 392.807 201.415C393.019 201.462 393.176 201.505 393.279 201.545L392.931 202.748C392.861 202.728 392.772 202.705 392.662 202.678C392.553 202.648 392.42 202.634 392.265 202.634C391.903 202.634 391.645 202.723 391.489 202.902C391.337 203.081 391.26 203.339 391.26 203.678V212H389.774ZM351.608 229H349.977L353.641 218.818H355.416L359.08 229H357.449L354.571 220.668H354.491L351.608 229ZM351.881 225.013H357.171V226.305H351.881V225.013ZM363.517 221.364V222.557H359.346V221.364H363.517ZM360.464 219.534H361.951V226.758C361.951 227.046 361.994 227.263 362.08 227.409C362.166 227.552 362.277 227.649 362.413 227.702C362.553 227.752 362.703 227.777 362.866 227.777C362.985 227.777 363.089 227.769 363.179 227.752C363.268 227.736 363.338 227.722 363.388 227.712L363.656 228.94C363.57 228.973 363.447 229.007 363.288 229.04C363.129 229.076 362.93 229.096 362.692 229.099C362.301 229.106 361.936 229.036 361.598 228.891C361.26 228.745 360.987 228.519 360.778 228.214C360.569 227.91 360.464 227.527 360.464 227.066V219.534ZM368.726 221.364V222.557H364.555V221.364H368.726ZM365.673 219.534H367.16V226.758C367.16 227.046 367.203 227.263 367.289 227.409C367.375 227.552 367.486 227.649 367.622 227.702C367.762 227.752 367.912 227.777 368.075 227.777C368.194 227.777 368.298 227.769 368.388 227.752C368.477 227.736 368.547 227.722 368.597 227.712L368.865 228.94C368.779 228.973 368.656 229.007 368.497 229.04C368.338 229.076 368.139 229.096 367.901 229.099C367.51 229.106 367.145 229.036 366.807 228.891C366.469 228.745 366.195 228.519 365.987 228.214C365.778 227.91 365.673 227.527 365.673 227.066V219.534ZM373.58 229.154C372.827 229.154 372.179 228.993 371.636 228.672C371.095 228.347 370.678 227.891 370.383 227.305C370.091 226.715 369.945 226.024 369.945 225.232C369.945 224.449 370.091 223.76 370.383 223.163C370.678 222.567 371.089 222.101 371.616 221.766C372.146 221.432 372.766 221.264 373.475 221.264C373.906 221.264 374.324 221.335 374.728 221.478C375.132 221.621 375.495 221.844 375.817 222.149C376.138 222.454 376.392 222.85 376.577 223.337C376.763 223.821 376.856 224.41 376.856 225.102V225.629H370.786V224.516H375.399C375.399 224.125 375.32 223.778 375.161 223.477C375.001 223.172 374.778 222.931 374.489 222.756C374.204 222.58 373.87 222.492 373.485 222.492C373.067 222.492 372.703 222.595 372.391 222.8C372.083 223.003 371.844 223.268 371.675 223.596C371.51 223.921 371.427 224.274 371.427 224.655V225.525C371.427 226.035 371.516 226.469 371.695 226.827C371.878 227.185 372.131 227.459 372.456 227.648C372.781 227.833 373.16 227.926 373.594 227.926C373.876 227.926 374.133 227.886 374.365 227.807C374.597 227.724 374.798 227.601 374.967 227.439C375.136 227.277 375.265 227.076 375.354 226.837L376.761 227.091C376.649 227.505 376.446 227.868 376.155 228.18C375.866 228.488 375.504 228.728 375.066 228.901C374.632 229.07 374.136 229.154 373.58 229.154ZM379.992 224.466V229H378.505V221.364H379.932V222.607H380.026C380.202 222.202 380.477 221.877 380.852 221.632C381.23 221.387 381.705 221.264 382.279 221.264C382.799 221.264 383.255 221.374 383.646 221.592C384.037 221.808 384.34 222.129 384.556 222.557C384.771 222.984 384.879 223.513 384.879 224.143V229H383.392V224.322C383.392 223.768 383.248 223.336 382.96 223.024C382.671 222.709 382.275 222.552 381.771 222.552C381.427 222.552 381.12 222.626 380.852 222.776C380.587 222.925 380.376 223.143 380.22 223.432C380.068 223.717 379.992 224.062 379.992 224.466ZM390.437 221.364V222.557H386.266V221.364H390.437ZM387.384 219.534H388.871V226.758C388.871 227.046 388.914 227.263 389 227.409C389.086 227.552 389.197 227.649 389.333 227.702C389.472 227.752 389.623 227.777 389.786 227.777C389.905 227.777 390.009 227.769 390.099 227.752C390.188 227.736 390.258 227.722 390.308 227.712L390.576 228.94C390.49 228.973 390.367 229.007 390.208 229.04C390.049 229.076 389.85 229.096 389.612 229.099C389.221 229.106 388.856 229.036 388.518 228.891C388.18 228.745 387.906 228.519 387.698 228.214C387.489 227.91 387.384 227.527 387.384 227.066V219.534ZM392.081 229V221.364H393.568V229H392.081ZM392.832 220.185C392.574 220.185 392.351 220.099 392.166 219.927C391.984 219.751 391.892 219.542 391.892 219.3C391.892 219.055 391.984 218.846 392.166 218.674C392.351 218.498 392.574 218.411 392.832 218.411C393.091 218.411 393.311 218.498 393.493 218.674C393.679 218.846 393.772 219.055 393.772 219.3C393.772 219.542 393.679 219.751 393.493 219.927C393.311 220.099 393.091 220.185 392.832 220.185ZM398.784 229.154C398.068 229.154 397.444 228.99 396.91 228.662C396.376 228.334 395.962 227.875 395.667 227.285C395.372 226.695 395.225 226.005 395.225 225.217C395.225 224.424 395.372 223.732 395.667 223.138C395.962 222.545 396.376 222.085 396.91 221.756C397.444 221.428 398.068 221.264 398.784 221.264C399.5 221.264 400.125 221.428 400.659 221.756C401.192 222.085 401.606 222.545 401.901 223.138C402.196 223.732 402.344 224.424 402.344 225.217C402.344 226.005 402.196 226.695 401.901 227.285C401.606 227.875 401.192 228.334 400.659 228.662C400.125 228.99 399.5 229.154 398.784 229.154ZM398.789 227.906C399.253 227.906 399.638 227.784 399.943 227.538C400.248 227.293 400.473 226.967 400.619 226.559C400.768 226.151 400.843 225.702 400.843 225.212C400.843 224.724 400.768 224.277 400.619 223.869C400.473 223.458 400.248 223.129 399.943 222.88C399.638 222.631 399.253 222.507 398.789 222.507C398.322 222.507 397.934 222.631 397.626 222.88C397.321 223.129 397.094 223.458 396.945 223.869C396.799 224.277 396.726 224.724 396.726 225.212C396.726 225.702 396.799 226.151 396.945 226.559C397.094 226.967 397.321 227.293 397.626 227.538C397.934 227.784 398.322 227.906 398.789 227.906ZM405.49 224.466V229H404.003V221.364H405.43V222.607H405.525C405.7 222.202 405.975 221.877 406.35 221.632C406.728 221.387 407.203 221.264 407.777 221.264C408.297 221.264 408.753 221.374 409.144 221.592C409.535 221.808 409.838 222.129 410.054 222.557C410.269 222.984 410.377 223.513 410.377 224.143V229H408.89V224.322C408.89 223.768 408.746 223.336 408.458 223.024C408.169 222.709 407.773 222.552 407.27 222.552C406.925 222.552 406.618 222.626 406.35 222.776C406.085 222.925 405.874 223.143 405.718 223.432C405.566 223.717 405.49 224.062 405.49 224.466Z" fill="black"/>
</g>
<path d="M86 154L88.8868 149H83.1132L86 154ZM86.5 149.5V127H85.5V149.5H86.5Z" fill="black"/>
<rect x="181" y="168" width="12" height="99" rx="3" fill="#D9D9D9"/>
<rect x="182.5" y="170.5" width="9" height="9" rx="2.5" fill="#C8BCF8" stroke="black"/>
<rect x="182.5" y="182.5" width="9" height="9" rx="2.5" fill="#BCC9F8" stroke="black"/>
<rect x="182.5" y="194.5" width="9" height="9" rx="2.5" fill="#BCE2F8" stroke="black"/>
<rect x="182.5" y="206.5" width="9" height="9" rx="2.5" fill="#BCF8E2" stroke="black"/>
<rect x="182.5" y="219.5" width="9" height="9" rx="2.5" fill="#F3F8BC" stroke="black"/>
<rect x="182.5" y="231.5" width="9" height="9" rx="2.5" fill="#F8E7BC" stroke="black"/>
<rect x="182.5" y="243.5" width="9" height="9" rx="2.5" fill="#F8CABC" stroke="black"/>
<rect x="182.5" y="255.5" width="9" height="9" rx="2.5" fill="#F8BCBC" stroke="black"/>
<rect x="194" y="168" width="12" height="99" rx="3" fill="#D9D9D9"/>
<rect x="195.5" y="170.5" width="9" height="9" rx="2.5" fill="#C8BCF8" stroke="black"/>
<rect x="195.5" y="182.5" width="9" height="9" rx="2.5" fill="#BCC9F8" stroke="black"/>
<rect x="195.5" y="194.5" width="9" height="9" rx="2.5" fill="#BCE2F8" stroke="black"/>
<rect x="195.5" y="206.5" width="9" height="9" rx="2.5" fill="#BCF8E2" stroke="black"/>
<rect x="195.5" y="219.5" width="9" height="9" rx="2.5" fill="#F3F8BC" stroke="black"/>
<rect x="195.5" y="231.5" width="9" height="9" rx="2.5" fill="#F8E7BC" stroke="black"/>
<rect x="195.5" y="243.5" width="9" height="9" rx="2.5" fill="#F8CABC" stroke="black"/>
<rect x="195.5" y="255.5" width="9" height="9" rx="2.5" fill="#F8BCBC" stroke="black"/>
<rect x="207" y="168" width="12" height="99" rx="3" fill="#D9D9D9"/>
<rect x="208.5" y="170.5" width="9" height="9" rx="2.5" fill="#C8BCF8" stroke="black"/>
<rect x="208.5" y="182.5" width="9" height="9" rx="2.5" fill="#BCC9F8" stroke="black"/>
<rect x="208.5" y="194.5" width="9" height="9" rx="2.5" fill="#BCE2F8" stroke="black"/>
<rect x="208.5" y="206.5" width="9" height="9" rx="2.5" fill="#BCF8E2" stroke="black"/>
<rect x="208.5" y="219.5" width="9" height="9" rx="2.5" fill="#F3F8BC" stroke="black"/>
<rect x="208.5" y="231.5" width="9" height="9" rx="2.5" fill="#F8E7BC" stroke="black"/>
<rect x="208.5" y="243.5" width="9" height="9" rx="2.5" fill="#F8CABC" stroke="black"/>
<rect x="208.5" y="255.5" width="9" height="9" rx="2.5" fill="#F8BCBC" stroke="black"/>
<rect x="220" y="168" width="12" height="99" rx="3" fill="#D9D9D9"/>
<rect x="221.5" y="170.5" width="9" height="9" rx="2.5" fill="#C8BCF8" stroke="black"/>
<rect x="221.5" y="182.5" width="9" height="9" rx="2.5" fill="#BCC9F8" stroke="black"/>
<rect x="221.5" y="194.5" width="9" height="9" rx="2.5" fill="#BCE2F8" stroke="black"/>
<rect x="221.5" y="206.5" width="9" height="9" rx="2.5" fill="#BCF8E2" stroke="black"/>
<rect x="221.5" y="219.5" width="9" height="9" rx="2.5" fill="#F3F8BC" stroke="black"/>
<rect x="221.5" y="231.5" width="9" height="9" rx="2.5" fill="#F8E7BC" stroke="black"/>
<rect x="221.5" y="243.5" width="9" height="9" rx="2.5" fill="#F8CABC" stroke="black"/>
<rect x="221.5" y="255.5" width="9" height="9" rx="2.5" fill="#F8BCBC" stroke="black"/>
<rect x="233" y="168" width="12" height="99" rx="3" fill="#D9D9D9"/>
<rect x="234.5" y="170.5" width="9" height="9" rx="2.5" fill="#C8BCF8" stroke="black"/>
<rect x="234.5" y="182.5" width="9" height="9" rx="2.5" fill="#BCC9F8" stroke="black"/>
<rect x="234.5" y="194.5" width="9" height="9" rx="2.5" fill="#BCE2F8" stroke="black"/>
<rect x="234.5" y="206.5" width="9" height="9" rx="2.5" fill="#BCF8E2" stroke="black"/>
<rect x="234.5" y="219.5" width="9" height="9" rx="2.5" fill="#F3F8BC" stroke="black"/>
<rect x="234.5" y="231.5" width="9" height="9" rx="2.5" fill="#F8E7BC" stroke="black"/>
<rect x="234.5" y="243.5" width="9" height="9" rx="2.5" fill="#F8CABC" stroke="black"/>
<rect x="234.5" y="255.5" width="9" height="9" rx="2.5" fill="#F8BCBC" stroke="black"/>
<rect x="246" y="168" width="12" height="99" rx="3" fill="#D9D9D9"/>
<rect x="247.5" y="170.5" width="9" height="9" rx="2.5" fill="#C8BCF8" stroke="black"/>
<rect x="247.5" y="182.5" width="9" height="9" rx="2.5" fill="#BCC9F8" stroke="black"/>
<rect x="247.5" y="194.5" width="9" height="9" rx="2.5" fill="#BCE2F8" stroke="black"/>
<rect x="247.5" y="206.5" width="9" height="9" rx="2.5" fill="#BCF8E2" stroke="black"/>
<rect x="247.5" y="219.5" width="9" height="9" rx="2.5" fill="#F3F8BC" stroke="black"/>
<rect x="247.5" y="231.5" width="9" height="9" rx="2.5" fill="#F8E7BC" stroke="black"/>
<rect x="247.5" y="243.5" width="9" height="9" rx="2.5" fill="#F8CABC" stroke="black"/>
<rect x="247.5" y="255.5" width="9" height="9" rx="2.5" fill="#F8BCBC" stroke="black"/>
<rect x="259" y="168" width="12" height="99" rx="3" fill="#D9D9D9"/>
<rect x="260.5" y="170.5" width="9" height="9" rx="2.5" fill="#C8BCF8" stroke="black"/>
<rect x="260.5" y="182.5" width="9" height="9" rx="2.5" fill="#BCC9F8" stroke="black"/>
<rect x="260.5" y="194.5" width="9" height="9" rx="2.5" fill="#BCE2F8" stroke="black"/>
<rect x="260.5" y="206.5" width="9" height="9" rx="2.5" fill="#BCF8E2" stroke="black"/>
<rect x="260.5" y="219.5" width="9" height="9" rx="2.5" fill="#F3F8BC" stroke="black"/>
<rect x="260.5" y="231.5" width="9" height="9" rx="2.5" fill="#F8E7BC" stroke="black"/>
<rect x="260.5" y="243.5" width="9" height="9" rx="2.5" fill="#F8CABC" stroke="black"/>
<rect x="260.5" y="255.5" width="9" height="9" rx="2.5" fill="#F8BCBC" stroke="black"/>
<rect x="272" y="168" width="12" height="99" rx="3" fill="#D9D9D9"/>
<rect x="273.5" y="170.5" width="9" height="9" rx="2.5" fill="#C8BCF8" stroke="black"/>
<rect x="273.5" y="182.5" width="9" height="9" rx="2.5" fill="#BCC9F8" stroke="black"/>
<rect x="273.5" y="194.5" width="9" height="9" rx="2.5" fill="#BCE2F8" stroke="black"/>
<rect x="273.5" y="206.5" width="9" height="9" rx="2.5" fill="#BCF8E2" stroke="black"/>
<rect x="273.5" y="219.5" width="9" height="9" rx="2.5" fill="#F3F8BC" stroke="black"/>
<rect x="273.5" y="231.5" width="9" height="9" rx="2.5" fill="#F8E7BC" stroke="black"/>
<rect x="273.5" y="243.5" width="9" height="9" rx="2.5" fill="#F8CABC" stroke="black"/>
<rect x="273.5" y="255.5" width="9" height="9" rx="2.5" fill="#F8BCBC" stroke="black"/>
<rect x="36.5" y="159.5" width="100" height="113" rx="4.5" fill="#D3E3F1" stroke="black"/>
<path d="M76.6544 207.272H75.1032C75.0436 206.941 74.9326 206.649 74.7702 206.397C74.6077 206.145 74.4089 205.931 74.1736 205.756C73.9382 205.58 73.6747 205.448 73.3831 205.358C73.0947 205.269 72.7881 205.224 72.4633 205.224C71.8767 205.224 71.3514 205.371 70.8873 205.666C70.4266 205.961 70.0621 206.394 69.7936 206.964C69.5284 207.534 69.3959 208.23 69.3959 209.052C69.3959 209.881 69.5284 210.58 69.7936 211.15C70.0621 211.72 70.4283 212.151 70.8923 212.443C71.3563 212.734 71.8783 212.88 72.4584 212.88C72.7799 212.88 73.0848 212.837 73.3731 212.751C73.6648 212.661 73.9283 212.53 74.1636 212.358C74.3989 212.186 74.5978 211.975 74.7602 211.727C74.9259 211.475 75.0403 211.186 75.1032 210.862L76.6544 210.867C76.5715 211.367 76.4108 211.828 76.1721 212.249C75.9368 212.666 75.6336 213.028 75.2623 213.332C74.8944 213.634 74.4735 213.868 73.9996 214.033C73.5256 214.199 73.0086 214.282 72.4484 214.282C71.5668 214.282 70.7813 214.073 70.0919 213.656C69.4025 213.235 68.8589 212.633 68.4612 211.851C68.0668 211.069 67.8696 210.136 67.8696 209.052C67.8696 207.965 68.0684 207.032 68.4662 206.253C68.8639 205.471 69.4075 204.871 70.0969 204.453C70.7863 204.032 71.5701 203.822 72.4484 203.822C72.9887 203.822 73.4925 203.9 73.9598 204.055C74.4304 204.208 74.853 204.433 75.2275 204.732C75.6021 205.027 75.912 205.388 76.1572 205.815C76.4025 206.24 76.5682 206.725 76.6544 207.272ZM78.3733 214.143V206.506H79.8101V207.72H79.8896C80.0289 207.309 80.2741 206.985 80.6254 206.75C80.9801 206.511 81.3811 206.392 81.8286 206.392C81.9214 206.392 82.0307 206.395 82.1567 206.402C82.286 206.409 82.387 206.417 82.46 206.427V207.849C82.4003 207.832 82.2942 207.814 82.1418 207.794C81.9893 207.771 81.8369 207.759 81.6844 207.759C81.3331 207.759 81.0199 207.834 80.7448 207.983C80.473 208.129 80.2575 208.333 80.0985 208.595C79.9394 208.853 79.8598 209.148 79.8598 209.48V214.143H78.3733ZM86.6895 214.297C85.9736 214.297 85.3489 214.133 84.8153 213.805C84.2816 213.477 83.8673 213.018 83.5724 212.428C83.2774 211.838 83.1299 211.148 83.1299 210.359C83.1299 209.567 83.2774 208.875 83.5724 208.281C83.8673 207.688 84.2816 207.227 84.8153 206.899C85.3489 206.571 85.9736 206.407 86.6895 206.407C87.4055 206.407 88.0302 206.571 88.5638 206.899C89.0974 207.227 89.5117 207.688 89.8067 208.281C90.1017 208.875 90.2492 209.567 90.2492 210.359C90.2492 211.148 90.1017 211.838 89.8067 212.428C89.5117 213.018 89.0974 213.477 88.5638 213.805C88.0302 214.133 87.4055 214.297 86.6895 214.297ZM86.6945 213.049C87.1585 213.049 87.543 212.926 87.8479 212.681C88.1528 212.436 88.3782 212.109 88.5241 211.702C88.6732 211.294 88.7478 210.845 88.7478 210.355C88.7478 209.867 88.6732 209.42 88.5241 209.012C88.3782 208.601 88.1528 208.271 87.8479 208.023C87.543 207.774 87.1585 207.65 86.6945 207.65C86.2272 207.65 85.8394 207.774 85.5312 208.023C85.2262 208.271 84.9992 208.601 84.8501 209.012C84.7042 209.42 84.6313 209.867 84.6313 210.355C84.6313 210.845 84.7042 211.294 84.8501 211.702C84.9992 212.109 85.2262 212.436 85.5312 212.681C85.8394 212.926 86.2272 213.049 86.6945 213.049ZM97.6308 208.371L96.2835 208.609C96.2271 208.437 96.1376 208.273 96.015 208.117C95.8957 207.962 95.7333 207.834 95.5278 207.734C95.3223 207.635 95.0654 207.585 94.7572 207.585C94.3363 207.585 93.9849 207.68 93.7032 207.869C93.4215 208.054 93.2806 208.295 93.2806 208.59C93.2806 208.845 93.3751 209.05 93.564 209.206C93.7529 209.362 94.0579 209.489 94.4788 209.589L95.6919 209.867C96.3945 210.03 96.9182 210.28 97.2629 210.618C97.6076 210.956 97.7799 211.395 97.7799 211.935C97.7799 212.393 97.6473 212.801 97.3822 213.158C97.1204 213.513 96.7541 213.792 96.2835 213.994C95.8161 214.196 95.2742 214.297 94.6578 214.297C93.8026 214.297 93.105 214.115 92.5647 213.75C92.0245 213.382 91.693 212.86 91.5704 212.184L93.0072 211.965C93.0967 212.34 93.2806 212.623 93.559 212.815C93.8374 213.004 94.2004 213.099 94.6478 213.099C95.135 213.099 95.5245 212.998 95.8161 212.796C96.1078 212.59 96.2536 212.34 96.2536 212.045C96.2536 211.806 96.1642 211.606 95.9852 211.443C95.8095 211.281 95.5394 211.158 95.1748 211.075L93.8822 210.792C93.1696 210.63 92.6426 210.371 92.3012 210.016C91.9632 209.662 91.7941 209.213 91.7941 208.669C91.7941 208.218 91.9201 207.824 92.172 207.486C92.4239 207.148 92.7719 206.884 93.216 206.695C93.6601 206.503 94.1689 206.407 94.7423 206.407C95.5676 206.407 96.2172 206.586 96.6911 206.944C97.1651 207.299 97.4783 207.774 97.6308 208.371ZM105.137 208.371L103.789 208.609C103.733 208.437 103.643 208.273 103.521 208.117C103.402 207.962 103.239 207.834 103.034 207.734C102.828 207.635 102.571 207.585 102.263 207.585C101.842 207.585 101.491 207.68 101.209 207.869C100.927 208.054 100.786 208.295 100.786 208.59C100.786 208.845 100.881 209.05 101.07 209.206C101.259 209.362 101.564 209.489 101.985 209.589L103.198 209.867C103.9 210.03 104.424 210.28 104.769 210.618C105.113 210.956 105.286 211.395 105.286 211.935C105.286 212.393 105.153 212.801 104.888 213.158C104.626 213.513 104.26 213.792 103.789 213.994C103.322 214.196 102.78 214.297 102.164 214.297C101.309 214.297 100.611 214.115 100.071 213.75C99.5303 213.382 99.1989 212.86 99.0763 212.184L100.513 211.965C100.603 212.34 100.786 212.623 101.065 212.815C101.343 213.004 101.706 213.099 102.154 213.099C102.641 213.099 103.03 212.998 103.322 212.796C103.614 212.59 103.759 212.34 103.759 212.045C103.759 211.806 103.67 211.606 103.491 211.443C103.315 211.281 103.045 211.158 102.681 211.075L101.388 210.792C100.675 210.63 100.148 210.371 99.8071 210.016C99.469 209.662 99.3 209.213 99.3 208.669C99.3 208.218 99.4259 207.824 99.6778 207.486C99.9297 207.148 100.278 206.884 100.722 206.695C101.166 206.503 101.675 206.407 102.248 206.407C103.073 206.407 103.723 206.586 104.197 206.944C104.671 207.299 104.984 207.774 105.137 208.371ZM57.6076 231.143H55.9769L59.641 220.961H61.4158L65.0799 231.143H63.4492L60.5707 222.81H60.4911L57.6076 231.143ZM57.881 227.156H63.1708V228.448H57.881V227.156ZM69.517 223.506V224.7H65.3459V223.506H69.517ZM66.4645 221.677H67.951V228.901C67.951 229.189 67.9941 229.406 68.0803 229.552C68.1664 229.694 68.2775 229.792 68.4134 229.845C68.5526 229.895 68.7034 229.92 68.8658 229.92C68.9851 229.92 69.0895 229.912 69.179 229.895C69.2685 229.878 69.3381 229.865 69.3878 229.855L69.6562 231.083C69.5701 231.116 69.4474 231.149 69.2884 231.183C69.1293 231.219 68.9304 231.239 68.6918 231.242C68.3007 231.249 67.9361 231.179 67.598 231.033C67.2599 230.888 66.9865 230.662 66.7777 230.357C66.5689 230.052 66.4645 229.67 66.4645 229.209V221.677ZM74.726 223.506V224.7H70.5549V223.506H74.726ZM71.6735 221.677H73.16V228.901C73.16 229.189 73.2031 229.406 73.2892 229.552C73.3754 229.694 73.4864 229.792 73.6223 229.845C73.7615 229.895 73.9123 229.92 74.0748 229.92C74.1941 229.92 74.2985 229.912 74.388 229.895C74.4775 229.878 74.5471 229.865 74.5968 229.855L74.8652 231.083C74.7791 231.116 74.6564 231.149 74.4973 231.183C74.3382 231.219 74.1394 231.239 73.9007 231.242C73.5096 231.249 73.1451 231.179 72.807 231.033C72.4689 230.888 72.1955 230.662 71.9867 230.357C71.7779 230.052 71.6735 229.67 71.6735 229.209V221.677ZM79.5795 231.297C78.8272 231.297 78.1792 231.136 77.6357 230.815C77.0954 230.49 76.6778 230.034 76.3828 229.448C76.0911 228.858 75.9453 228.167 75.9453 227.374C75.9453 226.592 76.0911 225.903 76.3828 225.306C76.6778 224.71 77.0888 224.244 77.6158 223.909C78.1461 223.574 78.7659 223.407 79.4751 223.407C79.906 223.407 80.3236 223.478 80.728 223.621C81.1323 223.763 81.4953 223.987 81.8168 224.292C82.1383 224.597 82.3918 224.993 82.5774 225.48C82.763 225.964 82.8558 226.552 82.8558 227.245V227.772H76.7855V226.658H81.3991C81.3991 226.267 81.3196 225.921 81.1605 225.619C81.0014 225.314 80.7777 225.074 80.4893 224.899C80.2043 224.723 79.8696 224.635 79.4851 224.635C79.0675 224.635 78.7029 224.738 78.3913 224.943C78.0831 225.145 77.8445 225.411 77.6754 225.739C77.5097 226.064 77.4268 226.417 77.4268 226.798V227.668C77.4268 228.178 77.5163 228.612 77.6953 228.97C77.8776 229.328 78.1312 229.602 78.456 229.791C78.7808 229.976 79.1603 230.069 79.5945 230.069C79.8762 230.069 80.133 230.029 80.3651 229.95C80.5971 229.867 80.7976 229.744 80.9666 229.582C81.1357 229.419 81.2649 229.219 81.3544 228.98L82.7614 229.234C82.6487 229.648 82.4465 230.011 82.1548 230.323C81.8665 230.631 81.5036 230.871 81.0661 231.043C80.6319 231.212 80.1364 231.297 79.5795 231.297ZM85.9917 226.609V231.143H84.5051V223.506H85.932V224.749H86.0265C86.2021 224.345 86.4772 224.02 86.8517 223.775C87.2296 223.53 87.7052 223.407 88.2786 223.407C88.7989 223.407 89.2547 223.516 89.6458 223.735C90.0369 223.951 90.3401 224.272 90.5556 224.7C90.771 225.127 90.8787 225.656 90.8787 226.286V231.143H89.3922V226.465C89.3922 225.911 89.248 225.479 88.9597 225.167C88.6713 224.852 88.2753 224.695 87.7715 224.695C87.4268 224.695 87.1202 224.769 86.8517 224.918C86.5866 225.068 86.3761 225.286 86.2203 225.575C86.0679 225.86 85.9917 226.204 85.9917 226.609ZM96.437 223.506V224.7H92.2658V223.506H96.437ZM93.3844 221.677H94.8709V228.901C94.8709 229.189 94.914 229.406 95.0002 229.552C95.0864 229.694 95.1974 229.792 95.3333 229.845C95.4725 229.895 95.6233 229.92 95.7857 229.92C95.905 229.92 96.0094 229.912 96.0989 229.895C96.1884 229.878 96.258 229.865 96.3077 229.855L96.5762 231.083C96.49 231.116 96.3674 231.149 96.2083 231.183C96.0492 231.219 95.8503 231.239 95.6117 231.242C95.2206 231.249 94.856 231.179 94.5179 231.033C94.1799 230.888 93.9064 230.662 93.6976 230.357C93.4888 230.052 93.3844 229.67 93.3844 229.209V221.677ZM98.0813 231.143V223.506H99.5678V231.143H98.0813ZM98.832 222.328C98.5735 222.328 98.3514 222.242 98.1658 222.07C97.9835 221.894 97.8924 221.685 97.8924 221.443C97.8924 221.198 97.9835 220.989 98.1658 220.817C98.3514 220.641 98.5735 220.553 98.832 220.553C99.0906 220.553 99.311 220.641 99.4933 220.817C99.6789 220.989 99.7717 221.198 99.7717 221.443C99.7717 221.685 99.6789 221.894 99.4933 222.07C99.311 222.242 99.0906 222.328 98.832 222.328ZM104.784 231.297C104.068 231.297 103.444 231.133 102.91 230.805C102.376 230.477 101.962 230.018 101.667 229.428C101.372 228.838 101.225 228.148 101.225 227.359C101.225 226.567 101.372 225.875 101.667 225.281C101.962 224.688 102.376 224.227 102.91 223.899C103.444 223.571 104.068 223.407 104.784 223.407C105.5 223.407 106.125 223.571 106.659 223.899C107.192 224.227 107.606 224.688 107.901 225.281C108.196 225.875 108.344 226.567 108.344 227.359C108.344 228.148 108.196 228.838 107.901 229.428C107.606 230.018 107.192 230.477 106.659 230.805C106.125 231.133 105.5 231.297 104.784 231.297ZM104.789 230.049C105.253 230.049 105.638 229.926 105.943 229.681C106.248 229.436 106.473 229.109 106.619 228.702C106.768 228.294 106.843 227.845 106.843 227.355C106.843 226.867 106.768 226.42 106.619 226.012C106.473 225.601 106.248 225.271 105.943 225.023C105.638 224.774 105.253 224.65 104.789 224.65C104.322 224.65 103.934 224.774 103.626 225.023C103.321 225.271 103.094 225.601 102.945 226.012C102.799 226.42 102.726 226.867 102.726 227.355C102.726 227.845 102.799 228.294 102.945 228.702C103.094 229.109 103.321 229.436 103.626 229.681C103.934 229.926 104.322 230.049 104.789 230.049ZM111.49 226.609V231.143H110.003V223.506H111.43V224.749H111.525C111.7 224.345 111.975 224.02 112.35 223.775C112.728 223.53 113.203 223.407 113.777 223.407C114.297 223.407 114.753 223.516 115.144 223.735C115.535 223.951 115.838 224.272 116.054 224.7C116.269 225.127 116.377 225.656 116.377 226.286V231.143H114.89V226.465C114.89 225.911 114.746 225.479 114.458 225.167C114.169 224.852 113.773 224.695 113.27 224.695C112.925 224.695 112.618 224.769 112.35 224.918C112.085 225.068 111.874 225.286 111.718 225.575C111.566 225.86 111.49 226.204 111.49 226.609Z" fill="black"/>
<path d="M85.7141 169.727H86.68L87.4897 170.793L87.7028 171.077L88.9102 172.682H87.9442L87.1488 171.616L86.9499 171.347L85.7141 169.727ZM89.2085 168.364C89.2085 169.131 89.07 169.794 88.793 170.352C88.516 170.911 88.136 171.342 87.6531 171.645C87.1701 171.948 86.6185 172.099 85.9982 172.099C85.378 172.099 84.8263 171.948 84.3434 171.645C83.8604 171.342 83.4805 170.911 83.2035 170.352C82.9265 169.794 82.788 169.131 82.788 168.364C82.788 167.597 82.9265 166.934 83.2035 166.375C83.4805 165.816 83.8604 165.385 84.3434 165.082C84.8263 164.779 85.378 164.628 85.9982 164.628C86.6185 164.628 87.1701 164.779 87.6531 165.082C88.136 165.385 88.516 165.816 88.793 166.375C89.07 166.934 89.2085 167.597 89.2085 168.364ZM88.3562 168.364C88.3562 167.734 88.2508 167.202 88.0401 166.769C87.8318 166.336 87.5489 166.008 87.1914 165.786C86.8363 165.563 86.4386 165.452 85.9982 165.452C85.5579 165.452 85.159 165.563 84.8015 165.786C84.4464 166.008 84.1635 166.336 83.9528 166.769C83.7444 167.202 83.6403 167.734 83.6403 168.364C83.6403 168.993 83.7444 169.525 83.9528 169.958C84.1635 170.391 84.4464 170.719 84.8015 170.942C85.159 171.164 85.5579 171.276 85.9982 171.276C86.4386 171.276 86.8363 171.164 87.1914 170.942C87.5489 170.719 87.8318 170.391 88.0401 169.958C88.2508 169.525 88.3562 168.993 88.3562 168.364Z" fill="black"/>
<path d="M40.619 214V206.727H41.4996V210.335H41.5849L44.8519 206.727H46.0025L42.9485 210.009L46.0025 214H44.9371L42.4087 210.619L41.4996 211.642V214H40.619ZM40.8001 218.727L42.9592 224.849H43.0444L45.2035 218.727H46.1268L43.4563 226H42.5472L39.8768 218.727H40.8001Z" fill="black"/>
<rect x="34" y="23" width="12" height="99" rx="3" fill="#D9D9D9"/>
<rect x="35.5" y="25.5" width="9" height="9" rx="2.5" fill="#C8BCF8" stroke="black"/>
<rect x="35.5" y="37.5" width="9" height="9" rx="2.5" fill="#BCC9F8" stroke="black"/>
<rect x="35.5" y="49.5" width="9" height="9" rx="2.5" fill="#BCE2F8" stroke="black"/>
<rect x="35.5" y="61.5" width="9" height="9" rx="2.5" fill="#BCF8E2" stroke="black"/>
<rect x="35.5" y="74.5" width="9" height="9" rx="2.5" fill="#F3F8BC" stroke="black"/>
<rect x="35.5" y="86.5" width="9" height="9" rx="2.5" fill="#F8E7BC" stroke="black"/>
<rect x="35.5" y="98.5" width="9" height="9" rx="2.5" fill="#F8CABC" stroke="black"/>
<rect x="35.5" y="110.5" width="9" height="9" rx="2.5" fill="#F8BCBC" stroke="black"/>
<rect x="47" y="23" width="12" height="99" rx="3" fill="#D9D9D9"/>
<rect x="48.5" y="25.5" width="9" height="9" rx="2.5" fill="#C8BCF8" stroke="black"/>
<rect x="48.5" y="37.5" width="9" height="9" rx="2.5" fill="#BCC9F8" stroke="black"/>
<rect x="48.5" y="49.5" width="9" height="9" rx="2.5" fill="#BCE2F8" stroke="black"/>
<rect x="48.5" y="61.5" width="9" height="9" rx="2.5" fill="#BCF8E2" stroke="black"/>
<rect x="48.5" y="74.5" width="9" height="9" rx="2.5" fill="#F3F8BC" stroke="black"/>
<rect x="48.5" y="86.5" width="9" height="9" rx="2.5" fill="#F8E7BC" stroke="black"/>
<rect x="48.5" y="98.5" width="9" height="9" rx="2.5" fill="#F8CABC" stroke="black"/>
<rect x="48.5" y="110.5" width="9" height="9" rx="2.5" fill="#F8BCBC" stroke="black"/>
<rect x="60" y="23" width="12" height="99" rx="3" fill="#D9D9D9"/>
<rect x="61.5" y="25.5" width="9" height="9" rx="2.5" fill="#C8BCF8" stroke="black"/>
<rect x="61.5" y="37.5" width="9" height="9" rx="2.5" fill="#BCC9F8" stroke="black"/>
<rect x="61.5" y="49.5" width="9" height="9" rx="2.5" fill="#BCE2F8" stroke="black"/>
<rect x="61.5" y="61.5" width="9" height="9" rx="2.5" fill="#BCF8E2" stroke="black"/>
<rect x="61.5" y="74.5" width="9" height="9" rx="2.5" fill="#F3F8BC" stroke="black"/>
<rect x="61.5" y="86.5" width="9" height="9" rx="2.5" fill="#F8E7BC" stroke="black"/>
<rect x="61.5" y="98.5" width="9" height="9" rx="2.5" fill="#F8CABC" stroke="black"/>
<rect x="61.5" y="110.5" width="9" height="9" rx="2.5" fill="#F8BCBC" stroke="black"/>
<rect x="73" y="23" width="12" height="99" rx="3" fill="#D9D9D9"/>
<rect x="74.5" y="25.5" width="9" height="9" rx="2.5" fill="#C8BCF8" stroke="black"/>
<rect x="74.5" y="37.5" width="9" height="9" rx="2.5" fill="#BCC9F8" stroke="black"/>
<rect x="74.5" y="49.5" width="9" height="9" rx="2.5" fill="#BCE2F8" stroke="black"/>
<rect x="74.5" y="61.5" width="9" height="9" rx="2.5" fill="#BCF8E2" stroke="black"/>
<rect x="74.5" y="74.5" width="9" height="9" rx="2.5" fill="#F3F8BC" stroke="black"/>
<rect x="74.5" y="86.5" width="9" height="9" rx="2.5" fill="#F8E7BC" stroke="black"/>
<rect x="74.5" y="98.5" width="9" height="9" rx="2.5" fill="#F8CABC" stroke="black"/>
<rect x="74.5" y="110.5" width="9" height="9" rx="2.5" fill="#F8BCBC" stroke="black"/>
<rect x="86" y="23" width="12" height="99" rx="3" fill="#D9D9D9"/>
<rect x="87.5" y="25.5" width="9" height="9" rx="2.5" fill="#C8BCF8" stroke="black"/>
<rect x="87.5" y="37.5" width="9" height="9" rx="2.5" fill="#BCC9F8" stroke="black"/>
<rect x="87.5" y="49.5" width="9" height="9" rx="2.5" fill="#BCE2F8" stroke="black"/>
<rect x="87.5" y="61.5" width="9" height="9" rx="2.5" fill="#BCF8E2" stroke="black"/>
<rect x="87.5" y="74.5" width="9" height="9" rx="2.5" fill="#F3F8BC" stroke="black"/>
<rect x="87.5" y="86.5" width="9" height="9" rx="2.5" fill="#F8E7BC" stroke="black"/>
<rect x="87.5" y="98.5" width="9" height="9" rx="2.5" fill="#F8CABC" stroke="black"/>
<rect x="87.5" y="110.5" width="9" height="9" rx="2.5" fill="#F8BCBC" stroke="black"/>
<rect x="99" y="23" width="12" height="99" rx="3" fill="#D9D9D9"/>
<rect x="100.5" y="25.5" width="9" height="9" rx="2.5" fill="#C8BCF8" stroke="black"/>
<rect x="100.5" y="37.5" width="9" height="9" rx="2.5" fill="#BCC9F8" stroke="black"/>
<rect x="100.5" y="49.5" width="9" height="9" rx="2.5" fill="#BCE2F8" stroke="black"/>
<rect x="100.5" y="61.5" width="9" height="9" rx="2.5" fill="#BCF8E2" stroke="black"/>
<rect x="100.5" y="74.5" width="9" height="9" rx="2.5" fill="#F3F8BC" stroke="black"/>
<rect x="100.5" y="86.5" width="9" height="9" rx="2.5" fill="#F8E7BC" stroke="black"/>
<rect x="100.5" y="98.5" width="9" height="9" rx="2.5" fill="#F8CABC" stroke="black"/>
<rect x="100.5" y="110.5" width="9" height="9" rx="2.5" fill="#F8BCBC" stroke="black"/>
<rect x="112" y="23" width="12" height="99" rx="3" fill="#D9D9D9"/>
<rect x="113.5" y="25.5" width="9" height="9" rx="2.5" fill="#C8BCF8" stroke="black"/>
<rect x="113.5" y="37.5" width="9" height="9" rx="2.5" fill="#BCC9F8" stroke="black"/>
<rect x="113.5" y="49.5" width="9" height="9" rx="2.5" fill="#BCE2F8" stroke="black"/>
<rect x="113.5" y="61.5" width="9" height="9" rx="2.5" fill="#BCF8E2" stroke="black"/>
<rect x="113.5" y="74.5" width="9" height="9" rx="2.5" fill="#F3F8BC" stroke="black"/>
<rect x="113.5" y="86.5" width="9" height="9" rx="2.5" fill="#F8E7BC" stroke="black"/>
<rect x="113.5" y="98.5" width="9" height="9" rx="2.5" fill="#F8CABC" stroke="black"/>
<rect x="113.5" y="110.5" width="9" height="9" rx="2.5" fill="#F8BCBC" stroke="black"/>
<rect x="125" y="23" width="12" height="99" rx="3" fill="#D9D9D9"/>
<rect x="126.5" y="25.5" width="9" height="9" rx="2.5" fill="#C8BCF8" stroke="black"/>
<rect x="126.5" y="37.5" width="9" height="9" rx="2.5" fill="#BCC9F8" stroke="black"/>
<rect x="126.5" y="49.5" width="9" height="9" rx="2.5" fill="#BCE2F8" stroke="black"/>
<rect x="126.5" y="61.5" width="9" height="9" rx="2.5" fill="#BCF8E2" stroke="black"/>
<rect x="126.5" y="74.5" width="9" height="9" rx="2.5" fill="#F3F8BC" stroke="black"/>
<rect x="126.5" y="86.5" width="9" height="9" rx="2.5" fill="#F8E7BC" stroke="black"/>
<rect x="126.5" y="98.5" width="9" height="9" rx="2.5" fill="#F8CABC" stroke="black"/>
<rect x="126.5" y="110.5" width="9" height="9" rx="2.5" fill="#F8BCBC" stroke="black"/>
<path d="M27 217L22 214.113L22 219.887L27 217ZM22.5 216.5L-1.95106e-06 216.5L-1.86364e-06 217.5L22.5 217.5L22.5 216.5Z" fill="black"/>
<path d="M174 217L169 214.113L169 219.887L174 217ZM169.5 216.5L147 216.5L147 217.5L169.5 217.5L169.5 216.5Z" fill="black"/>
<path d="M320 216L315 213.113L315 218.887L320 216ZM315.5 215.5L293 215.5L293 216.5L315.5 216.5L315.5 215.5Z" fill="black"/>
<defs>
<linearGradient id="paint0_linear_30_959" x1="338.5" y1="224" x2="400" y2="210.5" gradientUnits="userSpaceOnUse">
<stop stop-color="white"/>
<stop offset="0.343814" stop-color="#EDEDED" stop-opacity="0.520833"/>
<stop offset="0.664551" stop-color="#E3E3E3" stop-opacity="0.261763"/>
<stop offset="1" stop-color="#D9D9D9" stop-opacity="0"/>
</linearGradient>
</defs>
</svg>
