<svg width="603" height="100" viewBox="0 0 603 100" fill="none" xmlns="http://www.w3.org/2000/svg">
<rect x="146.5" y="25.5" width="100" height="46" rx="4.5" fill="#FBD6D5" stroke="black"/>
<rect x="146.5" y="25.5" width="100" height="46" rx="4.5" fill="#FBD6D5" stroke="black"/>
<path d="M190.231 36.4929C190.178 36.0223 189.96 35.6577 189.575 35.3991C189.191 35.1373 188.707 35.0064 188.123 35.0064C187.706 35.0064 187.345 35.0727 187.04 35.2053C186.735 35.3345 186.498 35.5135 186.329 35.7422C186.163 35.9676 186.08 36.2244 186.08 36.5128C186.08 36.7547 186.137 36.9635 186.249 37.1392C186.365 37.3149 186.516 37.4624 186.702 37.5817C186.891 37.6977 187.093 37.7955 187.308 37.875C187.524 37.9512 187.731 38.0142 187.93 38.0639L188.924 38.3224C189.249 38.402 189.582 38.5097 189.923 38.6456C190.265 38.7815 190.581 38.9605 190.873 39.1825C191.164 39.4046 191.4 39.6797 191.579 40.0078C191.761 40.3359 191.852 40.7287 191.852 41.1861C191.852 41.7628 191.703 42.2749 191.405 42.7223C191.11 43.1697 190.681 43.5227 190.117 43.7812C189.557 44.0398 188.879 44.169 188.084 44.169C187.321 44.169 186.662 44.0481 186.105 43.8061C185.548 43.5642 185.112 43.2211 184.797 42.777C184.483 42.3295 184.309 41.7992 184.275 41.1861H185.817C185.847 41.554 185.966 41.8606 186.175 42.1058C186.387 42.3478 186.657 42.5284 186.985 42.6477C187.316 42.7637 187.679 42.8217 188.074 42.8217C188.508 42.8217 188.894 42.7538 189.232 42.6179C189.574 42.4787 189.842 42.2865 190.038 42.0412C190.233 41.7926 190.331 41.5026 190.331 41.1712C190.331 40.8696 190.245 40.6226 190.072 40.4304C189.903 40.2382 189.673 40.0791 189.381 39.9531C189.093 39.8272 188.766 39.7161 188.402 39.62L187.199 39.2919C186.383 39.0698 185.737 38.7434 185.26 38.3125C184.786 37.8816 184.549 37.3116 184.549 36.6023C184.549 36.0156 184.708 35.5036 185.026 35.0661C185.344 34.6286 185.775 34.2888 186.319 34.0469C186.862 33.8016 187.476 33.679 188.158 33.679C188.848 33.679 189.456 33.8 189.983 34.0419C190.513 34.2839 190.931 34.617 191.236 35.0412C191.541 35.4621 191.7 35.946 191.713 36.4929H190.231ZM196.86 44.1541C196.107 44.1541 195.459 43.9934 194.916 43.6719C194.376 43.3471 193.958 42.8913 193.663 42.3047C193.371 41.7147 193.226 41.0237 193.226 40.2315C193.226 39.4493 193.371 38.7599 193.663 38.1634C193.958 37.5668 194.369 37.1011 194.896 36.7663C195.426 36.4316 196.046 36.2642 196.755 36.2642C197.186 36.2642 197.604 36.3355 198.008 36.478C198.413 36.6205 198.776 36.8442 199.097 37.1491C199.419 37.4541 199.672 37.8501 199.858 38.3374C200.043 38.8213 200.136 39.4096 200.136 40.1023V40.6293H194.066V39.5156H198.679C198.679 39.1245 198.6 38.7782 198.441 38.4766C198.282 38.1716 198.058 37.9313 197.77 37.7557C197.485 37.58 197.15 37.4922 196.765 37.4922C196.348 37.4922 195.983 37.5949 195.672 37.8004C195.363 38.0026 195.125 38.2678 194.956 38.5959C194.79 38.9207 194.707 39.2737 194.707 39.6548V40.5249C194.707 41.0353 194.797 41.4695 194.976 41.8274C195.158 42.1854 195.411 42.4588 195.736 42.6477C196.061 42.8333 196.441 42.9261 196.875 42.9261C197.156 42.9261 197.413 42.8864 197.645 42.8068C197.877 42.724 198.078 42.6013 198.247 42.4389C198.416 42.2765 198.545 42.076 198.635 41.8374L200.042 42.0909C199.929 42.5052 199.727 42.8681 199.435 43.1797C199.147 43.4879 198.784 43.7282 198.346 43.9006C197.912 44.0696 197.417 44.1541 196.86 44.1541ZM203.272 33.8182V44H201.785V33.8182H203.272ZM208.906 36.3636V37.5568H204.591V36.3636H208.906ZM205.774 44V35.4787C205.774 35.0014 205.878 34.6053 206.087 34.2905C206.296 33.9723 206.573 33.7353 206.917 33.5795C207.262 33.4205 207.637 33.3409 208.041 33.3409C208.339 33.3409 208.594 33.3658 208.807 33.4155C209.019 33.4619 209.176 33.505 209.279 33.5447L208.931 34.7479C208.861 34.728 208.772 34.7048 208.662 34.6783C208.553 34.6484 208.42 34.6335 208.265 34.6335C207.903 34.6335 207.645 34.723 207.489 34.902C207.337 35.081 207.26 35.3395 207.26 35.6776V44H205.774ZM167.608 61H165.977L169.641 50.8182H171.416L175.08 61H173.449L170.571 52.6676H170.491L167.608 61ZM167.881 57.0128H173.171V58.3054H167.881V57.0128ZM179.517 53.3636V54.5568H175.346V53.3636H179.517ZM176.464 51.5341H177.951V58.7578C177.951 59.0462 177.994 59.2633 178.08 59.4091C178.166 59.5516 178.277 59.6494 178.413 59.7024C178.553 59.7521 178.703 59.777 178.866 59.777C178.985 59.777 179.089 59.7687 179.179 59.7521C179.268 59.7356 179.338 59.7223 179.388 59.7124L179.656 60.9403C179.57 60.9735 179.447 61.0066 179.288 61.0398C179.129 61.0762 178.93 61.0961 178.692 61.0994C178.301 61.1061 177.936 61.0365 177.598 60.8906C177.26 60.7448 176.987 60.5194 176.778 60.2145C176.569 59.9096 176.464 59.5268 176.464 59.0661V51.5341ZM184.726 53.3636V54.5568H180.555V53.3636H184.726ZM181.673 51.5341H183.16V58.7578C183.16 59.0462 183.203 59.2633 183.289 59.4091C183.375 59.5516 183.486 59.6494 183.622 59.7024C183.762 59.7521 183.912 59.777 184.075 59.777C184.194 59.777 184.298 59.7687 184.388 59.7521C184.477 59.7356 184.547 59.7223 184.597 59.7124L184.865 60.9403C184.779 60.9735 184.656 61.0066 184.497 61.0398C184.338 61.0762 184.139 61.0961 183.901 61.0994C183.51 61.1061 183.145 61.0365 182.807 60.8906C182.469 60.7448 182.195 60.5194 181.987 60.2145C181.778 59.9096 181.673 59.5268 181.673 59.0661V51.5341ZM189.58 61.1541C188.827 61.1541 188.179 60.9934 187.636 60.6719C187.095 60.3471 186.678 59.8913 186.383 59.3047C186.091 58.7147 185.945 58.0237 185.945 57.2315C185.945 56.4493 186.091 55.7599 186.383 55.1634C186.678 54.5668 187.089 54.1011 187.616 53.7663C188.146 53.4316 188.766 53.2642 189.475 53.2642C189.906 53.2642 190.324 53.3355 190.728 53.478C191.132 53.6205 191.495 53.8442 191.817 54.1491C192.138 54.4541 192.392 54.8501 192.577 55.3374C192.763 55.8213 192.856 56.4096 192.856 57.1023V57.6293H186.786V56.5156H191.399C191.399 56.1245 191.32 55.7782 191.161 55.4766C191.001 55.1716 190.778 54.9313 190.489 54.7557C190.204 54.58 189.87 54.4922 189.485 54.4922C189.067 54.4922 188.703 54.5949 188.391 54.8004C188.083 55.0026 187.844 55.2678 187.675 55.5959C187.51 55.9207 187.427 56.2737 187.427 56.6548V57.5249C187.427 58.0353 187.516 58.4695 187.695 58.8274C187.878 59.1854 188.131 59.4588 188.456 59.6477C188.781 59.8333 189.16 59.9261 189.594 59.9261C189.876 59.9261 190.133 59.8864 190.365 59.8068C190.597 59.724 190.798 59.6013 190.967 59.4389C191.136 59.2765 191.265 59.076 191.354 58.8374L192.761 59.0909C192.649 59.5052 192.446 59.8681 192.155 60.1797C191.866 60.4879 191.504 60.7282 191.066 60.9006C190.632 61.0696 190.136 61.1541 189.58 61.1541ZM195.992 56.4659V61H194.505V53.3636H195.932V54.6065H196.026C196.202 54.2022 196.477 53.8774 196.852 53.6321C197.23 53.3868 197.705 53.2642 198.279 53.2642C198.799 53.2642 199.255 53.3736 199.646 53.5923C200.037 53.8078 200.34 54.1293 200.556 54.5568C200.771 54.9844 200.879 55.513 200.879 56.1428V61H199.392V56.3217C199.392 55.7682 199.248 55.3357 198.96 55.0241C198.671 54.7093 198.275 54.5518 197.771 54.5518C197.427 54.5518 197.12 54.6264 196.852 54.7756C196.587 54.9247 196.376 55.1435 196.22 55.4318C196.068 55.7169 195.992 56.0616 195.992 56.4659ZM206.437 53.3636V54.5568H202.266V53.3636H206.437ZM203.384 51.5341H204.871V58.7578C204.871 59.0462 204.914 59.2633 205 59.4091C205.086 59.5516 205.197 59.6494 205.333 59.7024C205.472 59.7521 205.623 59.777 205.786 59.777C205.905 59.777 206.009 59.7687 206.099 59.7521C206.188 59.7356 206.258 59.7223 206.308 59.7124L206.576 60.9403C206.49 60.9735 206.367 61.0066 206.208 61.0398C206.049 61.0762 205.85 61.0961 205.612 61.0994C205.221 61.1061 204.856 61.0365 204.518 60.8906C204.18 60.7448 203.906 60.5194 203.698 60.2145C203.489 59.9096 203.384 59.5268 203.384 59.0661V51.5341ZM208.081 61V53.3636H209.568V61H208.081ZM208.832 52.1854C208.574 52.1854 208.351 52.0992 208.166 51.9268C207.984 51.7512 207.892 51.5424 207.892 51.3004C207.892 51.0552 207.984 50.8464 208.166 50.674C208.351 50.4983 208.574 50.4105 208.832 50.4105C209.091 50.4105 209.311 50.4983 209.493 50.674C209.679 50.8464 209.772 51.0552 209.772 51.3004C209.772 51.5424 209.679 51.7512 209.493 51.9268C209.311 52.0992 209.091 52.1854 208.832 52.1854ZM214.784 61.1541C214.068 61.1541 213.444 60.9901 212.91 60.6619C212.376 60.3338 211.962 59.8748 211.667 59.2848C211.372 58.6948 211.225 58.0054 211.225 57.2166C211.225 56.4245 211.372 55.7318 211.667 55.1385C211.962 54.5452 212.376 54.0845 212.91 53.7564C213.444 53.4283 214.068 53.2642 214.784 53.2642C215.5 53.2642 216.125 53.4283 216.659 53.7564C217.192 54.0845 217.606 54.5452 217.901 55.1385C218.196 55.7318 218.344 56.4245 218.344 57.2166C218.344 58.0054 218.196 58.6948 217.901 59.2848C217.606 59.8748 217.192 60.3338 216.659 60.6619C216.125 60.9901 215.5 61.1541 214.784 61.1541ZM214.789 59.9062C215.253 59.9062 215.638 59.7836 215.943 59.5384C216.248 59.2931 216.473 58.9666 216.619 58.5589C216.768 58.1513 216.843 57.7022 216.843 57.2116C216.843 56.7244 216.768 56.277 216.619 55.8693C216.473 55.4583 216.248 55.1286 215.943 54.88C215.638 54.6314 215.253 54.5071 214.789 54.5071C214.322 54.5071 213.934 54.6314 213.626 54.88C213.321 55.1286 213.094 55.4583 212.945 55.8693C212.799 56.277 212.726 56.7244 212.726 57.2116C212.726 57.7022 212.799 58.1513 212.945 58.5589C213.094 58.9666 213.321 59.2931 213.626 59.5384C213.934 59.7836 214.322 59.9062 214.789 59.9062ZM221.49 56.4659V61H220.003V53.3636H221.43V54.6065H221.525C221.7 54.2022 221.975 53.8774 222.35 53.6321C222.728 53.3868 223.203 53.2642 223.777 53.2642C224.297 53.2642 224.753 53.3736 225.144 53.5923C225.535 53.8078 225.838 54.1293 226.054 54.5568C226.269 54.9844 226.377 55.513 226.377 56.1428V61H224.89V56.3217C224.89 55.7682 224.746 55.3357 224.458 55.0241C224.169 54.7093 223.773 54.5518 223.27 54.5518C222.925 54.5518 222.618 54.6264 222.35 54.7756C222.085 54.9247 221.874 55.1435 221.718 55.4318C221.566 55.7169 221.49 56.0616 221.49 56.4659Z" fill="black"/>
<rect x="354.5" y="26.5" width="100" height="46" rx="4.5" fill="#FBD6D5" stroke="black"/>
<rect x="354.5" y="26.5" width="100" height="46" rx="4.5" fill="#FBD6D5" stroke="black"/>
<path d="M398.231 37.4929C398.178 37.0223 397.96 36.6577 397.575 36.3991C397.191 36.1373 396.707 36.0064 396.123 36.0064C395.706 36.0064 395.345 36.0727 395.04 36.2053C394.735 36.3345 394.498 36.5135 394.329 36.7422C394.163 36.9676 394.08 37.2244 394.08 37.5128C394.08 37.7547 394.137 37.9635 394.249 38.1392C394.365 38.3149 394.516 38.4624 394.702 38.5817C394.891 38.6977 395.093 38.7955 395.308 38.875C395.524 38.9512 395.731 39.0142 395.93 39.0639L396.924 39.3224C397.249 39.402 397.582 39.5097 397.923 39.6456C398.265 39.7815 398.581 39.9605 398.873 40.1825C399.164 40.4046 399.4 40.6797 399.579 41.0078C399.761 41.3359 399.852 41.7287 399.852 42.1861C399.852 42.7628 399.703 43.2749 399.405 43.7223C399.11 44.1697 398.681 44.5227 398.117 44.7812C397.557 45.0398 396.879 45.169 396.084 45.169C395.321 45.169 394.662 45.0481 394.105 44.8061C393.548 44.5642 393.112 44.2211 392.797 43.777C392.483 43.3295 392.309 42.7992 392.275 42.1861H393.817C393.847 42.554 393.966 42.8606 394.175 43.1058C394.387 43.3478 394.657 43.5284 394.985 43.6477C395.316 43.7637 395.679 43.8217 396.074 43.8217C396.508 43.8217 396.894 43.7538 397.232 43.6179C397.574 43.4787 397.842 43.2865 398.038 43.0412C398.233 42.7926 398.331 42.5026 398.331 42.1712C398.331 41.8696 398.245 41.6226 398.072 41.4304C397.903 41.2382 397.673 41.0791 397.381 40.9531C397.093 40.8272 396.766 40.7161 396.402 40.62L395.199 40.2919C394.383 40.0698 393.737 39.7434 393.26 39.3125C392.786 38.8816 392.549 38.3116 392.549 37.6023C392.549 37.0156 392.708 36.5036 393.026 36.0661C393.344 35.6286 393.775 35.2888 394.319 35.0469C394.862 34.8016 395.476 34.679 396.158 34.679C396.848 34.679 397.456 34.8 397.983 35.0419C398.513 35.2839 398.931 35.617 399.236 36.0412C399.541 36.4621 399.7 36.946 399.713 37.4929H398.231ZM404.86 45.1541C404.107 45.1541 403.459 44.9934 402.916 44.6719C402.376 44.3471 401.958 43.8913 401.663 43.3047C401.371 42.7147 401.226 42.0237 401.226 41.2315C401.226 40.4493 401.371 39.7599 401.663 39.1634C401.958 38.5668 402.369 38.1011 402.896 37.7663C403.426 37.4316 404.046 37.2642 404.755 37.2642C405.186 37.2642 405.604 37.3355 406.008 37.478C406.413 37.6205 406.776 37.8442 407.097 38.1491C407.419 38.4541 407.672 38.8501 407.858 39.3374C408.043 39.8213 408.136 40.4096 408.136 41.1023V41.6293H402.066V40.5156H406.679C406.679 40.1245 406.6 39.7782 406.441 39.4766C406.282 39.1716 406.058 38.9313 405.77 38.7557C405.485 38.58 405.15 38.4922 404.765 38.4922C404.348 38.4922 403.983 38.5949 403.672 38.8004C403.363 39.0026 403.125 39.2678 402.956 39.5959C402.79 39.9207 402.707 40.2737 402.707 40.6548V41.5249C402.707 42.0353 402.797 42.4695 402.976 42.8274C403.158 43.1854 403.411 43.4588 403.736 43.6477C404.061 43.8333 404.441 43.9261 404.875 43.9261C405.156 43.9261 405.413 43.8864 405.645 43.8068C405.877 43.724 406.078 43.6013 406.247 43.4389C406.416 43.2765 406.545 43.076 406.635 42.8374L408.042 43.0909C407.929 43.5052 407.727 43.8681 407.435 44.1797C407.147 44.4879 406.784 44.7282 406.346 44.9006C405.912 45.0696 405.417 45.1541 404.86 45.1541ZM411.272 34.8182V45H409.785V34.8182H411.272ZM416.906 37.3636V38.5568H412.591V37.3636H416.906ZM413.774 45V36.4787C413.774 36.0014 413.878 35.6053 414.087 35.2905C414.296 34.9723 414.573 34.7353 414.917 34.5795C415.262 34.4205 415.637 34.3409 416.041 34.3409C416.339 34.3409 416.594 34.3658 416.807 34.4155C417.019 34.4619 417.176 34.505 417.279 34.5447L416.931 35.7479C416.861 35.728 416.772 35.7048 416.662 35.6783C416.553 35.6484 416.42 35.6335 416.265 35.6335C415.903 35.6335 415.645 35.723 415.489 35.902C415.337 36.081 415.26 36.3395 415.26 36.6776V45H413.774ZM375.608 62H373.977L377.641 51.8182H379.416L383.08 62H381.449L378.571 53.6676H378.491L375.608 62ZM375.881 58.0128H381.171V59.3054H375.881V58.0128ZM387.517 54.3636V55.5568H383.346V54.3636H387.517ZM384.464 52.5341H385.951V59.7578C385.951 60.0462 385.994 60.2633 386.08 60.4091C386.166 60.5516 386.277 60.6494 386.413 60.7024C386.553 60.7521 386.703 60.777 386.866 60.777C386.985 60.777 387.089 60.7687 387.179 60.7521C387.268 60.7356 387.338 60.7223 387.388 60.7124L387.656 61.9403C387.57 61.9735 387.447 62.0066 387.288 62.0398C387.129 62.0762 386.93 62.0961 386.692 62.0994C386.301 62.1061 385.936 62.0365 385.598 61.8906C385.26 61.7448 384.987 61.5194 384.778 61.2145C384.569 60.9096 384.464 60.5268 384.464 60.0661V52.5341ZM392.726 54.3636V55.5568H388.555V54.3636H392.726ZM389.673 52.5341H391.16V59.7578C391.16 60.0462 391.203 60.2633 391.289 60.4091C391.375 60.5516 391.486 60.6494 391.622 60.7024C391.762 60.7521 391.912 60.777 392.075 60.777C392.194 60.777 392.298 60.7687 392.388 60.7521C392.477 60.7356 392.547 60.7223 392.597 60.7124L392.865 61.9403C392.779 61.9735 392.656 62.0066 392.497 62.0398C392.338 62.0762 392.139 62.0961 391.901 62.0994C391.51 62.1061 391.145 62.0365 390.807 61.8906C390.469 61.7448 390.195 61.5194 389.987 61.2145C389.778 60.9096 389.673 60.5268 389.673 60.0661V52.5341ZM397.58 62.1541C396.827 62.1541 396.179 61.9934 395.636 61.6719C395.095 61.3471 394.678 60.8913 394.383 60.3047C394.091 59.7147 393.945 59.0237 393.945 58.2315C393.945 57.4493 394.091 56.7599 394.383 56.1634C394.678 55.5668 395.089 55.1011 395.616 54.7663C396.146 54.4316 396.766 54.2642 397.475 54.2642C397.906 54.2642 398.324 54.3355 398.728 54.478C399.132 54.6205 399.495 54.8442 399.817 55.1491C400.138 55.4541 400.392 55.8501 400.577 56.3374C400.763 56.8213 400.856 57.4096 400.856 58.1023V58.6293H394.786V57.5156H399.399C399.399 57.1245 399.32 56.7782 399.161 56.4766C399.001 56.1716 398.778 55.9313 398.489 55.7557C398.204 55.58 397.87 55.4922 397.485 55.4922C397.067 55.4922 396.703 55.5949 396.391 55.8004C396.083 56.0026 395.844 56.2678 395.675 56.5959C395.51 56.9207 395.427 57.2737 395.427 57.6548V58.5249C395.427 59.0353 395.516 59.4695 395.695 59.8274C395.878 60.1854 396.131 60.4588 396.456 60.6477C396.781 60.8333 397.16 60.9261 397.594 60.9261C397.876 60.9261 398.133 60.8864 398.365 60.8068C398.597 60.724 398.798 60.6013 398.967 60.4389C399.136 60.2765 399.265 60.076 399.354 59.8374L400.761 60.0909C400.649 60.5052 400.446 60.8681 400.155 61.1797C399.866 61.4879 399.504 61.7282 399.066 61.9006C398.632 62.0696 398.136 62.1541 397.58 62.1541ZM403.992 57.4659V62H402.505V54.3636H403.932V55.6065H404.026C404.202 55.2022 404.477 54.8774 404.852 54.6321C405.23 54.3868 405.705 54.2642 406.279 54.2642C406.799 54.2642 407.255 54.3736 407.646 54.5923C408.037 54.8078 408.34 55.1293 408.556 55.5568C408.771 55.9844 408.879 56.513 408.879 57.1428V62H407.392V57.3217C407.392 56.7682 407.248 56.3357 406.96 56.0241C406.671 55.7093 406.275 55.5518 405.771 55.5518C405.427 55.5518 405.12 55.6264 404.852 55.7756C404.587 55.9247 404.376 56.1435 404.22 56.4318C404.068 56.7169 403.992 57.0616 403.992 57.4659ZM414.437 54.3636V55.5568H410.266V54.3636H414.437ZM411.384 52.5341H412.871V59.7578C412.871 60.0462 412.914 60.2633 413 60.4091C413.086 60.5516 413.197 60.6494 413.333 60.7024C413.472 60.7521 413.623 60.777 413.786 60.777C413.905 60.777 414.009 60.7687 414.099 60.7521C414.188 60.7356 414.258 60.7223 414.308 60.7124L414.576 61.9403C414.49 61.9735 414.367 62.0066 414.208 62.0398C414.049 62.0762 413.85 62.0961 413.612 62.0994C413.221 62.1061 412.856 62.0365 412.518 61.8906C412.18 61.7448 411.906 61.5194 411.698 61.2145C411.489 60.9096 411.384 60.5268 411.384 60.0661V52.5341ZM416.081 62V54.3636H417.568V62H416.081ZM416.832 53.1854C416.574 53.1854 416.351 53.0992 416.166 52.9268C415.984 52.7512 415.892 52.5424 415.892 52.3004C415.892 52.0552 415.984 51.8464 416.166 51.674C416.351 51.4983 416.574 51.4105 416.832 51.4105C417.091 51.4105 417.311 51.4983 417.493 51.674C417.679 51.8464 417.772 52.0552 417.772 52.3004C417.772 52.5424 417.679 52.7512 417.493 52.9268C417.311 53.0992 417.091 53.1854 416.832 53.1854ZM422.784 62.1541C422.068 62.1541 421.444 61.9901 420.91 61.6619C420.376 61.3338 419.962 60.8748 419.667 60.2848C419.372 59.6948 419.225 59.0054 419.225 58.2166C419.225 57.4245 419.372 56.7318 419.667 56.1385C419.962 55.5452 420.376 55.0845 420.91 54.7564C421.444 54.4283 422.068 54.2642 422.784 54.2642C423.5 54.2642 424.125 54.4283 424.659 54.7564C425.192 55.0845 425.606 55.5452 425.901 56.1385C426.196 56.7318 426.344 57.4245 426.344 58.2166C426.344 59.0054 426.196 59.6948 425.901 60.2848C425.606 60.8748 425.192 61.3338 424.659 61.6619C424.125 61.9901 423.5 62.1541 422.784 62.1541ZM422.789 60.9062C423.253 60.9062 423.638 60.7836 423.943 60.5384C424.248 60.2931 424.473 59.9666 424.619 59.5589C424.768 59.1513 424.843 58.7022 424.843 58.2116C424.843 57.7244 424.768 57.277 424.619 56.8693C424.473 56.4583 424.248 56.1286 423.943 55.88C423.638 55.6314 423.253 55.5071 422.789 55.5071C422.322 55.5071 421.934 55.6314 421.626 55.88C421.321 56.1286 421.094 56.4583 420.945 56.8693C420.799 57.277 420.726 57.7244 420.726 58.2116C420.726 58.7022 420.799 59.1513 420.945 59.5589C421.094 59.9666 421.321 60.2931 421.626 60.5384C421.934 60.7836 422.322 60.9062 422.789 60.9062ZM429.49 57.4659V62H428.003V54.3636H429.43V55.6065H429.525C429.7 55.2022 429.975 54.8774 430.35 54.6321C430.728 54.3868 431.203 54.2642 431.777 54.2642C432.297 54.2642 432.753 54.3736 433.144 54.5923C433.535 54.8078 433.838 55.1293 434.054 55.5568C434.269 55.9844 434.377 56.513 434.377 57.1428V62H432.89V57.3217C432.89 56.7682 432.746 56.3357 432.458 56.0241C432.169 55.7093 431.773 55.5518 431.27 55.5518C430.925 55.5518 430.618 55.6264 430.35 55.7756C430.085 55.9247 429.874 56.1435 429.718 56.4318C429.566 56.7169 429.49 57.0616 429.49 57.4659Z" fill="black"/>
<path d="M137 49L132 46.1132L132 51.8868L137 49ZM132.5 48.5L110 48.5L110 49.5L132.5 49.5L132.5 48.5Z" fill="black"/>
<path d="M490 50L485 47.1132L485 52.8868L490 50ZM485.5 49.5L463 49.5L463 50.5L485.5 50.5L485.5 49.5Z" fill="black"/>
<path d="M347 50L342 47.1132L342 52.8868L347 50ZM342.5 49.5L320 49.5L320 50.5L342.5 50.5L342.5 49.5Z" fill="black"/>
<path d="M288 50L283 47.1132L283 52.8868L288 50ZM283.5 49.5L261 49.5L261 50.5L283.5 50.5L283.5 49.5Z" fill="black"/>
<rect y="1" width="12" height="99" rx="3" fill="#D9D9D9"/>
<rect x="1.5" y="3.5" width="9" height="9" rx="2.5" fill="#C8BCF8" stroke="black"/>
<rect x="1.5" y="15.5" width="9" height="9" rx="2.5" fill="#BCC9F8" stroke="black"/>
<rect x="1.5" y="27.5" width="9" height="9" rx="2.5" fill="#BCE2F8" stroke="black"/>
<rect x="1.5" y="39.5" width="9" height="9" rx="2.5" fill="#BCF8E2" stroke="black"/>
<rect x="1.5" y="52.5" width="9" height="9" rx="2.5" fill="#F3F8BC" stroke="black"/>
<rect x="1.5" y="64.5" width="9" height="9" rx="2.5" fill="#F8E7BC" stroke="black"/>
<rect x="1.5" y="76.5" width="9" height="9" rx="2.5" fill="#F8CABC" stroke="black"/>
<rect x="1.5" y="88.5" width="9" height="9" rx="2.5" fill="#F8BCBC" stroke="black"/>
<rect x="13" y="1" width="12" height="99" rx="3" fill="#D9D9D9"/>
<rect x="14.5" y="3.5" width="9" height="9" rx="2.5" fill="#C8BCF8" stroke="black"/>
<rect x="14.5" y="15.5" width="9" height="9" rx="2.5" fill="#BCC9F8" stroke="black"/>
<rect x="14.5" y="27.5" width="9" height="9" rx="2.5" fill="#BCE2F8" stroke="black"/>
<rect x="14.5" y="39.5" width="9" height="9" rx="2.5" fill="#BCF8E2" stroke="black"/>
<rect x="14.5" y="52.5" width="9" height="9" rx="2.5" fill="#F3F8BC" stroke="black"/>
<rect x="14.5" y="64.5" width="9" height="9" rx="2.5" fill="#F8E7BC" stroke="black"/>
<rect x="14.5" y="76.5" width="9" height="9" rx="2.5" fill="#F8CABC" stroke="black"/>
<rect x="14.5" y="88.5" width="9" height="9" rx="2.5" fill="#F8BCBC" stroke="black"/>
<rect x="26" y="1" width="12" height="99" rx="3" fill="#D9D9D9"/>
<rect x="27.5" y="3.5" width="9" height="9" rx="2.5" fill="#C8BCF8" stroke="black"/>
<rect x="27.5" y="15.5" width="9" height="9" rx="2.5" fill="#BCC9F8" stroke="black"/>
<rect x="27.5" y="27.5" width="9" height="9" rx="2.5" fill="#BCE2F8" stroke="black"/>
<rect x="27.5" y="39.5" width="9" height="9" rx="2.5" fill="#BCF8E2" stroke="black"/>
<rect x="27.5" y="52.5" width="9" height="9" rx="2.5" fill="#F3F8BC" stroke="black"/>
<rect x="27.5" y="64.5" width="9" height="9" rx="2.5" fill="#F8E7BC" stroke="black"/>
<rect x="27.5" y="76.5" width="9" height="9" rx="2.5" fill="#F8CABC" stroke="black"/>
<rect x="27.5" y="88.5" width="9" height="9" rx="2.5" fill="#F8BCBC" stroke="black"/>
<rect x="39" y="1" width="12" height="99" rx="3" fill="#D9D9D9"/>
<rect x="40.5" y="3.5" width="9" height="9" rx="2.5" fill="#C8BCF8" stroke="black"/>
<rect x="40.5" y="15.5" width="9" height="9" rx="2.5" fill="#BCC9F8" stroke="black"/>
<rect x="40.5" y="27.5" width="9" height="9" rx="2.5" fill="#BCE2F8" stroke="black"/>
<rect x="40.5" y="39.5" width="9" height="9" rx="2.5" fill="#BCF8E2" stroke="black"/>
<rect x="40.5" y="52.5" width="9" height="9" rx="2.5" fill="#F3F8BC" stroke="black"/>
<rect x="40.5" y="64.5" width="9" height="9" rx="2.5" fill="#F8E7BC" stroke="black"/>
<rect x="40.5" y="76.5" width="9" height="9" rx="2.5" fill="#F8CABC" stroke="black"/>
<rect x="40.5" y="88.5" width="9" height="9" rx="2.5" fill="#F8BCBC" stroke="black"/>
<rect x="52" y="1" width="12" height="99" rx="3" fill="#D9D9D9"/>
<rect x="53.5" y="3.5" width="9" height="9" rx="2.5" fill="#C8BCF8" stroke="black"/>
<rect x="53.5" y="15.5" width="9" height="9" rx="2.5" fill="#BCC9F8" stroke="black"/>
<rect x="53.5" y="27.5" width="9" height="9" rx="2.5" fill="#BCE2F8" stroke="black"/>
<rect x="53.5" y="39.5" width="9" height="9" rx="2.5" fill="#BCF8E2" stroke="black"/>
<rect x="53.5" y="52.5" width="9" height="9" rx="2.5" fill="#F3F8BC" stroke="black"/>
<rect x="53.5" y="64.5" width="9" height="9" rx="2.5" fill="#F8E7BC" stroke="black"/>
<rect x="53.5" y="76.5" width="9" height="9" rx="2.5" fill="#F8CABC" stroke="black"/>
<rect x="53.5" y="88.5" width="9" height="9" rx="2.5" fill="#F8BCBC" stroke="black"/>
<rect x="65" y="1" width="12" height="99" rx="3" fill="#D9D9D9"/>
<rect x="66.5" y="3.5" width="9" height="9" rx="2.5" fill="#C8BCF8" stroke="black"/>
<rect x="66.5" y="15.5" width="9" height="9" rx="2.5" fill="#BCC9F8" stroke="black"/>
<rect x="66.5" y="27.5" width="9" height="9" rx="2.5" fill="#BCE2F8" stroke="black"/>
<rect x="66.5" y="39.5" width="9" height="9" rx="2.5" fill="#BCF8E2" stroke="black"/>
<rect x="66.5" y="52.5" width="9" height="9" rx="2.5" fill="#F3F8BC" stroke="black"/>
<rect x="66.5" y="64.5" width="9" height="9" rx="2.5" fill="#F8E7BC" stroke="black"/>
<rect x="66.5" y="76.5" width="9" height="9" rx="2.5" fill="#F8CABC" stroke="black"/>
<rect x="66.5" y="88.5" width="9" height="9" rx="2.5" fill="#F8BCBC" stroke="black"/>
<rect x="78" y="1" width="12" height="99" rx="3" fill="#D9D9D9"/>
<rect x="79.5" y="3.5" width="9" height="9" rx="2.5" fill="#C8BCF8" stroke="black"/>
<rect x="79.5" y="15.5" width="9" height="9" rx="2.5" fill="#BCC9F8" stroke="black"/>
<rect x="79.5" y="27.5" width="9" height="9" rx="2.5" fill="#BCE2F8" stroke="black"/>
<rect x="79.5" y="39.5" width="9" height="9" rx="2.5" fill="#BCF8E2" stroke="black"/>
<rect x="79.5" y="52.5" width="9" height="9" rx="2.5" fill="#F3F8BC" stroke="black"/>
<rect x="79.5" y="64.5" width="9" height="9" rx="2.5" fill="#F8E7BC" stroke="black"/>
<rect x="79.5" y="76.5" width="9" height="9" rx="2.5" fill="#F8CABC" stroke="black"/>
<rect x="79.5" y="88.5" width="9" height="9" rx="2.5" fill="#F8BCBC" stroke="black"/>
<rect x="91" y="1" width="12" height="99" rx="3" fill="#D9D9D9"/>
<rect x="92.5" y="3.5" width="9" height="9" rx="2.5" fill="#C8BCF8" stroke="black"/>
<rect x="92.5" y="15.5" width="9" height="9" rx="2.5" fill="#BCC9F8" stroke="black"/>
<rect x="92.5" y="27.5" width="9" height="9" rx="2.5" fill="#BCE2F8" stroke="black"/>
<rect x="92.5" y="39.5" width="9" height="9" rx="2.5" fill="#BCF8E2" stroke="black"/>
<rect x="92.5" y="52.5" width="9" height="9" rx="2.5" fill="#F3F8BC" stroke="black"/>
<rect x="92.5" y="64.5" width="9" height="9" rx="2.5" fill="#F8E7BC" stroke="black"/>
<rect x="92.5" y="76.5" width="9" height="9" rx="2.5" fill="#F8CABC" stroke="black"/>
<rect x="92.5" y="88.5" width="9" height="9" rx="2.5" fill="#F8BCBC" stroke="black"/>
<rect x="500" width="12" height="99" rx="3" fill="#D9D9D9"/>
<rect x="501.5" y="2.5" width="9" height="9" rx="2.5" fill="#C8BCF8" stroke="black"/>
<rect x="501.5" y="14.5" width="9" height="9" rx="2.5" fill="#BCC9F8" stroke="black"/>
<rect x="501.5" y="26.5" width="9" height="9" rx="2.5" fill="#BCE2F8" stroke="black"/>
<rect x="501.5" y="38.5" width="9" height="9" rx="2.5" fill="#BCF8E2" stroke="black"/>
<rect x="501.5" y="51.5" width="9" height="9" rx="2.5" fill="#F3F8BC" stroke="black"/>
<rect x="501.5" y="63.5" width="9" height="9" rx="2.5" fill="#F8E7BC" stroke="black"/>
<rect x="501.5" y="75.5" width="9" height="9" rx="2.5" fill="#F8CABC" stroke="black"/>
<rect x="501.5" y="87.5" width="9" height="9" rx="2.5" fill="#F8BCBC" stroke="black"/>
<rect x="513" width="12" height="99" rx="3" fill="#D9D9D9"/>
<rect x="514.5" y="2.5" width="9" height="9" rx="2.5" fill="#C8BCF8" stroke="black"/>
<rect x="514.5" y="14.5" width="9" height="9" rx="2.5" fill="#BCC9F8" stroke="black"/>
<rect x="514.5" y="26.5" width="9" height="9" rx="2.5" fill="#BCE2F8" stroke="black"/>
<rect x="514.5" y="38.5" width="9" height="9" rx="2.5" fill="#BCF8E2" stroke="black"/>
<rect x="514.5" y="51.5" width="9" height="9" rx="2.5" fill="#F3F8BC" stroke="black"/>
<rect x="514.5" y="63.5" width="9" height="9" rx="2.5" fill="#F8E7BC" stroke="black"/>
<rect x="514.5" y="75.5" width="9" height="9" rx="2.5" fill="#F8CABC" stroke="black"/>
<rect x="514.5" y="87.5" width="9" height="9" rx="2.5" fill="#F8BCBC" stroke="black"/>
<rect x="526" width="12" height="99" rx="3" fill="#D9D9D9"/>
<rect x="527.5" y="2.5" width="9" height="9" rx="2.5" fill="#C8BCF8" stroke="black"/>
<rect x="527.5" y="14.5" width="9" height="9" rx="2.5" fill="#BCC9F8" stroke="black"/>
<rect x="527.5" y="26.5" width="9" height="9" rx="2.5" fill="#BCE2F8" stroke="black"/>
<rect x="527.5" y="38.5" width="9" height="9" rx="2.5" fill="#BCF8E2" stroke="black"/>
<rect x="527.5" y="51.5" width="9" height="9" rx="2.5" fill="#F3F8BC" stroke="black"/>
<rect x="527.5" y="63.5" width="9" height="9" rx="2.5" fill="#F8E7BC" stroke="black"/>
<rect x="527.5" y="75.5" width="9" height="9" rx="2.5" fill="#F8CABC" stroke="black"/>
<rect x="527.5" y="87.5" width="9" height="9" rx="2.5" fill="#F8BCBC" stroke="black"/>
<rect x="539" width="12" height="99" rx="3" fill="#D9D9D9"/>
<rect x="540.5" y="2.5" width="9" height="9" rx="2.5" fill="#C8BCF8" stroke="black"/>
<rect x="540.5" y="14.5" width="9" height="9" rx="2.5" fill="#BCC9F8" stroke="black"/>
<rect x="540.5" y="26.5" width="9" height="9" rx="2.5" fill="#BCE2F8" stroke="black"/>
<rect x="540.5" y="38.5" width="9" height="9" rx="2.5" fill="#BCF8E2" stroke="black"/>
<rect x="540.5" y="51.5" width="9" height="9" rx="2.5" fill="#F3F8BC" stroke="black"/>
<rect x="540.5" y="63.5" width="9" height="9" rx="2.5" fill="#F8E7BC" stroke="black"/>
<rect x="540.5" y="75.5" width="9" height="9" rx="2.5" fill="#F8CABC" stroke="black"/>
<rect x="540.5" y="87.5" width="9" height="9" rx="2.5" fill="#F8BCBC" stroke="black"/>
<rect x="552" width="12" height="99" rx="3" fill="#D9D9D9"/>
<rect x="553.5" y="2.5" width="9" height="9" rx="2.5" fill="#C8BCF8" stroke="black"/>
<rect x="553.5" y="14.5" width="9" height="9" rx="2.5" fill="#BCC9F8" stroke="black"/>
<rect x="553.5" y="26.5" width="9" height="9" rx="2.5" fill="#BCE2F8" stroke="black"/>
<rect x="553.5" y="38.5" width="9" height="9" rx="2.5" fill="#BCF8E2" stroke="black"/>
<rect x="553.5" y="51.5" width="9" height="9" rx="2.5" fill="#F3F8BC" stroke="black"/>
<rect x="553.5" y="63.5" width="9" height="9" rx="2.5" fill="#F8E7BC" stroke="black"/>
<rect x="553.5" y="75.5" width="9" height="9" rx="2.5" fill="#F8CABC" stroke="black"/>
<rect x="553.5" y="87.5" width="9" height="9" rx="2.5" fill="#F8BCBC" stroke="black"/>
<rect x="565" width="12" height="99" rx="3" fill="#D9D9D9"/>
<rect x="566.5" y="2.5" width="9" height="9" rx="2.5" fill="#C8BCF8" stroke="black"/>
<rect x="566.5" y="14.5" width="9" height="9" rx="2.5" fill="#BCC9F8" stroke="black"/>
<rect x="566.5" y="26.5" width="9" height="9" rx="2.5" fill="#BCE2F8" stroke="black"/>
<rect x="566.5" y="38.5" width="9" height="9" rx="2.5" fill="#BCF8E2" stroke="black"/>
<rect x="566.5" y="51.5" width="9" height="9" rx="2.5" fill="#F3F8BC" stroke="black"/>
<rect x="566.5" y="63.5" width="9" height="9" rx="2.5" fill="#F8E7BC" stroke="black"/>
<rect x="566.5" y="75.5" width="9" height="9" rx="2.5" fill="#F8CABC" stroke="black"/>
<rect x="566.5" y="87.5" width="9" height="9" rx="2.5" fill="#F8BCBC" stroke="black"/>
<rect x="578" width="12" height="99" rx="3" fill="#D9D9D9"/>
<rect x="579.5" y="2.5" width="9" height="9" rx="2.5" fill="#C8BCF8" stroke="black"/>
<rect x="579.5" y="14.5" width="9" height="9" rx="2.5" fill="#BCC9F8" stroke="black"/>
<rect x="579.5" y="26.5" width="9" height="9" rx="2.5" fill="#BCE2F8" stroke="black"/>
<rect x="579.5" y="38.5" width="9" height="9" rx="2.5" fill="#BCF8E2" stroke="black"/>
<rect x="579.5" y="51.5" width="9" height="9" rx="2.5" fill="#F3F8BC" stroke="black"/>
<rect x="579.5" y="63.5" width="9" height="9" rx="2.5" fill="#F8E7BC" stroke="black"/>
<rect x="579.5" y="75.5" width="9" height="9" rx="2.5" fill="#F8CABC" stroke="black"/>
<rect x="579.5" y="87.5" width="9" height="9" rx="2.5" fill="#F8BCBC" stroke="black"/>
<rect x="591" width="12" height="99" rx="3" fill="#D9D9D9"/>
<rect x="592.5" y="2.5" width="9" height="9" rx="2.5" fill="#C8BCF8" stroke="black"/>
<rect x="592.5" y="14.5" width="9" height="9" rx="2.5" fill="#BCC9F8" stroke="black"/>
<rect x="592.5" y="26.5" width="9" height="9" rx="2.5" fill="#BCE2F8" stroke="black"/>
<rect x="592.5" y="38.5" width="9" height="9" rx="2.5" fill="#BCF8E2" stroke="black"/>
<rect x="592.5" y="51.5" width="9" height="9" rx="2.5" fill="#F3F8BC" stroke="black"/>
<rect x="592.5" y="63.5" width="9" height="9" rx="2.5" fill="#F8E7BC" stroke="black"/>
<rect x="592.5" y="75.5" width="9" height="9" rx="2.5" fill="#F8CABC" stroke="black"/>
<rect x="592.5" y="87.5" width="9" height="9" rx="2.5" fill="#F8BCBC" stroke="black"/>
<path d="M301.555 51.0742C301.341 51.0742 301.158 50.9987 301.004 50.8477C300.85 50.694 300.773 50.5091 300.773 50.293C300.773 50.0794 300.85 49.8971 301.004 49.7461C301.158 49.5924 301.341 49.5156 301.555 49.5156C301.768 49.5156 301.952 49.5924 302.105 49.7461C302.259 49.8971 302.336 50.0794 302.336 50.293C302.336 50.4362 302.299 50.5677 302.227 50.6875C302.156 50.8047 302.062 50.8984 301.945 50.9687C301.828 51.0391 301.698 51.0742 301.555 51.0742ZM304.67 51.0742C304.456 51.0742 304.273 50.9987 304.119 50.8477C303.965 50.694 303.889 50.5091 303.889 50.293C303.889 50.0794 303.965 49.8971 304.119 49.7461C304.273 49.5924 304.456 49.5156 304.67 49.5156C304.883 49.5156 305.067 49.5924 305.221 49.7461C305.374 49.8971 305.451 50.0794 305.451 50.293C305.451 50.4362 305.415 50.5677 305.342 50.6875C305.271 50.8047 305.178 50.8984 305.061 50.9687C304.943 51.0391 304.813 51.0742 304.67 51.0742ZM307.785 51.0742C307.572 51.0742 307.388 50.9987 307.234 50.8477C307.081 50.694 307.004 50.5091 307.004 50.293C307.004 50.0794 307.081 49.8971 307.234 49.7461C307.388 49.5924 307.572 49.5156 307.785 49.5156C307.999 49.5156 308.182 49.5924 308.336 49.7461C308.49 49.8971 308.566 50.0794 308.566 50.293C308.566 50.4362 308.53 50.5677 308.457 50.6875C308.387 50.8047 308.293 50.8984 308.176 50.9687C308.059 51.0391 307.928 51.0742 307.785 51.0742Z" fill="black"/>
</svg>
