<svg width="165" height="73" viewBox="0 0 165 73" fill="none" xmlns="http://www.w3.org/2000/svg">
<rect x="164.5" y="24.5" width="26" height="164" rx="2.5" transform="rotate(90 164.5 24.5)" fill="#BAF3F7" stroke="black"/>
<path d="M20.0351 33.2727H21.3562L21.3562 39.0128C21.3562 39.6236 21.2127 40.1648 20.9258 40.6364C20.6388 41.1051 20.2354 41.4744 19.7155 41.7443C19.1956 42.0114 18.5863 42.1449 17.8874 42.1449C17.1914 42.1449 16.5834 42.0114 16.0635 41.7443C15.5437 41.4744 15.1402 41.1051 14.8533 40.6364C14.5664 40.1648 14.4229 39.6236 14.4229 39.0128L14.4229 33.2727H15.7397L15.7397 38.9062C15.7397 39.3011 15.8263 39.652 15.9996 39.9588C16.1758 40.2656 16.4243 40.5071 16.7454 40.6832C17.0664 40.8565 17.4471 40.9432 17.8874 40.9432C18.3306 40.9432 18.7127 40.8565 19.0337 40.6832C19.3576 40.5071 19.6047 40.2656 19.7752 39.9588C19.9485 39.652 20.0351 39.3011 20.0351 38.9062L20.0351 33.2727ZM24.4424 38.1136L24.4424 42H23.1683L23.1683 35.4545H24.3913V36.5199H24.4723C24.6228 36.1733 24.8586 35.8949 25.1797 35.6847C25.5035 35.4744 25.9112 35.3693 26.4027 35.3693C26.8487 35.3693 27.2393 35.4631 27.5746 35.6506C27.9098 35.8352 28.1697 36.1108 28.3544 36.4773C28.539 36.8437 28.6314 37.2969 28.6314 37.8366L28.6314 42H27.3572L27.3572 37.9901C27.3572 37.5156 27.2336 37.1449 26.9865 36.8778C26.7393 36.608 26.3998 36.473 25.968 36.473C25.6726 36.473 25.4098 36.5369 25.1797 36.6648C24.9524 36.7926 24.772 36.9801 24.6385 37.2273C24.5078 37.4716 24.4424 37.767 24.4424 38.1136ZM30.3402 42L30.3402 35.4545H31.6143L31.6143 42H30.3402ZM30.9836 34.4446C30.7621 34.4446 30.5717 34.3707 30.4126 34.223C30.2564 34.0724 30.1782 33.8935 30.1782 33.6861C30.1782 33.4759 30.2564 33.2969 30.4126 33.1491C30.5717 32.9986 30.7621 32.9233 30.9836 32.9233C31.2052 32.9233 31.3942 32.9986 31.5504 33.1491C31.7095 33.2969 31.789 33.4759 31.789 33.6861C31.789 33.8935 31.7095 34.0724 31.5504 34.223C31.3942 34.3707 31.2052 34.4446 30.9836 34.4446ZM36.3839 35.4545V36.4773H32.8086V35.4545H36.3839ZM33.7674 33.8864H35.0415V40.0781C35.0415 40.3253 35.0785 40.5114 35.1523 40.6364C35.2262 40.7585 35.3214 40.8423 35.4378 40.8878C35.5572 40.9304 35.6864 40.9517 35.8256 40.9517C35.9279 40.9517 36.0174 40.9446 36.0941 40.9304C36.1708 40.9162 36.2304 40.9048 36.2731 40.8963L36.5032 41.9489C36.4293 41.9773 36.3242 42.0057 36.1878 42.0341C36.0515 42.0653 35.881 42.0824 35.6765 42.0852C35.3412 42.0909 35.0287 42.0312 34.739 41.9062C34.4492 41.7812 34.2148 41.5881 34.0358 41.3267C33.8569 41.0653 33.7674 40.7372 33.7674 40.3423V33.8864ZM41.0714 42V33.2727H46.5429V34.4062H42.3881V37.0653H46.2574V38.1946H42.3881V40.8665H46.5941V42H41.0714ZM48.1996 42V35.4545H49.4226V36.5199H49.5035C49.6399 36.1591 49.8629 35.8778 50.1726 35.6761C50.4822 35.4716 50.853 35.3693 51.2848 35.3693C51.7223 35.3693 52.0888 35.4716 52.3842 35.6761C52.6825 35.8807 52.9027 36.1619 53.0447 36.5199H53.1129C53.2692 36.1705 53.5177 35.892 53.8586 35.6847C54.1996 35.4744 54.6058 35.3693 55.0774 35.3693C55.6711 35.3693 56.1555 35.5554 56.5305 35.9276C56.9084 36.2997 57.0973 36.8608 57.0973 37.6108V42H55.8231V37.7301C55.8231 37.2869 55.7024 36.9659 55.4609 36.767C55.2194 36.5682 54.9311 36.4687 54.5959 36.4687C54.1811 36.4687 53.8586 36.5966 53.6285 36.8523C53.3984 37.1051 53.2834 37.4304 53.2834 37.8281V42H52.0135V37.6491C52.0135 37.294 51.9027 37.0085 51.6811 36.7926C51.4595 36.5767 51.1711 36.4687 50.816 36.4687C50.5746 36.4687 50.3515 36.5327 50.147 36.6605C49.9453 36.7855 49.7819 36.9602 49.6569 37.1847C49.5348 37.4091 49.4737 37.669 49.4737 37.9645V42H48.1996ZM58.9073 42V33.2727H60.1814V36.5156H60.2581C60.332 36.3793 60.4385 36.2216 60.5777 36.0426C60.717 35.8636 60.9101 35.7074 61.1573 35.5739C61.4045 35.4375 61.7312 35.3693 62.1374 35.3693C62.6658 35.3693 63.1374 35.5028 63.5522 35.7699C63.967 36.0369 64.2922 36.4219 64.528 36.9247C64.7667 37.4276 64.886 38.0327 64.886 38.7401C64.886 39.4474 64.7681 40.054 64.5323 40.5597C64.2965 41.0625 63.9726 41.4503 63.5607 41.723C63.1488 41.9929 62.6786 42.1278 62.1502 42.1278C61.7525 42.1278 61.4272 42.0611 61.1743 41.9276C60.9243 41.794 60.7283 41.6378 60.5863 41.4588C60.4442 41.2798 60.3349 41.1207 60.2581 40.9815H60.1516V42H58.9073ZM60.1559 38.7273C60.1559 39.1875 60.2226 39.5909 60.3562 39.9375C60.4897 40.2841 60.6829 40.5554 60.9357 40.7514C61.1885 40.9446 61.4982 41.0412 61.8647 41.0412C62.2454 41.0412 62.5635 40.9403 62.8192 40.7386C63.0749 40.5341 63.2681 40.2571 63.3988 39.9077C63.5323 39.5582 63.5991 39.1648 63.5991 38.7273C63.5991 38.2955 63.5337 37.9077 63.403 37.5639C63.2752 37.2202 63.082 36.9489 62.8235 36.75C62.5678 36.5511 62.2482 36.4517 61.8647 36.4517C61.4954 36.4517 61.1829 36.5469 60.9272 36.7372C60.6743 36.9276 60.4826 37.1932 60.3519 37.5341C60.2212 37.875 60.1559 38.2727 60.1559 38.7273ZM69.1378 42.1321C68.4929 42.1321 67.9375 41.9943 67.4716 41.7187C67.0085 41.4403 66.6505 41.0497 66.3977 40.5469C66.1477 40.0412 66.0227 39.4489 66.0227 38.7699C66.0227 38.0994 66.1477 37.5085 66.3977 36.9972C66.6505 36.4858 67.0028 36.0866 67.4545 35.7997C67.9091 35.5128 68.4403 35.3693 69.0483 35.3693C69.4176 35.3693 69.7755 35.4304 70.1221 35.5526C70.4687 35.6747 70.7798 35.8665 71.0554 36.1278C71.3309 36.3892 71.5483 36.7287 71.7074 37.1463C71.8665 37.5611 71.946 38.0653 71.946 38.6591V39.1108H66.7429V38.1562H70.6974C70.6974 37.821 70.6292 37.5241 70.4929 37.2656C70.3565 37.0043 70.1648 36.7983 69.9176 36.6477C69.6733 36.4972 69.3863 36.4219 69.0568 36.4219C68.6988 36.4219 68.3863 36.5099 68.1193 36.6861C67.8551 36.8594 67.6505 37.0866 67.5057 37.3679C67.3636 37.6463 67.2926 37.9489 67.2926 38.2756V39.0213C67.2926 39.4588 67.3693 39.831 67.5227 40.1378C67.679 40.4446 67.8963 40.679 68.1747 40.8409C68.4531 41 68.7784 41.0795 69.1505 41.0795C69.392 41.0795 69.6122 41.0455 69.8111 40.9773C70.0099 40.9062 70.1818 40.8011 70.3267 40.6619C70.4716 40.5227 70.5824 40.3509 70.6591 40.1463L71.865 40.3636C71.7684 40.7187 71.5951 41.0298 71.3451 41.2969C71.098 41.5611 70.7869 41.767 70.4119 41.9148C70.0398 42.0597 69.615 42.1321 69.1378 42.1321ZM75.81 42.1278C75.2816 42.1278 74.81 41.9929 74.3952 41.723C73.9833 41.4503 73.6594 41.0625 73.4236 40.5597C73.1907 40.054 73.0742 39.4474 73.0742 38.7401C73.0742 38.0327 73.1921 37.4276 73.4279 36.9247C73.6665 36.4219 73.9932 36.0369 74.408 35.7699C74.8228 35.5028 75.2929 35.3693 75.8185 35.3693C76.2248 35.3693 76.5515 35.4375 76.7986 35.5739C77.0486 35.7074 77.2418 35.8636 77.3782 36.0426C77.5174 36.2216 77.6253 36.3793 77.702 36.5156H77.7787V33.2727H79.0529V42H77.8086V40.9815H77.702C77.6253 41.1207 77.5145 41.2798 77.3697 41.4588C77.2276 41.6378 77.0316 41.794 76.7816 41.9276C76.5316 42.0611 76.2077 42.1278 75.81 42.1278ZM76.0912 41.0412C76.4577 41.0412 76.7674 40.9446 77.0202 40.7514C77.2759 40.5554 77.4691 40.2841 77.5998 39.9375C77.7333 39.5909 77.8 39.1875 77.8 38.7273C77.8 38.2727 77.7347 37.875 77.604 37.5341C77.4733 37.1932 77.2816 36.9276 77.0287 36.7372C76.7759 36.5469 76.4634 36.4517 76.0912 36.4517C75.7077 36.4517 75.3881 36.5511 75.1324 36.75C74.8768 36.9489 74.6836 37.2202 74.5529 37.5639C74.425 37.9077 74.3611 38.2955 74.3611 38.7273C74.3611 39.1648 74.4265 39.5582 74.5572 39.9077C74.6878 40.2571 74.881 40.5341 75.1367 40.7386C75.3952 40.9403 75.7134 41.0412 76.0912 41.0412ZM83.3217 42.1278C82.7933 42.1278 82.3217 41.9929 81.9069 41.723C81.495 41.4503 81.1711 41.0625 80.9353 40.5597C80.7024 40.054 80.5859 39.4474 80.5859 38.7401C80.5859 38.0327 80.7038 37.4276 80.9396 36.9247C81.1782 36.4219 81.5049 36.0369 81.9197 35.7699C82.3345 35.5028 82.8047 35.3693 83.3302 35.3693C83.7365 35.3693 84.0632 35.4375 84.3103 35.5739C84.5603 35.7074 84.7535 35.8636 84.8899 36.0426C85.0291 36.2216 85.1371 36.3793 85.2138 36.5156H85.2905V33.2727H86.5646V42H85.3203V40.9815H85.2138C85.1371 41.1207 85.0263 41.2798 84.8814 41.4588C84.7393 41.6378 84.5433 41.794 84.2933 41.9276C84.0433 42.0611 83.7194 42.1278 83.3217 42.1278ZM83.603 41.0412C83.9694 41.0412 84.2791 40.9446 84.5319 40.7514C84.7876 40.5554 84.9808 40.2841 85.1115 39.9375C85.245 39.5909 85.3118 39.1875 85.3118 38.7273C85.3118 38.2727 85.2464 37.875 85.1157 37.5341C84.9851 37.1932 84.7933 36.9276 84.5405 36.7372C84.2876 36.5469 83.9751 36.4517 83.603 36.4517C83.2194 36.4517 82.8998 36.5511 82.6442 36.75C82.3885 36.9489 82.1953 37.2202 82.0646 37.5639C81.9368 37.9077 81.8728 38.2955 81.8728 38.7273C81.8728 39.1648 81.9382 39.5582 82.0689 39.9077C82.1996 40.2571 82.3927 40.5341 82.6484 40.7386C82.9069 40.9403 83.2251 41.0412 83.603 41.0412ZM88.3831 42V35.4545H89.6573V42H88.3831ZM89.0266 34.4446C88.805 34.4446 88.6147 34.3707 88.4556 34.223C88.2993 34.0724 88.2212 33.8935 88.2212 33.6861C88.2212 33.4759 88.2993 33.2969 88.4556 33.1491C88.6147 32.9986 88.805 32.9233 89.0266 32.9233C89.2482 32.9233 89.4371 32.9986 89.5934 33.1491C89.7525 33.2969 89.832 33.4759 89.832 33.6861C89.832 33.8935 89.7525 34.0724 89.5934 34.223C89.4371 34.3707 89.2482 34.4446 89.0266 34.4446ZM92.6456 38.1136V42H91.3714V35.4545H92.5944V36.5199H92.6754C92.826 36.1733 93.0618 35.8949 93.3828 35.6847C93.7067 35.4744 94.1143 35.3693 94.6058 35.3693C95.0518 35.3693 95.4424 35.4631 95.7777 35.6506C96.1129 35.8352 96.3728 36.1108 96.5575 36.4773C96.7422 36.8437 96.8345 37.2969 96.8345 37.8366V42H95.5603V37.9901C95.5603 37.5156 95.4368 37.1449 95.1896 36.8778C94.9424 36.608 94.603 36.473 94.1711 36.473C93.8757 36.473 93.6129 36.5369 93.3828 36.6648C93.1555 36.7926 92.9751 36.9801 92.8416 37.2273C92.7109 37.4716 92.6456 37.767 92.6456 38.1136ZM101.288 44.5909C100.768 44.5909 100.32 44.5227 99.9453 44.3864C99.5731 44.25 99.2692 44.0696 99.0334 43.8452C98.7976 43.6207 98.6214 43.375 98.5049 43.108L99.6001 42.6562C99.6768 42.7812 99.7791 42.9134 99.9069 43.0526C100.038 43.1946 100.214 43.3153 100.435 43.4148C100.66 43.5142 100.948 43.5639 101.3 43.5639C101.783 43.5639 102.183 43.446 102.498 43.2102C102.813 42.9773 102.971 42.6051 102.971 42.0937V40.8068H102.89C102.813 40.946 102.702 41.1009 102.558 41.2713C102.415 41.4418 102.219 41.5895 101.969 41.7145C101.719 41.8395 101.394 41.902 100.994 41.902C100.477 41.902 100.011 41.7812 99.5959 41.5398C99.1839 41.2955 98.8572 40.9361 98.6157 40.4616C98.3771 39.9844 98.2578 39.3977 98.2578 38.7017C98.2578 38.0057 98.3757 37.4091 98.6115 36.9119C98.8501 36.4148 99.1768 36.0341 99.5916 35.7699C100.006 35.5028 100.477 35.3693 101.002 35.3693C101.408 35.3693 101.736 35.4375 101.986 35.5739C102.236 35.7074 102.431 35.8636 102.57 36.0426C102.712 36.2216 102.822 36.3793 102.898 36.5156H102.992V35.4545H104.241V42.1449C104.241 42.7074 104.11 43.169 103.849 43.5298C103.587 43.8906 103.234 44.1577 102.788 44.331C102.344 44.5043 101.844 44.5909 101.288 44.5909ZM101.275 40.8452C101.641 40.8452 101.951 40.7599 102.204 40.5895C102.459 40.4162 102.653 40.169 102.783 39.848C102.917 39.5241 102.984 39.1364 102.984 38.6847C102.984 38.2443 102.918 37.8565 102.788 37.5213C102.657 37.1861 102.465 36.9247 102.212 36.7372C101.959 36.5469 101.647 36.4517 101.275 36.4517C100.891 36.4517 100.572 36.5511 100.316 36.75C100.06 36.946 99.8672 37.2131 99.7365 37.5511C99.6086 37.8892 99.5447 38.267 99.5447 38.6847C99.5447 39.1136 99.6101 39.4901 99.7407 39.8139C99.8714 40.1378 100.065 40.3906 100.32 40.5724C100.579 40.7543 100.897 40.8452 101.275 40.8452ZM109.228 42V33.2727H110.544V40.8665H114.499V42H109.228ZM118.656 42.1321C118.042 42.1321 117.507 41.9915 117.049 41.7102C116.592 41.429 116.237 41.0355 115.984 40.5298C115.731 40.0241 115.605 39.4332 115.605 38.7571C115.605 38.0781 115.731 37.4844 115.984 36.9759C116.237 36.4673 116.592 36.0724 117.049 35.7912C117.507 35.5099 118.042 35.3693 118.656 35.3693C119.27 35.3693 119.805 35.5099 120.262 35.7912C120.72 36.0724 121.075 36.4673 121.328 36.9759C121.581 37.4844 121.707 38.0781 121.707 38.7571C121.707 39.4332 121.581 40.0241 121.328 40.5298C121.075 41.0355 120.72 41.429 120.262 41.7102C119.805 41.9915 119.27 42.1321 118.656 42.1321ZM118.66 41.0625C119.058 41.0625 119.387 40.9574 119.649 40.7472C119.91 40.5369 120.103 40.2571 120.228 39.9077C120.356 39.5582 120.42 39.1733 120.42 38.7528C120.42 38.3352 120.356 37.9517 120.228 37.6023C120.103 37.25 119.91 36.9673 119.649 36.7543C119.387 36.5412 119.058 36.4347 118.66 36.4347C118.26 36.4347 117.927 36.5412 117.663 36.7543C117.402 36.9673 117.207 37.25 117.079 37.6023C116.954 37.9517 116.892 38.3352 116.892 38.7528C116.892 39.1733 116.954 39.5582 117.079 39.9077C117.207 40.2571 117.402 40.5369 117.663 40.7472C117.927 40.9574 118.26 41.0625 118.66 41.0625ZM125.886 42.1321C125.273 42.1321 124.737 41.9915 124.28 41.7102C123.822 41.429 123.467 41.0355 123.214 40.5298C122.962 40.0241 122.835 39.4332 122.835 38.7571C122.835 38.0781 122.962 37.4844 123.214 36.9759C123.467 36.4673 123.822 36.0724 124.28 35.7912C124.737 35.5099 125.273 35.3693 125.886 35.3693C126.5 35.3693 127.035 35.5099 127.493 35.7912C127.95 36.0724 128.305 36.4673 128.558 36.9759C128.811 37.4844 128.937 38.0781 128.937 38.7571C128.937 39.4332 128.811 40.0241 128.558 40.5298C128.305 41.0355 127.95 41.429 127.493 41.7102C127.035 41.9915 126.5 42.1321 125.886 42.1321ZM125.891 41.0625C126.288 41.0625 126.618 40.9574 126.879 40.7472C127.141 40.5369 127.334 40.2571 127.459 39.9077C127.587 39.5582 127.651 39.1733 127.651 38.7528C127.651 38.3352 127.587 37.9517 127.459 37.6023C127.334 37.25 127.141 36.9673 126.879 36.7543C126.618 36.5412 126.288 36.4347 125.891 36.4347C125.49 36.4347 125.158 36.5412 124.893 36.7543C124.632 36.9673 124.437 37.25 124.31 37.6023C124.185 37.9517 124.122 38.3352 124.122 38.7528C124.122 39.1733 124.185 39.5582 124.31 39.9077C124.437 40.2571 124.632 40.5369 124.893 40.7472C125.158 40.9574 125.49 41.0625 125.891 41.0625ZM131.532 39.7798L131.523 38.2244H131.745L134.353 35.4545H135.878L132.904 38.608H132.703L131.532 39.7798ZM130.36 42V33.2727H131.634V42H130.36ZM134.493 42L132.149 38.8892L133.027 37.9986L136.057 42H134.493ZM141.186 39.2855V35.4545H142.464V42H141.211V40.8665H141.143C140.993 41.2159 140.751 41.5071 140.419 41.7401C140.089 41.9702 139.679 42.0852 139.187 42.0852C138.767 42.0852 138.395 41.9929 138.071 41.8082C137.75 41.6207 137.497 41.3437 137.312 40.9773C137.13 40.6108 137.039 40.1577 137.039 39.6179V35.4545H138.314V39.4645C138.314 39.9105 138.437 40.2656 138.684 40.5298C138.931 40.794 139.252 40.9261 139.647 40.9261C139.886 40.9261 140.123 40.8665 140.359 40.7472C140.598 40.6278 140.795 40.4474 140.951 40.206C141.11 39.9645 141.189 39.6577 141.186 39.2855ZM144.176 44.4545V35.4545H145.42V36.5156H145.527C145.601 36.3793 145.707 36.2216 145.847 36.0426C145.986 35.8636 146.179 35.7074 146.426 35.5739C146.673 35.4375 147 35.3693 147.406 35.3693C147.935 35.3693 148.406 35.5028 148.821 35.7699C149.236 36.0369 149.561 36.4219 149.797 36.9247C150.035 37.4276 150.155 38.0327 150.155 38.7401C150.155 39.4474 150.037 40.054 149.801 40.5597C149.565 41.0625 149.241 41.4503 148.83 41.723C148.418 41.9929 147.947 42.1278 147.419 42.1278C147.021 42.1278 146.696 42.0611 146.443 41.9276C146.193 41.794 145.997 41.6378 145.855 41.4588C145.713 41.2798 145.604 41.1207 145.527 40.9815H145.45V44.4545H144.176ZM145.425 38.7273C145.425 39.1875 145.491 39.5909 145.625 39.9375C145.759 40.2841 145.952 40.5554 146.205 40.7514C146.457 40.9446 146.767 41.0412 147.134 41.0412C147.514 41.0412 147.832 40.9403 148.088 40.7386C148.344 40.5341 148.537 40.2571 148.668 39.9077C148.801 39.5582 148.868 39.1648 148.868 38.7273C148.868 38.2955 148.803 37.9077 148.672 37.5639C148.544 37.2202 148.351 36.9489 148.092 36.75C147.837 36.5511 147.517 36.4517 147.134 36.4517C146.764 36.4517 146.452 36.5469 146.196 36.7372C145.943 36.9276 145.751 37.1932 145.621 37.5341C145.49 37.875 145.425 38.2727 145.425 38.7273Z" fill="black"/>
<path d="M83.5 53C83.5 52.7239 83.2761 52.5 83 52.5C82.7239 52.5 82.5 52.7239 82.5 53H83.5ZM83 73L85.8868 68H80.1132L83 73ZM82.5 53V68.5H83.5V53H82.5Z" fill="black"/>
<path d="M83.5 1C83.5 0.723858 83.2761 0.5 83 0.5C82.7239 0.5 82.5 0.723858 82.5 1L83.5 1ZM83 21L85.8868 16H80.1132L83 21ZM82.5 1V16.5H83.5V1L82.5 1Z" fill="black"/>
</svg>
