<svg width="113" height="27" viewBox="0 0 113 27" fill="none" xmlns="http://www.w3.org/2000/svg">
<path d="M19.2422 10.1016C19.2005 9.73177 19.0286 9.44531 18.7266 9.24219C18.4245 9.03646 18.0443 8.93359 17.5859 8.93359C17.2578 8.93359 16.974 8.98568 16.7344 9.08984C16.4948 9.19141 16.3086 9.33203 16.1758 9.51172C16.0456 9.6888 15.9805 9.89062 15.9805 10.1172C15.9805 10.3073 16.0247 10.4714 16.1133 10.6094C16.2044 10.7474 16.3229 10.8633 16.4688 10.957C16.6172 11.0482 16.776 11.125 16.9453 11.1875C17.1146 11.2474 17.2773 11.2969 17.4336 11.3359L18.2148 11.5391C18.4701 11.6016 18.7318 11.6862 19 11.793C19.2682 11.8997 19.5169 12.0404 19.7461 12.2148C19.9753 12.3893 20.1602 12.6055 20.3008 12.8633C20.444 13.1211 20.5156 13.4297 20.5156 13.7891C20.5156 14.2422 20.3984 14.6445 20.1641 14.9961C19.9323 15.3477 19.5951 15.625 19.1523 15.8281C18.7122 16.0313 18.1797 16.1328 17.5547 16.1328C16.9557 16.1328 16.4375 16.0378 16 15.8477C15.5625 15.6576 15.2201 15.388 14.9727 15.0391C14.7253 14.6875 14.5885 14.2708 14.5625 13.7891H15.7734C15.7969 14.0781 15.8906 14.319 16.0547 14.5117C16.2214 14.7018 16.4336 14.8437 16.6914 14.9375C16.9518 15.0286 17.237 15.0742 17.5469 15.0742C17.888 15.0742 18.1914 15.0208 18.457 14.9141C18.7253 14.8047 18.9362 14.6536 19.0898 14.4609C19.2435 14.2656 19.3203 14.0378 19.3203 13.7773C19.3203 13.5404 19.2526 13.3464 19.1172 13.1953C18.9844 13.0443 18.8034 12.9193 18.5742 12.8203C18.3477 12.7214 18.0911 12.6341 17.8047 12.5586L16.8594 12.3008C16.2188 12.1263 15.7109 11.8698 15.3359 11.5312C14.9635 11.1927 14.7773 10.7448 14.7773 10.1875C14.7773 9.72656 14.9023 9.32422 15.1523 8.98047C15.4023 8.63672 15.7409 8.36979 16.168 8.17969C16.5951 7.98698 17.0768 7.89062 17.6133 7.89062C18.1549 7.89062 18.6328 7.98568 19.0469 8.17578C19.4635 8.36589 19.7917 8.6276 20.0313 8.96094C20.2708 9.29167 20.3958 9.67187 20.4063 10.1016H19.2422ZM21.8643 18.25V10H23.0049V10.9727H23.1025C23.1702 10.8477 23.2679 10.7031 23.3955 10.5391C23.5231 10.375 23.7002 10.2318 23.9268 10.1094C24.1533 9.98438 24.4528 9.92188 24.8252 9.92188C25.3096 9.92188 25.7419 10.0443 26.1221 10.2891C26.5023 10.5339 26.8005 10.8867 27.0166 11.3477C27.2354 11.8086 27.3447 12.3633 27.3447 13.0117C27.3447 13.6602 27.2367 14.2161 27.0205 14.6797C26.8044 15.1406 26.5075 15.4961 26.1299 15.7461C25.7523 15.9935 25.3213 16.1172 24.8369 16.1172C24.4723 16.1172 24.1742 16.056 23.9424 15.9336C23.7132 15.8112 23.5335 15.668 23.4033 15.5039C23.2731 15.3398 23.1729 15.194 23.1025 15.0664H23.0322V18.25H21.8643ZM23.0088 13C23.0088 13.4219 23.07 13.7917 23.1924 14.1094C23.3148 14.4271 23.4919 14.6758 23.7236 14.8555C23.9554 15.0326 24.2393 15.1211 24.5752 15.1211C24.9242 15.1211 25.2158 15.0286 25.4502 14.8437C25.6846 14.6562 25.8617 14.4023 25.9814 14.082C26.1038 13.7617 26.165 13.401 26.165 13C26.165 12.6042 26.1051 12.2487 25.9854 11.9336C25.8682 11.6185 25.6911 11.3698 25.4541 11.1875C25.2197 11.0052 24.9268 10.9141 24.5752 10.9141C24.2367 10.9141 23.9502 11.0013 23.7158 11.1758C23.484 11.3503 23.3083 11.5937 23.1885 11.9062C23.0687 12.2187 23.0088 12.5833 23.0088 13ZM28.6533 16V10H29.8213V16H28.6533ZM29.2432 9.07422C29.04 9.07422 28.8656 9.00651 28.7197 8.87109C28.5765 8.73307 28.5049 8.56901 28.5049 8.37891C28.5049 8.1862 28.5765 8.02214 28.7197 7.88672C28.8656 7.7487 29.04 7.67969 29.2432 7.67969C29.4463 7.67969 29.6195 7.7487 29.7627 7.88672C29.9085 8.02214 29.9814 8.1862 29.9814 8.37891C29.9814 8.56901 29.9085 8.73307 29.7627 8.87109C29.6195 9.00651 29.4463 9.07422 29.2432 9.07422ZM32.4668 13.9648L32.459 12.5391H32.6621L35.0527 10H36.4512L33.7246 12.8906H33.541L32.4668 13.9648ZM31.3926 16V8H32.5605V16H31.3926ZM35.1816 16L33.0332 13.1484L33.8379 12.332L36.6152 16H35.1816ZM39.8545 16.1211C39.2633 16.1211 38.7542 15.9948 38.3271 15.7422C37.9027 15.487 37.5745 15.1289 37.3428 14.668C37.1136 14.2044 36.999 13.6615 36.999 13.0391C36.999 12.4245 37.1136 11.8828 37.3428 11.4141C37.5745 10.9453 37.8975 10.5794 38.3115 10.3164C38.7282 10.0534 39.2152 9.92188 39.7725 9.92188C40.111 9.92188 40.4391 9.97786 40.7568 10.0898C41.0745 10.2018 41.3597 10.3776 41.6123 10.6172C41.8649 10.8568 42.0641 11.168 42.21 11.5508C42.3558 11.931 42.4287 12.3932 42.4287 12.9375V13.3516H37.6592V12.4766H41.2842C41.2842 12.1693 41.2217 11.8971 41.0967 11.6602C40.9717 11.4206 40.7959 11.2318 40.5693 11.0937C40.3454 10.9557 40.0824 10.8867 39.7803 10.8867C39.4521 10.8867 39.1657 10.9674 38.9209 11.1289C38.6787 11.2878 38.4912 11.4961 38.3584 11.7539C38.2282 12.0091 38.1631 12.2865 38.1631 12.5859V13.2695C38.1631 13.6706 38.2334 14.0117 38.374 14.293C38.5173 14.5742 38.7165 14.7891 38.9717 14.9375C39.2269 15.0833 39.5251 15.1562 39.8662 15.1562C40.0876 15.1562 40.2894 15.125 40.4717 15.0625C40.654 14.9974 40.8115 14.901 40.9443 14.7734C41.0771 14.6458 41.1787 14.4883 41.249 14.3008L42.3545 14.5C42.266 14.8255 42.1071 15.1107 41.8779 15.3555C41.6514 15.5977 41.3662 15.7865 41.0225 15.9219C40.6813 16.0547 40.292 16.1211 39.8545 16.1211ZM46.335 9.03906V8H52.5264V9.03906H50.0303V16H48.8271V9.03906H46.335ZM55.458 16.1211C54.8955 16.1211 54.4046 15.9922 53.9854 15.7344C53.5661 15.4766 53.2406 15.1159 53.0088 14.6523C52.777 14.1888 52.6611 13.6471 52.6611 13.0273C52.6611 12.4049 52.777 11.8607 53.0088 11.3945C53.2406 10.9284 53.5661 10.5664 53.9854 10.3086C54.4046 10.0508 54.8955 9.92188 55.458 9.92188C56.0205 9.92188 56.5114 10.0508 56.9307 10.3086C57.3499 10.5664 57.6755 10.9284 57.9072 11.3945C58.139 11.8607 58.2549 12.4049 58.2549 13.0273C58.2549 13.6471 58.139 14.1888 57.9072 14.6523C57.6755 15.1159 57.3499 15.4766 56.9307 15.7344C56.5114 15.9922 56.0205 16.1211 55.458 16.1211ZM55.4619 15.1406C55.8265 15.1406 56.1286 15.0443 56.3682 14.8516C56.6077 14.6589 56.7848 14.4023 56.8994 14.082C57.0166 13.7617 57.0752 13.4089 57.0752 13.0234C57.0752 12.6406 57.0166 12.2891 56.8994 11.9687C56.7848 11.6458 56.6077 11.3867 56.3682 11.1914C56.1286 10.9961 55.8265 10.8984 55.4619 10.8984C55.0947 10.8984 54.79 10.9961 54.5479 11.1914C54.3083 11.3867 54.1299 11.6458 54.0127 11.9687C53.8981 12.2891 53.8408 12.6406 53.8408 13.0234C53.8408 13.4089 53.8981 13.7617 54.0127 14.082C54.1299 14.4023 54.3083 14.6589 54.5479 14.8516C54.79 15.0443 55.0947 15.1406 55.4619 15.1406ZM60.6328 13.9648L60.625 12.5391H60.8281L63.2188 10H64.6172L61.8906 12.8906H61.707L60.6328 13.9648ZM59.5586 16V8H60.7266V16H59.5586ZM63.3477 16L61.1992 13.1484L62.0039 12.332L64.7813 16H63.3477ZM68.0205 16.1211C67.4294 16.1211 66.9202 15.9948 66.4932 15.7422C66.0687 15.487 65.7406 15.1289 65.5088 14.668C65.2796 14.2044 65.165 13.6615 65.165 13.0391C65.165 12.4245 65.2796 11.8828 65.5088 11.4141C65.7406 10.9453 66.0635 10.5794 66.4775 10.3164C66.8942 10.0534 67.3812 9.92188 67.9385 9.92188C68.277 9.92188 68.6051 9.97786 68.9229 10.0898C69.2406 10.2018 69.5257 10.3776 69.7783 10.6172C70.0309 10.8568 70.2301 11.168 70.376 11.5508C70.5218 11.931 70.5947 12.3932 70.5947 12.9375V13.3516H65.8252V12.4766H69.4502C69.4502 12.1693 69.3877 11.8971 69.2627 11.6602C69.1377 11.4206 68.9619 11.2318 68.7354 11.0937C68.5114 10.9557 68.2484 10.8867 67.9463 10.8867C67.6182 10.8867 67.3317 10.9674 67.0869 11.1289C66.8447 11.2878 66.6572 11.4961 66.5244 11.7539C66.3942 12.0091 66.3291 12.2865 66.3291 12.5859V13.2695C66.3291 13.6706 66.3994 14.0117 66.54 14.293C66.6833 14.5742 66.8825 14.7891 67.1377 14.9375C67.3929 15.0833 67.6911 15.1562 68.0322 15.1562C68.2536 15.1562 68.4554 15.125 68.6377 15.0625C68.82 14.9974 68.9775 14.901 69.1104 14.7734C69.2432 14.6458 69.3447 14.4883 69.415 14.3008L70.5205 14.5C70.432 14.8255 70.2731 15.1107 70.0439 15.3555C69.8174 15.5977 69.5322 15.7865 69.1885 15.9219C68.8473 16.0547 68.458 16.1211 68.0205 16.1211ZM73.0586 12.4375V16H71.8906V10L73.0117 10V10.9766H73.0859C73.224 10.6589 73.4401 10.4036 73.7344 10.2109C74.0313 10.0182 74.4049 9.92188 74.8555 9.92188C75.2643 9.92188 75.6224 10.0078 75.9297 10.1797C76.237 10.349 76.4753 10.6016 76.6445 10.9375C76.8138 11.2734 76.8984 11.6888 76.8984 12.1836V16H75.7305V12.3242C75.7305 11.8893 75.6172 11.5495 75.3906 11.3047C75.1641 11.0573 74.8529 10.9336 74.457 10.9336C74.1862 10.9336 73.9453 10.9922 73.7344 11.1094C73.526 11.2266 73.3607 11.3984 73.2383 11.625C73.1185 11.849 73.0586 12.1198 73.0586 12.4375ZM78.4648 16V10H79.6328V16H78.4648ZM79.0547 9.07422C78.8516 9.07422 78.6771 9.00651 78.5313 8.87109C78.388 8.73307 78.3164 8.56901 78.3164 8.37891C78.3164 8.1862 78.388 8.02214 78.5313 7.88672C78.6771 7.7487 78.8516 7.67969 79.0547 7.67969C79.2578 7.67969 79.431 7.7487 79.5742 7.88672C79.7201 8.02214 79.793 8.1862 79.793 8.37891C79.793 8.56901 79.7201 8.73307 79.5742 8.87109C79.431 9.00651 79.2578 9.07422 79.0547 9.07422ZM81.0791 16V15.1992L84.3291 11.0703V11.0156H81.1846V10H85.7861V10.8516L82.6611 14.9297V14.9844H85.8955V16H81.0791ZM89.0195 16.1328C88.6393 16.1328 88.2956 16.0625 87.9883 15.9219C87.681 15.7786 87.4375 15.5716 87.2578 15.3008C87.0807 15.0299 86.9922 14.6979 86.9922 14.3047C86.9922 13.9661 87.0573 13.6875 87.1875 13.4687C87.3177 13.25 87.4935 13.0768 87.7148 12.9492C87.9362 12.8216 88.1836 12.7253 88.457 12.6602C88.7305 12.5951 89.0091 12.5456 89.293 12.5117C89.6523 12.4701 89.944 12.4362 90.168 12.4102C90.3919 12.3815 90.5547 12.3359 90.6562 12.2734C90.7578 12.2109 90.8086 12.1094 90.8086 11.9687V11.9414C90.8086 11.6003 90.7122 11.3359 90.5195 11.1484C90.3294 10.9609 90.0456 10.8672 89.668 10.8672C89.2747 10.8672 88.9648 10.9544 88.7383 11.1289C88.5143 11.3008 88.3594 11.4922 88.2734 11.7031L87.1758 11.4531C87.306 11.0885 87.4961 10.7943 87.7461 10.5703C87.9987 10.3437 88.2891 10.1797 88.6172 10.0781C88.9453 9.97396 89.2904 9.92188 89.6523 9.92188C89.8919 9.92188 90.1458 9.95052 90.4141 10.0078C90.6849 10.0625 90.9375 10.1641 91.1719 10.3125C91.4089 10.4609 91.6029 10.6732 91.7539 10.9492C91.9049 11.2227 91.9805 11.5781 91.9805 12.0156V16H90.8398V15.1797H90.793C90.7174 15.3307 90.6042 15.4792 90.4531 15.625C90.3021 15.7708 90.1081 15.8919 89.8711 15.9883C89.6341 16.0846 89.3503 16.1328 89.0195 16.1328ZM89.2734 15.1953C89.5964 15.1953 89.8724 15.1315 90.1016 15.0039C90.3333 14.8763 90.5091 14.7096 90.6289 14.5039C90.7513 14.2956 90.8125 14.0729 90.8125 13.8359V13.0625C90.7708 13.1042 90.6901 13.1432 90.5703 13.1797C90.4531 13.2135 90.319 13.2435 90.168 13.2695C90.0169 13.293 89.8698 13.3151 89.7266 13.3359C89.5833 13.3542 89.4635 13.3698 89.3672 13.3828C89.1406 13.4115 88.9336 13.4596 88.7461 13.5273C88.5612 13.5951 88.4128 13.6927 88.3008 13.8203C88.1914 13.9453 88.1367 14.112 88.1367 14.3203C88.1367 14.6094 88.2435 14.8281 88.457 14.9766C88.6706 15.1224 88.9427 15.1953 89.2734 15.1953ZM96.3369 10V10.9375H93.0596V10H96.3369ZM93.9385 8.5625H95.1064V14.2383C95.1064 14.4648 95.1403 14.6354 95.208 14.75C95.2757 14.862 95.363 14.9388 95.4697 14.9805C95.5791 15.0195 95.6976 15.0391 95.8252 15.0391C95.9189 15.0391 96.001 15.0326 96.0713 15.0195C96.1416 15.0065 96.1963 14.9961 96.2354 14.9883L96.4463 15.9531C96.3786 15.9792 96.2822 16.0052 96.1572 16.0313C96.0322 16.0599 95.876 16.0755 95.6885 16.0781C95.3812 16.0833 95.0947 16.0286 94.8291 15.9141C94.5635 15.7995 94.3486 15.6224 94.1846 15.3828C94.0205 15.1432 93.9385 14.8424 93.9385 14.4805V8.5625ZM97.6289 16V10H98.7969V16H97.6289ZM98.2188 9.07422C98.0156 9.07422 97.8411 9.00651 97.6953 8.87109C97.5521 8.73307 97.4805 8.56901 97.4805 8.37891C97.4805 8.1862 97.5521 8.02214 97.6953 7.88672C97.8411 7.7487 98.0156 7.67969 98.2188 7.67969C98.4219 7.67969 98.5951 7.7487 98.7383 7.88672C98.8841 8.02214 98.957 8.1862 98.957 8.37891C98.957 8.56901 98.8841 8.73307 98.7383 8.87109C98.5951 9.00651 98.4219 9.07422 98.2188 9.07422ZM102.896 16.1211C102.333 16.1211 101.842 15.9922 101.423 15.7344C101.004 15.4766 100.678 15.1159 100.446 14.6523C100.215 14.1888 100.099 13.6471 100.099 13.0273C100.099 12.4049 100.215 11.8607 100.446 11.3945C100.678 10.9284 101.004 10.5664 101.423 10.3086C101.842 10.0508 102.333 9.92188 102.896 9.92188C103.458 9.92188 103.949 10.0508 104.368 10.3086C104.787 10.5664 105.113 10.9284 105.345 11.3945C105.576 11.8607 105.692 12.4049 105.692 13.0273C105.692 13.6471 105.576 14.1888 105.345 14.6523C105.113 15.1159 104.787 15.4766 104.368 15.7344C103.949 15.9922 103.458 16.1211 102.896 16.1211ZM102.899 15.1406C103.264 15.1406 103.566 15.0443 103.806 14.8516C104.045 14.6589 104.222 14.4023 104.337 14.082C104.454 13.7617 104.513 13.4089 104.513 13.0234C104.513 12.6406 104.454 12.2891 104.337 11.9687C104.222 11.6458 104.045 11.3867 103.806 11.1914C103.566 10.9961 103.264 10.8984 102.899 10.8984C102.532 10.8984 102.228 10.9961 101.985 11.1914C101.746 11.3867 101.567 11.6458 101.45 11.9687C101.336 12.2891 101.278 12.6406 101.278 13.0234C101.278 13.4089 101.336 13.7617 101.45 14.082C101.567 14.4023 101.746 14.6589 101.985 14.8516C102.228 15.0443 102.532 15.1406 102.899 15.1406ZM108.164 12.4375V16H106.996V10H108.117V10.9766H108.191C108.329 10.6589 108.546 10.4036 108.84 10.2109C109.137 10.0182 109.51 9.92188 109.961 9.92188C110.37 9.92188 110.728 10.0078 111.035 10.1797C111.342 10.349 111.581 10.6016 111.75 10.9375C111.919 11.2734 112.004 11.6888 112.004 12.1836V16H110.836V12.3242C110.836 11.8893 110.723 11.5495 110.496 11.3047C110.27 11.0573 109.958 10.9336 109.562 10.9336C109.292 10.9336 109.051 10.9922 108.84 11.1094C108.632 11.2266 108.466 11.3984 108.344 11.625C108.224 11.849 108.164 12.1198 108.164 12.4375Z" fill="black"/>
<path d="M3 27L5.88675 22H0.113249L3 27ZM3.5 22.5L3.5 -1.90735e-06H2.5L2.5 22.5H3.5Z" fill="black"/>
</svg>
