<svg width="346" height="301" viewBox="0 0 346 301" fill="none" xmlns="http://www.w3.org/2000/svg">
<path d="M127 0.5H288C290.485 0.5 292.5 2.51472 292.5 5V225C292.5 227.485 290.485 229.5 288 229.5H127C124.515 229.5 122.5 227.485 122.5 225V5C122.5 2.51472 124.515 0.5 127 0.5Z" fill="#F5F5F5" stroke="black"/>
<path d="M159.469 221V212.273H162.665C163.284 212.273 163.797 212.375 164.203 212.58C164.609 212.781 164.913 213.055 165.115 213.402C165.317 213.746 165.417 214.134 165.417 214.565C165.417 214.929 165.351 215.236 165.217 215.486C165.084 215.733 164.905 215.932 164.68 216.082C164.459 216.23 164.214 216.338 163.947 216.406V216.491C164.237 216.506 164.52 216.599 164.795 216.773C165.074 216.943 165.304 217.186 165.486 217.501C165.667 217.817 165.758 218.2 165.758 218.652C165.758 219.098 165.653 219.499 165.443 219.854C165.236 220.206 164.915 220.486 164.48 220.693C164.045 220.898 163.49 221 162.814 221H159.469ZM160.785 219.871H162.686C163.317 219.871 163.768 219.749 164.041 219.504C164.314 219.26 164.45 218.955 164.45 218.588C164.45 218.312 164.381 218.06 164.241 217.83C164.102 217.599 163.903 217.416 163.645 217.28C163.389 217.143 163.085 217.075 162.733 217.075H160.785V219.871ZM160.785 216.048H162.55C162.845 216.048 163.111 215.991 163.346 215.878C163.585 215.764 163.774 215.605 163.913 215.401C164.055 215.193 164.126 214.949 164.126 214.668C164.126 214.307 164 214.004 163.747 213.76C163.494 213.516 163.106 213.393 162.584 213.393H160.785V216.048ZM170.039 221.132C169.394 221.132 168.839 220.994 168.373 220.719C167.91 220.44 167.552 220.05 167.299 219.547C167.049 219.041 166.924 218.449 166.924 217.77C166.924 217.099 167.049 216.509 167.299 215.997C167.552 215.486 167.904 215.087 168.356 214.8C168.81 214.513 169.341 214.369 169.949 214.369C170.319 214.369 170.677 214.43 171.023 214.553C171.37 214.675 171.681 214.866 171.956 215.128C172.232 215.389 172.449 215.729 172.608 216.146C172.768 216.561 172.847 217.065 172.847 217.659V218.111H167.644V217.156H171.599C171.599 216.821 171.53 216.524 171.394 216.266C171.258 216.004 171.066 215.798 170.819 215.648C170.574 215.497 170.287 215.422 169.958 215.422C169.6 215.422 169.287 215.51 169.02 215.686C168.756 215.859 168.552 216.087 168.407 216.368C168.265 216.646 168.194 216.949 168.194 217.276V218.021C168.194 218.459 168.27 218.831 168.424 219.138C168.58 219.445 168.797 219.679 169.076 219.841C169.354 220 169.68 220.08 170.052 220.08C170.293 220.08 170.513 220.045 170.712 219.977C170.911 219.906 171.083 219.801 171.228 219.662C171.373 219.523 171.483 219.351 171.56 219.146L172.766 219.364C172.67 219.719 172.496 220.03 172.246 220.297C171.999 220.561 171.688 220.767 171.313 220.915C170.941 221.06 170.516 221.132 170.039 221.132ZM175.535 217.114V221H174.261V212.273H175.518V215.52H175.599C175.752 215.168 175.987 214.888 176.302 214.68C176.617 214.473 177.029 214.369 177.538 214.369C177.987 214.369 178.379 214.462 178.714 214.646C179.052 214.831 179.313 215.107 179.498 215.473C179.686 215.837 179.779 216.291 179.779 216.837V221H178.505V216.99C178.505 216.51 178.382 216.138 178.134 215.874C177.887 215.607 177.544 215.473 177.103 215.473C176.802 215.473 176.532 215.537 176.294 215.665C176.058 215.793 175.872 215.98 175.735 216.227C175.602 216.472 175.535 216.767 175.535 217.114ZM183.384 221.145C182.97 221.145 182.595 221.068 182.259 220.915C181.924 220.759 181.659 220.533 181.463 220.237C181.269 219.942 181.173 219.58 181.173 219.151C181.173 218.781 181.244 218.477 181.386 218.239C181.528 218 181.72 217.811 181.961 217.672C182.203 217.533 182.472 217.428 182.771 217.357C183.069 217.286 183.373 217.232 183.683 217.195C184.075 217.149 184.393 217.112 184.637 217.084C184.882 217.053 185.059 217.003 185.17 216.935C185.281 216.866 185.336 216.756 185.336 216.602V216.572C185.336 216.2 185.231 215.912 185.021 215.707C184.813 215.503 184.504 215.401 184.092 215.401C183.663 215.401 183.325 215.496 183.078 215.686C182.833 215.874 182.664 216.082 182.57 216.312L181.373 216.04C181.515 215.642 181.722 215.321 181.995 215.077C182.271 214.83 182.588 214.651 182.945 214.54C183.303 214.426 183.68 214.369 184.075 214.369C184.336 214.369 184.613 214.401 184.906 214.463C185.201 214.523 185.477 214.634 185.732 214.795C185.991 214.957 186.203 215.189 186.367 215.49C186.532 215.788 186.615 216.176 186.615 216.653V221H185.37V220.105H185.319C185.237 220.27 185.113 220.432 184.948 220.591C184.784 220.75 184.572 220.882 184.313 220.987C184.055 221.092 183.745 221.145 183.384 221.145ZM183.661 220.122C184.014 220.122 184.315 220.053 184.565 219.913C184.818 219.774 185.009 219.592 185.14 219.368C185.274 219.141 185.34 218.898 185.34 218.639V217.795C185.295 217.841 185.207 217.884 185.076 217.923C184.948 217.96 184.802 217.993 184.637 218.021C184.472 218.047 184.312 218.071 184.156 218.094C183.999 218.114 183.869 218.131 183.764 218.145C183.517 218.176 183.291 218.229 183.086 218.303C182.884 218.376 182.722 218.483 182.6 218.622C182.481 218.759 182.421 218.94 182.421 219.168C182.421 219.483 182.538 219.722 182.771 219.884C183.004 220.043 183.301 220.122 183.661 220.122ZM193.677 214.455L191.303 221H189.939L187.562 214.455H188.93L190.587 219.491H190.655L192.309 214.455H193.677ZM194.874 221V214.455H196.148V221H194.874ZM195.518 213.445C195.296 213.445 195.106 213.371 194.947 213.223C194.79 213.072 194.712 212.893 194.712 212.686C194.712 212.476 194.79 212.297 194.947 212.149C195.106 211.999 195.296 211.923 195.518 211.923C195.739 211.923 195.928 211.999 196.084 212.149C196.243 212.297 196.323 212.476 196.323 212.686C196.323 212.893 196.243 213.072 196.084 213.223C195.928 213.371 195.739 213.445 195.518 213.445ZM200.619 221.132C200.006 221.132 199.47 220.991 199.013 220.71C198.556 220.429 198.2 220.036 197.948 219.53C197.695 219.024 197.568 218.433 197.568 217.757C197.568 217.078 197.695 216.484 197.948 215.976C198.2 215.467 198.556 215.072 199.013 214.791C199.47 214.51 200.006 214.369 200.619 214.369C201.233 214.369 201.769 214.51 202.226 214.791C202.683 215.072 203.039 215.467 203.291 215.976C203.544 216.484 203.671 217.078 203.671 217.757C203.671 218.433 203.544 219.024 203.291 219.53C203.039 220.036 202.683 220.429 202.226 220.71C201.769 220.991 201.233 221.132 200.619 221.132ZM200.624 220.062C201.021 220.062 201.351 219.957 201.612 219.747C201.874 219.537 202.067 219.257 202.192 218.908C202.32 218.558 202.384 218.173 202.384 217.753C202.384 217.335 202.32 216.952 202.192 216.602C202.067 216.25 201.874 215.967 201.612 215.754C201.351 215.541 201.021 215.435 200.624 215.435C200.223 215.435 199.891 215.541 199.627 215.754C199.365 215.967 199.171 216.25 199.043 216.602C198.918 216.952 198.855 217.335 198.855 217.753C198.855 218.173 198.918 218.558 199.043 218.908C199.171 219.257 199.365 219.537 199.627 219.747C199.891 219.957 200.223 220.062 200.624 220.062ZM205.093 221V214.455H206.324V215.494H206.393C206.512 215.142 206.722 214.865 207.023 214.663C207.327 214.459 207.671 214.357 208.055 214.357C208.134 214.357 208.228 214.359 208.336 214.365C208.447 214.371 208.533 214.378 208.596 214.386V215.605C208.545 215.591 208.454 215.575 208.323 215.558C208.192 215.538 208.062 215.528 207.931 215.528C207.63 215.528 207.361 215.592 207.126 215.72C206.893 215.845 206.708 216.02 206.572 216.244C206.435 216.466 206.367 216.719 206.367 217.003V221H205.093ZM216.185 218.17H217.481L218.393 219.359L218.823 219.888L220.276 221.784H218.93L217.958 220.518L217.626 220.058L216.185 218.17ZM220.557 216.636C220.557 217.568 220.387 218.369 220.046 219.04C219.705 219.707 219.238 220.222 218.644 220.582C218.053 220.94 217.381 221.119 216.628 221.119C215.873 221.119 215.198 220.94 214.604 220.582C214.013 220.222 213.547 219.706 213.206 219.036C212.866 218.365 212.695 217.565 212.695 216.636C212.695 215.705 212.866 214.905 213.206 214.237C213.547 213.567 214.013 213.053 214.604 212.695C215.198 212.334 215.873 212.153 216.628 212.153C217.381 212.153 218.053 212.334 218.644 212.695C219.238 213.053 219.705 213.567 220.046 214.237C220.387 214.905 220.557 215.705 220.557 216.636ZM219.253 216.636C219.253 215.926 219.138 215.328 218.908 214.842C218.681 214.354 218.368 213.984 217.971 213.734C217.576 213.482 217.128 213.355 216.628 213.355C216.126 213.355 215.677 213.482 215.282 213.734C214.887 213.984 214.574 214.354 214.344 214.842C214.117 215.328 214.003 215.926 214.003 216.636C214.003 217.347 214.117 217.946 214.344 218.435C214.574 218.92 214.887 219.29 215.282 219.543C215.677 219.793 216.126 219.918 216.628 219.918C217.128 219.918 217.576 219.793 217.971 219.543C218.368 219.29 218.681 218.92 218.908 218.435C219.138 217.946 219.253 217.347 219.253 216.636ZM226.243 218.286V214.455H227.521V221H226.269V219.866H226.2C226.05 220.216 225.808 220.507 225.476 220.74C225.146 220.97 224.736 221.085 224.244 221.085C223.824 221.085 223.452 220.993 223.128 220.808C222.807 220.621 222.554 220.344 222.369 219.977C222.188 219.611 222.097 219.158 222.097 218.618V214.455H223.371V218.464C223.371 218.911 223.494 219.266 223.742 219.53C223.989 219.794 224.31 219.926 224.705 219.926C224.943 219.926 225.181 219.866 225.416 219.747C225.655 219.628 225.852 219.447 226.009 219.206C226.168 218.964 226.246 218.658 226.243 218.286ZM232.055 221.132C231.41 221.132 230.854 220.994 230.388 220.719C229.925 220.44 229.567 220.05 229.314 219.547C229.064 219.041 228.939 218.449 228.939 217.77C228.939 217.099 229.064 216.509 229.314 215.997C229.567 215.486 229.92 215.087 230.371 214.8C230.826 214.513 231.357 214.369 231.965 214.369C232.334 214.369 232.692 214.43 233.039 214.553C233.385 214.675 233.697 214.866 233.972 215.128C234.248 215.389 234.465 215.729 234.624 216.146C234.783 216.561 234.863 217.065 234.863 217.659V218.111H229.66V217.156H233.614C233.614 216.821 233.546 216.524 233.41 216.266C233.273 216.004 233.081 215.798 232.834 215.648C232.59 215.497 232.303 215.422 231.974 215.422C231.616 215.422 231.303 215.51 231.036 215.686C230.772 215.859 230.567 216.087 230.422 216.368C230.28 216.646 230.209 216.949 230.209 217.276V218.021C230.209 218.459 230.286 218.831 230.439 219.138C230.596 219.445 230.813 219.679 231.091 219.841C231.37 220 231.695 220.08 232.067 220.08C232.309 220.08 232.529 220.045 232.728 219.977C232.927 219.906 233.099 219.801 233.243 219.662C233.388 219.523 233.499 219.351 233.576 219.146L234.782 219.364C234.685 219.719 234.512 220.03 234.262 220.297C234.015 220.561 233.704 220.767 233.329 220.915C232.956 221.06 232.532 221.132 232.055 221.132ZM236.276 221V214.455H237.508V215.494H237.576C237.695 215.142 237.906 214.865 238.207 214.663C238.511 214.459 238.855 214.357 239.238 214.357C239.318 214.357 239.411 214.359 239.519 214.365C239.63 214.371 239.717 214.378 239.779 214.386V215.605C239.728 215.591 239.637 215.575 239.507 215.558C239.376 215.538 239.245 215.528 239.115 215.528C238.813 215.528 238.545 215.592 238.309 215.72C238.076 215.845 237.892 216.02 237.755 216.244C237.619 216.466 237.551 216.719 237.551 217.003V221H236.276ZM240.882 221V214.455H242.156V221H240.882ZM241.525 213.445C241.304 213.445 241.113 213.371 240.954 213.223C240.798 213.072 240.72 212.893 240.72 212.686C240.72 212.476 240.798 212.297 240.954 212.149C241.113 211.999 241.304 211.923 241.525 211.923C241.747 211.923 241.936 211.999 242.092 212.149C242.251 212.297 242.331 212.476 242.331 212.686C242.331 212.893 242.251 213.072 242.092 213.223C241.936 213.371 241.747 213.445 241.525 213.445ZM246.691 221.132C246.046 221.132 245.491 220.994 245.025 220.719C244.562 220.44 244.204 220.05 243.951 219.547C243.701 219.041 243.576 218.449 243.576 217.77C243.576 217.099 243.701 216.509 243.951 215.997C244.204 215.486 244.556 215.087 245.008 214.8C245.463 214.513 245.994 214.369 246.602 214.369C246.971 214.369 247.329 214.43 247.676 214.553C248.022 214.675 248.333 214.866 248.609 215.128C248.884 215.389 249.102 215.729 249.261 216.146C249.42 216.561 249.499 217.065 249.499 217.659V218.111H244.296V217.156H248.251C248.251 216.821 248.183 216.524 248.046 216.266C247.91 216.004 247.718 215.798 247.471 215.648C247.227 215.497 246.94 215.422 246.61 215.422C246.252 215.422 245.94 215.51 245.673 215.686C245.409 215.859 245.204 216.087 245.059 216.368C244.917 216.646 244.846 216.949 244.846 217.276V218.021C244.846 218.459 244.923 218.831 245.076 219.138C245.232 219.445 245.45 219.679 245.728 219.841C246.007 220 246.332 220.08 246.704 220.08C246.945 220.08 247.166 220.045 247.365 219.977C247.563 219.906 247.735 219.801 247.88 219.662C248.025 219.523 248.136 219.351 248.213 219.146L249.419 219.364C249.322 219.719 249.149 220.03 248.899 220.297C248.651 220.561 248.34 220.767 247.965 220.915C247.593 221.06 247.169 221.132 246.691 221.132ZM255.818 216.053L254.663 216.257C254.615 216.109 254.538 215.969 254.433 215.835C254.331 215.702 254.192 215.592 254.015 215.507C253.839 215.422 253.619 215.379 253.355 215.379C252.994 215.379 252.693 215.46 252.452 215.622C252.21 215.781 252.089 215.987 252.089 216.24C252.089 216.459 252.17 216.635 252.332 216.768C252.494 216.902 252.756 217.011 253.116 217.097L254.156 217.335C254.758 217.474 255.207 217.689 255.503 217.979C255.798 218.268 255.946 218.645 255.946 219.108C255.946 219.5 255.832 219.849 255.605 220.156C255.381 220.46 255.067 220.699 254.663 220.872C254.263 221.045 253.798 221.132 253.27 221.132C252.537 221.132 251.939 220.976 251.476 220.663C251.013 220.348 250.729 219.901 250.623 219.321L251.855 219.134C251.932 219.455 252.089 219.697 252.328 219.862C252.567 220.024 252.878 220.105 253.261 220.105C253.679 220.105 254.013 220.018 254.263 219.845C254.513 219.669 254.638 219.455 254.638 219.202C254.638 218.997 254.561 218.825 254.407 218.686C254.257 218.547 254.025 218.442 253.713 218.371L252.605 218.128C251.994 217.989 251.542 217.767 251.25 217.463C250.96 217.159 250.815 216.774 250.815 216.308C250.815 215.922 250.923 215.584 251.139 215.294C251.355 215.004 251.653 214.778 252.034 214.616C252.415 214.452 252.851 214.369 253.342 214.369C254.05 214.369 254.606 214.523 255.013 214.83C255.419 215.134 255.687 215.541 255.818 216.053Z" fill="black"/>
<path d="M130.565 182.732C130.162 182.778 129.849 182.965 129.628 183.295C129.403 183.624 129.291 184.039 129.291 184.539C129.291 184.897 129.348 185.207 129.462 185.468C129.572 185.73 129.726 185.933 129.922 186.078C130.115 186.22 130.335 186.291 130.582 186.291C130.79 186.291 130.969 186.242 131.119 186.146C131.27 186.046 131.396 185.917 131.499 185.758C131.598 185.596 131.682 185.423 131.75 185.238C131.815 185.053 131.869 184.876 131.912 184.705L132.134 183.853C132.202 183.575 132.294 183.289 132.411 182.997C132.527 182.704 132.68 182.433 132.871 182.183C133.061 181.933 133.297 181.731 133.578 181.578C133.859 181.421 134.196 181.343 134.588 181.343C135.082 181.343 135.521 181.471 135.905 181.727C136.288 181.98 136.591 182.347 136.812 182.83C137.034 183.311 137.145 183.892 137.145 184.573C137.145 185.227 137.041 185.792 136.834 186.269C136.626 186.747 136.332 187.12 135.952 187.39C135.568 187.66 135.114 187.809 134.588 187.838V186.517C134.903 186.491 135.166 186.389 135.376 186.21C135.584 186.028 135.739 185.796 135.841 185.515C135.94 185.231 135.99 184.92 135.99 184.582C135.99 184.21 135.932 183.879 135.815 183.589C135.696 183.296 135.531 183.066 135.321 182.899C135.108 182.731 134.859 182.647 134.575 182.647C134.317 182.647 134.105 182.721 133.94 182.869C133.776 183.014 133.639 183.211 133.531 183.461C133.423 183.708 133.328 183.988 133.246 184.301L132.964 185.332C132.774 186.031 132.494 186.585 132.125 186.994C131.756 187.4 131.267 187.603 130.659 187.603C130.156 187.603 129.717 187.467 129.342 187.194C128.967 186.921 128.676 186.552 128.469 186.086C128.259 185.62 128.153 185.095 128.153 184.509C128.153 183.919 128.257 183.397 128.464 182.945C128.672 182.491 128.957 182.133 129.321 181.872C129.682 181.61 130.097 181.474 130.565 181.463V182.732ZM139.455 179.872H130.455V178.628H131.516V178.521C131.379 178.447 131.222 178.341 131.043 178.202C130.864 178.062 130.707 177.869 130.574 177.622C130.438 177.375 130.369 177.048 130.369 176.642C130.369 176.113 130.503 175.642 130.77 175.227C131.037 174.812 131.422 174.487 131.925 174.251C132.428 174.013 133.033 173.893 133.74 173.893C134.447 173.893 135.054 174.011 135.56 174.247C136.062 174.483 136.45 174.807 136.723 175.219C136.993 175.631 137.128 176.101 137.128 176.629C137.128 177.027 137.061 177.352 136.928 177.605C136.794 177.855 136.638 178.051 136.459 178.193C136.28 178.335 136.121 178.444 135.982 178.521V178.598H139.455V179.872ZM133.727 178.623C134.187 178.623 134.591 178.557 134.938 178.423C135.284 178.29 135.555 178.096 135.751 177.844C135.945 177.591 136.041 177.281 136.041 176.915C136.041 176.534 135.94 176.216 135.739 175.96C135.534 175.704 135.257 175.511 134.908 175.381C134.558 175.247 134.165 175.18 133.727 175.18C133.295 175.18 132.908 175.246 132.564 175.376C132.22 175.504 131.949 175.697 131.75 175.956C131.551 176.211 131.452 176.531 131.452 176.915C131.452 177.284 131.547 177.596 131.737 177.852C131.928 178.105 132.193 178.297 132.534 178.427C132.875 178.558 133.273 178.623 133.727 178.623ZM137 172.466H130.455V171.192H137V172.466ZM129.445 171.822C129.445 172.044 129.371 172.234 129.223 172.393C129.072 172.55 128.893 172.628 128.686 172.628C128.476 172.628 128.297 172.55 128.149 172.393C127.999 172.234 127.923 172.044 127.923 171.822C127.923 171.601 127.999 171.412 128.149 171.256C128.297 171.096 128.476 171.017 128.686 171.017C128.893 171.017 129.072 171.096 129.223 171.256C129.371 171.412 129.445 171.601 129.445 171.822ZM134.78 168.306L133.224 168.314V168.093L130.455 165.485V163.959L133.608 166.933V167.134L134.78 168.306ZM137 169.477H128.273V168.203H137V169.477ZM137 165.344L133.889 167.688L132.999 166.81L137 163.78V165.344ZM137.132 160.246C137.132 160.891 136.994 161.447 136.719 161.912C136.44 162.376 136.05 162.733 135.547 162.986C135.041 163.236 134.449 163.361 133.77 163.361C133.099 163.361 132.509 163.236 131.997 162.986C131.486 162.733 131.087 162.381 130.8 161.93C130.513 161.475 130.369 160.944 130.369 160.336C130.369 159.966 130.43 159.608 130.553 159.262C130.675 158.915 130.866 158.604 131.128 158.329C131.389 158.053 131.729 157.836 132.146 157.677C132.561 157.518 133.065 157.438 133.659 157.438H134.111V162.641H133.156V158.687C132.821 158.687 132.524 158.755 132.266 158.891C132.004 159.028 131.798 159.219 131.648 159.466C131.497 159.711 131.422 159.998 131.422 160.327C131.422 160.685 131.51 160.998 131.686 161.265C131.859 161.529 132.087 161.733 132.368 161.878C132.646 162.02 132.949 162.091 133.276 162.091H134.021C134.459 162.091 134.831 162.015 135.138 161.861C135.445 161.705 135.679 161.488 135.841 161.209C136 160.931 136.08 160.606 136.08 160.233C136.08 159.992 136.045 159.772 135.977 159.573C135.906 159.374 135.801 159.202 135.662 159.057C135.523 158.912 135.351 158.802 135.146 158.725L135.364 157.519C135.719 157.616 136.03 157.789 136.297 158.039C136.561 158.286 136.767 158.597 136.915 158.972C137.06 159.344 137.132 159.769 137.132 160.246ZM129.406 153.177H128.273V146.422H129.406V149.145H137V150.458H129.406V153.177ZM137.132 143.224C137.132 143.838 136.991 144.373 136.71 144.831C136.429 145.288 136.036 145.643 135.53 145.896C135.024 146.149 134.433 146.275 133.757 146.275C133.078 146.275 132.484 146.149 131.976 145.896C131.467 145.643 131.072 145.288 130.791 144.831C130.51 144.373 130.369 143.838 130.369 143.224C130.369 142.611 130.51 142.075 130.791 141.618C131.072 141.16 131.467 140.805 131.976 140.552C132.484 140.3 133.078 140.173 133.757 140.173C134.433 140.173 135.024 140.3 135.53 140.552C136.036 140.805 136.429 141.16 136.71 141.618C136.991 142.075 137.132 142.611 137.132 143.224ZM136.062 143.22C136.062 142.822 135.957 142.493 135.747 142.231C135.537 141.97 135.257 141.777 134.908 141.652C134.558 141.524 134.173 141.46 133.753 141.46C133.335 141.46 132.952 141.524 132.602 141.652C132.25 141.777 131.967 141.97 131.754 142.231C131.541 142.493 131.435 142.822 131.435 143.22C131.435 143.621 131.541 143.953 131.754 144.217C131.967 144.479 132.25 144.673 132.602 144.801C132.952 144.926 133.335 144.988 133.753 144.988C134.173 144.988 134.558 144.926 134.908 144.801C135.257 144.673 135.537 144.479 135.747 144.217C135.957 143.953 136.062 143.621 136.062 143.22ZM134.78 137.579L133.224 137.588V137.366L130.455 134.758V133.232L133.608 136.207V136.407L134.78 137.579ZM137 138.751H128.273V137.477H137V138.751ZM137 134.617L133.889 136.961L132.999 136.083L137 133.053V134.617ZM137.132 129.52C137.132 130.165 136.994 130.72 136.719 131.186C136.44 131.649 136.05 132.007 135.547 132.26C135.041 132.51 134.449 132.635 133.77 132.635C133.099 132.635 132.509 132.51 131.997 132.26C131.486 132.007 131.087 131.655 130.8 131.203C130.513 130.748 130.369 130.217 130.369 129.609C130.369 129.24 130.43 128.882 130.553 128.535C130.675 128.189 130.866 127.878 131.128 127.602C131.389 127.327 131.729 127.109 132.146 126.95C132.561 126.791 133.065 126.711 133.659 126.711H134.111V131.915H133.156V127.96C132.821 127.96 132.524 128.028 132.266 128.165C132.004 128.301 131.798 128.493 131.648 128.74C131.497 128.984 131.422 129.271 131.422 129.601C131.422 129.959 131.51 130.271 131.686 130.538C131.859 130.802 132.087 131.007 132.368 131.152C132.646 131.294 132.949 131.365 133.276 131.365H134.021C134.459 131.365 134.831 131.288 135.138 131.135C135.445 130.979 135.679 130.761 135.841 130.483C136 130.204 136.08 129.879 136.08 129.507C136.08 129.265 136.045 129.045 135.977 128.846C135.906 128.648 135.801 128.476 135.662 128.331C135.523 128.186 135.351 128.075 135.146 127.998L135.364 126.792C135.719 126.889 136.03 127.062 136.297 127.312C136.561 127.559 136.767 127.871 136.915 128.246C137.06 128.618 137.132 129.042 137.132 129.52ZM133.114 124.024H137V125.298H130.455V124.075H131.52V123.994C131.173 123.843 130.895 123.607 130.685 123.286C130.474 122.963 130.369 122.555 130.369 122.063C130.369 121.617 130.463 121.227 130.651 120.892C130.835 120.556 131.111 120.296 131.477 120.112C131.844 119.927 132.297 119.835 132.837 119.835H137V121.109H132.99C132.516 121.109 132.145 121.232 131.878 121.48C131.608 121.727 131.473 122.066 131.473 122.498C131.473 122.794 131.537 123.056 131.665 123.286C131.793 123.514 131.98 123.694 132.227 123.828C132.472 123.958 132.767 124.024 133.114 124.024ZM132.053 113.221L132.257 114.376C132.109 114.424 131.969 114.501 131.835 114.606C131.702 114.708 131.592 114.847 131.507 115.024C131.422 115.2 131.379 115.42 131.379 115.684C131.379 116.045 131.46 116.346 131.622 116.588C131.781 116.829 131.987 116.95 132.24 116.95C132.459 116.95 132.635 116.869 132.768 116.707C132.902 116.545 133.011 116.284 133.097 115.923L133.335 114.883C133.474 114.281 133.689 113.832 133.979 113.536C134.268 113.241 134.645 113.093 135.108 113.093C135.5 113.093 135.849 113.207 136.156 113.434C136.46 113.659 136.699 113.972 136.872 114.376C137.045 114.776 137.132 115.241 137.132 115.769C137.132 116.502 136.976 117.1 136.663 117.563C136.348 118.026 135.901 118.311 135.321 118.416L135.134 117.184C135.455 117.107 135.697 116.95 135.862 116.711C136.024 116.472 136.105 116.161 136.105 115.778C136.105 115.36 136.018 115.026 135.845 114.776C135.669 114.526 135.455 114.401 135.202 114.401C134.997 114.401 134.825 114.478 134.686 114.632C134.547 114.782 134.442 115.014 134.371 115.326L134.128 116.434C133.989 117.045 133.767 117.497 133.463 117.789C133.159 118.079 132.774 118.224 132.308 118.224C131.922 118.224 131.584 118.116 131.294 117.9C131.004 117.684 130.778 117.386 130.616 117.005C130.452 116.624 130.369 116.188 130.369 115.697C130.369 114.99 130.523 114.433 130.83 114.026C131.134 113.62 131.541 113.352 132.053 113.221Z" fill="black"/>
<path d="M283 170.422H274.273V167.226C274.273 166.607 274.375 166.094 274.58 165.688C274.781 165.281 275.055 164.977 275.402 164.776C275.746 164.574 276.134 164.473 276.565 164.473C276.929 164.473 277.236 164.54 277.486 164.673C277.733 164.807 277.932 164.986 278.082 165.21C278.23 165.432 278.338 165.676 278.406 165.943H278.491C278.506 165.654 278.599 165.371 278.773 165.095C278.943 164.817 279.186 164.587 279.501 164.405C279.817 164.223 280.2 164.132 280.652 164.132C281.098 164.132 281.499 164.237 281.854 164.448C282.206 164.655 282.486 164.976 282.693 165.411C282.898 165.845 283 166.401 283 167.077V170.422ZM281.871 169.105V167.205C281.871 166.574 281.749 166.122 281.504 165.85C281.26 165.577 280.955 165.441 280.588 165.441C280.312 165.441 280.06 165.51 279.83 165.649C279.599 165.789 279.416 165.987 279.28 166.246C279.143 166.502 279.075 166.806 279.075 167.158V169.105H281.871ZM278.048 169.105V167.341C278.048 167.046 277.991 166.78 277.878 166.544C277.764 166.306 277.605 166.117 277.401 165.977C277.193 165.835 276.949 165.764 276.668 165.764C276.307 165.764 276.004 165.891 275.76 166.144C275.516 166.396 275.393 166.784 275.393 167.307V169.105H278.048ZM283.132 159.852C283.132 160.497 282.994 161.052 282.719 161.518C282.44 161.981 282.05 162.339 281.547 162.592C281.041 162.842 280.449 162.967 279.77 162.967C279.099 162.967 278.509 162.842 277.997 162.592C277.486 162.339 277.087 161.987 276.8 161.535C276.513 161.08 276.369 160.549 276.369 159.941C276.369 159.572 276.43 159.214 276.553 158.867C276.675 158.521 276.866 158.21 277.128 157.934C277.389 157.659 277.729 157.441 278.146 157.282C278.561 157.123 279.065 157.044 279.659 157.044H280.111V162.247H279.156V158.292C278.821 158.292 278.524 158.36 278.266 158.497C278.004 158.633 277.798 158.825 277.648 159.072C277.497 159.316 277.422 159.603 277.422 159.933C277.422 160.291 277.51 160.603 277.686 160.87C277.859 161.134 278.087 161.339 278.368 161.484C278.646 161.626 278.949 161.697 279.276 161.697H280.021C280.459 161.697 280.831 161.62 281.138 161.467C281.445 161.311 281.679 161.093 281.841 160.815C282 160.536 282.08 160.211 282.08 159.839C282.08 159.597 282.045 159.377 281.977 159.178C281.906 158.98 281.801 158.808 281.662 158.663C281.523 158.518 281.351 158.407 281.146 158.33L281.364 157.124C281.719 157.221 282.03 157.394 282.297 157.644C282.561 157.892 282.767 158.203 282.915 158.578C283.06 158.95 283.132 159.374 283.132 159.852ZM279.114 154.356H283V155.63H274.273V154.373H277.52V154.292C277.168 154.138 276.888 153.904 276.68 153.589C276.473 153.273 276.369 152.861 276.369 152.353C276.369 151.904 276.462 151.512 276.646 151.177C276.831 150.839 277.107 150.577 277.473 150.393C277.837 150.205 278.291 150.111 278.837 150.111H283V151.385H278.99C278.51 151.385 278.138 151.509 277.874 151.756C277.607 152.003 277.473 152.347 277.473 152.787C277.473 153.089 277.537 153.358 277.665 153.597C277.793 153.833 277.98 154.019 278.227 154.155C278.472 154.289 278.767 154.356 279.114 154.356ZM283.145 146.506C283.145 146.921 283.068 147.296 282.915 147.631C282.759 147.966 282.533 148.232 282.237 148.428C281.942 148.621 281.58 148.718 281.151 148.718C280.781 148.718 280.477 148.647 280.239 148.505C280 148.363 279.811 148.171 279.672 147.93C279.533 147.688 279.428 147.418 279.357 147.12C279.286 146.822 279.232 146.518 279.195 146.208C279.149 145.816 279.112 145.498 279.084 145.253C279.053 145.009 279.003 144.831 278.935 144.721C278.866 144.61 278.756 144.555 278.602 144.555H278.572C278.2 144.555 277.912 144.66 277.707 144.87C277.503 145.077 277.401 145.387 277.401 145.799C277.401 146.228 277.496 146.566 277.686 146.813C277.874 147.057 278.082 147.226 278.312 147.32L278.04 148.518C277.642 148.376 277.321 148.168 277.077 147.895C276.83 147.62 276.651 147.303 276.54 146.945C276.426 146.587 276.369 146.211 276.369 145.816C276.369 145.555 276.401 145.278 276.463 144.985C276.523 144.689 276.634 144.414 276.795 144.158C276.957 143.9 277.189 143.688 277.49 143.523C277.788 143.358 278.176 143.276 278.653 143.276H283V144.52H282.105V144.572C282.27 144.654 282.432 144.778 282.591 144.942C282.75 145.107 282.882 145.319 282.987 145.577C283.092 145.836 283.145 146.145 283.145 146.506ZM282.122 146.229C282.122 145.877 282.053 145.576 281.913 145.326C281.774 145.073 281.592 144.881 281.368 144.751C281.141 144.617 280.898 144.55 280.639 144.55H279.795C279.841 144.596 279.884 144.684 279.923 144.814C279.96 144.942 279.993 145.089 280.021 145.253C280.047 145.418 280.071 145.579 280.094 145.735C280.114 145.891 280.131 146.022 280.145 146.127C280.176 146.374 280.229 146.6 280.303 146.805C280.376 147.006 280.483 147.168 280.622 147.29C280.759 147.41 280.94 147.469 281.168 147.469C281.483 147.469 281.722 147.353 281.884 147.12C282.043 146.887 282.122 146.59 282.122 146.229ZM276.455 136.214L283 138.588V139.951L276.455 142.329V140.961L281.491 139.303V139.235L276.455 137.582V136.214ZM283 135.017H276.455V133.742H283V135.017ZM275.445 134.373C275.445 134.595 275.371 134.785 275.223 134.944C275.072 135.1 274.893 135.178 274.686 135.178C274.476 135.178 274.297 135.1 274.149 134.944C273.999 134.785 273.923 134.595 273.923 134.373C273.923 134.151 273.999 133.963 274.149 133.806C274.297 133.647 274.476 133.568 274.686 133.568C274.893 133.568 275.072 133.647 275.223 133.806C275.371 133.963 275.445 134.151 275.445 134.373ZM283.132 129.271C283.132 129.885 282.991 130.42 282.71 130.878C282.429 131.335 282.036 131.69 281.53 131.943C281.024 132.196 280.433 132.322 279.757 132.322C279.078 132.322 278.484 132.196 277.976 131.943C277.467 131.69 277.072 131.335 276.791 130.878C276.51 130.42 276.369 129.885 276.369 129.271C276.369 128.657 276.51 128.122 276.791 127.665C277.072 127.207 277.467 126.852 277.976 126.599C278.484 126.346 279.078 126.22 279.757 126.22C280.433 126.22 281.024 126.346 281.53 126.599C282.036 126.852 282.429 127.207 282.71 127.665C282.991 128.122 283.132 128.657 283.132 129.271ZM282.062 129.267C282.062 128.869 281.957 128.54 281.747 128.278C281.537 128.017 281.257 127.824 280.908 127.699C280.558 127.571 280.173 127.507 279.753 127.507C279.335 127.507 278.952 127.571 278.602 127.699C278.25 127.824 277.967 128.017 277.754 128.278C277.541 128.54 277.435 128.869 277.435 129.267C277.435 129.667 277.541 130 277.754 130.264C277.967 130.525 278.25 130.72 278.602 130.848C278.952 130.973 279.335 131.035 279.753 131.035C280.173 131.035 280.558 130.973 280.908 130.848C281.257 130.72 281.537 130.525 281.747 130.264C281.957 130 282.062 129.667 282.062 129.267ZM283 124.798H276.455V123.566H277.494V123.498C277.142 123.379 276.865 123.169 276.663 122.867C276.459 122.563 276.357 122.22 276.357 121.836C276.357 121.757 276.359 121.663 276.365 121.555C276.371 121.444 276.378 121.357 276.386 121.295H277.605C277.591 121.346 277.575 121.437 277.558 121.568C277.538 121.698 277.528 121.829 277.528 121.96C277.528 122.261 277.592 122.529 277.72 122.765C277.845 122.998 278.02 123.183 278.244 123.319C278.466 123.455 278.719 123.524 279.003 123.524H283V124.798ZM283 116.914H274.273V113.803C274.273 113.124 274.396 112.562 274.643 112.116C274.891 111.67 275.229 111.336 275.658 111.115C276.084 110.893 276.564 110.782 277.098 110.782C277.635 110.782 278.118 110.894 278.547 111.119C278.973 111.34 279.311 111.676 279.561 112.124C279.808 112.57 279.932 113.132 279.932 113.808V115.947H278.815V113.927C278.815 113.498 278.741 113.15 278.594 112.883C278.443 112.616 278.239 112.42 277.98 112.295C277.722 112.17 277.428 112.107 277.098 112.107C276.768 112.107 276.476 112.17 276.22 112.295C275.964 112.42 275.764 112.617 275.619 112.887C275.474 113.154 275.402 113.507 275.402 113.944V115.597H283V116.914ZM283 109.341H276.455V108.109H277.494V108.041C277.142 107.922 276.865 107.711 276.663 107.41C276.459 107.106 276.357 106.763 276.357 106.379C276.357 106.3 276.359 106.206 276.365 106.098C276.371 105.987 276.378 105.9 276.386 105.838H277.605C277.591 105.889 277.575 105.98 277.558 106.111C277.538 106.241 277.528 106.372 277.528 106.503C277.528 106.804 277.592 107.072 277.72 107.308C277.845 107.541 278.02 107.726 278.244 107.862C278.466 107.998 278.719 108.067 279.003 108.067H283V109.341ZM283.132 102.149C283.132 102.794 282.994 103.349 282.719 103.815C282.44 104.278 282.05 104.636 281.547 104.889C281.041 105.139 280.449 105.264 279.77 105.264C279.099 105.264 278.509 105.139 277.997 104.889C277.486 104.636 277.087 104.284 276.8 103.832C276.513 103.377 276.369 102.846 276.369 102.238C276.369 101.869 276.43 101.511 276.553 101.164C276.675 100.818 276.866 100.507 277.128 100.231C277.389 99.9554 277.729 99.7381 278.146 99.579C278.561 99.4199 279.065 99.3404 279.659 99.3404H280.111V104.544H279.156V100.589C278.821 100.589 278.524 100.657 278.266 100.794C278.004 100.93 277.798 101.122 277.648 101.369C277.497 101.613 277.422 101.9 277.422 102.23C277.422 102.588 277.51 102.9 277.686 103.167C277.859 103.431 278.087 103.636 278.368 103.781C278.646 103.923 278.949 103.994 279.276 103.994H280.021C280.459 103.994 280.831 103.917 281.138 103.764C281.445 103.607 281.679 103.39 281.841 103.112C282 102.833 282.08 102.508 282.08 102.136C282.08 101.894 282.045 101.674 281.977 101.475C281.906 101.276 281.801 101.105 281.662 100.96C281.523 100.815 281.351 100.704 281.146 100.627L281.364 99.4213C281.719 99.5179 282.03 99.6912 282.297 99.9412C282.561 100.188 282.767 100.499 282.915 100.874C283.06 101.247 283.132 101.671 283.132 102.149ZM283.128 95.4764C283.128 96.0048 282.993 96.4764 282.723 96.8912C282.45 97.3031 282.062 97.627 281.56 97.8627C281.054 98.0957 280.447 98.2122 279.74 98.2122C279.033 98.2122 278.428 98.0943 277.925 97.8585C277.422 97.6199 277.037 97.2931 276.77 96.8784C276.503 96.4636 276.369 95.9934 276.369 95.4679C276.369 95.0616 276.438 94.7349 276.574 94.4877C276.707 94.2377 276.864 94.0446 277.043 93.9082C277.222 93.769 277.379 93.661 277.516 93.5843V93.5076H274.273V92.2335H283V93.4778H281.982V93.5843C282.121 93.661 282.28 93.7718 282.459 93.9167C282.638 94.0588 282.794 94.2548 282.928 94.5048C283.061 94.7548 283.128 95.0787 283.128 95.4764ZM282.041 95.1951C282.041 94.8287 281.945 94.519 281.751 94.2662C281.555 94.0105 281.284 93.8173 280.938 93.6866C280.591 93.5531 280.187 93.4863 279.727 93.4863C279.273 93.4863 278.875 93.5517 278.534 93.6824C278.193 93.813 277.928 94.0048 277.737 94.2576C277.547 94.5105 277.452 94.823 277.452 95.1951C277.452 95.5787 277.551 95.8983 277.75 96.1539C277.949 96.4096 278.22 96.6028 278.564 96.7335C278.908 96.8613 279.295 96.9252 279.727 96.9252C280.165 96.9252 280.558 96.8599 280.908 96.7292C281.257 96.5985 281.534 96.4054 281.739 96.1497C281.94 95.8912 282.041 95.573 282.041 95.1951ZM283 90.415H276.455V89.1408H283V90.415ZM275.445 89.7715C275.445 89.9931 275.371 90.1834 275.223 90.3425C275.072 90.4988 274.893 90.5769 274.686 90.5769C274.476 90.5769 274.297 90.4988 274.149 90.3425C273.999 90.1834 273.923 89.9931 273.923 89.7715C273.923 89.5499 273.999 89.361 274.149 89.2047C274.297 89.0456 274.476 88.9661 274.686 88.9661C274.893 88.9661 275.072 89.0456 275.223 89.2047C275.371 89.361 275.445 89.5499 275.445 89.7715ZM283.132 84.6696C283.132 85.3031 282.989 85.8485 282.702 86.3059C282.412 86.7605 282.013 87.1099 281.504 87.3542C280.996 87.5985 280.413 87.7207 279.757 87.7207C279.092 87.7207 278.506 87.5957 277.997 87.3457C277.486 87.0957 277.087 86.7434 276.8 86.2889C276.513 85.8343 276.369 85.2988 276.369 84.6824C276.369 84.1852 276.462 83.742 276.646 83.3528C276.828 82.9636 277.084 82.6497 277.413 82.411C277.743 82.1696 278.128 82.0261 278.568 81.9806V83.2207C278.261 83.2889 277.997 83.4451 277.776 83.6895C277.554 83.9309 277.443 84.2548 277.443 84.661C277.443 85.0162 277.537 85.3272 277.724 85.5943C277.909 85.8585 278.173 86.0645 278.517 86.2122C278.858 86.3599 279.261 86.4338 279.727 86.4338C280.205 86.4338 280.616 86.3613 280.963 86.2164C281.31 86.0716 281.578 85.867 281.768 85.6028C281.959 85.3358 282.054 85.0218 282.054 84.661C282.054 84.4196 282.01 84.2008 281.922 84.0048C281.831 83.8059 281.702 83.6397 281.534 83.5062C281.366 83.3699 281.165 83.2747 280.929 83.2207V81.9806C281.352 82.0261 281.73 82.1639 282.062 82.394C282.395 82.6241 282.656 82.9324 282.847 83.3187C283.037 83.7022 283.132 84.1525 283.132 84.6696ZM276.455 77.5627H277.477V81.138H276.455V77.5627ZM274.886 80.1792V78.905H281.078C281.325 78.905 281.511 78.8681 281.636 78.7942C281.759 78.7203 281.842 78.6252 281.888 78.5087C281.93 78.3894 281.952 78.2601 281.952 78.1209C281.952 78.0186 281.945 77.9292 281.93 77.8525C281.916 77.7757 281.905 77.7161 281.896 77.6735L282.949 77.4434C282.977 77.5172 283.006 77.6223 283.034 77.7587C283.065 77.8951 283.082 78.0655 283.085 78.2701C283.091 78.6053 283.031 78.9178 282.906 79.2076C282.781 79.4973 282.588 79.7317 282.327 79.9107C282.065 80.0897 281.737 80.1792 281.342 80.1792H274.886ZM283 76.1532H276.455V74.8791H283V76.1532ZM275.445 75.5098C275.445 75.7314 275.371 75.9217 275.223 76.0808C275.072 76.237 274.893 76.3152 274.686 76.3152C274.476 76.3152 274.297 76.237 274.149 76.0808C273.999 75.9217 273.923 75.7314 273.923 75.5098C273.923 75.2882 273.999 75.0993 274.149 74.943C274.297 74.7839 274.476 74.7044 274.686 74.7044C274.893 74.7044 275.072 74.7839 275.223 74.943C275.371 75.0993 275.445 75.2882 275.445 75.5098ZM283.132 70.4078C283.132 71.0215 282.991 71.557 282.71 72.0144C282.429 72.4718 282.036 72.8269 281.53 73.0797C281.024 73.3326 280.433 73.459 279.757 73.459C279.078 73.459 278.484 73.3326 277.976 73.0797C277.467 72.8269 277.072 72.4718 276.791 72.0144C276.51 71.557 276.369 71.0215 276.369 70.4078C276.369 69.7942 276.51 69.2587 276.791 68.8013C277.072 68.3439 277.467 67.9888 277.976 67.736C278.484 67.4831 279.078 67.3567 279.757 67.3567C280.433 67.3567 281.024 67.4831 281.53 67.736C282.036 67.9888 282.429 68.3439 282.71 68.8013C282.991 69.2587 283.132 69.7942 283.132 70.4078ZM282.062 70.4036C282.062 70.0059 281.957 69.6763 281.747 69.415C281.537 69.1536 281.257 68.9604 280.908 68.8354C280.558 68.7076 280.173 68.6436 279.753 68.6436C279.335 68.6436 278.952 68.7076 278.602 68.8354C278.25 68.9604 277.967 69.1536 277.754 69.415C277.541 69.6763 277.435 70.0059 277.435 70.4036C277.435 70.8042 277.541 71.1365 277.754 71.4007C277.967 71.6621 278.25 71.8567 278.602 71.9846C278.952 72.1096 279.335 72.1721 279.753 72.1721C280.173 72.1721 280.558 72.1096 280.908 71.9846C281.257 71.8567 281.537 71.6621 281.747 71.4007C281.957 71.1365 282.062 70.8042 282.062 70.4036ZM279.114 64.6603H283V65.9345H276.455V64.7115H277.52V64.6305C277.173 64.4799 276.895 64.2441 276.685 63.9231C276.474 63.5993 276.369 63.1916 276.369 62.7001C276.369 62.2541 276.463 61.8635 276.651 61.5282C276.835 61.193 277.111 60.9331 277.477 60.7484C277.844 60.5637 278.297 60.4714 278.837 60.4714H283V61.7456H278.99C278.516 61.7456 278.145 61.8691 277.878 62.1163C277.608 62.3635 277.473 62.7029 277.473 63.1348C277.473 63.4302 277.537 63.693 277.665 63.9231C277.793 64.1504 277.98 64.3308 278.227 64.4643C278.472 64.595 278.767 64.6603 279.114 64.6603Z" fill="black"/>
<path d="M186.75 109.818H189.404L192.208 116.659H192.328L195.132 109.818H197.787V120H195.699V113.373H195.614L192.979 119.95H191.557L188.922 113.348H188.838V120H186.75V109.818ZM202.971 120.149C202.198 120.149 201.531 119.985 200.967 119.657C200.407 119.326 199.974 118.865 199.67 118.275C199.365 117.682 199.212 116.994 199.212 116.212C199.212 115.423 199.365 114.733 199.67 114.143C199.974 113.55 200.407 113.089 200.967 112.761C201.531 112.43 202.198 112.264 202.971 112.264C203.743 112.264 204.409 112.43 204.969 112.761C205.533 113.089 205.967 113.55 206.272 114.143C206.577 114.733 206.729 115.423 206.729 116.212C206.729 116.994 206.577 117.682 206.272 118.275C205.967 118.865 205.533 119.326 204.969 119.657C204.409 119.985 203.743 120.149 202.971 120.149ZM202.981 118.509C203.332 118.509 203.625 118.409 203.861 118.21C204.096 118.008 204.273 117.733 204.393 117.385C204.515 117.037 204.577 116.641 204.577 116.197C204.577 115.753 204.515 115.357 204.393 115.009C204.273 114.661 204.096 114.385 203.861 114.183C203.625 113.981 203.332 113.88 202.981 113.88C202.626 113.88 202.328 113.981 202.086 114.183C201.847 114.385 201.666 114.661 201.544 115.009C201.425 115.357 201.365 115.753 201.365 116.197C201.365 116.641 201.425 117.037 201.544 117.385C201.666 117.733 201.847 118.008 202.086 118.21C202.328 118.409 202.626 118.509 202.981 118.509ZM210.92 120.124C210.34 120.124 209.815 119.975 209.344 119.677C208.877 119.375 208.506 118.933 208.231 118.349C207.959 117.763 207.823 117.044 207.823 116.192C207.823 115.317 207.964 114.589 208.246 114.009C208.527 113.426 208.902 112.99 209.369 112.702C209.84 112.41 210.355 112.264 210.915 112.264C211.343 112.264 211.699 112.337 211.984 112.483C212.273 112.625 212.505 112.804 212.68 113.02C212.859 113.232 212.995 113.441 213.088 113.646H213.153V109.818H215.265V120H213.177V118.777H213.088C212.988 118.989 212.848 119.2 212.665 119.408C212.486 119.614 212.253 119.785 211.964 119.92C211.679 120.056 211.331 120.124 210.92 120.124ZM211.591 118.439C211.933 118.439 212.221 118.346 212.457 118.161C212.695 117.972 212.877 117.708 213.003 117.37C213.133 117.032 213.197 116.636 213.197 116.182C213.197 115.728 213.134 115.333 213.008 114.999C212.882 114.664 212.7 114.405 212.461 114.223C212.223 114.041 211.933 113.95 211.591 113.95C211.243 113.95 210.95 114.044 210.711 114.233C210.473 114.422 210.292 114.684 210.17 115.018C210.047 115.353 209.986 115.741 209.986 116.182C209.986 116.626 210.047 117.019 210.17 117.36C210.296 117.698 210.476 117.963 210.711 118.156C210.95 118.344 211.243 118.439 211.591 118.439ZM220.487 120.149C219.701 120.149 219.025 119.99 218.458 119.672C217.895 119.35 217.461 118.896 217.156 118.31C216.851 117.72 216.699 117.022 216.699 116.217C216.699 115.431 216.851 114.742 217.156 114.148C217.461 113.555 217.89 113.093 218.444 112.761C219 112.43 219.653 112.264 220.402 112.264C220.906 112.264 221.375 112.345 221.809 112.508C222.247 112.667 222.628 112.907 222.953 113.229C223.281 113.55 223.536 113.955 223.718 114.442C223.901 114.926 223.992 115.492 223.992 116.142V116.724H217.544V115.411H221.998C221.998 115.106 221.932 114.836 221.799 114.601C221.667 114.366 221.483 114.182 221.248 114.049C221.016 113.913 220.745 113.845 220.437 113.845C220.116 113.845 219.831 113.92 219.582 114.069C219.337 114.215 219.145 114.412 219.005 114.661C218.866 114.906 218.795 115.179 218.792 115.481V116.729C218.792 117.107 218.861 117.433 219 117.708C219.143 117.983 219.343 118.195 219.602 118.344C219.86 118.494 220.167 118.568 220.522 118.568C220.757 118.568 220.972 118.535 221.168 118.469C221.364 118.402 221.531 118.303 221.67 118.17C221.809 118.038 221.915 117.875 221.988 117.683L223.947 117.812C223.848 118.283 223.644 118.694 223.336 119.045C223.031 119.393 222.636 119.665 222.152 119.861C221.672 120.053 221.117 120.149 220.487 120.149ZM227.492 109.818V120H225.374V109.818H227.492Z" fill="black"/>
<rect x="135.5" y="252.5" width="26" height="135" rx="2.5" transform="rotate(90 135.5 252.5)" fill="#F2F7BA" stroke="black"/>
<path d="M17.1289 263.422C17.0835 263.019 16.896 262.707 16.5664 262.485C16.2369 262.261 15.8221 262.148 15.3221 262.148C14.9641 262.148 14.6545 262.205 14.3931 262.319C14.1317 262.43 13.9286 262.583 13.7837 262.779C13.6417 262.972 13.5707 263.192 13.5707 263.44C13.5707 263.647 13.619 263.826 13.7156 263.976C13.815 264.127 13.9442 264.253 14.1033 264.356C14.2653 264.455 14.4386 264.539 14.6232 264.607C14.8079 264.672 14.9854 264.726 15.1559 264.769L16.0082 264.991C16.2866 265.059 16.5721 265.151 16.8647 265.268C17.1573 265.384 17.4286 265.538 17.6786 265.728C17.9286 265.918 18.1303 266.154 18.2837 266.435C18.44 266.716 18.5181 267.053 18.5181 267.445C18.5181 267.94 18.3903 268.378 18.1346 268.762C17.8817 269.145 17.5138 269.448 17.0309 269.67C16.5508 269.891 15.9698 270.002 15.288 270.002C14.6346 270.002 14.0692 269.898 13.592 269.691C13.1147 269.484 12.7411 269.19 12.4712 268.809C12.2013 268.425 12.0522 267.971 12.0238 267.445H13.3448C13.3704 267.761 13.4727 268.023 13.6516 268.234C13.8335 268.441 14.065 268.596 14.3462 268.698C14.6303 268.797 14.9414 268.847 15.2795 268.847C15.6516 268.847 15.9826 268.789 16.2724 268.672C16.565 268.553 16.7951 268.388 16.9627 268.178C17.1303 267.965 17.2141 267.716 17.2141 267.432C17.2141 267.174 17.1403 266.962 16.9925 266.797C16.8477 266.633 16.6502 266.496 16.4002 266.388C16.1531 266.28 15.8732 266.185 15.5607 266.103L14.5295 265.822C13.8306 265.631 13.2766 265.351 12.8675 264.982C12.4613 264.613 12.2582 264.124 12.2582 263.516C12.2582 263.013 12.3945 262.574 12.6673 262.199C12.94 261.824 13.3093 261.533 13.7752 261.326C14.2411 261.116 14.7667 261.011 15.3519 261.011C15.9428 261.011 16.4641 261.114 16.9158 261.322C17.3704 261.529 17.7283 261.815 17.9897 262.178C18.2511 262.539 18.3874 262.954 18.3988 263.422H17.1289ZM22.8104 269.989C22.1655 269.989 21.6101 269.851 21.1442 269.576C20.6811 269.297 20.3232 268.907 20.0703 268.404C19.8203 267.898 19.6953 267.306 19.6953 266.627C19.6953 265.957 19.8203 265.366 20.0703 264.854C20.3232 264.343 20.6754 263.944 21.1271 263.657C21.5817 263.37 22.1129 263.226 22.7209 263.226C23.0902 263.226 23.4482 263.288 23.7947 263.41C24.1413 263.532 24.4524 263.724 24.728 263.985C25.0036 264.246 25.2209 264.586 25.38 265.003C25.5391 265.418 25.6186 265.922 25.6186 266.516V266.968H20.4155V266.013H24.37C24.37 265.678 24.3018 265.381 24.1655 265.123C24.0291 264.861 23.8374 264.655 23.5902 264.505C23.3459 264.354 23.0589 264.279 22.7294 264.279C22.3714 264.279 22.0589 264.367 21.7919 264.543C21.5277 264.716 21.3232 264.944 21.1783 265.225C21.0362 265.503 20.9652 265.806 20.9652 266.133V266.878C20.9652 267.316 21.0419 267.688 21.1953 267.995C21.3516 268.302 21.5689 268.536 21.8473 268.698C22.1257 268.857 22.451 268.937 22.8232 268.937C23.0646 268.937 23.2848 268.903 23.4837 268.834C23.6825 268.763 23.8544 268.658 23.9993 268.519C24.1442 268.38 24.255 268.208 24.3317 268.003L25.5376 268.221C25.4411 268.576 25.2678 268.887 25.0178 269.154C24.7706 269.418 24.4595 269.624 24.0845 269.772C23.7124 269.917 23.2876 269.989 22.8104 269.989ZM31.9371 264.91L30.7823 265.114C30.734 264.966 30.6573 264.826 30.5522 264.692C30.4499 264.559 30.3107 264.449 30.1346 264.364C29.9585 264.279 29.7383 264.236 29.4741 264.236C29.1133 264.236 28.8121 264.317 28.5707 264.479C28.3292 264.638 28.2085 264.844 28.2085 265.097C28.2085 265.316 28.2894 265.492 28.4513 265.626C28.6133 265.759 28.8746 265.868 29.2354 265.954L30.2752 266.192C30.8775 266.332 31.3263 266.546 31.6218 266.836C31.9173 267.126 32.065 267.502 32.065 267.965C32.065 268.357 31.9513 268.707 31.7241 269.013C31.4996 269.317 31.1857 269.556 30.7823 269.729C30.3817 269.903 29.9173 269.989 29.3888 269.989C28.6559 269.989 28.0579 269.833 27.5948 269.52C27.1317 269.205 26.8477 268.758 26.7425 268.178L27.9741 267.991C28.0508 268.312 28.2085 268.555 28.4471 268.719C28.6857 268.881 28.9968 268.962 29.3803 268.962C29.7979 268.962 30.1317 268.876 30.3817 268.702C30.6317 268.526 30.7567 268.312 30.7567 268.059C30.7567 267.854 30.68 267.682 30.5266 267.543C30.3761 267.404 30.1445 267.299 29.832 267.228L28.7241 266.985C28.1133 266.846 27.6616 266.624 27.369 266.32C27.0792 266.016 26.9343 265.631 26.9343 265.165C26.9343 264.779 27.0423 264.441 27.2582 264.151C27.4741 263.861 27.7724 263.636 28.1531 263.474C28.5337 263.309 28.9698 263.226 29.4613 263.226C30.1687 263.226 30.7255 263.38 31.1317 263.687C31.538 263.991 31.8065 264.398 31.9371 264.91ZM38.3707 264.91L37.2159 265.114C37.1676 264.966 37.0909 264.826 36.9858 264.692C36.8835 264.559 36.7443 264.449 36.5682 264.364C36.392 264.279 36.1719 264.236 35.9077 264.236C35.5469 264.236 35.2457 264.317 35.0043 264.479C34.7628 264.638 34.642 264.844 34.642 265.097C34.642 265.316 34.723 265.492 34.8849 265.626C35.0469 265.759 35.3082 265.868 35.669 265.954L36.7088 266.192C37.3111 266.332 37.7599 266.546 38.0554 266.836C38.3509 267.126 38.4986 267.502 38.4986 267.965C38.4986 268.357 38.3849 268.707 38.1577 269.013C37.9332 269.317 37.6193 269.556 37.2159 269.729C36.8153 269.903 36.3509 269.989 35.8224 269.989C35.0895 269.989 34.4915 269.833 34.0284 269.52C33.5653 269.205 33.2813 268.758 33.1761 268.178L34.4077 267.991C34.4844 268.312 34.642 268.555 34.8807 268.719C35.1193 268.881 35.4304 268.962 35.8139 268.962C36.2315 268.962 36.5653 268.876 36.8153 268.702C37.0653 268.526 37.1903 268.312 37.1903 268.059C37.1903 267.854 37.1136 267.682 36.9602 267.543C36.8097 267.404 36.5781 267.299 36.2656 267.228L35.1577 266.985C34.5469 266.846 34.0952 266.624 33.8026 266.32C33.5128 266.016 33.3679 265.631 33.3679 265.165C33.3679 264.779 33.4759 264.441 33.6918 264.151C33.9077 263.861 34.206 263.636 34.5866 263.474C34.9673 263.309 35.4034 263.226 35.8949 263.226C36.6023 263.226 37.1591 263.38 37.5653 263.687C37.9716 263.991 38.2401 264.398 38.3707 264.91ZM39.8995 269.857V263.312H41.1737V269.857H39.8995ZM40.543 262.302C40.3214 262.302 40.131 262.228 39.9719 262.08C39.8157 261.93 39.7376 261.751 39.7376 261.543C39.7376 261.333 39.8157 261.154 39.9719 261.006C40.131 260.856 40.3214 260.78 40.543 260.78C40.7646 260.78 40.9535 260.856 41.1097 261.006C41.2688 261.154 41.3484 261.333 41.3484 261.543C41.3484 261.751 41.2688 261.93 41.1097 262.08C40.9535 262.228 40.7646 262.302 40.543 262.302ZM45.6449 269.989C45.0313 269.989 44.4957 269.849 44.0384 269.567C43.581 269.286 43.2259 268.893 42.973 268.387C42.7202 267.881 42.5938 267.29 42.5938 266.614C42.5938 265.935 42.7202 265.341 42.973 264.833C43.2259 264.324 43.581 263.93 44.0384 263.648C44.4957 263.367 45.0313 263.226 45.6449 263.226C46.2585 263.226 46.794 263.367 47.2514 263.648C47.7088 263.93 48.0639 264.324 48.3168 264.833C48.5696 265.341 48.696 265.935 48.696 266.614C48.696 267.29 48.5696 267.881 48.3168 268.387C48.0639 268.893 47.7088 269.286 47.2514 269.567C46.794 269.849 46.2585 269.989 45.6449 269.989ZM45.6491 268.92C46.0469 268.92 46.3764 268.815 46.6378 268.604C46.8991 268.394 47.0923 268.114 47.2173 267.765C47.3452 267.415 47.4091 267.03 47.4091 266.61C47.4091 266.192 47.3452 265.809 47.2173 265.459C47.0923 265.107 46.8991 264.824 46.6378 264.611C46.3764 264.398 46.0469 264.292 45.6491 264.292C45.2486 264.292 44.9162 264.398 44.652 264.611C44.3906 264.824 44.196 265.107 44.0682 265.459C43.9432 265.809 43.8807 266.192 43.8807 266.61C43.8807 267.03 43.9432 267.415 44.0682 267.765C44.196 268.114 44.3906 268.394 44.652 268.604C44.9162 268.815 45.2486 268.92 45.6491 268.92ZM51.3924 265.971V269.857H50.1183V263.312H51.3413V264.377H51.4222C51.5728 264.03 51.8086 263.752 52.1296 263.542C52.4535 263.332 52.8612 263.226 53.3526 263.226C53.7987 263.226 54.1893 263.32 54.5245 263.508C54.8597 263.692 55.1197 263.968 55.3043 264.334C55.489 264.701 55.5813 265.154 55.5813 265.694V269.857H54.3072V265.847C54.3072 265.373 54.1836 265.002 53.9364 264.735C53.6893 264.465 53.3498 264.33 52.918 264.33C52.6225 264.33 52.3597 264.394 52.1296 264.522C51.9023 264.65 51.7219 264.837 51.5884 265.084C51.4577 265.329 51.3924 265.624 51.3924 265.971ZM60.5682 269.857V261.13H66.0398V262.263H61.8849V264.922H65.7543V266.052H61.8849V268.724H66.0909V269.857H60.5682ZM67.6964 269.857V263.312H68.9194V264.377H69.0004C69.1367 264.016 69.3597 263.735 69.6694 263.533C69.979 263.329 70.3498 263.226 70.7816 263.226C71.2191 263.226 71.5856 263.329 71.881 263.533C72.1793 263.738 72.3995 264.019 72.5415 264.377H72.6097C72.766 264.028 73.0146 263.749 73.3555 263.542C73.6964 263.332 74.1026 263.226 74.5742 263.226C75.168 263.226 75.6523 263.413 76.0273 263.785C76.4052 264.157 76.5941 264.718 76.5941 265.468V269.857H75.32V265.587C75.32 265.144 75.1992 264.823 74.9577 264.624C74.7163 264.425 74.4279 264.326 74.0927 264.326C73.6779 264.326 73.3555 264.454 73.1254 264.709C72.8952 264.962 72.7802 265.288 72.7802 265.685V269.857H71.5103V265.506C71.5103 265.151 71.3995 264.866 71.1779 264.65C70.9563 264.434 70.668 264.326 70.3129 264.326C70.0714 264.326 69.8484 264.39 69.6438 264.518C69.4421 264.643 69.2788 264.817 69.1538 265.042C69.0316 265.266 68.9705 265.526 68.9705 265.822V269.857H67.6964ZM78.4041 269.857V261.13H79.6783V264.373H79.755C79.8288 264.236 79.9354 264.079 80.0746 263.9C80.2138 263.721 80.407 263.565 80.6541 263.431C80.9013 263.295 81.228 263.226 81.6342 263.226C82.1626 263.226 82.6342 263.36 83.049 263.627C83.4638 263.894 83.7891 264.279 84.0249 264.782C84.2635 265.285 84.3828 265.89 84.3828 266.597C84.3828 267.305 84.2649 267.911 84.0291 268.417C83.7933 268.92 83.4695 269.307 83.0575 269.58C82.6456 269.85 82.1754 269.985 81.647 269.985C81.2493 269.985 80.924 269.918 80.6712 269.785C80.4212 269.651 80.2251 269.495 80.0831 269.316C79.9411 269.137 79.8317 268.978 79.755 268.839H79.6484V269.857H78.4041ZM79.6527 266.584C79.6527 267.045 79.7195 267.448 79.853 267.795C79.9865 268.141 80.1797 268.413 80.4325 268.609C80.6854 268.802 80.995 268.898 81.3615 268.898C81.7422 268.898 82.0604 268.797 82.3161 268.596C82.5717 268.391 82.7649 268.114 82.8956 267.765C83.0291 267.415 83.0959 267.022 83.0959 266.584C83.0959 266.153 83.0305 265.765 82.8999 265.421C82.772 265.077 82.5788 264.806 82.3203 264.607C82.0646 264.408 81.745 264.309 81.3615 264.309C80.9922 264.309 80.6797 264.404 80.424 264.594C80.1712 264.785 79.9794 265.05 79.8487 265.391C79.718 265.732 79.6527 266.13 79.6527 266.584ZM88.6346 269.989C87.9897 269.989 87.4343 269.851 86.9684 269.576C86.5053 269.297 86.1474 268.907 85.8945 268.404C85.6445 267.898 85.5195 267.306 85.5195 266.627C85.5195 265.957 85.6445 265.366 85.8945 264.854C86.1474 264.343 86.4996 263.944 86.9513 263.657C87.4059 263.37 87.9371 263.226 88.5451 263.226C88.9144 263.226 89.2724 263.288 89.619 263.41C89.9656 263.532 90.2766 263.724 90.5522 263.985C90.8278 264.246 91.0451 264.586 91.2042 265.003C91.3633 265.418 91.4428 265.922 91.4428 266.516V266.968H86.2397V266.013H90.1942C90.1942 265.678 90.1261 265.381 89.9897 265.123C89.8533 264.861 89.6616 264.655 89.4144 264.505C89.1701 264.354 88.8832 264.279 88.5536 264.279C88.1957 264.279 87.8832 264.367 87.6161 264.543C87.3519 264.716 87.1474 264.944 87.0025 265.225C86.8604 265.503 86.7894 265.806 86.7894 266.133V266.878C86.7894 267.316 86.8661 267.688 87.0195 267.995C87.1758 268.302 87.3931 268.536 87.6715 268.698C87.9499 268.857 88.2752 268.937 88.6474 268.937C88.8888 268.937 89.109 268.903 89.3079 268.834C89.5067 268.763 89.6786 268.658 89.8235 268.519C89.9684 268.38 90.0792 268.208 90.1559 268.003L91.3619 268.221C91.2653 268.576 91.092 268.887 90.842 269.154C90.5948 269.418 90.2837 269.624 89.9087 269.772C89.5366 269.917 89.1119 269.989 88.6346 269.989ZM95.3068 269.985C94.7784 269.985 94.3068 269.85 93.892 269.58C93.4801 269.307 93.1563 268.92 92.9205 268.417C92.6875 267.911 92.571 267.305 92.571 266.597C92.571 265.89 92.6889 265.285 92.9247 264.782C93.1634 264.279 93.4901 263.894 93.9048 263.627C94.3196 263.36 94.7898 263.226 95.3153 263.226C95.7216 263.226 96.0483 263.295 96.2955 263.431C96.5455 263.565 96.7386 263.721 96.875 263.9C97.0142 264.079 97.1222 264.236 97.1989 264.373H97.2756V261.13H98.5497V269.857H97.3054V268.839H97.1989C97.1222 268.978 97.0114 269.137 96.8665 269.316C96.7244 269.495 96.5284 269.651 96.2784 269.785C96.0284 269.918 95.7045 269.985 95.3068 269.985ZM95.5881 268.898C95.9545 268.898 96.2642 268.802 96.517 268.609C96.7727 268.413 96.9659 268.141 97.0966 267.795C97.2301 267.448 97.2969 267.045 97.2969 266.584C97.2969 266.13 97.2315 265.732 97.1009 265.391C96.9702 265.05 96.7784 264.785 96.5256 264.594C96.2727 264.404 95.9602 264.309 95.5881 264.309C95.2045 264.309 94.8849 264.408 94.6293 264.607C94.3736 264.806 94.1804 265.077 94.0497 265.421C93.9219 265.765 93.858 266.153 93.858 266.584C93.858 267.022 93.9233 267.415 94.054 267.765C94.1847 268.114 94.3778 268.391 94.6335 268.596C94.892 268.797 95.2102 268.898 95.5881 268.898ZM102.819 269.985C102.29 269.985 101.819 269.85 101.404 269.58C100.992 269.307 100.668 268.92 100.432 268.417C100.199 267.911 100.083 267.305 100.083 266.597C100.083 265.89 100.201 265.285 100.436 264.782C100.675 264.279 101.002 263.894 101.417 263.627C101.831 263.36 102.301 263.226 102.827 263.226C103.233 263.226 103.56 263.295 103.807 263.431C104.057 263.565 104.25 263.721 104.387 263.9C104.526 264.079 104.634 264.236 104.711 264.373H104.787V261.13H106.061V269.857H104.817V268.839H104.711C104.634 268.978 104.523 269.137 104.378 269.316C104.236 269.495 104.04 269.651 103.79 269.785C103.54 269.918 103.216 269.985 102.819 269.985ZM103.1 268.898C103.466 268.898 103.776 268.802 104.029 268.609C104.284 268.413 104.478 268.141 104.608 267.795C104.742 267.448 104.809 267.045 104.809 266.584C104.809 266.13 104.743 265.732 104.613 265.391C104.482 265.05 104.29 264.785 104.037 264.594C103.784 264.404 103.472 264.309 103.1 264.309C102.716 264.309 102.397 264.408 102.141 264.607C101.885 264.806 101.692 265.077 101.561 265.421C101.434 265.765 101.37 266.153 101.37 266.584C101.37 267.022 101.435 267.415 101.566 267.765C101.696 268.114 101.89 268.391 102.145 268.596C102.404 268.797 102.722 268.898 103.1 268.898ZM107.88 269.857V263.312H109.154V269.857H107.88ZM108.523 262.302C108.302 262.302 108.112 262.228 107.952 262.08C107.796 261.93 107.718 261.751 107.718 261.543C107.718 261.333 107.796 261.154 107.952 261.006C108.112 260.856 108.302 260.78 108.523 260.78C108.745 260.78 108.934 260.856 109.09 261.006C109.249 261.154 109.329 261.333 109.329 261.543C109.329 261.751 109.249 261.93 109.09 262.08C108.934 262.228 108.745 262.302 108.523 262.302ZM112.142 265.971V269.857H110.868V263.312H112.091V264.377H112.172C112.323 264.03 112.559 263.752 112.88 263.542C113.203 263.332 113.611 263.226 114.103 263.226C114.549 263.226 114.939 263.32 115.275 263.508C115.61 263.692 115.87 263.968 116.054 264.334C116.239 264.701 116.331 265.154 116.331 265.694V269.857H115.057V265.847C115.057 265.373 114.934 265.002 114.686 264.735C114.439 264.465 114.1 264.33 113.668 264.33C113.373 264.33 113.11 264.394 112.88 264.522C112.652 264.65 112.472 264.837 112.338 265.084C112.208 265.329 112.142 265.624 112.142 265.971ZM120.784 272.448C120.265 272.448 119.817 272.38 119.442 272.243C119.07 272.107 118.766 271.927 118.53 271.702C118.294 271.478 118.118 271.232 118.002 270.965L119.097 270.513C119.174 270.638 119.276 270.77 119.404 270.91C119.534 271.052 119.711 271.172 119.932 271.272C120.157 271.371 120.445 271.421 120.797 271.421C121.28 271.421 121.679 271.303 121.995 271.067C122.31 270.834 122.468 270.462 122.468 269.951V268.664H122.387C122.31 268.803 122.199 268.958 122.054 269.128C121.912 269.299 121.716 269.447 121.466 269.572C121.216 269.697 120.891 269.759 120.49 269.759C119.973 269.759 119.507 269.638 119.093 269.397C118.681 269.153 118.354 268.793 118.113 268.319C117.874 267.841 117.755 267.255 117.755 266.559C117.755 265.863 117.873 265.266 118.108 264.769C118.347 264.272 118.674 263.891 119.088 263.627C119.503 263.36 119.973 263.226 120.499 263.226C120.905 263.226 121.233 263.295 121.483 263.431C121.733 263.565 121.928 263.721 122.067 263.9C122.209 264.079 122.319 264.236 122.395 264.373H122.489V263.312H123.738V270.002C123.738 270.565 123.607 271.026 123.346 271.387C123.084 271.748 122.73 272.015 122.284 272.188C121.841 272.361 121.341 272.448 120.784 272.448ZM120.772 268.702C121.138 268.702 121.448 268.617 121.701 268.447C121.956 268.273 122.15 268.026 122.28 267.705C122.414 267.381 122.48 266.993 122.48 266.542C122.48 266.101 122.415 265.714 122.284 265.378C122.154 265.043 121.962 264.782 121.709 264.594C121.456 264.404 121.144 264.309 120.772 264.309C120.388 264.309 120.069 264.408 119.813 264.607C119.557 264.803 119.364 265.07 119.233 265.408C119.105 265.746 119.042 266.124 119.042 266.542C119.042 266.971 119.107 267.347 119.238 267.671C119.368 267.995 119.561 268.248 119.817 268.43C120.076 268.611 120.394 268.702 120.772 268.702Z" fill="black"/>
<path d="M203.5 252C203.5 252.276 203.724 252.5 204 252.5C204.276 252.5 204.5 252.276 204.5 252H203.5ZM204 232L201.113 237H206.887L204 232ZM204.5 252V236.5H203.5V252H204.5Z" fill="black"/>
<path d="M140 265.5C139.724 265.5 139.5 265.724 139.5 266C139.5 266.276 139.724 266.5 140 266.5V265.5ZM190 266L185 263.113V268.887L190 266ZM140 266.5H185.5V265.5H140V266.5Z" fill="black"/>
<path d="M69 150.5C68.7239 150.5 68.5 150.724 68.5 151C68.5 151.276 68.7239 151.5 69 151.5V150.5ZM119 151L114 148.113V153.887L119 151ZM69 151.5H114.5V150.5H69V151.5Z" fill="black"/>
<path d="M296 107.5C295.724 107.5 295.5 107.724 295.5 108C295.5 108.276 295.724 108.5 296 108.5V107.5ZM346 108L341 105.113V110.887L346 108ZM296 108.5H341.5V107.5H296V108.5Z" fill="black"/>
<path d="M203.5 300C203.5 300.276 203.724 300.5 204 300.5C204.276 300.5 204.5 300.276 204.5 300H203.5ZM204 280L201.113 285H206.887L204 280ZM204.5 300V284.5H203.5V300H204.5Z" fill="black"/>
<path d="M203.482 269.354V263.26H204.516V269.354H203.482ZM200.953 266.824V265.79H207.046V266.824H200.953Z" fill="black"/>
<circle cx="204" cy="266" r="10.5" stroke="black"/>
</svg>
