<svg width="396" height="426" viewBox="0 0 396 426" fill="none" xmlns="http://www.w3.org/2000/svg">
<path d="M177 94.5H338C340.485 94.5 342.5 96.5147 342.5 99V333C342.5 335.485 340.485 337.5 338 337.5H177C174.515 337.5 172.5 335.485 172.5 333V99C172.5 96.5147 174.515 94.5 177 94.5Z" fill="#F5F5F5" stroke="black"/>
<path d="M209.469 329V320.273H212.665C213.284 320.273 213.797 320.375 214.203 320.58C214.609 320.781 214.913 321.055 215.115 321.402C215.317 321.746 215.417 322.134 215.417 322.565C215.417 322.929 215.351 323.236 215.217 323.486C215.084 323.733 214.905 323.932 214.68 324.082C214.459 324.23 214.214 324.338 213.947 324.406V324.491C214.237 324.506 214.52 324.599 214.795 324.773C215.074 324.943 215.304 325.186 215.486 325.501C215.667 325.817 215.758 326.2 215.758 326.652C215.758 327.098 215.653 327.499 215.443 327.854C215.236 328.206 214.915 328.486 214.48 328.693C214.045 328.898 213.49 329 212.814 329H209.469ZM210.785 327.871H212.686C213.317 327.871 213.768 327.749 214.041 327.504C214.314 327.26 214.45 326.955 214.45 326.588C214.45 326.312 214.381 326.06 214.241 325.83C214.102 325.599 213.903 325.416 213.645 325.28C213.389 325.143 213.085 325.075 212.733 325.075H210.785V327.871ZM210.785 324.048H212.55C212.845 324.048 213.111 323.991 213.346 323.878C213.585 323.764 213.774 323.605 213.913 323.401C214.055 323.193 214.126 322.949 214.126 322.668C214.126 322.307 214 322.004 213.747 321.76C213.494 321.516 213.106 321.393 212.584 321.393H210.785V324.048ZM220.039 329.132C219.394 329.132 218.839 328.994 218.373 328.719C217.91 328.44 217.552 328.05 217.299 327.547C217.049 327.041 216.924 326.449 216.924 325.77C216.924 325.099 217.049 324.509 217.299 323.997C217.552 323.486 217.904 323.087 218.356 322.8C218.81 322.513 219.341 322.369 219.949 322.369C220.319 322.369 220.677 322.43 221.023 322.553C221.37 322.675 221.681 322.866 221.956 323.128C222.232 323.389 222.449 323.729 222.608 324.146C222.768 324.561 222.847 325.065 222.847 325.659V326.111H217.644V325.156H221.599C221.599 324.821 221.53 324.524 221.394 324.266C221.258 324.004 221.066 323.798 220.819 323.648C220.574 323.497 220.287 323.422 219.958 323.422C219.6 323.422 219.287 323.51 219.02 323.686C218.756 323.859 218.552 324.087 218.407 324.368C218.265 324.646 218.194 324.949 218.194 325.276V326.021C218.194 326.459 218.27 326.831 218.424 327.138C218.58 327.445 218.797 327.679 219.076 327.841C219.354 328 219.68 328.08 220.052 328.08C220.293 328.08 220.513 328.045 220.712 327.977C220.911 327.906 221.083 327.801 221.228 327.662C221.373 327.523 221.483 327.351 221.56 327.146L222.766 327.364C222.67 327.719 222.496 328.03 222.246 328.297C221.999 328.561 221.688 328.767 221.313 328.915C220.941 329.06 220.516 329.132 220.039 329.132ZM225.535 325.114V329H224.261V320.273H225.518V323.52H225.599C225.752 323.168 225.987 322.888 226.302 322.68C226.617 322.473 227.029 322.369 227.538 322.369C227.987 322.369 228.379 322.462 228.714 322.646C229.052 322.831 229.313 323.107 229.498 323.473C229.686 323.837 229.779 324.291 229.779 324.837V329H228.505V324.99C228.505 324.51 228.382 324.138 228.134 323.874C227.887 323.607 227.544 323.473 227.103 323.473C226.802 323.473 226.532 323.537 226.294 323.665C226.058 323.793 225.872 323.98 225.735 324.227C225.602 324.472 225.535 324.767 225.535 325.114ZM233.384 329.145C232.97 329.145 232.595 329.068 232.259 328.915C231.924 328.759 231.659 328.533 231.463 328.237C231.269 327.942 231.173 327.58 231.173 327.151C231.173 326.781 231.244 326.477 231.386 326.239C231.528 326 231.72 325.811 231.961 325.672C232.203 325.533 232.472 325.428 232.771 325.357C233.069 325.286 233.373 325.232 233.683 325.195C234.075 325.149 234.393 325.112 234.637 325.084C234.882 325.053 235.059 325.003 235.17 324.935C235.281 324.866 235.336 324.756 235.336 324.602V324.572C235.336 324.2 235.231 323.912 235.021 323.707C234.813 323.503 234.504 323.401 234.092 323.401C233.663 323.401 233.325 323.496 233.078 323.686C232.833 323.874 232.664 324.082 232.57 324.312L231.373 324.04C231.515 323.642 231.722 323.321 231.995 323.077C232.271 322.83 232.588 322.651 232.945 322.54C233.303 322.426 233.68 322.369 234.075 322.369C234.336 322.369 234.613 322.401 234.906 322.463C235.201 322.523 235.477 322.634 235.732 322.795C235.991 322.957 236.203 323.189 236.367 323.49C236.532 323.788 236.615 324.176 236.615 324.653V329H235.37V328.105H235.319C235.237 328.27 235.113 328.432 234.948 328.591C234.784 328.75 234.572 328.882 234.313 328.987C234.055 329.092 233.745 329.145 233.384 329.145ZM233.661 328.122C234.014 328.122 234.315 328.053 234.565 327.913C234.818 327.774 235.009 327.592 235.14 327.368C235.274 327.141 235.34 326.898 235.34 326.639V325.795C235.295 325.841 235.207 325.884 235.076 325.923C234.948 325.96 234.802 325.993 234.637 326.021C234.472 326.047 234.312 326.071 234.156 326.094C233.999 326.114 233.869 326.131 233.764 326.145C233.517 326.176 233.291 326.229 233.086 326.303C232.884 326.376 232.722 326.483 232.6 326.622C232.481 326.759 232.421 326.94 232.421 327.168C232.421 327.483 232.538 327.722 232.771 327.884C233.004 328.043 233.301 328.122 233.661 328.122ZM243.677 322.455L241.303 329H239.939L237.562 322.455H238.93L240.587 327.491H240.655L242.309 322.455H243.677ZM244.874 329V322.455H246.148V329H244.874ZM245.518 321.445C245.296 321.445 245.106 321.371 244.947 321.223C244.79 321.072 244.712 320.893 244.712 320.686C244.712 320.476 244.79 320.297 244.947 320.149C245.106 319.999 245.296 319.923 245.518 319.923C245.739 319.923 245.928 319.999 246.084 320.149C246.243 320.297 246.323 320.476 246.323 320.686C246.323 320.893 246.243 321.072 246.084 321.223C245.928 321.371 245.739 321.445 245.518 321.445ZM250.619 329.132C250.006 329.132 249.47 328.991 249.013 328.71C248.556 328.429 248.2 328.036 247.948 327.53C247.695 327.024 247.568 326.433 247.568 325.757C247.568 325.078 247.695 324.484 247.948 323.976C248.2 323.467 248.556 323.072 249.013 322.791C249.47 322.51 250.006 322.369 250.619 322.369C251.233 322.369 251.769 322.51 252.226 322.791C252.683 323.072 253.039 323.467 253.291 323.976C253.544 324.484 253.671 325.078 253.671 325.757C253.671 326.433 253.544 327.024 253.291 327.53C253.039 328.036 252.683 328.429 252.226 328.71C251.769 328.991 251.233 329.132 250.619 329.132ZM250.624 328.062C251.021 328.062 251.351 327.957 251.612 327.747C251.874 327.537 252.067 327.257 252.192 326.908C252.32 326.558 252.384 326.173 252.384 325.753C252.384 325.335 252.32 324.952 252.192 324.602C252.067 324.25 251.874 323.967 251.612 323.754C251.351 323.541 251.021 323.435 250.624 323.435C250.223 323.435 249.891 323.541 249.627 323.754C249.365 323.967 249.171 324.25 249.043 324.602C248.918 324.952 248.855 325.335 248.855 325.753C248.855 326.173 248.918 326.558 249.043 326.908C249.171 327.257 249.365 327.537 249.627 327.747C249.891 327.957 250.223 328.062 250.624 328.062ZM255.093 329V322.455H256.324V323.494H256.393C256.512 323.142 256.722 322.865 257.023 322.663C257.327 322.459 257.671 322.357 258.055 322.357C258.134 322.357 258.228 322.359 258.336 322.365C258.447 322.371 258.533 322.378 258.596 322.386V323.605C258.545 323.591 258.454 323.575 258.323 323.558C258.192 323.538 258.062 323.528 257.931 323.528C257.63 323.528 257.361 323.592 257.126 323.72C256.893 323.845 256.708 324.02 256.572 324.244C256.435 324.466 256.367 324.719 256.367 325.003V329H255.093ZM266.185 326.17H267.481L268.393 327.359L268.823 327.888L270.276 329.784H268.93L267.958 328.518L267.626 328.058L266.185 326.17ZM270.557 324.636C270.557 325.568 270.387 326.369 270.046 327.04C269.705 327.707 269.238 328.222 268.644 328.582C268.053 328.94 267.381 329.119 266.628 329.119C265.873 329.119 265.198 328.94 264.604 328.582C264.013 328.222 263.547 327.706 263.206 327.036C262.866 326.365 262.695 325.565 262.695 324.636C262.695 323.705 262.866 322.905 263.206 322.237C263.547 321.567 264.013 321.053 264.604 320.695C265.198 320.334 265.873 320.153 266.628 320.153C267.381 320.153 268.053 320.334 268.644 320.695C269.238 321.053 269.705 321.567 270.046 322.237C270.387 322.905 270.557 323.705 270.557 324.636ZM269.253 324.636C269.253 323.926 269.138 323.328 268.908 322.842C268.681 322.354 268.368 321.984 267.971 321.734C267.576 321.482 267.128 321.355 266.628 321.355C266.126 321.355 265.677 321.482 265.282 321.734C264.887 321.984 264.574 322.354 264.344 322.842C264.117 323.328 264.003 323.926 264.003 324.636C264.003 325.347 264.117 325.946 264.344 326.435C264.574 326.92 264.887 327.29 265.282 327.543C265.677 327.793 266.126 327.918 266.628 327.918C267.128 327.918 267.576 327.793 267.971 327.543C268.368 327.29 268.681 326.92 268.908 326.435C269.138 325.946 269.253 325.347 269.253 324.636ZM276.243 326.286V322.455H277.521V329H276.269V327.866H276.2C276.05 328.216 275.808 328.507 275.476 328.74C275.146 328.97 274.736 329.085 274.244 329.085C273.824 329.085 273.452 328.993 273.128 328.808C272.807 328.621 272.554 328.344 272.369 327.977C272.188 327.611 272.097 327.158 272.097 326.618V322.455H273.371V326.464C273.371 326.911 273.494 327.266 273.742 327.53C273.989 327.794 274.31 327.926 274.705 327.926C274.943 327.926 275.181 327.866 275.416 327.747C275.655 327.628 275.852 327.447 276.009 327.206C276.168 326.964 276.246 326.658 276.243 326.286ZM282.055 329.132C281.41 329.132 280.854 328.994 280.388 328.719C279.925 328.44 279.567 328.05 279.314 327.547C279.064 327.041 278.939 326.449 278.939 325.77C278.939 325.099 279.064 324.509 279.314 323.997C279.567 323.486 279.92 323.087 280.371 322.8C280.826 322.513 281.357 322.369 281.965 322.369C282.334 322.369 282.692 322.43 283.039 322.553C283.385 322.675 283.697 322.866 283.972 323.128C284.248 323.389 284.465 323.729 284.624 324.146C284.783 324.561 284.863 325.065 284.863 325.659V326.111H279.66V325.156H283.614C283.614 324.821 283.546 324.524 283.41 324.266C283.273 324.004 283.081 323.798 282.834 323.648C282.59 323.497 282.303 323.422 281.974 323.422C281.616 323.422 281.303 323.51 281.036 323.686C280.772 323.859 280.567 324.087 280.422 324.368C280.28 324.646 280.209 324.949 280.209 325.276V326.021C280.209 326.459 280.286 326.831 280.439 327.138C280.596 327.445 280.813 327.679 281.091 327.841C281.37 328 281.695 328.08 282.067 328.08C282.309 328.08 282.529 328.045 282.728 327.977C282.927 327.906 283.099 327.801 283.243 327.662C283.388 327.523 283.499 327.351 283.576 327.146L284.782 327.364C284.685 327.719 284.512 328.03 284.262 328.297C284.015 328.561 283.704 328.767 283.329 328.915C282.956 329.06 282.532 329.132 282.055 329.132ZM286.276 329V322.455H287.508V323.494H287.576C287.695 323.142 287.906 322.865 288.207 322.663C288.511 322.459 288.855 322.357 289.238 322.357C289.318 322.357 289.411 322.359 289.519 322.365C289.63 322.371 289.717 322.378 289.779 322.386V323.605C289.728 323.591 289.637 323.575 289.507 323.558C289.376 323.538 289.245 323.528 289.115 323.528C288.813 323.528 288.545 323.592 288.309 323.72C288.076 323.845 287.892 324.02 287.755 324.244C287.619 324.466 287.551 324.719 287.551 325.003V329H286.276ZM290.882 329V322.455H292.156V329H290.882ZM291.525 321.445C291.304 321.445 291.113 321.371 290.954 321.223C290.798 321.072 290.72 320.893 290.72 320.686C290.72 320.476 290.798 320.297 290.954 320.149C291.113 319.999 291.304 319.923 291.525 319.923C291.747 319.923 291.936 319.999 292.092 320.149C292.251 320.297 292.331 320.476 292.331 320.686C292.331 320.893 292.251 321.072 292.092 321.223C291.936 321.371 291.747 321.445 291.525 321.445ZM296.691 329.132C296.046 329.132 295.491 328.994 295.025 328.719C294.562 328.44 294.204 328.05 293.951 327.547C293.701 327.041 293.576 326.449 293.576 325.77C293.576 325.099 293.701 324.509 293.951 323.997C294.204 323.486 294.556 323.087 295.008 322.8C295.463 322.513 295.994 322.369 296.602 322.369C296.971 322.369 297.329 322.43 297.676 322.553C298.022 322.675 298.333 322.866 298.609 323.128C298.884 323.389 299.102 323.729 299.261 324.146C299.42 324.561 299.499 325.065 299.499 325.659V326.111H294.296V325.156H298.251C298.251 324.821 298.183 324.524 298.046 324.266C297.91 324.004 297.718 323.798 297.471 323.648C297.227 323.497 296.94 323.422 296.61 323.422C296.252 323.422 295.94 323.51 295.673 323.686C295.409 323.859 295.204 324.087 295.059 324.368C294.917 324.646 294.846 324.949 294.846 325.276V326.021C294.846 326.459 294.923 326.831 295.076 327.138C295.232 327.445 295.45 327.679 295.728 327.841C296.007 328 296.332 328.08 296.704 328.08C296.945 328.08 297.166 328.045 297.365 327.977C297.563 327.906 297.735 327.801 297.88 327.662C298.025 327.523 298.136 327.351 298.213 327.146L299.419 327.364C299.322 327.719 299.149 328.03 298.899 328.297C298.651 328.561 298.34 328.767 297.965 328.915C297.593 329.06 297.169 329.132 296.691 329.132ZM305.818 324.053L304.663 324.257C304.615 324.109 304.538 323.969 304.433 323.835C304.331 323.702 304.192 323.592 304.015 323.507C303.839 323.422 303.619 323.379 303.355 323.379C302.994 323.379 302.693 323.46 302.452 323.622C302.21 323.781 302.089 323.987 302.089 324.24C302.089 324.459 302.17 324.635 302.332 324.768C302.494 324.902 302.756 325.011 303.116 325.097L304.156 325.335C304.758 325.474 305.207 325.689 305.503 325.979C305.798 326.268 305.946 326.645 305.946 327.108C305.946 327.5 305.832 327.849 305.605 328.156C305.381 328.46 305.067 328.699 304.663 328.872C304.263 329.045 303.798 329.132 303.27 329.132C302.537 329.132 301.939 328.976 301.476 328.663C301.013 328.348 300.729 327.901 300.623 327.321L301.855 327.134C301.932 327.455 302.089 327.697 302.328 327.862C302.567 328.024 302.878 328.105 303.261 328.105C303.679 328.105 304.013 328.018 304.263 327.845C304.513 327.669 304.638 327.455 304.638 327.202C304.638 326.997 304.561 326.825 304.407 326.686C304.257 326.547 304.025 326.442 303.713 326.371L302.605 326.128C301.994 325.989 301.542 325.767 301.25 325.463C300.96 325.159 300.815 324.774 300.815 324.308C300.815 323.922 300.923 323.584 301.139 323.294C301.355 323.004 301.653 322.778 302.034 322.616C302.415 322.452 302.851 322.369 303.342 322.369C304.05 322.369 304.606 322.523 305.013 322.83C305.419 323.134 305.687 323.541 305.818 324.053Z" fill="black"/>
<path d="M225.268 105.565C225.222 105.162 225.035 104.849 224.705 104.628C224.376 104.403 223.961 104.291 223.461 104.291C223.103 104.291 222.793 104.348 222.532 104.462C222.27 104.572 222.067 104.726 221.922 104.922C221.78 105.115 221.709 105.335 221.709 105.582C221.709 105.79 221.758 105.969 221.854 106.119C221.954 106.27 222.083 106.396 222.242 106.499C222.404 106.598 222.577 106.682 222.762 106.75C222.947 106.815 223.124 106.869 223.295 106.912L224.147 107.134C224.425 107.202 224.711 107.294 225.003 107.411C225.296 107.527 225.567 107.68 225.817 107.871C226.067 108.061 226.269 108.297 226.422 108.578C226.579 108.859 226.657 109.196 226.657 109.588C226.657 110.082 226.529 110.521 226.273 110.905C226.02 111.288 225.653 111.591 225.17 111.812C224.689 112.034 224.108 112.145 223.427 112.145C222.773 112.145 222.208 112.041 221.731 111.834C221.253 111.626 220.88 111.332 220.61 110.952C220.34 110.568 220.191 110.114 220.162 109.588H221.483C221.509 109.903 221.611 110.166 221.79 110.376C221.972 110.584 222.204 110.739 222.485 110.841C222.769 110.94 223.08 110.99 223.418 110.99C223.79 110.99 224.121 110.932 224.411 110.815C224.704 110.696 224.934 110.531 225.101 110.321C225.269 110.108 225.353 109.859 225.353 109.575C225.353 109.317 225.279 109.105 225.131 108.94C224.986 108.776 224.789 108.639 224.539 108.531C224.292 108.423 224.012 108.328 223.699 108.246L222.668 107.964C221.969 107.774 221.415 107.494 221.006 107.125C220.6 106.756 220.397 106.267 220.397 105.659C220.397 105.156 220.533 104.717 220.806 104.342C221.079 103.967 221.448 103.676 221.914 103.469C222.38 103.259 222.905 103.153 223.491 103.153C224.081 103.153 224.603 103.257 225.055 103.464C225.509 103.672 225.867 103.957 226.128 104.321C226.39 104.682 226.526 105.097 226.537 105.565H225.268ZM228.128 114.455V105.455H229.372V106.516H229.479C229.553 106.379 229.659 106.222 229.798 106.043C229.938 105.864 230.131 105.707 230.378 105.574C230.625 105.438 230.952 105.369 231.358 105.369C231.887 105.369 232.358 105.503 232.773 105.77C233.188 106.037 233.513 106.422 233.749 106.925C233.987 107.428 234.107 108.033 234.107 108.74C234.107 109.447 233.989 110.054 233.753 110.56C233.517 111.062 233.193 111.45 232.781 111.723C232.369 111.993 231.899 112.128 231.371 112.128C230.973 112.128 230.648 112.061 230.395 111.928C230.145 111.794 229.949 111.638 229.807 111.459C229.665 111.28 229.556 111.121 229.479 110.982H229.402V114.455H228.128ZM229.377 108.727C229.377 109.187 229.443 109.591 229.577 109.938C229.71 110.284 229.904 110.555 230.156 110.751C230.409 110.945 230.719 111.041 231.085 111.041C231.466 111.041 231.784 110.94 232.04 110.739C232.296 110.534 232.489 110.257 232.619 109.908C232.753 109.558 232.82 109.165 232.82 108.727C232.82 108.295 232.754 107.908 232.624 107.564C232.496 107.22 232.303 106.949 232.044 106.75C231.789 106.551 231.469 106.452 231.085 106.452C230.716 106.452 230.404 106.547 230.148 106.737C229.895 106.928 229.703 107.193 229.573 107.534C229.442 107.875 229.377 108.273 229.377 108.727ZM235.534 112V105.455H236.808V112H235.534ZM236.178 104.445C235.956 104.445 235.766 104.371 235.607 104.223C235.45 104.072 235.372 103.893 235.372 103.686C235.372 103.476 235.45 103.297 235.607 103.149C235.766 102.999 235.956 102.923 236.178 102.923C236.399 102.923 236.588 102.999 236.744 103.149C236.904 103.297 236.983 103.476 236.983 103.686C236.983 103.893 236.904 104.072 236.744 104.223C236.588 104.371 236.399 104.445 236.178 104.445ZM239.694 109.78L239.686 108.224H239.907L242.515 105.455H244.041L241.067 108.608H240.866L239.694 109.78ZM238.523 112V103.273H239.797V112H238.523ZM242.656 112L240.312 108.889L241.19 107.999L244.22 112H242.656ZM247.754 112.132C247.109 112.132 246.553 111.994 246.088 111.719C245.624 111.44 245.267 111.05 245.014 110.547C244.764 110.041 244.639 109.449 244.639 108.77C244.639 108.099 244.764 107.509 245.014 106.997C245.267 106.486 245.619 106.087 246.07 105.8C246.525 105.513 247.056 105.369 247.664 105.369C248.034 105.369 248.392 105.43 248.738 105.553C249.085 105.675 249.396 105.866 249.671 106.128C249.947 106.389 250.164 106.729 250.323 107.146C250.482 107.561 250.562 108.065 250.562 108.659V109.111H245.359V108.156H249.313C249.313 107.821 249.245 107.524 249.109 107.266C248.972 107.004 248.781 106.798 248.534 106.648C248.289 106.497 248.002 106.422 247.673 106.422C247.315 106.422 247.002 106.51 246.735 106.686C246.471 106.859 246.267 107.087 246.122 107.368C245.98 107.646 245.909 107.949 245.909 108.276V109.021C245.909 109.459 245.985 109.831 246.139 110.138C246.295 110.445 246.512 110.679 246.791 110.841C247.069 111 247.394 111.08 247.767 111.08C248.008 111.08 248.228 111.045 248.427 110.977C248.626 110.906 248.798 110.801 248.943 110.662C249.088 110.523 249.198 110.351 249.275 110.146L250.481 110.364C250.384 110.719 250.211 111.03 249.961 111.297C249.714 111.561 249.403 111.767 249.028 111.915C248.656 112.06 248.231 112.132 247.754 112.132ZM254.823 104.406V103.273H261.578V104.406H258.855V112H257.542V104.406H254.823ZM264.776 112.132C264.162 112.132 263.627 111.991 263.169 111.71C262.712 111.429 262.357 111.036 262.104 110.53C261.851 110.024 261.725 109.433 261.725 108.757C261.725 108.078 261.851 107.484 262.104 106.976C262.357 106.467 262.712 106.072 263.169 105.791C263.627 105.51 264.162 105.369 264.776 105.369C265.389 105.369 265.925 105.51 266.382 105.791C266.84 106.072 267.195 106.467 267.448 106.976C267.7 107.484 267.827 108.078 267.827 108.757C267.827 109.433 267.7 110.024 267.448 110.53C267.195 111.036 266.84 111.429 266.382 111.71C265.925 111.991 265.389 112.132 264.776 112.132ZM264.78 111.062C265.178 111.062 265.507 110.957 265.769 110.747C266.03 110.537 266.223 110.257 266.348 109.908C266.476 109.558 266.54 109.173 266.54 108.753C266.54 108.335 266.476 107.952 266.348 107.602C266.223 107.25 266.03 106.967 265.769 106.754C265.507 106.541 265.178 106.435 264.78 106.435C264.379 106.435 264.047 106.541 263.783 106.754C263.521 106.967 263.327 107.25 263.199 107.602C263.074 107.952 263.012 108.335 263.012 108.753C263.012 109.173 263.074 109.558 263.199 109.908C263.327 110.257 263.521 110.537 263.783 110.747C264.047 110.957 264.379 111.062 264.78 111.062ZM270.421 109.78L270.412 108.224H270.634L273.242 105.455H274.768L271.793 108.608H271.593L270.421 109.78ZM269.249 112V103.273H270.523V112H269.249ZM273.383 112L271.039 108.889L271.917 107.999L274.947 112H273.383ZM278.48 112.132C277.835 112.132 277.28 111.994 276.814 111.719C276.351 111.44 275.993 111.05 275.74 110.547C275.49 110.041 275.365 109.449 275.365 108.77C275.365 108.099 275.49 107.509 275.74 106.997C275.993 106.486 276.345 106.087 276.797 105.8C277.252 105.513 277.783 105.369 278.391 105.369C278.76 105.369 279.118 105.43 279.465 105.553C279.811 105.675 280.122 105.866 280.398 106.128C280.673 106.389 280.891 106.729 281.05 107.146C281.209 107.561 281.289 108.065 281.289 108.659V109.111H276.085V108.156H280.04C280.04 107.821 279.972 107.524 279.835 107.266C279.699 107.004 279.507 106.798 279.26 106.648C279.016 106.497 278.729 106.422 278.399 106.422C278.041 106.422 277.729 106.51 277.462 106.686C277.198 106.859 276.993 107.087 276.848 107.368C276.706 107.646 276.635 107.949 276.635 108.276V109.021C276.635 109.459 276.712 109.831 276.865 110.138C277.021 110.445 277.239 110.679 277.517 110.841C277.796 111 278.121 111.08 278.493 111.08C278.735 111.08 278.955 111.045 279.154 110.977C279.352 110.906 279.524 110.801 279.669 110.662C279.814 110.523 279.925 110.351 280.002 110.146L281.208 110.364C281.111 110.719 280.938 111.03 280.688 111.297C280.441 111.561 280.129 111.767 279.754 111.915C279.382 112.06 278.958 112.132 278.48 112.132ZM283.976 108.114V112H282.702V105.455H283.925V106.52H284.006C284.157 106.173 284.393 105.895 284.714 105.685C285.037 105.474 285.445 105.369 285.937 105.369C286.383 105.369 286.773 105.463 287.108 105.651C287.444 105.835 287.704 106.111 287.888 106.477C288.073 106.844 288.165 107.297 288.165 107.837V112H286.891V107.99C286.891 107.516 286.768 107.145 286.52 106.878C286.273 106.608 285.934 106.473 285.502 106.473C285.206 106.473 284.944 106.537 284.714 106.665C284.486 106.793 284.306 106.98 284.172 107.227C284.042 107.472 283.976 107.767 283.976 108.114ZM294.779 107.053L293.624 107.257C293.576 107.109 293.499 106.969 293.394 106.835C293.292 106.702 293.153 106.592 292.976 106.507C292.8 106.422 292.58 106.379 292.316 106.379C291.955 106.379 291.654 106.46 291.412 106.622C291.171 106.781 291.05 106.987 291.05 107.24C291.05 107.459 291.131 107.635 291.293 107.768C291.455 107.902 291.716 108.011 292.077 108.097L293.117 108.335C293.719 108.474 294.168 108.689 294.464 108.979C294.759 109.268 294.907 109.645 294.907 110.108C294.907 110.5 294.793 110.849 294.566 111.156C294.341 111.46 294.028 111.699 293.624 111.872C293.224 112.045 292.759 112.132 292.231 112.132C291.498 112.132 290.9 111.976 290.437 111.663C289.974 111.348 289.689 110.901 289.584 110.321L290.816 110.134C290.893 110.455 291.05 110.697 291.289 110.862C291.528 111.024 291.839 111.105 292.222 111.105C292.64 111.105 292.974 111.018 293.224 110.845C293.474 110.669 293.599 110.455 293.599 110.202C293.599 109.997 293.522 109.825 293.368 109.686C293.218 109.547 292.986 109.442 292.674 109.371L291.566 109.128C290.955 108.989 290.503 108.767 290.211 108.463C289.921 108.159 289.776 107.774 289.776 107.308C289.776 106.922 289.884 106.584 290.1 106.294C290.316 106.004 290.614 105.778 290.995 105.616C291.376 105.452 291.812 105.369 292.303 105.369C293.01 105.369 293.567 105.523 293.974 105.83C294.38 106.134 294.648 106.541 294.779 107.053Z" fill="black"/>
<path d="M231.342 203V192.818H235.359C236.132 192.818 236.79 192.966 237.333 193.261C237.877 193.552 238.291 193.958 238.576 194.479C238.864 194.996 239.009 195.592 239.009 196.268C239.009 196.945 238.863 197.541 238.571 198.058C238.279 198.575 237.857 198.978 237.303 199.266C236.753 199.555 236.087 199.699 235.305 199.699H232.744V197.974H234.957C235.371 197.974 235.712 197.902 235.981 197.76C236.253 197.614 236.455 197.414 236.587 197.158C236.723 196.9 236.791 196.603 236.791 196.268C236.791 195.93 236.723 195.635 236.587 195.384C236.455 195.128 236.253 194.931 235.981 194.792C235.709 194.649 235.364 194.578 234.947 194.578H233.495V203H231.342ZM249.763 197.909C249.763 199.019 249.553 199.964 249.132 200.743C248.714 201.522 248.144 202.117 247.422 202.528C246.703 202.935 245.894 203.139 244.996 203.139C244.091 203.139 243.279 202.934 242.56 202.523C241.84 202.112 241.272 201.517 240.854 200.738C240.437 199.959 240.228 199.016 240.228 197.909C240.228 196.799 240.437 195.854 240.854 195.075C241.272 194.296 241.84 193.703 242.56 193.295C243.279 192.884 244.091 192.679 244.996 192.679C245.894 192.679 246.703 192.884 247.422 193.295C248.144 193.703 248.714 194.296 249.132 195.075C249.553 195.854 249.763 196.799 249.763 197.909ZM247.581 197.909C247.581 197.19 247.473 196.583 247.258 196.089C247.046 195.596 246.746 195.221 246.358 194.966C245.97 194.711 245.516 194.583 244.996 194.583C244.475 194.583 244.021 194.711 243.633 194.966C243.246 195.221 242.944 195.596 242.729 196.089C242.516 196.583 242.41 197.19 242.41 197.909C242.41 198.628 242.516 199.235 242.729 199.729C242.944 200.223 243.246 200.597 243.633 200.852C244.021 201.107 244.475 201.235 244.996 201.235C245.516 201.235 245.97 201.107 246.358 200.852C246.746 200.597 247.046 200.223 247.258 199.729C247.473 199.235 247.581 198.628 247.581 197.909ZM250.146 192.818H252.557L254.879 197.203H254.979L257.3 192.818H259.712L255.998 199.401V203H253.86V199.401L250.146 192.818ZM269.629 197.909C269.629 199.019 269.418 199.964 268.997 200.743C268.58 201.522 268.01 202.117 267.287 202.528C266.568 202.935 265.759 203.139 264.861 203.139C263.956 203.139 263.144 202.934 262.425 202.523C261.706 202.112 261.137 201.517 260.72 200.738C260.302 199.959 260.093 199.016 260.093 197.909C260.093 196.799 260.302 195.854 260.72 195.075C261.137 194.296 261.706 193.703 262.425 193.295C263.144 192.884 263.956 192.679 264.861 192.679C265.759 192.679 266.568 192.884 267.287 193.295C268.01 193.703 268.58 194.296 268.997 195.075C269.418 195.854 269.629 196.799 269.629 197.909ZM267.446 197.909C267.446 197.19 267.338 196.583 267.123 196.089C266.911 195.596 266.611 195.221 266.223 194.966C265.835 194.711 265.381 194.583 264.861 194.583C264.341 194.583 263.886 194.711 263.499 194.966C263.111 195.221 262.809 195.596 262.594 196.089C262.382 196.583 262.276 197.19 262.276 197.909C262.276 198.628 262.382 199.235 262.594 199.729C262.809 200.223 263.111 200.597 263.499 200.852C263.886 201.107 264.341 201.235 264.861 201.235C265.381 201.235 265.835 201.107 266.223 200.852C266.611 200.597 266.911 200.223 267.123 199.729C267.338 199.235 267.446 198.628 267.446 197.909ZM275.941 197.069V198.749H271.298V197.069H275.941ZM282.156 192.818V203H280.003V194.862H279.943L277.612 196.323V194.414L280.132 192.818H282.156ZM232.489 215.705C232.489 214.452 232.651 213.3 232.976 212.249C233.304 211.195 233.772 210.226 234.378 209.341H235.412C235.174 209.669 234.95 210.073 234.741 210.554C234.536 211.031 234.355 211.557 234.199 212.13C234.043 212.7 233.921 213.29 233.831 213.9C233.745 214.51 233.702 215.111 233.702 215.705C233.702 216.493 233.778 217.294 233.931 218.106C234.083 218.918 234.289 219.672 234.547 220.368C234.806 221.064 235.094 221.631 235.412 222.068H234.378C233.772 221.183 233.304 220.215 232.976 219.165C232.651 218.111 232.489 216.957 232.489 215.705ZM240.544 212.364V213.358H236.428V212.364H240.544ZM237.661 220V211.31C237.661 210.872 237.763 210.508 237.969 210.216C238.174 209.924 238.441 209.705 238.769 209.56C239.097 209.414 239.444 209.341 239.808 209.341C240.097 209.341 240.332 209.364 240.514 209.411C240.697 209.457 240.833 209.5 240.922 209.54L240.584 210.554C240.524 210.534 240.441 210.509 240.335 210.479C240.233 210.45 240.097 210.435 239.928 210.435C239.54 210.435 239.26 210.532 239.088 210.728C238.919 210.924 238.834 211.21 238.834 211.588V220H237.661ZM242.189 220V212.364H243.322V213.517H243.402C243.541 213.139 243.793 212.833 244.157 212.597C244.522 212.362 244.933 212.244 245.39 212.244C245.476 212.244 245.584 212.246 245.713 212.249C245.843 212.253 245.94 212.258 246.007 212.264V213.457C245.967 213.447 245.876 213.433 245.733 213.413C245.594 213.389 245.447 213.378 245.291 213.378C244.92 213.378 244.588 213.456 244.297 213.612C244.008 213.764 243.779 213.976 243.61 214.248C243.445 214.516 243.362 214.823 243.362 215.168V220H242.189ZM250.267 220.159C249.578 220.159 248.973 219.995 248.453 219.667C247.936 219.339 247.531 218.88 247.24 218.29C246.951 217.7 246.807 217.01 246.807 216.222C246.807 215.426 246.951 214.732 247.24 214.138C247.531 213.545 247.936 213.085 248.453 212.756C248.973 212.428 249.578 212.264 250.267 212.264C250.957 212.264 251.56 212.428 252.077 212.756C252.597 213.085 253.002 213.545 253.29 214.138C253.582 214.732 253.728 215.426 253.728 216.222C253.728 217.01 253.582 217.7 253.29 218.29C253.002 218.88 252.597 219.339 252.077 219.667C251.56 219.995 250.957 220.159 250.267 220.159ZM250.267 219.105C250.791 219.105 251.222 218.971 251.56 218.702C251.898 218.434 252.148 218.081 252.311 217.643C252.473 217.206 252.554 216.732 252.554 216.222C252.554 215.711 252.473 215.236 252.311 214.795C252.148 214.354 251.898 213.998 251.56 213.726C251.222 213.454 250.791 213.318 250.267 213.318C249.744 213.318 249.313 213.454 248.975 213.726C248.637 213.998 248.386 214.354 248.224 214.795C248.062 215.236 247.98 215.711 247.98 216.222C247.98 216.732 248.062 217.206 248.224 217.643C248.386 218.081 248.637 218.434 248.975 218.702C249.313 218.971 249.744 219.105 250.267 219.105ZM255.3 220V219.105L259.635 213.537V213.457H255.439V212.364H261.146V213.298L256.931 218.827V218.906H261.286V220H255.3ZM266.076 220.159C265.34 220.159 264.705 219.997 264.172 219.672C263.641 219.344 263.232 218.886 262.944 218.3C262.659 217.71 262.516 217.024 262.516 216.241C262.516 215.459 262.659 214.77 262.944 214.173C263.232 213.573 263.633 213.106 264.147 212.771C264.664 212.433 265.267 212.264 265.956 212.264C266.354 212.264 266.747 212.33 267.135 212.463C267.523 212.596 267.876 212.811 268.194 213.109C268.512 213.404 268.765 213.795 268.954 214.283C269.143 214.77 269.238 215.37 269.238 216.082V216.58H263.351V215.565H268.045C268.045 215.134 267.958 214.75 267.786 214.412C267.617 214.074 267.375 213.807 267.06 213.612C266.749 213.416 266.381 213.318 265.956 213.318C265.489 213.318 265.085 213.434 264.743 213.666C264.405 213.895 264.145 214.193 263.963 214.561C263.781 214.929 263.689 215.323 263.689 215.744V216.42C263.689 216.997 263.789 217.486 263.988 217.887C264.19 218.285 264.47 218.588 264.828 218.797C265.186 219.002 265.602 219.105 266.076 219.105C266.384 219.105 266.662 219.062 266.911 218.976C267.163 218.886 267.38 218.754 267.562 218.578C267.745 218.399 267.885 218.177 267.985 217.912L269.118 218.23C268.999 218.615 268.799 218.953 268.517 219.244C268.235 219.533 267.887 219.758 267.473 219.92C267.059 220.08 266.593 220.159 266.076 220.159ZM272.196 215.406V220H271.023V212.364H272.156V213.557H272.256C272.434 213.169 272.706 212.857 273.071 212.622C273.435 212.384 273.906 212.264 274.483 212.264C275 212.264 275.452 212.37 275.84 212.582C276.228 212.791 276.529 213.109 276.745 213.537C276.96 213.961 277.068 214.498 277.068 215.148V220H275.895V215.227C275.895 214.627 275.739 214.16 275.427 213.825C275.116 213.487 274.688 213.318 274.145 213.318C273.77 213.318 273.435 213.399 273.14 213.562C272.849 213.724 272.618 213.961 272.449 214.273C272.28 214.584 272.196 214.962 272.196 215.406ZM281.718 215.705C281.718 216.957 281.554 218.111 281.225 219.165C280.901 220.215 280.435 221.183 279.828 222.068H278.794C279.033 221.74 279.255 221.336 279.461 220.855C279.669 220.378 279.852 219.854 280.007 219.284C280.163 218.711 280.284 218.119 280.37 217.509C280.46 216.896 280.505 216.295 280.505 215.705C280.505 214.916 280.428 214.115 280.276 213.303C280.123 212.491 279.918 211.737 279.659 211.041C279.401 210.345 279.113 209.778 278.794 209.341H279.828C280.435 210.226 280.901 211.195 281.225 212.249C281.554 213.3 281.718 214.452 281.718 215.705Z" fill="black"/>
<rect x="339.5" y="43.5" width="26" height="164" rx="2.5" transform="rotate(90 339.5 43.5)" fill="#BAF3F7" stroke="black"/>
<path d="M195.035 52.2727H196.356V58.0128C196.356 58.6236 196.213 59.1648 195.926 59.6364C195.639 60.1051 195.235 60.4744 194.716 60.7443C194.196 61.0114 193.586 61.1449 192.887 61.1449C192.191 61.1449 191.583 61.0114 191.064 60.7443C190.544 60.4744 190.14 60.1051 189.853 59.6364C189.566 59.1648 189.423 58.6236 189.423 58.0128V52.2727H190.74V57.9062C190.74 58.3011 190.826 58.652 191 58.9588C191.176 59.2656 191.424 59.5071 191.745 59.6832C192.066 59.8565 192.447 59.9432 192.887 59.9432C193.331 59.9432 193.713 59.8565 194.034 59.6832C194.358 59.5071 194.605 59.2656 194.775 58.9588C194.948 58.652 195.035 58.3011 195.035 57.9062V52.2727ZM199.442 57.1136V61H198.168V54.4545H199.391V55.5199H199.472C199.623 55.1733 199.859 54.8949 200.18 54.6847C200.504 54.4744 200.911 54.3693 201.403 54.3693C201.849 54.3693 202.239 54.4631 202.575 54.6506C202.91 54.8352 203.17 55.1108 203.354 55.4773C203.539 55.8437 203.631 56.2969 203.631 56.8366V61H202.357V56.9901C202.357 56.5156 202.234 56.1449 201.986 55.8778C201.739 55.608 201.4 55.473 200.968 55.473C200.673 55.473 200.41 55.5369 200.18 55.6648C199.952 55.7926 199.772 55.9801 199.638 56.2273C199.508 56.4716 199.442 56.767 199.442 57.1136ZM205.34 61V54.4545H206.614V61H205.34ZM205.984 53.4446C205.762 53.4446 205.572 53.3707 205.413 53.223C205.256 53.0724 205.178 52.8935 205.178 52.6861C205.178 52.4759 205.256 52.2969 205.413 52.1491C205.572 51.9986 205.762 51.9233 205.984 51.9233C206.205 51.9233 206.394 51.9986 206.55 52.1491C206.709 52.2969 206.789 52.4759 206.789 52.6861C206.789 52.8935 206.709 53.0724 206.55 53.223C206.394 53.3707 206.205 53.4446 205.984 53.4446ZM211.384 54.4545V55.4773H207.809V54.4545H211.384ZM208.767 52.8864H210.042V59.0781C210.042 59.3253 210.078 59.5114 210.152 59.6364C210.226 59.7585 210.321 59.8423 210.438 59.8878C210.557 59.9304 210.686 59.9517 210.826 59.9517C210.928 59.9517 211.017 59.9446 211.094 59.9304C211.171 59.9162 211.23 59.9048 211.273 59.8963L211.503 60.9489C211.429 60.9773 211.324 61.0057 211.188 61.0341C211.051 61.0653 210.881 61.0824 210.676 61.0852C210.341 61.0909 210.029 61.0312 209.739 60.9062C209.449 60.7812 209.215 60.5881 209.036 60.3267C208.857 60.0653 208.767 59.7372 208.767 59.3423V52.8864ZM216.071 61V52.2727H221.543V53.4062H217.388V56.0653H221.257V57.1946H217.388V59.8665H221.594V61H216.071ZM223.2 61V54.4545H224.423V55.5199H224.504C224.64 55.1591 224.863 54.8778 225.173 54.6761C225.482 54.4716 225.853 54.3693 226.285 54.3693C226.722 54.3693 227.089 54.4716 227.384 54.6761C227.683 54.8807 227.903 55.1619 228.045 55.5199H228.113C228.269 55.1705 228.518 54.892 228.859 54.6847C229.2 54.4744 229.606 54.3693 230.077 54.3693C230.671 54.3693 231.156 54.5554 231.531 54.9276C231.908 55.2997 232.097 55.8608 232.097 56.6108V61H230.823V56.7301C230.823 56.2869 230.702 55.9659 230.461 55.767C230.219 55.5682 229.931 55.4687 229.596 55.4687C229.181 55.4687 228.859 55.5966 228.629 55.8523C228.398 56.1051 228.283 56.4304 228.283 56.8281V61H227.013V56.6491C227.013 56.294 226.903 56.0085 226.681 55.7926C226.459 55.5767 226.171 55.4687 225.816 55.4687C225.575 55.4687 225.352 55.5327 225.147 55.6605C224.945 55.7855 224.782 55.9602 224.657 56.1847C224.535 56.4091 224.474 56.669 224.474 56.9645V61H223.2ZM233.907 61V52.2727H235.181V55.5156H235.258C235.332 55.3793 235.439 55.2216 235.578 55.0426C235.717 54.8636 235.91 54.7074 236.157 54.5739C236.404 54.4375 236.731 54.3693 237.137 54.3693C237.666 54.3693 238.137 54.5028 238.552 54.7699C238.967 55.0369 239.292 55.4219 239.528 55.9247C239.767 56.4276 239.886 57.0327 239.886 57.7401C239.886 58.4474 239.768 59.054 239.532 59.5597C239.296 60.0625 238.973 60.4503 238.561 60.723C238.149 60.9929 237.679 61.1278 237.15 61.1278C236.752 61.1278 236.427 61.0611 236.174 60.9276C235.924 60.794 235.728 60.6378 235.586 60.4588C235.444 60.2798 235.335 60.1207 235.258 59.9815H235.152V61H233.907ZM235.156 57.7273C235.156 58.1875 235.223 58.5909 235.356 58.9375C235.49 59.2841 235.683 59.5554 235.936 59.7514C236.189 59.9446 236.498 60.0412 236.865 60.0412C237.245 60.0412 237.564 59.9403 237.819 59.7386C238.075 59.5341 238.268 59.2571 238.399 58.9077C238.532 58.5582 238.599 58.1648 238.599 57.7273C238.599 57.2955 238.534 56.9077 238.403 56.5639C238.275 56.2202 238.082 55.9489 237.823 55.75C237.568 55.5511 237.248 55.4517 236.865 55.4517C236.495 55.4517 236.183 55.5469 235.927 55.7372C235.674 55.9276 235.483 56.1932 235.352 56.5341C235.221 56.875 235.156 57.2727 235.156 57.7273ZM244.138 61.1321C243.493 61.1321 242.937 60.9943 242.472 60.7187C242.009 60.4403 241.651 60.0497 241.398 59.5469C241.148 59.0412 241.023 58.4489 241.023 57.7699C241.023 57.0994 241.148 56.5085 241.398 55.9972C241.651 55.4858 242.003 55.0866 242.455 54.7997C242.909 54.5128 243.44 54.3693 244.048 54.3693C244.418 54.3693 244.776 54.4304 245.122 54.5526C245.469 54.6747 245.78 54.8665 246.055 55.1278C246.331 55.3892 246.548 55.7287 246.707 56.1463C246.866 56.5611 246.946 57.0653 246.946 57.6591V58.1108H241.743V57.1562H245.697C245.697 56.821 245.629 56.5241 245.493 56.2656C245.357 56.0043 245.165 55.7983 244.918 55.6477C244.673 55.4972 244.386 55.4219 244.057 55.4219C243.699 55.4219 243.386 55.5099 243.119 55.6861C242.855 55.8594 242.651 56.0866 242.506 56.3679C242.364 56.6463 242.293 56.9489 242.293 57.2756V58.0213C242.293 58.4588 242.369 58.831 242.523 59.1378C242.679 59.4446 242.896 59.679 243.175 59.8409C243.453 60 243.778 60.0795 244.151 60.0795C244.392 60.0795 244.612 60.0455 244.811 59.9773C245.01 59.9062 245.182 59.8011 245.327 59.6619C245.472 59.5227 245.582 59.3509 245.659 59.1463L246.865 59.3636C246.768 59.7187 246.595 60.0298 246.345 60.2969C246.098 60.5611 245.787 60.767 245.412 60.9148C245.04 61.0597 244.615 61.1321 244.138 61.1321ZM250.81 61.1278C250.282 61.1278 249.81 60.9929 249.395 60.723C248.983 60.4503 248.659 60.0625 248.424 59.5597C248.191 59.054 248.074 58.4474 248.074 57.7401C248.074 57.0327 248.192 56.4276 248.428 55.9247C248.667 55.4219 248.993 55.0369 249.408 54.7699C249.823 54.5028 250.293 54.3693 250.819 54.3693C251.225 54.3693 251.551 54.4375 251.799 54.5739C252.049 54.7074 252.242 54.8636 252.378 55.0426C252.517 55.2216 252.625 55.3793 252.702 55.5156H252.779V52.2727H254.053V61H252.809V59.9815H252.702C252.625 60.1207 252.515 60.2798 252.37 60.4588C252.228 60.6378 252.032 60.794 251.782 60.9276C251.532 61.0611 251.208 61.1278 250.81 61.1278ZM251.091 60.0412C251.458 60.0412 251.767 59.9446 252.02 59.7514C252.276 59.5554 252.469 59.2841 252.6 58.9375C252.733 58.5909 252.8 58.1875 252.8 57.7273C252.8 57.2727 252.735 56.875 252.604 56.5341C252.473 56.1932 252.282 55.9276 252.029 55.7372C251.776 55.5469 251.463 55.4517 251.091 55.4517C250.708 55.4517 250.388 55.5511 250.132 55.75C249.877 55.9489 249.684 56.2202 249.553 56.5639C249.425 56.9077 249.361 57.2955 249.361 57.7273C249.361 58.1648 249.426 58.5582 249.557 58.9077C249.688 59.2571 249.881 59.5341 250.137 59.7386C250.395 59.9403 250.713 60.0412 251.091 60.0412ZM258.322 61.1278C257.793 61.1278 257.322 60.9929 256.907 60.723C256.495 60.4503 256.171 60.0625 255.935 59.5597C255.702 59.054 255.586 58.4474 255.586 57.7401C255.586 57.0327 255.704 56.4276 255.94 55.9247C256.178 55.4219 256.505 55.0369 256.92 54.7699C257.334 54.5028 257.805 54.3693 258.33 54.3693C258.736 54.3693 259.063 54.4375 259.31 54.5739C259.56 54.7074 259.754 54.8636 259.89 55.0426C260.029 55.2216 260.137 55.3793 260.214 55.5156H260.29V52.2727H261.565V61H260.32V59.9815H260.214C260.137 60.1207 260.026 60.2798 259.881 60.4588C259.739 60.6378 259.543 60.794 259.293 60.9276C259.043 61.0611 258.719 61.1278 258.322 61.1278ZM258.603 60.0412C258.969 60.0412 259.279 59.9446 259.532 59.7514C259.788 59.5554 259.981 59.2841 260.111 58.9375C260.245 58.5909 260.312 58.1875 260.312 57.7273C260.312 57.2727 260.246 56.875 260.116 56.5341C259.985 56.1932 259.793 55.9276 259.54 55.7372C259.288 55.5469 258.975 55.4517 258.603 55.4517C258.219 55.4517 257.9 55.5511 257.644 55.75C257.388 55.9489 257.195 56.2202 257.065 56.5639C256.937 56.9077 256.873 57.2955 256.873 57.7273C256.873 58.1648 256.938 58.5582 257.069 58.9077C257.2 59.2571 257.393 59.5341 257.648 59.7386C257.907 59.9403 258.225 60.0412 258.603 60.0412ZM263.383 61V54.4545H264.657V61H263.383ZM264.027 53.4446C263.805 53.4446 263.615 53.3707 263.456 53.223C263.299 53.0724 263.221 52.8935 263.221 52.6861C263.221 52.4759 263.299 52.2969 263.456 52.1491C263.615 51.9986 263.805 51.9233 264.027 51.9233C264.248 51.9233 264.437 51.9986 264.593 52.1491C264.752 52.2969 264.832 52.4759 264.832 52.6861C264.832 52.8935 264.752 53.0724 264.593 53.223C264.437 53.3707 264.248 53.4446 264.027 53.4446ZM267.646 57.1136V61H266.371V54.4545H267.594V55.5199H267.675C267.826 55.1733 268.062 54.8949 268.383 54.6847C268.707 54.4744 269.114 54.3693 269.606 54.3693C270.052 54.3693 270.442 54.4631 270.778 54.6506C271.113 54.8352 271.373 55.1108 271.558 55.4773C271.742 55.8437 271.834 56.2969 271.834 56.8366V61H270.56V56.9901C270.56 56.5156 270.437 56.1449 270.19 55.8778C269.942 55.608 269.603 55.473 269.171 55.473C268.876 55.473 268.613 55.5369 268.383 55.6648C268.156 55.7926 267.975 55.9801 267.842 56.2273C267.711 56.4716 267.646 56.767 267.646 57.1136ZM276.288 63.5909C275.768 63.5909 275.32 63.5227 274.945 63.3864C274.573 63.25 274.269 63.0696 274.033 62.8452C273.798 62.6207 273.621 62.375 273.505 62.108L274.6 61.6562C274.677 61.7812 274.779 61.9134 274.907 62.0526C275.038 62.1946 275.214 62.3153 275.435 62.4148C275.66 62.5142 275.948 62.5639 276.3 62.5639C276.783 62.5639 277.183 62.446 277.498 62.2102C277.813 61.9773 277.971 61.6051 277.971 61.0937V59.8068H277.89C277.813 59.946 277.702 60.1009 277.558 60.2713C277.415 60.4418 277.219 60.5895 276.969 60.7145C276.719 60.8395 276.394 60.902 275.994 60.902C275.477 60.902 275.011 60.7812 274.596 60.5398C274.184 60.2955 273.857 59.9361 273.616 59.4616C273.377 58.9844 273.258 58.3977 273.258 57.7017C273.258 57.0057 273.376 56.4091 273.611 55.9119C273.85 55.4148 274.177 55.0341 274.592 54.7699C275.006 54.5028 275.477 54.3693 276.002 54.3693C276.408 54.3693 276.736 54.4375 276.986 54.5739C277.236 54.7074 277.431 54.8636 277.57 55.0426C277.712 55.2216 277.822 55.3793 277.898 55.5156H277.992V54.4545H279.241V61.1449C279.241 61.7074 279.11 62.169 278.849 62.5298C278.587 62.8906 278.234 63.1577 277.788 63.331C277.344 63.5043 276.844 63.5909 276.288 63.5909ZM276.275 59.8452C276.641 59.8452 276.951 59.7599 277.204 59.5895C277.459 59.4162 277.653 59.169 277.783 58.848C277.917 58.5241 277.984 58.1364 277.984 57.6847C277.984 57.2443 277.918 56.8565 277.788 56.5213C277.657 56.1861 277.465 55.9247 277.212 55.7372C276.959 55.5469 276.647 55.4517 276.275 55.4517C275.891 55.4517 275.572 55.5511 275.316 55.75C275.06 55.946 274.867 56.2131 274.736 56.5511C274.609 56.8892 274.545 57.267 274.545 57.6847C274.545 58.1136 274.61 58.4901 274.741 58.8139C274.871 59.1378 275.065 59.3906 275.32 59.5724C275.579 59.7543 275.897 59.8452 276.275 59.8452ZM284.228 61V52.2727H285.544V59.8665H289.499V61H284.228ZM293.656 61.1321C293.042 61.1321 292.507 60.9915 292.049 60.7102C291.592 60.429 291.237 60.0355 290.984 59.5298C290.731 59.0241 290.605 58.4332 290.605 57.7571C290.605 57.0781 290.731 56.4844 290.984 55.9759C291.237 55.4673 291.592 55.0724 292.049 54.7912C292.507 54.5099 293.042 54.3693 293.656 54.3693C294.27 54.3693 294.805 54.5099 295.262 54.7912C295.72 55.0724 296.075 55.4673 296.328 55.9759C296.581 56.4844 296.707 57.0781 296.707 57.7571C296.707 58.4332 296.581 59.0241 296.328 59.5298C296.075 60.0355 295.72 60.429 295.262 60.7102C294.805 60.9915 294.27 61.1321 293.656 61.1321ZM293.66 60.0625C294.058 60.0625 294.387 59.9574 294.649 59.7472C294.91 59.5369 295.103 59.2571 295.228 58.9077C295.356 58.5582 295.42 58.1733 295.42 57.7528C295.42 57.3352 295.356 56.9517 295.228 56.6023C295.103 56.25 294.91 55.9673 294.649 55.7543C294.387 55.5412 294.058 55.4347 293.66 55.4347C293.26 55.4347 292.927 55.5412 292.663 55.7543C292.402 55.9673 292.207 56.25 292.079 56.6023C291.954 56.9517 291.892 57.3352 291.892 57.7528C291.892 58.1733 291.954 58.5582 292.079 58.9077C292.207 59.2571 292.402 59.5369 292.663 59.7472C292.927 59.9574 293.26 60.0625 293.66 60.0625ZM300.886 61.1321C300.273 61.1321 299.737 60.9915 299.28 60.7102C298.822 60.429 298.467 60.0355 298.214 59.5298C297.962 59.0241 297.835 58.4332 297.835 57.7571C297.835 57.0781 297.962 56.4844 298.214 55.9759C298.467 55.4673 298.822 55.0724 299.28 54.7912C299.737 54.5099 300.273 54.3693 300.886 54.3693C301.5 54.3693 302.035 54.5099 302.493 54.7912C302.95 55.0724 303.305 55.4673 303.558 55.9759C303.811 56.4844 303.937 57.0781 303.937 57.7571C303.937 58.4332 303.811 59.0241 303.558 59.5298C303.305 60.0355 302.95 60.429 302.493 60.7102C302.035 60.9915 301.5 61.1321 300.886 61.1321ZM300.891 60.0625C301.288 60.0625 301.618 59.9574 301.879 59.7472C302.141 59.5369 302.334 59.2571 302.459 58.9077C302.587 58.5582 302.651 58.1733 302.651 57.7528C302.651 57.3352 302.587 56.9517 302.459 56.6023C302.334 56.25 302.141 55.9673 301.879 55.7543C301.618 55.5412 301.288 55.4347 300.891 55.4347C300.49 55.4347 300.158 55.5412 299.893 55.7543C299.632 55.9673 299.437 56.25 299.31 56.6023C299.185 56.9517 299.122 57.3352 299.122 57.7528C299.122 58.1733 299.185 58.5582 299.31 58.9077C299.437 59.2571 299.632 59.5369 299.893 59.7472C300.158 59.9574 300.49 60.0625 300.891 60.0625ZM306.532 58.7798L306.523 57.2244H306.745L309.353 54.4545H310.878L307.904 57.608H307.703L306.532 58.7798ZM305.36 61V52.2727H306.634V61H305.36ZM309.493 61L307.149 57.8892L308.027 56.9986L311.057 61H309.493ZM316.186 58.2855V54.4545H317.464V61H316.211V59.8665H316.143C315.993 60.2159 315.751 60.5071 315.419 60.7401C315.089 60.9702 314.679 61.0852 314.187 61.0852C313.767 61.0852 313.395 60.9929 313.071 60.8082C312.75 60.6207 312.497 60.3437 312.312 59.9773C312.13 59.6108 312.039 59.1577 312.039 58.6179V54.4545H313.314V58.4645C313.314 58.9105 313.437 59.2656 313.684 59.5298C313.931 59.794 314.252 59.9261 314.647 59.9261C314.886 59.9261 315.123 59.8665 315.359 59.7472C315.598 59.6278 315.795 59.4474 315.951 59.206C316.11 58.9645 316.189 58.6577 316.186 58.2855ZM319.176 63.4545V54.4545H320.42V55.5156H320.527C320.601 55.3793 320.707 55.2216 320.847 55.0426C320.986 54.8636 321.179 54.7074 321.426 54.5739C321.673 54.4375 322 54.3693 322.406 54.3693C322.935 54.3693 323.406 54.5028 323.821 54.7699C324.236 55.0369 324.561 55.4219 324.797 55.9247C325.035 56.4276 325.155 57.0327 325.155 57.7401C325.155 58.4474 325.037 59.054 324.801 59.5597C324.565 60.0625 324.241 60.4503 323.83 60.723C323.418 60.9929 322.947 61.1278 322.419 61.1278C322.021 61.1278 321.696 61.0611 321.443 60.9276C321.193 60.794 320.997 60.6378 320.855 60.4588C320.713 60.2798 320.604 60.1207 320.527 59.9815H320.45V63.4545H319.176ZM320.425 57.7273C320.425 58.1875 320.491 58.5909 320.625 58.9375C320.759 59.2841 320.952 59.5554 321.205 59.7514C321.457 59.9446 321.767 60.0412 322.134 60.0412C322.514 60.0412 322.832 59.9403 323.088 59.7386C323.344 59.5341 323.537 59.2571 323.668 58.9077C323.801 58.5582 323.868 58.1648 323.868 57.7273C323.868 57.2955 323.803 56.9077 323.672 56.5639C323.544 56.2202 323.351 55.9489 323.092 55.75C322.837 55.5511 322.517 55.4517 322.134 55.4517C321.764 55.4517 321.452 55.5469 321.196 55.7372C320.943 55.9276 320.751 56.1932 320.621 56.5341C320.49 56.875 320.425 57.2727 320.425 57.7273Z" fill="black"/>
<rect x="185.5" y="360.5" width="26" height="135" rx="2.5" transform="rotate(90 185.5 360.5)" fill="#F2F7BA" stroke="black"/>
<path d="M67.1289 371.422C67.0835 371.019 66.896 370.707 66.5664 370.485C66.2369 370.261 65.8221 370.148 65.3221 370.148C64.9641 370.148 64.6545 370.205 64.3931 370.319C64.1317 370.43 63.9286 370.583 63.7837 370.779C63.6417 370.972 63.5707 371.192 63.5707 371.44C63.5707 371.647 63.619 371.826 63.7156 371.976C63.815 372.127 63.9442 372.253 64.1033 372.356C64.2653 372.455 64.4386 372.539 64.6232 372.607C64.8079 372.672 64.9854 372.726 65.1559 372.769L66.0082 372.991C66.2866 373.059 66.5721 373.151 66.8647 373.268C67.1573 373.384 67.4286 373.538 67.6786 373.728C67.9286 373.918 68.1303 374.154 68.2837 374.435C68.44 374.716 68.5181 375.053 68.5181 375.445C68.5181 375.94 68.3903 376.378 68.1346 376.762C67.8817 377.145 67.5138 377.448 67.0309 377.67C66.5508 377.891 65.9698 378.002 65.288 378.002C64.6346 378.002 64.0692 377.898 63.592 377.691C63.1147 377.484 62.7411 377.19 62.4712 376.809C62.2013 376.425 62.0522 375.971 62.0238 375.445H63.3448C63.3704 375.761 63.4727 376.023 63.6516 376.234C63.8335 376.441 64.065 376.596 64.3462 376.698C64.6303 376.797 64.9414 376.847 65.2795 376.847C65.6516 376.847 65.9826 376.789 66.2724 376.672C66.565 376.553 66.7951 376.388 66.9627 376.178C67.1303 375.965 67.2141 375.716 67.2141 375.432C67.2141 375.174 67.1403 374.962 66.9925 374.797C66.8477 374.633 66.6502 374.496 66.4002 374.388C66.1531 374.28 65.8732 374.185 65.5607 374.103L64.5295 373.822C63.8306 373.631 63.2766 373.351 62.8675 372.982C62.4613 372.613 62.2582 372.124 62.2582 371.516C62.2582 371.013 62.3945 370.574 62.6673 370.199C62.94 369.824 63.3093 369.533 63.7752 369.326C64.2411 369.116 64.7667 369.011 65.3519 369.011C65.9428 369.011 66.4641 369.114 66.9158 369.322C67.3704 369.529 67.7283 369.815 67.9897 370.178C68.2511 370.539 68.3874 370.954 68.3988 371.422H67.1289ZM72.8104 377.989C72.1655 377.989 71.6101 377.851 71.1442 377.576C70.6811 377.297 70.3232 376.907 70.0703 376.404C69.8203 375.898 69.6953 375.306 69.6953 374.627C69.6953 373.957 69.8203 373.366 70.0703 372.854C70.3232 372.343 70.6754 371.944 71.1271 371.657C71.5817 371.37 72.1129 371.226 72.7209 371.226C73.0902 371.226 73.4482 371.288 73.7947 371.41C74.1413 371.532 74.4524 371.724 74.728 371.985C75.0036 372.246 75.2209 372.586 75.38 373.003C75.5391 373.418 75.6186 373.922 75.6186 374.516V374.968H70.4155V374.013H74.37C74.37 373.678 74.3018 373.381 74.1655 373.123C74.0291 372.861 73.8374 372.655 73.5902 372.505C73.3459 372.354 73.0589 372.279 72.7294 372.279C72.3714 372.279 72.0589 372.367 71.7919 372.543C71.5277 372.716 71.3232 372.944 71.1783 373.225C71.0362 373.503 70.9652 373.806 70.9652 374.133V374.878C70.9652 375.316 71.0419 375.688 71.1953 375.995C71.3516 376.302 71.5689 376.536 71.8473 376.698C72.1257 376.857 72.451 376.937 72.8232 376.937C73.0646 376.937 73.2848 376.903 73.4837 376.834C73.6825 376.763 73.8544 376.658 73.9993 376.519C74.1442 376.38 74.255 376.208 74.3317 376.003L75.5376 376.221C75.4411 376.576 75.2678 376.887 75.0178 377.154C74.7706 377.418 74.4595 377.624 74.0845 377.772C73.7124 377.917 73.2876 377.989 72.8104 377.989ZM81.9371 372.91L80.7823 373.114C80.734 372.966 80.6573 372.826 80.5522 372.692C80.4499 372.559 80.3107 372.449 80.1346 372.364C79.9585 372.279 79.7383 372.236 79.4741 372.236C79.1133 372.236 78.8121 372.317 78.5707 372.479C78.3292 372.638 78.2085 372.844 78.2085 373.097C78.2085 373.316 78.2894 373.492 78.4513 373.626C78.6133 373.759 78.8746 373.868 79.2354 373.954L80.2752 374.192C80.8775 374.332 81.3263 374.546 81.6218 374.836C81.9173 375.126 82.065 375.502 82.065 375.965C82.065 376.357 81.9513 376.707 81.7241 377.013C81.4996 377.317 81.1857 377.556 80.7823 377.729C80.3817 377.903 79.9173 377.989 79.3888 377.989C78.6559 377.989 78.0579 377.833 77.5948 377.52C77.1317 377.205 76.8477 376.758 76.7425 376.178L77.9741 375.991C78.0508 376.312 78.2085 376.555 78.4471 376.719C78.6857 376.881 78.9968 376.962 79.3803 376.962C79.7979 376.962 80.1317 376.876 80.3817 376.702C80.6317 376.526 80.7567 376.312 80.7567 376.059C80.7567 375.854 80.68 375.682 80.5266 375.543C80.3761 375.404 80.1445 375.299 79.832 375.228L78.7241 374.985C78.1133 374.846 77.6616 374.624 77.369 374.32C77.0792 374.016 76.9343 373.631 76.9343 373.165C76.9343 372.779 77.0423 372.441 77.2582 372.151C77.4741 371.861 77.7724 371.636 78.1531 371.474C78.5337 371.309 78.9698 371.226 79.4613 371.226C80.1687 371.226 80.7255 371.38 81.1317 371.687C81.538 371.991 81.8065 372.398 81.9371 372.91ZM88.3707 372.91L87.2159 373.114C87.1676 372.966 87.0909 372.826 86.9858 372.692C86.8835 372.559 86.7443 372.449 86.5682 372.364C86.392 372.279 86.1719 372.236 85.9077 372.236C85.5469 372.236 85.2457 372.317 85.0043 372.479C84.7628 372.638 84.642 372.844 84.642 373.097C84.642 373.316 84.723 373.492 84.8849 373.626C85.0469 373.759 85.3082 373.868 85.669 373.954L86.7088 374.192C87.3111 374.332 87.7599 374.546 88.0554 374.836C88.3509 375.126 88.4986 375.502 88.4986 375.965C88.4986 376.357 88.3849 376.707 88.1577 377.013C87.9332 377.317 87.6193 377.556 87.2159 377.729C86.8153 377.903 86.3509 377.989 85.8224 377.989C85.0895 377.989 84.4915 377.833 84.0284 377.52C83.5653 377.205 83.2813 376.758 83.1761 376.178L84.4077 375.991C84.4844 376.312 84.642 376.555 84.8807 376.719C85.1193 376.881 85.4304 376.962 85.8139 376.962C86.2315 376.962 86.5653 376.876 86.8153 376.702C87.0653 376.526 87.1903 376.312 87.1903 376.059C87.1903 375.854 87.1136 375.682 86.9602 375.543C86.8097 375.404 86.5781 375.299 86.2656 375.228L85.1577 374.985C84.5469 374.846 84.0952 374.624 83.8026 374.32C83.5128 374.016 83.3679 373.631 83.3679 373.165C83.3679 372.779 83.4759 372.441 83.6918 372.151C83.9077 371.861 84.206 371.636 84.5866 371.474C84.9673 371.309 85.4034 371.226 85.8949 371.226C86.6023 371.226 87.1591 371.38 87.5653 371.687C87.9716 371.991 88.2401 372.398 88.3707 372.91ZM89.8995 377.857V371.312H91.1737V377.857H89.8995ZM90.543 370.302C90.3214 370.302 90.131 370.228 89.9719 370.08C89.8157 369.93 89.7376 369.751 89.7376 369.543C89.7376 369.333 89.8157 369.154 89.9719 369.006C90.131 368.856 90.3214 368.78 90.543 368.78C90.7646 368.78 90.9535 368.856 91.1097 369.006C91.2688 369.154 91.3484 369.333 91.3484 369.543C91.3484 369.751 91.2688 369.93 91.1097 370.08C90.9535 370.228 90.7646 370.302 90.543 370.302ZM95.6449 377.989C95.0313 377.989 94.4957 377.849 94.0384 377.567C93.581 377.286 93.2259 376.893 92.973 376.387C92.7202 375.881 92.5938 375.29 92.5938 374.614C92.5938 373.935 92.7202 373.341 92.973 372.833C93.2259 372.324 93.581 371.93 94.0384 371.648C94.4957 371.367 95.0313 371.226 95.6449 371.226C96.2585 371.226 96.794 371.367 97.2514 371.648C97.7088 371.93 98.0639 372.324 98.3168 372.833C98.5696 373.341 98.696 373.935 98.696 374.614C98.696 375.29 98.5696 375.881 98.3168 376.387C98.0639 376.893 97.7088 377.286 97.2514 377.567C96.794 377.849 96.2585 377.989 95.6449 377.989ZM95.6491 376.92C96.0469 376.92 96.3764 376.815 96.6378 376.604C96.8991 376.394 97.0923 376.114 97.2173 375.765C97.3452 375.415 97.4091 375.03 97.4091 374.61C97.4091 374.192 97.3452 373.809 97.2173 373.459C97.0923 373.107 96.8991 372.824 96.6378 372.611C96.3764 372.398 96.0469 372.292 95.6491 372.292C95.2486 372.292 94.9162 372.398 94.652 372.611C94.3906 372.824 94.196 373.107 94.0682 373.459C93.9432 373.809 93.8807 374.192 93.8807 374.61C93.8807 375.03 93.9432 375.415 94.0682 375.765C94.196 376.114 94.3906 376.394 94.652 376.604C94.9162 376.815 95.2486 376.92 95.6491 376.92ZM101.392 373.971V377.857H100.118V371.312H101.341V372.377H101.422C101.573 372.03 101.809 371.752 102.13 371.542C102.453 371.332 102.861 371.226 103.353 371.226C103.799 371.226 104.189 371.32 104.525 371.508C104.86 371.692 105.12 371.968 105.304 372.334C105.489 372.701 105.581 373.154 105.581 373.694V377.857H104.307V373.847C104.307 373.373 104.184 373.002 103.936 372.735C103.689 372.465 103.35 372.33 102.918 372.33C102.623 372.33 102.36 372.394 102.13 372.522C101.902 372.65 101.722 372.837 101.588 373.084C101.458 373.329 101.392 373.624 101.392 373.971ZM110.568 377.857V369.13H116.04V370.263H111.885V372.922H115.754V374.052H111.885V376.724H116.091V377.857H110.568ZM117.696 377.857V371.312H118.919V372.377H119C119.137 372.016 119.36 371.735 119.669 371.533C119.979 371.329 120.35 371.226 120.782 371.226C121.219 371.226 121.586 371.329 121.881 371.533C122.179 371.738 122.4 372.019 122.542 372.377H122.61C122.766 372.028 123.015 371.749 123.355 371.542C123.696 371.332 124.103 371.226 124.574 371.226C125.168 371.226 125.652 371.413 126.027 371.785C126.405 372.157 126.594 372.718 126.594 373.468V377.857H125.32V373.587C125.32 373.144 125.199 372.823 124.958 372.624C124.716 372.425 124.428 372.326 124.093 372.326C123.678 372.326 123.355 372.454 123.125 372.709C122.895 372.962 122.78 373.288 122.78 373.685V377.857H121.51V373.506C121.51 373.151 121.4 372.866 121.178 372.65C120.956 372.434 120.668 372.326 120.313 372.326C120.071 372.326 119.848 372.39 119.644 372.518C119.442 372.643 119.279 372.817 119.154 373.042C119.032 373.266 118.971 373.526 118.971 373.822V377.857H117.696ZM128.404 377.857V369.13H129.678V372.373H129.755C129.829 372.236 129.935 372.079 130.075 371.9C130.214 371.721 130.407 371.565 130.654 371.431C130.901 371.295 131.228 371.226 131.634 371.226C132.163 371.226 132.634 371.36 133.049 371.627C133.464 371.894 133.789 372.279 134.025 372.782C134.263 373.285 134.383 373.89 134.383 374.597C134.383 375.305 134.265 375.911 134.029 376.417C133.793 376.92 133.469 377.307 133.058 377.58C132.646 377.85 132.175 377.985 131.647 377.985C131.249 377.985 130.924 377.918 130.671 377.785C130.421 377.651 130.225 377.495 130.083 377.316C129.941 377.137 129.832 376.978 129.755 376.839H129.648V377.857H128.404ZM129.653 374.584C129.653 375.045 129.719 375.448 129.853 375.795C129.987 376.141 130.18 376.413 130.433 376.609C130.685 376.802 130.995 376.898 131.362 376.898C131.742 376.898 132.06 376.797 132.316 376.596C132.572 376.391 132.765 376.114 132.896 375.765C133.029 375.415 133.096 375.022 133.096 374.584C133.096 374.153 133.031 373.765 132.9 373.421C132.772 373.077 132.579 372.806 132.32 372.607C132.065 372.408 131.745 372.309 131.362 372.309C130.992 372.309 130.68 372.404 130.424 372.594C130.171 372.785 129.979 373.05 129.849 373.391C129.718 373.732 129.653 374.13 129.653 374.584ZM138.635 377.989C137.99 377.989 137.434 377.851 136.968 377.576C136.505 377.297 136.147 376.907 135.895 376.404C135.645 375.898 135.52 375.306 135.52 374.627C135.52 373.957 135.645 373.366 135.895 372.854C136.147 372.343 136.5 371.944 136.951 371.657C137.406 371.37 137.937 371.226 138.545 371.226C138.914 371.226 139.272 371.288 139.619 371.41C139.966 371.532 140.277 371.724 140.552 371.985C140.828 372.246 141.045 372.586 141.204 373.003C141.363 373.418 141.443 373.922 141.443 374.516V374.968H136.24V374.013H140.194C140.194 373.678 140.126 373.381 139.99 373.123C139.853 372.861 139.662 372.655 139.414 372.505C139.17 372.354 138.883 372.279 138.554 372.279C138.196 372.279 137.883 372.367 137.616 372.543C137.352 372.716 137.147 372.944 137.002 373.225C136.86 373.503 136.789 373.806 136.789 374.133V374.878C136.789 375.316 136.866 375.688 137.02 375.995C137.176 376.302 137.393 376.536 137.672 376.698C137.95 376.857 138.275 376.937 138.647 376.937C138.889 376.937 139.109 376.903 139.308 376.834C139.507 376.763 139.679 376.658 139.824 376.519C139.968 376.38 140.079 376.208 140.156 376.003L141.362 376.221C141.265 376.576 141.092 376.887 140.842 377.154C140.595 377.418 140.284 377.624 139.909 377.772C139.537 377.917 139.112 377.989 138.635 377.989ZM145.307 377.985C144.778 377.985 144.307 377.85 143.892 377.58C143.48 377.307 143.156 376.92 142.92 376.417C142.688 375.911 142.571 375.305 142.571 374.597C142.571 373.89 142.689 373.285 142.925 372.782C143.163 372.279 143.49 371.894 143.905 371.627C144.32 371.36 144.79 371.226 145.315 371.226C145.722 371.226 146.048 371.295 146.295 371.431C146.545 371.565 146.739 371.721 146.875 371.9C147.014 372.079 147.122 372.236 147.199 372.373H147.276V369.13H148.55V377.857H147.305V376.839H147.199C147.122 376.978 147.011 377.137 146.866 377.316C146.724 377.495 146.528 377.651 146.278 377.785C146.028 377.918 145.705 377.985 145.307 377.985ZM145.588 376.898C145.955 376.898 146.264 376.802 146.517 376.609C146.773 376.413 146.966 376.141 147.097 375.795C147.23 375.448 147.297 375.045 147.297 374.584C147.297 374.13 147.232 373.732 147.101 373.391C146.97 373.05 146.778 372.785 146.526 372.594C146.273 372.404 145.96 372.309 145.588 372.309C145.205 372.309 144.885 372.408 144.629 372.607C144.374 372.806 144.18 373.077 144.05 373.421C143.922 373.765 143.858 374.153 143.858 374.584C143.858 375.022 143.923 375.415 144.054 375.765C144.185 376.114 144.378 376.391 144.634 376.596C144.892 376.797 145.21 376.898 145.588 376.898ZM152.819 377.985C152.29 377.985 151.819 377.85 151.404 377.58C150.992 377.307 150.668 376.92 150.432 376.417C150.199 375.911 150.083 375.305 150.083 374.597C150.083 373.89 150.201 373.285 150.436 372.782C150.675 372.279 151.002 371.894 151.417 371.627C151.831 371.36 152.301 371.226 152.827 371.226C153.233 371.226 153.56 371.295 153.807 371.431C154.057 371.565 154.25 371.721 154.387 371.9C154.526 372.079 154.634 372.236 154.711 372.373H154.787V369.13H156.061V377.857H154.817V376.839H154.711C154.634 376.978 154.523 377.137 154.378 377.316C154.236 377.495 154.04 377.651 153.79 377.785C153.54 377.918 153.216 377.985 152.819 377.985ZM153.1 376.898C153.466 376.898 153.776 376.802 154.029 376.609C154.284 376.413 154.478 376.141 154.608 375.795C154.742 375.448 154.809 375.045 154.809 374.584C154.809 374.13 154.743 373.732 154.613 373.391C154.482 373.05 154.29 372.785 154.037 372.594C153.784 372.404 153.472 372.309 153.1 372.309C152.716 372.309 152.397 372.408 152.141 372.607C151.885 372.806 151.692 373.077 151.561 373.421C151.434 373.765 151.37 374.153 151.37 374.584C151.37 375.022 151.435 375.415 151.566 375.765C151.696 376.114 151.89 376.391 152.145 376.596C152.404 376.797 152.722 376.898 153.1 376.898ZM157.88 377.857V371.312H159.154V377.857H157.88ZM158.523 370.302C158.302 370.302 158.112 370.228 157.952 370.08C157.796 369.93 157.718 369.751 157.718 369.543C157.718 369.333 157.796 369.154 157.952 369.006C158.112 368.856 158.302 368.78 158.523 368.78C158.745 368.78 158.934 368.856 159.09 369.006C159.249 369.154 159.329 369.333 159.329 369.543C159.329 369.751 159.249 369.93 159.09 370.08C158.934 370.228 158.745 370.302 158.523 370.302ZM162.142 373.971V377.857H160.868V371.312H162.091V372.377H162.172C162.323 372.03 162.559 371.752 162.88 371.542C163.203 371.332 163.611 371.226 164.103 371.226C164.549 371.226 164.939 371.32 165.275 371.508C165.61 371.692 165.87 371.968 166.054 372.334C166.239 372.701 166.331 373.154 166.331 373.694V377.857H165.057V373.847C165.057 373.373 164.934 373.002 164.686 372.735C164.439 372.465 164.1 372.33 163.668 372.33C163.373 372.33 163.11 372.394 162.88 372.522C162.652 372.65 162.472 372.837 162.338 373.084C162.208 373.329 162.142 373.624 162.142 373.971ZM170.784 380.448C170.265 380.448 169.817 380.38 169.442 380.243C169.07 380.107 168.766 379.927 168.53 379.702C168.294 379.478 168.118 379.232 168.002 378.965L169.097 378.513C169.174 378.638 169.276 378.77 169.404 378.91C169.534 379.052 169.711 379.172 169.932 379.272C170.157 379.371 170.445 379.421 170.797 379.421C171.28 379.421 171.679 379.303 171.995 379.067C172.31 378.834 172.468 378.462 172.468 377.951V376.664H172.387C172.31 376.803 172.199 376.958 172.054 377.128C171.912 377.299 171.716 377.447 171.466 377.572C171.216 377.697 170.891 377.759 170.49 377.759C169.973 377.759 169.507 377.638 169.093 377.397C168.681 377.153 168.354 376.793 168.113 376.319C167.874 375.841 167.755 375.255 167.755 374.559C167.755 373.863 167.873 373.266 168.108 372.769C168.347 372.272 168.674 371.891 169.088 371.627C169.503 371.36 169.973 371.226 170.499 371.226C170.905 371.226 171.233 371.295 171.483 371.431C171.733 371.565 171.928 371.721 172.067 371.9C172.209 372.079 172.319 372.236 172.395 372.373H172.489V371.312H173.738V378.002C173.738 378.565 173.607 379.026 173.346 379.387C173.084 379.748 172.73 380.015 172.284 380.188C171.841 380.361 171.341 380.448 170.784 380.448ZM170.772 376.702C171.138 376.702 171.448 376.617 171.701 376.447C171.956 376.273 172.15 376.026 172.28 375.705C172.414 375.381 172.48 374.993 172.48 374.542C172.48 374.101 172.415 373.714 172.284 373.378C172.154 373.043 171.962 372.782 171.709 372.594C171.456 372.404 171.144 372.309 170.772 372.309C170.388 372.309 170.069 372.408 169.813 372.607C169.557 372.803 169.364 373.07 169.233 373.408C169.105 373.746 169.042 374.124 169.042 374.542C169.042 374.971 169.107 375.347 169.238 375.671C169.368 375.995 169.561 376.248 169.817 376.43C170.076 376.611 170.394 376.702 170.772 376.702Z" fill="black"/>
<path d="M228.818 6.36364C228.758 5.85985 228.516 5.46875 228.092 5.19034C227.668 4.91193 227.147 4.77273 226.531 4.77273C226.08 4.77273 225.686 4.84564 225.348 4.99148C225.013 5.13731 224.751 5.33783 224.562 5.59304C224.376 5.84825 224.284 6.13826 224.284 6.46307C224.284 6.73485 224.348 6.96851 224.478 7.16406C224.61 7.3563 224.779 7.51705 224.985 7.64631C225.19 7.77225 225.406 7.87666 225.631 7.95952C225.856 8.03906 226.063 8.10369 226.252 8.15341L227.286 8.43182C227.552 8.50142 227.847 8.59754 228.171 8.72017C228.5 8.8428 228.813 9.01018 229.111 9.2223C229.413 9.43111 229.661 9.69957 229.857 10.0277C230.052 10.3558 230.15 10.7585 230.15 11.2358C230.15 11.786 230.006 12.2831 229.718 12.7273C229.433 13.1714 229.015 13.5244 228.465 13.7862C227.918 14.0481 227.253 14.179 226.471 14.179C225.742 14.179 225.111 14.0613 224.577 13.826C224.047 13.5907 223.629 13.2625 223.324 12.8416C223.023 12.4207 222.852 11.9318 222.812 11.375H224.085C224.118 11.7595 224.247 12.0777 224.473 12.3295C224.701 12.5781 224.99 12.7637 225.338 12.8864C225.689 13.0057 226.067 13.0653 226.471 13.0653C226.942 13.0653 227.364 12.9891 227.739 12.8366C228.113 12.6809 228.41 12.4654 228.629 12.1903C228.848 11.9119 228.957 11.5871 228.957 11.2159C228.957 10.8778 228.862 10.6027 228.674 10.3906C228.485 10.1785 228.236 10.0062 227.928 9.87358C227.62 9.741 227.286 9.625 226.929 9.52557L225.676 9.16761C224.88 8.93892 224.251 8.61245 223.786 8.18821C223.322 7.76397 223.09 7.20881 223.09 6.52273C223.09 5.95265 223.245 5.45549 223.553 5.03125C223.864 4.60369 224.282 4.27225 224.806 4.03693C225.333 3.7983 225.921 3.67898 226.571 3.67898C227.227 3.67898 227.81 3.79664 228.321 4.03196C228.831 4.26397 229.235 4.58215 229.534 4.98651C229.835 5.39086 229.994 5.8499 230.011 6.36364H228.818ZM232.018 16.8636V6.36364H233.152V7.5767H233.291C233.377 7.44413 233.496 7.27509 233.649 7.0696C233.805 6.8608 234.027 6.67519 234.315 6.51278C234.607 6.34706 235.001 6.2642 235.498 6.2642C236.141 6.2642 236.708 6.42495 237.199 6.74645C237.689 7.06794 238.072 7.52367 238.347 8.11364C238.622 8.7036 238.76 9.39962 238.76 10.2017C238.76 11.0104 238.622 11.7114 238.347 12.3047C238.072 12.8946 237.691 13.352 237.204 13.6768C236.716 13.9983 236.155 14.1591 235.518 14.1591C235.028 14.1591 234.635 14.0779 234.34 13.9155C234.045 13.7498 233.818 13.5625 233.659 13.3537C233.5 13.1416 233.377 12.9659 233.291 12.8267H233.191V16.8636H232.018ZM233.172 10.1818C233.172 10.7585 233.256 11.2673 233.425 11.7081C233.594 12.1456 233.841 12.4886 234.166 12.7372C234.491 12.9825 234.888 13.1051 235.359 13.1051C235.85 13.1051 236.259 12.9759 236.587 12.7173C236.919 12.4555 237.167 12.1042 237.333 11.6634C237.502 11.2192 237.586 10.7254 237.586 10.1818C237.586 9.64489 237.504 9.16098 237.338 8.73011C237.175 8.29593 236.928 7.95289 236.597 7.70099C236.269 7.44579 235.856 7.31818 235.359 7.31818C234.882 7.31818 234.481 7.43916 234.156 7.68111C233.831 7.91974 233.586 8.2545 233.42 8.68537C233.254 9.11293 233.172 9.61174 233.172 10.1818ZM240.549 14V6.36364H241.723V14H240.549ZM241.146 5.09091C240.917 5.09091 240.72 5.01302 240.554 4.85724C240.392 4.70147 240.311 4.5142 240.311 4.29545C240.311 4.0767 240.392 3.88944 240.554 3.73366C240.72 3.57789 240.917 3.5 241.146 3.5C241.375 3.5 241.57 3.57789 241.733 3.73366C241.898 3.88944 241.981 4.0767 241.981 4.29545C241.981 4.5142 241.898 4.70147 241.733 4.85724C241.57 5.01302 241.375 5.09091 241.146 5.09091ZM244.965 11.2159L244.946 9.7642H245.184L248.525 6.36364H249.977L246.417 9.96307H246.318L244.965 11.2159ZM243.872 14V3.81818H245.045V14H243.872ZM248.724 14L245.741 10.2216L246.576 9.40625L250.215 14H248.724ZM254.374 14.1591C253.638 14.1591 253.004 13.9967 252.47 13.6719C251.94 13.3438 251.53 12.8864 251.242 12.2997C250.957 11.7098 250.815 11.0237 250.815 10.2415C250.815 9.45928 250.957 8.76989 251.242 8.1733C251.53 7.57339 251.931 7.10606 252.445 6.77131C252.962 6.43324 253.565 6.2642 254.255 6.2642C254.653 6.2642 255.045 6.33049 255.433 6.46307C255.821 6.59564 256.174 6.81108 256.492 7.10938C256.81 7.40436 257.064 7.79545 257.253 8.28267C257.442 8.76989 257.536 9.36979 257.536 10.0824V10.5795H251.65V9.56534H256.343C256.343 9.13447 256.257 8.75 256.084 8.41193C255.915 8.07386 255.673 7.80705 255.359 7.61151C255.047 7.41596 254.679 7.31818 254.255 7.31818C253.788 7.31818 253.383 7.43419 253.042 7.66619C252.704 7.89489 252.444 8.19318 252.261 8.56108C252.079 8.92898 251.988 9.32339 251.988 9.74432V10.4205C251.988 10.9972 252.087 11.486 252.286 11.8871C252.488 12.2848 252.768 12.5881 253.126 12.7969C253.484 13.0024 253.9 13.1051 254.374 13.1051C254.682 13.1051 254.961 13.062 255.209 12.9759C255.461 12.8864 255.678 12.7538 255.861 12.5781C256.043 12.3991 256.184 12.1771 256.283 11.9119L257.417 12.2301C257.297 12.6146 257.097 12.9527 256.815 13.2443C256.534 13.5327 256.186 13.758 255.771 13.9205C255.357 14.0795 254.891 14.1591 254.374 14.1591ZM262.861 4.91193V3.81818H270.497V4.91193H267.295V14H266.062V4.91193H262.861ZM271.448 14V6.36364H272.581V7.51705H272.661C272.8 7.1392 273.052 6.83262 273.417 6.5973C273.781 6.36198 274.192 6.24432 274.65 6.24432C274.736 6.24432 274.843 6.24597 274.973 6.24929C275.102 6.2526 275.2 6.25758 275.266 6.2642V7.45739C275.226 7.44744 275.135 7.43253 274.993 7.41264C274.853 7.38944 274.706 7.37784 274.55 7.37784C274.179 7.37784 273.848 7.45573 273.556 7.61151C273.267 7.76397 273.039 7.97609 272.87 8.24787C272.704 8.51634 272.621 8.82292 272.621 9.16761V14H271.448ZM278.904 14.179C278.42 14.179 277.981 14.0878 277.587 13.9055C277.192 13.7199 276.879 13.4531 276.647 13.1051C276.415 12.7538 276.299 12.3295 276.299 11.8324C276.299 11.3949 276.385 11.0402 276.557 10.7685C276.73 10.4934 276.96 10.2779 277.248 10.1222C277.537 9.96638 277.855 9.85038 278.203 9.77415C278.554 9.6946 278.907 9.63163 279.262 9.58523C279.726 9.52557 280.102 9.48082 280.391 9.45099C280.682 9.41785 280.894 9.36316 281.027 9.28693C281.163 9.2107 281.231 9.07812 281.231 8.8892V8.84943C281.231 8.3589 281.097 7.97775 280.828 7.70597C280.563 7.43419 280.16 7.2983 279.62 7.2983C279.06 7.2983 278.621 7.42093 278.302 7.66619C277.984 7.91146 277.761 8.1733 277.631 8.4517L276.518 8.05398C276.717 7.58996 276.982 7.22869 277.313 6.97017C277.648 6.70833 278.012 6.52604 278.407 6.4233C278.805 6.31723 279.196 6.2642 279.58 6.2642C279.825 6.2642 280.107 6.29403 280.425 6.35369C280.747 6.41004 281.057 6.5277 281.355 6.70668C281.657 6.88565 281.907 7.15578 282.106 7.51705C282.305 7.87831 282.404 8.36222 282.404 8.96875V14H281.231V12.9659H281.171C281.092 13.1316 280.959 13.3089 280.773 13.4979C280.588 13.6868 280.341 13.8475 280.033 13.9801C279.724 14.1127 279.348 14.179 278.904 14.179ZM279.083 13.125C279.547 13.125 279.938 13.0339 280.256 12.8516C280.578 12.6693 280.82 12.4339 280.982 12.1456C281.148 11.8572 281.231 11.554 281.231 11.2358V10.1619C281.181 10.2216 281.072 10.2763 280.903 10.326C280.737 10.3724 280.545 10.4138 280.326 10.4503C280.11 10.4834 279.9 10.5133 279.695 10.5398C279.492 10.563 279.328 10.5829 279.202 10.5994C278.897 10.6392 278.612 10.7038 278.347 10.7933C278.085 10.8795 277.873 11.0104 277.711 11.1861C277.552 11.3584 277.472 11.5937 277.472 11.892C277.472 12.2997 277.623 12.608 277.925 12.8168C278.23 13.0223 278.616 13.125 279.083 13.125ZM284.546 14V6.36364H285.719V14H284.546ZM285.142 5.09091C284.913 5.09091 284.716 5.01302 284.551 4.85724C284.388 4.70147 284.307 4.5142 284.307 4.29545C284.307 4.0767 284.388 3.88944 284.551 3.73366C284.716 3.57789 284.913 3.5 285.142 3.5C285.371 3.5 285.566 3.57789 285.729 3.73366C285.895 3.88944 285.977 4.0767 285.977 4.29545C285.977 4.5142 285.895 4.70147 285.729 4.85724C285.566 5.01302 285.371 5.09091 285.142 5.09091ZM289.041 9.40625V14H287.868V6.36364H289.001V7.55682H289.101C289.28 7.16903 289.552 6.85748 289.916 6.62216C290.281 6.38352 290.751 6.2642 291.328 6.2642C291.845 6.2642 292.297 6.37027 292.685 6.58239C293.073 6.79119 293.375 7.10938 293.59 7.53693C293.806 7.96117 293.913 8.49811 293.913 9.14773V14H292.74V9.22727C292.74 8.62737 292.584 8.16004 292.273 7.82528C291.961 7.48722 291.534 7.31818 290.99 7.31818C290.615 7.31818 290.281 7.39938 289.986 7.56179C289.694 7.72419 289.464 7.96117 289.295 8.27273C289.126 8.58428 289.041 8.96212 289.041 9.40625Z" fill="black"/>
<path d="M195.41 419.818H196.763L197.896 421.31L198.194 421.707L199.885 423.955H198.532L197.419 422.463L197.14 422.085L195.41 419.818ZM200.302 417.909C200.302 418.983 200.108 419.911 199.721 420.693C199.333 421.475 198.801 422.079 198.125 422.503C197.449 422.927 196.676 423.139 195.808 423.139C194.94 423.139 194.167 422.927 193.491 422.503C192.815 422.079 192.283 421.475 191.895 420.693C191.508 419.911 191.314 418.983 191.314 417.909C191.314 416.835 191.508 415.907 191.895 415.125C192.283 414.343 192.815 413.74 193.491 413.315C194.167 412.891 194.94 412.679 195.808 412.679C196.676 412.679 197.449 412.891 198.125 413.315C198.801 413.74 199.333 414.343 199.721 415.125C200.108 415.907 200.302 416.835 200.302 417.909ZM199.109 417.909C199.109 417.027 198.962 416.283 198.667 415.677C198.375 415.07 197.979 414.611 197.479 414.3C196.981 413.988 196.425 413.832 195.808 413.832C195.192 413.832 194.633 413.988 194.133 414.3C193.635 414.611 193.239 415.07 192.944 415.677C192.653 416.283 192.507 417.027 192.507 417.909C192.507 418.791 192.653 419.535 192.944 420.141C193.239 420.748 193.635 421.207 194.133 421.518C194.633 421.83 195.192 421.986 195.808 421.986C196.425 421.986 196.981 421.83 197.479 421.518C197.979 421.207 198.375 420.748 198.667 420.141C198.962 419.535 199.109 418.791 199.109 417.909ZM207.029 419.878V415.364H208.202V423H207.029V421.707H206.949C206.77 422.095 206.492 422.425 206.114 422.697C205.736 422.965 205.259 423.099 204.682 423.099C204.205 423.099 203.781 422.995 203.41 422.786C203.038 422.574 202.747 422.256 202.535 421.832C202.323 421.404 202.216 420.866 202.216 420.216V415.364H203.39V420.136C203.39 420.693 203.546 421.137 203.857 421.469C204.172 421.8 204.573 421.966 205.06 421.966C205.352 421.966 205.648 421.891 205.95 421.742C206.255 421.593 206.51 421.364 206.716 421.056C206.925 420.748 207.029 420.355 207.029 419.878ZM213.553 423.159C212.817 423.159 212.182 422.997 211.649 422.672C211.118 422.344 210.709 421.886 210.421 421.3C210.136 420.71 209.993 420.024 209.993 419.241C209.993 418.459 210.136 417.77 210.421 417.173C210.709 416.573 211.11 416.106 211.624 415.771C212.141 415.433 212.744 415.264 213.434 415.264C213.831 415.264 214.224 415.33 214.612 415.463C215 415.596 215.353 415.811 215.671 416.109C215.989 416.404 216.243 416.795 216.431 417.283C216.62 417.77 216.715 418.37 216.715 419.082V419.58H210.828V418.565H215.522C215.522 418.134 215.435 417.75 215.263 417.412C215.094 417.074 214.852 416.807 214.537 416.612C214.226 416.416 213.858 416.318 213.434 416.318C212.966 416.318 212.562 416.434 212.221 416.666C211.882 416.895 211.622 417.193 211.44 417.561C211.258 417.929 211.167 418.323 211.167 418.744V419.42C211.167 419.997 211.266 420.486 211.465 420.887C211.667 421.285 211.947 421.588 212.305 421.797C212.663 422.002 213.079 422.105 213.553 422.105C213.861 422.105 214.14 422.062 214.388 421.976C214.64 421.886 214.857 421.754 215.039 421.578C215.222 421.399 215.363 421.177 215.462 420.912L216.596 421.23C216.476 421.615 216.276 421.953 215.994 422.244C215.712 422.533 215.364 422.758 214.95 422.92C214.536 423.08 214.07 423.159 213.553 423.159ZM218.5 423V415.364H219.633V416.517H219.713C219.852 416.139 220.104 415.833 220.468 415.597C220.833 415.362 221.244 415.244 221.701 415.244C221.788 415.244 221.895 415.246 222.025 415.249C222.154 415.253 222.252 415.258 222.318 415.264V416.457C222.278 416.447 222.187 416.433 222.044 416.413C221.905 416.389 221.758 416.378 221.602 416.378C221.231 416.378 220.899 416.456 220.608 416.612C220.319 416.764 220.091 416.976 219.922 417.248C219.756 417.516 219.673 417.823 219.673 418.168V423H218.5ZM224.697 425.864C224.498 425.864 224.321 425.847 224.165 425.814C224.009 425.784 223.901 425.754 223.842 425.724L224.14 424.69C224.425 424.763 224.677 424.79 224.896 424.77C225.114 424.75 225.308 424.652 225.477 424.477C225.65 424.304 225.807 424.024 225.95 423.636L226.168 423.04L223.344 415.364H224.617L226.725 421.449H226.805L228.913 415.364H230.185L226.944 424.114C226.798 424.508 226.617 424.835 226.402 425.093C226.187 425.355 225.936 425.549 225.651 425.675C225.37 425.801 225.051 425.864 224.697 425.864ZM235.274 413.912V412.818H242.91V413.912H239.708V423H238.475V413.912H235.274ZM244.654 423V415.364H245.827V423H244.654ZM245.251 414.091C245.022 414.091 244.825 414.013 244.659 413.857C244.497 413.701 244.415 413.514 244.415 413.295C244.415 413.077 244.497 412.889 244.659 412.734C244.825 412.578 245.022 412.5 245.251 412.5C245.479 412.5 245.675 412.578 245.837 412.734C246.003 412.889 246.086 413.077 246.086 413.295C246.086 413.514 246.003 413.701 245.837 413.857C245.675 414.013 245.479 414.091 245.251 414.091ZM247.976 423V415.364H249.11V416.557H249.209C249.368 416.149 249.625 415.833 249.98 415.607C250.334 415.379 250.76 415.264 251.257 415.264C251.761 415.264 252.181 415.379 252.515 415.607C252.853 415.833 253.117 416.149 253.306 416.557H253.385C253.581 416.162 253.874 415.849 254.265 415.617C254.656 415.382 255.125 415.264 255.672 415.264C256.355 415.264 256.913 415.478 257.348 415.906C257.782 416.33 257.999 416.991 257.999 417.889V423H256.826V417.889C256.826 417.326 256.672 416.923 256.363 416.681C256.055 416.439 255.692 416.318 255.275 416.318C254.738 416.318 254.322 416.481 254.027 416.805C253.732 417.127 253.584 417.535 253.584 418.028V423H252.391V417.77C252.391 417.336 252.25 416.986 251.968 416.721C251.687 416.452 251.324 416.318 250.88 416.318C250.575 416.318 250.29 416.399 250.025 416.562C249.763 416.724 249.551 416.95 249.388 417.238C249.229 417.523 249.15 417.853 249.15 418.227V423H247.976ZM263.346 423.159C262.61 423.159 261.975 422.997 261.442 422.672C260.911 422.344 260.502 421.886 260.214 421.3C259.929 420.71 259.786 420.024 259.786 419.241C259.786 418.459 259.929 417.77 260.214 417.173C260.502 416.573 260.903 416.106 261.417 415.771C261.934 415.433 262.537 415.264 263.227 415.264C263.624 415.264 264.017 415.33 264.405 415.463C264.793 415.596 265.146 415.811 265.464 416.109C265.782 416.404 266.036 416.795 266.224 417.283C266.413 417.77 266.508 418.37 266.508 419.082V419.58H260.621V418.565H265.315C265.315 418.134 265.228 417.75 265.056 417.412C264.887 417.074 264.645 416.807 264.33 416.612C264.019 416.416 263.651 416.318 263.227 416.318C262.759 416.318 262.355 416.434 262.013 416.666C261.675 416.895 261.415 417.193 261.233 417.561C261.051 417.929 260.96 418.323 260.96 418.744V419.42C260.96 419.997 261.059 420.486 261.258 420.887C261.46 421.285 261.74 421.588 262.098 421.797C262.456 422.002 262.872 422.105 263.346 422.105C263.654 422.105 263.933 422.062 264.181 421.976C264.433 421.886 264.65 421.754 264.832 421.578C265.015 421.399 265.156 421.177 265.255 420.912L266.388 421.23C266.269 421.615 266.069 421.953 265.787 422.244C265.505 422.533 265.157 422.758 264.743 422.92C264.329 423.08 263.863 423.159 263.346 423.159ZM273.702 417.074L272.648 417.372C272.581 417.196 272.484 417.026 272.354 416.86C272.228 416.691 272.056 416.552 271.837 416.442C271.619 416.333 271.339 416.278 270.997 416.278C270.53 416.278 270.14 416.386 269.829 416.602C269.521 416.814 269.366 417.084 269.366 417.412C269.366 417.704 269.473 417.934 269.685 418.103C269.897 418.272 270.228 418.413 270.679 418.526L271.812 418.804C272.495 418.97 273.004 419.223 273.339 419.565C273.674 419.903 273.841 420.339 273.841 420.872C273.841 421.31 273.715 421.701 273.463 422.045C273.214 422.39 272.866 422.662 272.419 422.861C271.972 423.06 271.451 423.159 270.858 423.159C270.079 423.159 269.434 422.99 268.924 422.652C268.414 422.314 268.09 421.82 267.955 421.17L269.068 420.892C269.174 421.303 269.375 421.611 269.67 421.817C269.968 422.022 270.357 422.125 270.838 422.125C271.385 422.125 271.819 422.009 272.141 421.777C272.465 421.542 272.628 421.26 272.628 420.932C272.628 420.667 272.535 420.445 272.349 420.266C272.164 420.083 271.879 419.947 271.494 419.858L270.222 419.56C269.522 419.394 269.009 419.137 268.68 418.789C268.356 418.438 268.193 417.999 268.193 417.472C268.193 417.041 268.314 416.66 268.556 416.328C268.801 415.997 269.134 415.737 269.555 415.548C269.98 415.359 270.46 415.264 270.997 415.264C271.753 415.264 272.346 415.43 272.777 415.761C273.211 416.093 273.519 416.53 273.702 417.074ZM278.928 415.364V416.358H274.971V415.364H278.928ZM276.124 413.534H277.297V420.812C277.297 421.144 277.345 421.393 277.442 421.558C277.541 421.721 277.667 421.83 277.819 421.886C277.975 421.939 278.139 421.966 278.312 421.966C278.441 421.966 278.547 421.959 278.63 421.946C278.713 421.929 278.779 421.916 278.829 421.906L279.067 422.96C278.988 422.99 278.877 423.02 278.734 423.05C278.592 423.083 278.411 423.099 278.192 423.099C277.861 423.099 277.536 423.028 277.218 422.886C276.903 422.743 276.641 422.526 276.432 422.234C276.227 421.943 276.124 421.575 276.124 421.131V413.534ZM282.94 423.179C282.456 423.179 282.017 423.088 281.623 422.906C281.228 422.72 280.915 422.453 280.683 422.105C280.451 421.754 280.335 421.33 280.335 420.832C280.335 420.395 280.421 420.04 280.594 419.768C280.766 419.493 280.996 419.278 281.285 419.122C281.573 418.966 281.891 418.85 282.239 418.774C282.59 418.695 282.943 418.632 283.298 418.585C283.762 418.526 284.138 418.481 284.427 418.451C284.718 418.418 284.93 418.363 285.063 418.287C285.199 418.211 285.267 418.078 285.267 417.889V417.849C285.267 417.359 285.133 416.978 284.864 416.706C284.599 416.434 284.196 416.298 283.656 416.298C283.096 416.298 282.657 416.421 282.339 416.666C282.02 416.911 281.797 417.173 281.667 417.452L280.554 417.054C280.753 416.59 281.018 416.229 281.349 415.97C281.684 415.708 282.049 415.526 282.443 415.423C282.841 415.317 283.232 415.264 283.616 415.264C283.862 415.264 284.143 415.294 284.461 415.354C284.783 415.41 285.093 415.528 285.391 415.707C285.693 415.886 285.943 416.156 286.142 416.517C286.341 416.878 286.44 417.362 286.44 417.969V423H285.267V421.966H285.207C285.128 422.132 284.995 422.309 284.809 422.498C284.624 422.687 284.377 422.848 284.069 422.98C283.76 423.113 283.384 423.179 282.94 423.179ZM283.119 422.125C283.583 422.125 283.974 422.034 284.292 421.852C284.614 421.669 284.856 421.434 285.018 421.146C285.184 420.857 285.267 420.554 285.267 420.236V419.162C285.217 419.222 285.108 419.276 284.939 419.326C284.773 419.372 284.581 419.414 284.362 419.45C284.147 419.483 283.936 419.513 283.731 419.54C283.528 419.563 283.364 419.583 283.238 419.599C282.934 419.639 282.648 419.704 282.383 419.793C282.122 419.879 281.909 420.01 281.747 420.186C281.588 420.358 281.508 420.594 281.508 420.892C281.508 421.3 281.659 421.608 281.961 421.817C282.266 422.022 282.652 422.125 283.119 422.125ZM288.582 423V415.364H289.715V416.557H289.815C289.974 416.149 290.231 415.833 290.585 415.607C290.94 415.379 291.366 415.264 291.863 415.264C292.367 415.264 292.786 415.379 293.121 415.607C293.459 415.833 293.722 416.149 293.911 416.557H293.991C294.186 416.162 294.48 415.849 294.871 415.617C295.262 415.382 295.731 415.264 296.278 415.264C296.96 415.264 297.519 415.478 297.953 415.906C298.387 416.33 298.604 416.991 298.604 417.889V423H297.431V417.889C297.431 417.326 297.277 416.923 296.969 416.681C296.661 416.439 296.298 416.318 295.88 416.318C295.343 416.318 294.927 416.481 294.632 416.805C294.337 417.127 294.19 417.535 294.19 418.028V423H292.996V417.77C292.996 417.336 292.856 416.986 292.574 416.721C292.292 416.452 291.929 416.318 291.485 416.318C291.18 416.318 290.895 416.399 290.63 416.562C290.368 416.724 290.156 416.95 289.994 417.238C289.835 417.523 289.755 417.853 289.755 418.227V423H288.582ZM300.75 425.864V415.364H301.883V416.577H302.022C302.109 416.444 302.228 416.275 302.38 416.07C302.536 415.861 302.758 415.675 303.047 415.513C303.338 415.347 303.733 415.264 304.23 415.264C304.873 415.264 305.44 415.425 305.93 415.746C306.421 416.068 306.803 416.524 307.078 417.114C307.354 417.704 307.491 418.4 307.491 419.202C307.491 420.01 307.354 420.711 307.078 421.305C306.803 421.895 306.422 422.352 305.935 422.677C305.448 422.998 304.886 423.159 304.25 423.159C303.759 423.159 303.366 423.078 303.071 422.915C302.776 422.75 302.549 422.562 302.39 422.354C302.231 422.142 302.109 421.966 302.022 421.827H301.923V425.864H300.75ZM301.903 419.182C301.903 419.759 301.988 420.267 302.157 420.708C302.326 421.146 302.573 421.489 302.897 421.737C303.222 421.982 303.62 422.105 304.091 422.105C304.581 422.105 304.99 421.976 305.319 421.717C305.65 421.455 305.899 421.104 306.064 420.663C306.233 420.219 306.318 419.725 306.318 419.182C306.318 418.645 306.235 418.161 306.069 417.73C305.907 417.296 305.66 416.953 305.328 416.701C305 416.446 304.588 416.318 304.091 416.318C303.613 416.318 303.212 416.439 302.887 416.681C302.563 416.92 302.317 417.254 302.152 417.685C301.986 418.113 301.903 418.612 301.903 419.182ZM314.69 417.074L313.636 417.372C313.57 417.196 313.472 417.026 313.343 416.86C313.217 416.691 313.044 416.552 312.826 416.442C312.607 416.333 312.327 416.278 311.985 416.278C311.518 416.278 311.129 416.386 310.817 416.602C310.509 416.814 310.355 417.084 310.355 417.412C310.355 417.704 310.461 417.934 310.673 418.103C310.885 418.272 311.217 418.413 311.667 418.526L312.801 418.804C313.484 418.97 313.992 419.223 314.327 419.565C314.662 419.903 314.829 420.339 314.829 420.872C314.829 421.31 314.703 421.701 314.451 422.045C314.203 422.39 313.855 422.662 313.407 422.861C312.96 423.06 312.44 423.159 311.846 423.159C311.067 423.159 310.423 422.99 309.912 422.652C309.402 422.314 309.079 421.82 308.943 421.17L310.056 420.892C310.163 421.303 310.363 421.611 310.658 421.817C310.956 422.022 311.346 422.125 311.826 422.125C312.373 422.125 312.807 422.009 313.129 421.777C313.454 421.542 313.616 421.26 313.616 420.932C313.616 420.667 313.523 420.445 313.338 420.266C313.152 420.083 312.867 419.947 312.483 419.858L311.21 419.56C310.511 419.394 309.997 419.137 309.669 418.789C309.344 418.438 309.181 417.999 309.181 417.472C309.181 417.041 309.302 416.66 309.544 416.328C309.79 415.997 310.123 415.737 310.544 415.548C310.968 415.359 311.449 415.264 311.985 415.264C312.741 415.264 313.334 415.43 313.765 415.761C314.199 416.093 314.508 416.53 314.69 417.074Z" fill="black"/>
<path d="M253.5 360C253.5 360.276 253.724 360.5 254 360.5C254.276 360.5 254.5 360.276 254.5 360H253.5ZM254 340L251.113 345H256.887L254 340ZM254.5 360V344.5H253.5V360H254.5Z" fill="black"/>
<path d="M258.5 72C258.5 71.7239 258.276 71.5 258 71.5C257.724 71.5 257.5 71.7239 257.5 72H258.5ZM258 92L260.887 87H255.113L258 92ZM257.5 72V87.5H258.5V72H257.5Z" fill="black"/>
<path d="M258.5 20C258.5 19.7239 258.276 19.5 258 19.5C257.724 19.5 257.5 19.7239 257.5 20H258.5ZM258 40L260.887 35H255.113L258 40ZM257.5 20V35.5H258.5V20H257.5Z" fill="black"/>
<path d="M190 373.5C189.724 373.5 189.5 373.724 189.5 374C189.5 374.276 189.724 374.5 190 374.5V373.5ZM240 374L235 371.113V376.887L240 374ZM190 374.5H235.5V373.5H190V374.5Z" fill="black"/>
<path d="M346 215.5C345.724 215.5 345.5 215.724 345.5 216C345.5 216.276 345.724 216.5 346 216.5V215.5ZM396 216L391 213.113V218.887L396 216ZM346 216.5H391.5V215.5H346V216.5Z" fill="black"/>
<path d="M253.5 408C253.5 408.276 253.724 408.5 254 408.5C254.276 408.5 254.5 408.276 254.5 408H253.5ZM254 388L251.113 393H256.887L254 388ZM254.5 408V392.5H253.5V408H254.5Z" fill="black"/>
<path d="M170.667 56C170.667 54.5272 169.473 53.3333 168 53.3333C166.527 53.3333 165.333 54.5272 165.333 56C165.333 57.4728 166.527 58.6667 168 58.6667C169.473 58.6667 170.667 57.4728 170.667 56ZM111.667 56C111.667 54.5272 110.473 53.3333 109 53.3333C107.527 53.3333 106.333 54.5272 106.333 56C106.333 57.4728 107.527 58.6667 109 58.6667C110.473 58.6667 111.667 57.4728 111.667 56ZM168 55.5H166.958V56.5H168V55.5ZM164.874 55.5H162.791V56.5H164.874V55.5ZM160.707 55.5H158.623V56.5H160.707V55.5ZM156.539 55.5H154.456V56.5H156.539V55.5ZM152.372 55.5H150.288V56.5H152.372V55.5ZM148.204 55.5H146.12V56.5H148.204V55.5ZM144.037 55.5H141.953V56.5H144.037V55.5ZM139.869 55.5L137.785 55.5V56.5L139.869 56.5V55.5ZM135.702 55.5H134.66V56.5H135.702V55.5ZM134.66 55.5H133.591V56.5H134.66V55.5ZM131.452 55.5H129.314V56.5H131.452V55.5ZM127.176 55.5H125.037V56.5H127.176V55.5ZM122.899 55.5H120.761V56.5H122.899V55.5ZM118.622 55.5H116.484V56.5H118.622V55.5ZM114.346 55.5H112.207V56.5H114.346V55.5ZM110.069 55.5H109V56.5H110.069V55.5Z" fill="black"/>
<path d="M253.482 377.354V371.26H254.516V377.354H253.482ZM250.953 374.824V373.79H257.046V374.824H250.953Z" fill="black"/>
<circle cx="254" cy="374" r="10.5" stroke="black"/>
<path d="M45.6667 374C45.6667 372.527 44.4728 371.333 43 371.333C41.5272 371.333 40.3333 372.527 40.3333 374C40.3333 375.473 41.5272 376.667 43 376.667C44.4728 376.667 45.6667 375.473 45.6667 374ZM5.66667 374C5.66667 372.527 4.47276 371.333 3 371.333C1.52724 371.333 0.333333 372.527 0.333333 374C0.333333 375.473 1.52724 376.667 3 376.667C4.47276 376.667 5.66667 375.473 5.66667 374ZM43 373.5H42.0582V374.5H43V373.5ZM40.1746 373.5H38.2909V374.5H40.1746V373.5ZM36.4073 373.5H34.5237V374.5H36.4073V373.5ZM32.64 373.5H30.7564V374.5H32.64V373.5ZM28.8728 373.5H26.9892V374.5H28.8728V373.5ZM25.1055 373.5H23.2219V374.5H25.1055V373.5ZM21.3383 373.5H20.3964V374.5H21.3383V373.5ZM20.3964 373.5H19.3092V374.5H20.3964V373.5ZM17.1346 373.5H14.9601V374.5H17.1346V373.5ZM12.7855 373.5H10.6109V374.5H12.7855V373.5ZM8.43639 373.5H6.26183V374.5H8.43639V373.5ZM4.08728 373.5H3V374.5H4.08728V373.5Z" fill="black"/>
</svg>
